<?xml version="1.0" encoding="utf-8"?>
<svg version="1.1" xmlns:xlink="http://www.w3.org/1999/xlink" width="28px" height="28px" xmlns="http://www.w3.org/2000/svg">
  <defs>
    <pattern id="BGPattern" patternUnits="userSpaceOnUse" alignment="0 0" imageRepeat="None" />
    <mask fill="white" id="Clip58">
      <path d="M 16.8 0.17500000000000002  L 16.8 2.1000000000000005  C 22.05 3.325  26.074999999999996 8.225  26.074999999999996 13.825000000000001  C 26.074999999999996 20.474999999999998  20.65 25.900000000000002  13.999999999999996 25.900000000000002  C 7.349999999999996 25.900000000000002  1.9249999999999963 20.475  1.9249999999999963 13.825000000000001  C 1.9249999999999963 8.225  5.774999999999997 3.3250000000000006  11.199999999999996 2.1000000000000005  L 11.200000000000001 0.17500000000000002  C 4.7250000000000005 1.575  0 7.174999999999999  0 14  C 0 21.7  6.3 28  14 28  C 21.7 28  28 21.7  28 14  C 28 7.174999999999999  23.275000000000002 1.575  16.8 0.17500000000000002  Z M 13.125 0  L 15 0  L 15 14  L 13.125 14  L 13.125 0  Z " fill-rule="evenodd" />
    </mask>
  </defs>
  <g transform="matrix(1 0 0 1 -73 -520 )">
    <path d="M 16.8 0.17500000000000002  L 16.8 2.1000000000000005  C 22.05 3.325  26.074999999999996 8.225  26.074999999999996 13.825000000000001  C 26.074999999999996 20.474999999999998  20.65 25.900000000000002  13.999999999999996 25.900000000000002  C 7.349999999999996 25.900000000000002  1.9249999999999963 20.475  1.9249999999999963 13.825000000000001  C 1.9249999999999963 8.225  5.774999999999997 3.3250000000000006  11.199999999999996 2.1000000000000005  L 11.200000000000001 0.17500000000000002  C 4.7250000000000005 1.575  0 7.174999999999999  0 14  C 0 21.7  6.3 28  14 28  C 21.7 28  28 21.7  28 14  C 28 7.174999999999999  23.275000000000002 1.575  16.8 0.17500000000000002  Z M 13.125 0  L 15 0  L 15 14  L 13.125 14  L 13.125 0  Z " fill-rule="nonzero" fill="rgba(227, 77, 89, 1)" stroke="none" transform="matrix(1 0 0 1 73 520 )" class="fill" />
    <path d="M 16.8 0.17500000000000002  L 16.8 2.1000000000000005  C 22.05 3.325  26.074999999999996 8.225  26.074999999999996 13.825000000000001  C 26.074999999999996 20.474999999999998  20.65 25.900000000000002  13.999999999999996 25.900000000000002  C 7.349999999999996 25.900000000000002  1.9249999999999963 20.475  1.9249999999999963 13.825000000000001  C 1.9249999999999963 8.225  5.774999999999997 3.3250000000000006  11.199999999999996 2.1000000000000005  L 11.200000000000001 0.17500000000000002  C 4.7250000000000005 1.575  0 7.174999999999999  0 14  C 0 21.7  6.3 28  14 28  C 21.7 28  28 21.7  28 14  C 28 7.174999999999999  23.275000000000002 1.575  16.8 0.17500000000000002  Z " stroke-width="0" stroke-dasharray="0" stroke="rgba(255, 255, 255, 0)" fill="none" transform="matrix(1 0 0 1 73 520 )" class="stroke" mask="url(#Clip58)" />
    <path d="M 13.125 0  L 15 0  L 15 14  L 13.125 14  L 13.125 0  Z " stroke-width="0" stroke-dasharray="0" stroke="rgba(255, 255, 255, 0)" fill="none" transform="matrix(1 0 0 1 73 520 )" class="stroke" mask="url(#Clip58)" />
  </g>
</svg>