<?xml version="1.0" encoding="utf-8"?>
<svg version="1.1" xmlns:xlink="http://www.w3.org/1999/xlink" width="18px" height="18px" xmlns="http://www.w3.org/2000/svg">
  <defs>
    <pattern id="BGPattern" patternUnits="userSpaceOnUse" alignment="0 0" imageRepeat="None" />
    <mask fill="white" id="Clip72">
      <path d="M 11.620953090000002 12.68161155000007  C 10.395345210000002 13.674093299999981  8.834280974999999 14.26863105000001  7.13435412 14.26863105000001  C 3.1941590250000003 14.26863105000001  0 11.074489109999945  0 7.134315495000067  C 0 3.194141865000006  3.1941590250000003 0  7.13435412 0  C 11.074549200000002 0  14.2687083 3.194141865000006  14.2687083 7.134315495000067  C 14.2687083 8.834265945000027  13.67414475 10.395349500000066  12.681622950000001 11.620960949999983  L 17.96977335 16.909083299999963  L 16.9091163 17.969747549999965  L 11.620953090000002 12.68161155000007  Z M 1.5 7.134315495000067  C 1.5 10.246054170000036  4.022578589999999 12.76863105000001  7.13435412 12.76863105000001  C 10.246129275 12.76863105000001  12.768708299999998 10.246054170000036  12.768708299999998 7.134315495000067  C 12.768708299999998 4.02257644499997  10.246129275 1.5  7.13435412 1.5  C 4.022578589999999 1.5  1.5 4.02257644499997  1.5 7.134315495000067  Z " fill-rule="evenodd" />
    </mask>
  </defs>
  <g transform="matrix(1 0 0 1 -350 -13 )">
    <path d="M 11.620953090000002 12.68161155000007  C 10.395345210000002 13.674093299999981  8.834280974999999 14.26863105000001  7.13435412 14.26863105000001  C 3.1941590250000003 14.26863105000001  0 11.074489109999945  0 7.134315495000067  C 0 3.194141865000006  3.1941590250000003 0  7.13435412 0  C 11.074549200000002 0  14.2687083 3.194141865000006  14.2687083 7.134315495000067  C 14.2687083 8.834265945000027  13.67414475 10.395349500000066  12.681622950000001 11.620960949999983  L 17.96977335 16.909083299999963  L 16.9091163 17.969747549999965  L 11.620953090000002 12.68161155000007  Z M 1.5 7.134315495000067  C 1.5 10.246054170000036  4.022578589999999 12.76863105000001  7.13435412 12.76863105000001  C 10.246129275 12.76863105000001  12.768708299999998 10.246054170000036  12.768708299999998 7.134315495000067  C 12.768708299999998 4.02257644499997  10.246129275 1.5  7.13435412 1.5  C 4.022578589999999 1.5  1.5 4.02257644499997  1.5 7.134315495000067  Z " fill-rule="nonzero" fill="rgba(127, 127, 127, 1)" stroke="none" transform="matrix(1 0 0 1 350 13 )" class="fill" />
    <path d="M 11.620953090000002 12.68161155000007  C 10.395345210000002 13.674093299999981  8.834280974999999 14.26863105000001  7.13435412 14.26863105000001  C 3.1941590250000003 14.26863105000001  0 11.074489109999945  0 7.134315495000067  C 0 3.194141865000006  3.1941590250000003 0  7.13435412 0  C 11.074549200000002 0  14.2687083 3.194141865000006  14.2687083 7.134315495000067  C 14.2687083 8.834265945000027  13.67414475 10.395349500000066  12.681622950000001 11.620960949999983  L 17.96977335 16.909083299999963  L 16.9091163 17.969747549999965  L 11.620953090000002 12.68161155000007  Z " stroke-width="0" stroke-dasharray="0" stroke="rgba(255, 255, 255, 0)" fill="none" transform="matrix(1 0 0 1 350 13 )" class="stroke" mask="url(#Clip72)" />
    <path d="M 1.5 7.134315495000067  C 1.5 10.246054170000036  4.022578589999999 12.76863105000001  7.13435412 12.76863105000001  C 10.246129275 12.76863105000001  12.768708299999998 10.246054170000036  12.768708299999998 7.134315495000067  C 12.768708299999998 4.02257644499997  10.246129275 1.5  7.13435412 1.5  C 4.022578589999999 1.5  1.5 4.02257644499997  1.5 7.134315495000067  Z " stroke-width="0" stroke-dasharray="0" stroke="rgba(255, 255, 255, 0)" fill="none" transform="matrix(1 0 0 1 350 13 )" class="stroke" mask="url(#Clip72)" />
  </g>
</svg>