<?xml version="1.0" encoding="utf-8"?>
<svg version="1.1" xmlns:xlink="http://www.w3.org/1999/xlink" width="28px" height="28px" xmlns="http://www.w3.org/2000/svg">
  <defs>
    <pattern id="BGPattern" patternUnits="userSpaceOnUse" alignment="0 0" imageRepeat="None" />
    <mask fill="white" id="Clip56">
      <path d="M 27.930455187499998 6.891841382075471  C 28.113220218750005 6.32955003773585  27.8444481875 5.721820933962265  27.32303040625 5.523031037735849  C 26.801612624999997 5.324241141509432  26.2264404375 5.613906424528302  26.04367546875 6.164838386792452  L 25.26961196875 8.459441721698111  C 24.3611624375 6.295471759433962  22.92591971875 4.392768509433961  21.09826978125 2.967160990566036  C 15.287418125000002 -1.5766079528301902  7.009239031250001 -0.3384309150943411  2.6551318749999986 5.738860056603771  C 0.5479590000000001 8.680950448113208  -0.3443641875000001 12.30460620754717  0.15017637500000003 15.939621382075474  C 0.6447169375000001 19.59167567924528  2.4777423125 22.823431353773586  5.2998488125 25.032839009433964  C 7.665042843749999 26.8787451509434  10.4333949375 27.776139504716983  13.180245249999999 27.776139504716983  C 17.19569965625 27.776139504716983  21.157399624999996 25.87343625471698  23.742986718749997 22.266819650943397  C 24.887955656249996 20.67082080660377  25.667394593749997 18.887391481132077  26.070552656249998 16.95628969339623  C 26.188812343749998 16.38263886792453  25.844784124999997 15.820347457547172  25.307240031249997 15.69539379245283  C 24.769695937499996 15.570440160377359  24.232151843749996 15.928261966981134  24.113892124999996 16.50191279245283  C 23.775239343749995 18.131989915094344  23.114060093749995 19.642793080188678  22.146480749999995 20.988884627358495  C 18.453552812499996 26.140382674528304  11.427851499999996 27.191129264150945  6.493196687499996 23.328925655660385  C 4.101125468749996 21.46030068396227  2.552998468749996 18.72835957075472  2.1337140624999957 15.63859668396227  C 1.7144296562499957 12.565872919811325  2.4669914062499956 9.504508603773589  4.251637812499996 7.016795080188685  C 7.939190312499999 1.8652970330188676  14.959516218750002 0.8088707358490568  19.8995464375 4.6710743443396225  C 21.68956828125 6.06828329245283  23.0280530625 8.005064820754718  23.75373759375 10.191753613207545  L 20.3080799375 8.771825801886791  C 19.79203759375 8.561676490566036  19.21148996875 8.828622910377359  19.00722321875 9.373875198113208  C 18.80295646875 9.919127485849057  19.060977625 10.532536297169809  19.577019968749998 10.748365316037734  L 24.651436218749996 12.84417875471698  C 24.769695906249996 12.895296155660377  24.893331062499996 12.918014985849055  25.016966218749996 12.918014985849055  C 25.033092531249995 12.918014985849055  25.049218874999998 12.912335278301885  25.065345187499997 12.912335278301885  C 25.102973281249998 12.918014985849055  25.140601374999996 12.935054108490565  25.178229437499997 12.935054108490565  C 25.592138406249997 12.935054108490565  25.979170124999996 12.662427981132074  26.124307031249998 12.230769910377358  L 27.930455187499998 6.891841382075471  Z " fill-rule="evenodd" />
    </mask>
  </defs>
  <g transform="matrix(1 0 0 1 -181 -520 )">
    <path d="M 27.930455187499998 6.891841382075471  C 28.113220218750005 6.32955003773585  27.8444481875 5.721820933962265  27.32303040625 5.523031037735849  C 26.801612624999997 5.324241141509432  26.2264404375 5.613906424528302  26.04367546875 6.164838386792452  L 25.26961196875 8.459441721698111  C 24.3611624375 6.295471759433962  22.92591971875 4.392768509433961  21.09826978125 2.967160990566036  C 15.287418125000002 -1.5766079528301902  7.009239031250001 -0.3384309150943411  2.6551318749999986 5.738860056603771  C 0.5479590000000001 8.680950448113208  -0.3443641875000001 12.30460620754717  0.15017637500000003 15.939621382075474  C 0.6447169375000001 19.59167567924528  2.4777423125 22.823431353773586  5.2998488125 25.032839009433964  C 7.665042843749999 26.8787451509434  10.4333949375 27.776139504716983  13.180245249999999 27.776139504716983  C 17.19569965625 27.776139504716983  21.157399624999996 25.87343625471698  23.742986718749997 22.266819650943397  C 24.887955656249996 20.67082080660377  25.667394593749997 18.887391481132077  26.070552656249998 16.95628969339623  C 26.188812343749998 16.38263886792453  25.844784124999997 15.820347457547172  25.307240031249997 15.69539379245283  C 24.769695937499996 15.570440160377359  24.232151843749996 15.928261966981134  24.113892124999996 16.50191279245283  C 23.775239343749995 18.131989915094344  23.114060093749995 19.642793080188678  22.146480749999995 20.988884627358495  C 18.453552812499996 26.140382674528304  11.427851499999996 27.191129264150945  6.493196687499996 23.328925655660385  C 4.101125468749996 21.46030068396227  2.552998468749996 18.72835957075472  2.1337140624999957 15.63859668396227  C 1.7144296562499957 12.565872919811325  2.4669914062499956 9.504508603773589  4.251637812499996 7.016795080188685  C 7.939190312499999 1.8652970330188676  14.959516218750002 0.8088707358490568  19.8995464375 4.6710743443396225  C 21.68956828125 6.06828329245283  23.0280530625 8.005064820754718  23.75373759375 10.191753613207545  L 20.3080799375 8.771825801886791  C 19.79203759375 8.561676490566036  19.21148996875 8.828622910377359  19.00722321875 9.373875198113208  C 18.80295646875 9.919127485849057  19.060977625 10.532536297169809  19.577019968749998 10.748365316037734  L 24.651436218749996 12.84417875471698  C 24.769695906249996 12.895296155660377  24.893331062499996 12.918014985849055  25.016966218749996 12.918014985849055  C 25.033092531249995 12.918014985849055  25.049218874999998 12.912335278301885  25.065345187499997 12.912335278301885  C 25.102973281249998 12.918014985849055  25.140601374999996 12.935054108490565  25.178229437499997 12.935054108490565  C 25.592138406249997 12.935054108490565  25.979170124999996 12.662427981132074  26.124307031249998 12.230769910377358  L 27.930455187499998 6.891841382075471  Z " fill-rule="nonzero" fill="rgba(0, 0, 0, 1)" stroke="none" transform="matrix(1 0 0 1 181 520 )" class="fill" />
    <path d="M 27.930455187499998 6.891841382075471  C 28.113220218750005 6.32955003773585  27.8444481875 5.721820933962265  27.32303040625 5.523031037735849  C 26.801612624999997 5.324241141509432  26.2264404375 5.613906424528302  26.04367546875 6.164838386792452  L 25.26961196875 8.459441721698111  C 24.3611624375 6.295471759433962  22.92591971875 4.392768509433961  21.09826978125 2.967160990566036  C 15.287418125000002 -1.5766079528301902  7.009239031250001 -0.3384309150943411  2.6551318749999986 5.738860056603771  C 0.5479590000000001 8.680950448113208  -0.3443641875000001 12.30460620754717  0.15017637500000003 15.939621382075474  C 0.6447169375000001 19.59167567924528  2.4777423125 22.823431353773586  5.2998488125 25.032839009433964  C 7.665042843749999 26.8787451509434  10.4333949375 27.776139504716983  13.180245249999999 27.776139504716983  C 17.19569965625 27.776139504716983  21.157399624999996 25.87343625471698  23.742986718749997 22.266819650943397  C 24.887955656249996 20.67082080660377  25.667394593749997 18.887391481132077  26.070552656249998 16.95628969339623  C 26.188812343749998 16.38263886792453  25.844784124999997 15.820347457547172  25.307240031249997 15.69539379245283  C 24.769695937499996 15.570440160377359  24.232151843749996 15.928261966981134  24.113892124999996 16.50191279245283  C 23.775239343749995 18.131989915094344  23.114060093749995 19.642793080188678  22.146480749999995 20.988884627358495  C 18.453552812499996 26.140382674528304  11.427851499999996 27.191129264150945  6.493196687499996 23.328925655660385  C 4.101125468749996 21.46030068396227  2.552998468749996 18.72835957075472  2.1337140624999957 15.63859668396227  C 1.7144296562499957 12.565872919811325  2.4669914062499956 9.504508603773589  4.251637812499996 7.016795080188685  C 7.939190312499999 1.8652970330188676  14.959516218750002 0.8088707358490568  19.8995464375 4.6710743443396225  C 21.68956828125 6.06828329245283  23.0280530625 8.005064820754718  23.75373759375 10.191753613207545  L 20.3080799375 8.771825801886791  C 19.79203759375 8.561676490566036  19.21148996875 8.828622910377359  19.00722321875 9.373875198113208  C 18.80295646875 9.919127485849057  19.060977625 10.532536297169809  19.577019968749998 10.748365316037734  L 24.651436218749996 12.84417875471698  C 24.769695906249996 12.895296155660377  24.893331062499996 12.918014985849055  25.016966218749996 12.918014985849055  C 25.033092531249995 12.918014985849055  25.049218874999998 12.912335278301885  25.065345187499997 12.912335278301885  C 25.102973281249998 12.918014985849055  25.140601374999996 12.935054108490565  25.178229437499997 12.935054108490565  C 25.592138406249997 12.935054108490565  25.979170124999996 12.662427981132074  26.124307031249998 12.230769910377358  L 27.930455187499998 6.891841382075471  Z " stroke-width="0" stroke-dasharray="0" stroke="rgba(255, 255, 255, 0)" fill="none" transform="matrix(1 0 0 1 181 520 )" class="stroke" mask="url(#Clip56)" />
  </g>
</svg>