<?xml version="1.0" encoding="utf-8"?>
<svg version="1.1" xmlns:xlink="http://www.w3.org/1999/xlink" width="34px" height="24px" xmlns="http://www.w3.org/2000/svg">
  <defs>
    <pattern id="BGPattern" patternUnits="userSpaceOnUse" alignment="0 0" imageRepeat="None" />
    <mask fill="white" id="Clip55">
      <path d="M 6.8774354100877195 1.8572929259259259  C 4.081952154239766 4.634505049382718  2.6842105263157894 7.987214370370372  2.6842105263157894 11.915420888888889  C 2.6842105263157894 15.842478123456793  4.081952154239766 19.194612802469138  6.8774354100877195 21.971824925925926  L 5.035470497807017 23.799165  C 1.7327166366959064 20.51742312345679  0.08133970614035113 16.556175086419756  0.08133970614035087 11.915420888888889  C 0.08133970614035113 7.273517407407406  1.7330058479532162 3.311407419753087  5.0363381315789475 0.029090925925926416  L 6.8774354100877195 1.8581548888888892  Z M 28.963661868421053 0.029090925925926416  C 32.266994152046784 3.3102581358024707  33.91866029385965 7.2720808024691355  33.918660293859645 11.914558925925924  C 33.91866029385965 16.5558877654321  32.266994152046784 20.51742312345679  28.96366186842105 23.799165  L 27.122564589912276 21.970962962962965  C 29.918047845760235 19.193750839506176  31.31578947368421 15.841616160493828  31.31578947368421 11.914558925925924  C 31.31578947368421 7.986927049382716  29.91804784576024 4.634505049382718  27.122564589912283 1.8572929259259259  L 28.964529502192985 0.029090925925926416  Z M 10.557894736842105 5.305966333333332  L 10.557894736842105 5.304242407407407  C 8.779266356725145 7.072395049382718  7.889952166666667 9.206015703703706  7.889952166666667 11.705104370370371  C 7.889952166666667 14.204767679012345  8.779266356725147 16.33810101234568  10.557894736842108 18.10510437037037  L 8.718532688596492 19.932444444444442  C 6.430898460526317 17.661485975308644  5.287081346491229 14.919326604938274  5.287081346491229 11.705966333333333  C 5.287081346491229 8.492606061728395  6.430609249269007 5.749872049382715  8.717665054824561 3.4777642962962956  L 10.557894736842105 5.305966333333332  Z M 23.44210526315789 5.304242407407405  L 25.281467311403507 3.4760404074074076  C 27.56910153947368 5.7481481604938285  28.71291865350877 8.490882160493829  28.71291865350877 11.704242407407408  C 28.71291865350877 14.917602679012344  27.569390750730992 17.660336691358022  25.282334945175435 19.932444444444442  L 23.44210526315789 18.104242407407405  C 25.22073364327485 16.336664407407405  26.110047833333336 14.203331074074072  26.11004783333333 11.704242407407405  C 26.110047833333336 9.204579098765432  25.22073364327485 7.0712457654320975  23.44210526315789 5.304242407407405  Z M 12.398992015350876 15.857131296296295  C 13.66919297002924 17.119604925925927  15.202862298245615 17.750841740740743  17 17.750841740740743  C 18.797137701754387 17.750841740740743  20.330807029970764 17.119892246913583  21.601007984649122 15.857993259259263  C 22.871787361842106 14.59551962962963  23.507177050438596 13.071586975308644  23.507177050438596 11.286195296296297  C 23.507177050438596 9.500803592592595  22.871787361842106 7.976870925925928  21.601007984649122 6.714397296296296  C 20.330807029970764 5.452498308641976  18.797137701754387 4.821548814814816  16.999999999999996 4.821548814814816  C 15.202862298245613 4.821548814814816  13.66919297002924 5.452498308641976  12.398992015350876 6.714397296296296  C 11.128212638157894 7.976870925925926  10.492822949561402 9.500803592592593  10.492822949561402 11.286195296296295  C 10.492822949561402 13.071012358024689  11.128212638157894 14.594657691358025  12.398992015350876 15.857131296296295  Z M 19.760778302631575 8.543461296296297  C 20.523130254385965 9.301405172839509  20.904306230263156 10.215649839506174  20.904306230263156 11.286195296296297  C 20.904306230263156 12.357890012345681  20.523130254385965 13.272422000000002  19.760778302631575 14.029791259259262  C 18.998426375730993 14.786585851851854  18.078166941520468 15.16498314814815  17 15.16498314814815  C 15.921833058479535 15.16498314814815  15.001573624269009 14.786298530864201  14.239221697368421 14.0289292962963  C 13.476869745614033 13.27213467901235  13.09569376973684 12.357890012345681  13.09569376973684 11.286195296296297  C 13.09569376973684 10.215075197530865  13.476869745614033 9.300830530864198  14.23922169736842 8.543461296296297  C 15.001573624269009 7.786092037037037  15.921833058479535 7.4074074074074066  17 7.4074074074074066  C 18.078166941520468 7.4074074074074066  18.998426375730993 7.786092037037037  19.760778302631575 8.543461296296297  Z " fill-rule="evenodd" />
    </mask>
  </defs>
  <g transform="matrix(1 0 0 1 -70 -522 )">
    <path d="M 6.8774354100877195 1.8572929259259259  C 4.081952154239766 4.634505049382718  2.6842105263157894 7.987214370370372  2.6842105263157894 11.915420888888889  C 2.6842105263157894 15.842478123456793  4.081952154239766 19.194612802469138  6.8774354100877195 21.971824925925926  L 5.035470497807017 23.799165  C 1.7327166366959064 20.51742312345679  0.08133970614035113 16.556175086419756  0.08133970614035087 11.915420888888889  C 0.08133970614035113 7.273517407407406  1.7330058479532162 3.311407419753087  5.0363381315789475 0.029090925925926416  L 6.8774354100877195 1.8581548888888892  Z M 28.963661868421053 0.029090925925926416  C 32.266994152046784 3.3102581358024707  33.91866029385965 7.2720808024691355  33.918660293859645 11.914558925925924  C 33.91866029385965 16.5558877654321  32.266994152046784 20.51742312345679  28.96366186842105 23.799165  L 27.122564589912276 21.970962962962965  C 29.918047845760235 19.193750839506176  31.31578947368421 15.841616160493828  31.31578947368421 11.914558925925924  C 31.31578947368421 7.986927049382716  29.91804784576024 4.634505049382718  27.122564589912283 1.8572929259259259  L 28.964529502192985 0.029090925925926416  Z M 10.557894736842105 5.305966333333332  L 10.557894736842105 5.304242407407407  C 8.779266356725145 7.072395049382718  7.889952166666667 9.206015703703706  7.889952166666667 11.705104370370371  C 7.889952166666667 14.204767679012345  8.779266356725147 16.33810101234568  10.557894736842108 18.10510437037037  L 8.718532688596492 19.932444444444442  C 6.430898460526317 17.661485975308644  5.287081346491229 14.919326604938274  5.287081346491229 11.705966333333333  C 5.287081346491229 8.492606061728395  6.430609249269007 5.749872049382715  8.717665054824561 3.4777642962962956  L 10.557894736842105 5.305966333333332  Z M 23.44210526315789 5.304242407407405  L 25.281467311403507 3.4760404074074076  C 27.56910153947368 5.7481481604938285  28.71291865350877 8.490882160493829  28.71291865350877 11.704242407407408  C 28.71291865350877 14.917602679012344  27.569390750730992 17.660336691358022  25.282334945175435 19.932444444444442  L 23.44210526315789 18.104242407407405  C 25.22073364327485 16.336664407407405  26.110047833333336 14.203331074074072  26.11004783333333 11.704242407407405  C 26.110047833333336 9.204579098765432  25.22073364327485 7.0712457654320975  23.44210526315789 5.304242407407405  Z M 12.398992015350876 15.857131296296295  C 13.66919297002924 17.119604925925927  15.202862298245615 17.750841740740743  17 17.750841740740743  C 18.797137701754387 17.750841740740743  20.330807029970764 17.119892246913583  21.601007984649122 15.857993259259263  C 22.871787361842106 14.59551962962963  23.507177050438596 13.071586975308644  23.507177050438596 11.286195296296297  C 23.507177050438596 9.500803592592595  22.871787361842106 7.976870925925928  21.601007984649122 6.714397296296296  C 20.330807029970764 5.452498308641976  18.797137701754387 4.821548814814816  16.999999999999996 4.821548814814816  C 15.202862298245613 4.821548814814816  13.66919297002924 5.452498308641976  12.398992015350876 6.714397296296296  C 11.128212638157894 7.976870925925926  10.492822949561402 9.500803592592593  10.492822949561402 11.286195296296295  C 10.492822949561402 13.071012358024689  11.128212638157894 14.594657691358025  12.398992015350876 15.857131296296295  Z M 19.760778302631575 8.543461296296297  C 20.523130254385965 9.301405172839509  20.904306230263156 10.215649839506174  20.904306230263156 11.286195296296297  C 20.904306230263156 12.357890012345681  20.523130254385965 13.272422000000002  19.760778302631575 14.029791259259262  C 18.998426375730993 14.786585851851854  18.078166941520468 15.16498314814815  17 15.16498314814815  C 15.921833058479535 15.16498314814815  15.001573624269009 14.786298530864201  14.239221697368421 14.0289292962963  C 13.476869745614033 13.27213467901235  13.09569376973684 12.357890012345681  13.09569376973684 11.286195296296297  C 13.09569376973684 10.215075197530865  13.476869745614033 9.300830530864198  14.23922169736842 8.543461296296297  C 15.001573624269009 7.786092037037037  15.921833058479535 7.4074074074074066  17 7.4074074074074066  C 18.078166941520468 7.4074074074074066  18.998426375730993 7.786092037037037  19.760778302631575 8.543461296296297  Z " fill-rule="nonzero" fill="rgba(51, 51, 51, 1)" stroke="none" transform="matrix(1 0 0 1 70 522 )" class="fill" />
    <path d="M 6.8774354100877195 1.8572929259259259  C 4.081952154239766 4.634505049382718  2.6842105263157894 7.987214370370372  2.6842105263157894 11.915420888888889  C 2.6842105263157894 15.842478123456793  4.081952154239766 19.194612802469138  6.8774354100877195 21.971824925925926  L 5.035470497807017 23.799165  C 1.7327166366959064 20.51742312345679  0.08133970614035113 16.556175086419756  0.08133970614035087 11.915420888888889  C 0.08133970614035113 7.273517407407406  1.7330058479532162 3.311407419753087  5.0363381315789475 0.029090925925926416  L 6.8774354100877195 1.8581548888888892  Z " stroke-width="0" stroke-dasharray="0" stroke="rgba(255, 255, 255, 0)" fill="none" transform="matrix(1 0 0 1 70 522 )" class="stroke" mask="url(#Clip55)" />
    <path d="M 28.963661868421053 0.029090925925926416  C 32.266994152046784 3.3102581358024707  33.91866029385965 7.2720808024691355  33.918660293859645 11.914558925925924  C 33.91866029385965 16.5558877654321  32.266994152046784 20.51742312345679  28.96366186842105 23.799165  L 27.122564589912276 21.970962962962965  C 29.918047845760235 19.193750839506176  31.31578947368421 15.841616160493828  31.31578947368421 11.914558925925924  C 31.31578947368421 7.986927049382716  29.91804784576024 4.634505049382718  27.122564589912283 1.8572929259259259  L 28.964529502192985 0.029090925925926416  Z " stroke-width="0" stroke-dasharray="0" stroke="rgba(255, 255, 255, 0)" fill="none" transform="matrix(1 0 0 1 70 522 )" class="stroke" mask="url(#Clip55)" />
    <path d="M 10.557894736842105 5.305966333333332  L 10.557894736842105 5.304242407407407  C 8.779266356725145 7.072395049382718  7.889952166666667 9.206015703703706  7.889952166666667 11.705104370370371  C 7.889952166666667 14.204767679012345  8.779266356725147 16.33810101234568  10.557894736842108 18.10510437037037  L 8.718532688596492 19.932444444444442  C 6.430898460526317 17.661485975308644  5.287081346491229 14.919326604938274  5.287081346491229 11.705966333333333  C 5.287081346491229 8.492606061728395  6.430609249269007 5.749872049382715  8.717665054824561 3.4777642962962956  L 10.557894736842105 5.305966333333332  Z " stroke-width="0" stroke-dasharray="0" stroke="rgba(255, 255, 255, 0)" fill="none" transform="matrix(1 0 0 1 70 522 )" class="stroke" mask="url(#Clip55)" />
    <path d="M 23.44210526315789 5.304242407407405  L 25.281467311403507 3.4760404074074076  C 27.56910153947368 5.7481481604938285  28.71291865350877 8.490882160493829  28.71291865350877 11.704242407407408  C 28.71291865350877 14.917602679012344  27.569390750730992 17.660336691358022  25.282334945175435 19.932444444444442  L 23.44210526315789 18.104242407407405  C 25.22073364327485 16.336664407407405  26.110047833333336 14.203331074074072  26.11004783333333 11.704242407407405  C 26.110047833333336 9.204579098765432  25.22073364327485 7.0712457654320975  23.44210526315789 5.304242407407405  Z " stroke-width="0" stroke-dasharray="0" stroke="rgba(255, 255, 255, 0)" fill="none" transform="matrix(1 0 0 1 70 522 )" class="stroke" mask="url(#Clip55)" />
    <path d="M 12.398992015350876 15.857131296296295  C 13.66919297002924 17.119604925925927  15.202862298245615 17.750841740740743  17 17.750841740740743  C 18.797137701754387 17.750841740740743  20.330807029970764 17.119892246913583  21.601007984649122 15.857993259259263  C 22.871787361842106 14.59551962962963  23.507177050438596 13.071586975308644  23.507177050438596 11.286195296296297  C 23.507177050438596 9.500803592592595  22.871787361842106 7.976870925925928  21.601007984649122 6.714397296296296  C 20.330807029970764 5.452498308641976  18.797137701754387 4.821548814814816  16.999999999999996 4.821548814814816  C 15.202862298245613 4.821548814814816  13.66919297002924 5.452498308641976  12.398992015350876 6.714397296296296  C 11.128212638157894 7.976870925925926  10.492822949561402 9.500803592592593  10.492822949561402 11.286195296296295  C 10.492822949561402 13.071012358024689  11.128212638157894 14.594657691358025  12.398992015350876 15.857131296296295  Z " stroke-width="0" stroke-dasharray="0" stroke="rgba(255, 255, 255, 0)" fill="none" transform="matrix(1 0 0 1 70 522 )" class="stroke" mask="url(#Clip55)" />
    <path d="M 19.760778302631575 8.543461296296297  C 20.523130254385965 9.301405172839509  20.904306230263156 10.215649839506174  20.904306230263156 11.286195296296297  C 20.904306230263156 12.357890012345681  20.523130254385965 13.272422000000002  19.760778302631575 14.029791259259262  C 18.998426375730993 14.786585851851854  18.078166941520468 15.16498314814815  17 15.16498314814815  C 15.921833058479535 15.16498314814815  15.001573624269009 14.786298530864201  14.239221697368421 14.0289292962963  C 13.476869745614033 13.27213467901235  13.09569376973684 12.357890012345681  13.09569376973684 11.286195296296297  C 13.09569376973684 10.215075197530865  13.476869745614033 9.300830530864198  14.23922169736842 8.543461296296297  C 15.001573624269009 7.786092037037037  15.921833058479535 7.4074074074074066  17 7.4074074074074066  C 18.078166941520468 7.4074074074074066  18.998426375730993 7.786092037037037  19.760778302631575 8.543461296296297  Z " stroke-width="0" stroke-dasharray="0" stroke="rgba(255, 255, 255, 0)" fill="none" transform="matrix(1 0 0 1 70 522 )" class="stroke" mask="url(#Clip55)" />
  </g>
</svg>