<?xml version="1.0" encoding="utf-8"?>
<svg version="1.1" xmlns:xlink="http://www.w3.org/1999/xlink" width="9px" height="9px" xmlns="http://www.w3.org/2000/svg">
  <defs>
    <pattern id="BGPattern" patternUnits="userSpaceOnUse" alignment="0 0" imageRepeat="None" />
    <mask fill="white" id="Clip17">
      <path d="M 7.857142857142857 5.142887142857148  L 1.154435840000003 5.142886571428578  L 3.331729342857151 7.200280857142859  L 2.939265931428573 7.6156158285714355  L 0.27116609714286305 5.094443182857146  C 0.07205635428571051 4.90629359428572  0.20517842857144128 4.571458000000007  0.4791717885714206 4.571458000000007  L 7.857142857142857 4.571458542857142  L 7.857142857142857 5.142887142857148  Z M 0.1429966514285752 2.8571728285714277  L 6.861854571428564 2.857173377142853  L 4.665163857142845 0.7149766857142887  L 5.064118519999998 0.3058733257142876  L 7.73338211428573 2.9089191999999975  C 7.9278575428571525 3.0985696000000025  7.793606914285712 3.428601948571424  7.521936685714276 3.428601948571424  L 0.1429966514285752 3.428601399999999  L 0.1429966514285752 2.8571728285714277  Z " fill-rule="evenodd" />
    </mask>
  </defs>
  <g transform="matrix(1 0 0 1 -82 -80 )">
    <path d="M 7.857142857142857 5.142887142857148  L 1.154435840000003 5.142886571428578  L 3.331729342857151 7.200280857142859  L 2.939265931428573 7.6156158285714355  L 0.27116609714286305 5.094443182857146  C 0.07205635428571051 4.90629359428572  0.20517842857144128 4.571458000000007  0.4791717885714206 4.571458000000007  L 7.857142857142857 4.571458542857142  L 7.857142857142857 5.142887142857148  Z M 0.1429966514285752 2.8571728285714277  L 6.861854571428564 2.857173377142853  L 4.665163857142845 0.7149766857142887  L 5.064118519999998 0.3058733257142876  L 7.73338211428573 2.9089191999999975  C 7.9278575428571525 3.0985696000000025  7.793606914285712 3.428601948571424  7.521936685714276 3.428601948571424  L 0.1429966514285752 3.428601399999999  L 0.1429966514285752 2.8571728285714277  Z " fill-rule="nonzero" fill="rgba(0, 0, 0, 0.8980392156862745)" stroke="none" transform="matrix(1 0 0 1 82 80 )" class="fill" />
    <path d="M 7.857142857142857 5.142887142857148  L 1.154435840000003 5.142886571428578  L 3.331729342857151 7.200280857142859  L 2.939265931428573 7.6156158285714355  L 0.27116609714286305 5.094443182857146  C 0.07205635428571051 4.90629359428572  0.20517842857144128 4.571458000000007  0.4791717885714206 4.571458000000007  L 7.857142857142857 4.571458542857142  L 7.857142857142857 5.142887142857148  Z " stroke-width="0" stroke-dasharray="0" stroke="rgba(255, 255, 255, 0)" fill="none" transform="matrix(1 0 0 1 82 80 )" class="stroke" mask="url(#Clip17)" />
    <path d="M 0.1429966514285752 2.8571728285714277  L 6.861854571428564 2.857173377142853  L 4.665163857142845 0.7149766857142887  L 5.064118519999998 0.3058733257142876  L 7.73338211428573 2.9089191999999975  C 7.9278575428571525 3.0985696000000025  7.793606914285712 3.428601948571424  7.521936685714276 3.428601948571424  L 0.1429966514285752 3.428601399999999  L 0.1429966514285752 2.8571728285714277  Z " stroke-width="0" stroke-dasharray="0" stroke="rgba(255, 255, 255, 0)" fill="none" transform="matrix(1 0 0 1 82 80 )" class="stroke" mask="url(#Clip17)" />
    <path d="M 0.4673979600000036 4.886775971428571  L 0.27116609714286305 5.094443182857146  " stroke-width="0" stroke-dasharray="0" stroke="rgba(255, 255, 255, 0)" fill="none" transform="matrix(1 0 0 1 82 80 )" class="stroke" />
  </g>
</svg>