<?xml version="1.0" encoding="utf-8"?>
<svg version="1.1" xmlns:xlink="http://www.w3.org/1999/xlink" width="19px" height="20px" xmlns="http://www.w3.org/2000/svg">
  <defs>
    <pattern id="BGPattern" patternUnits="userSpaceOnUse" alignment="0 0" imageRepeat="None" />
    <mask fill="white" id="Clip1263">
      <path d="M 8.72972972972973 2.0689655172413794  C 8.72972972972973 2.449851551607444  9.036273504620357 2.7586206896551726  9.414414414414415 2.7586206896551726  C 9.792555324208472 2.7586206896551726  10.0990990990991 2.449851551607444  10.0990990990991 2.0689655172413794  L 10.0990990990991 0.6896551724137931  C 10.0990990990991 0.30876913804772865  9.792555324208472 0  9.414414414414415 0  C 9.036273504620357 0  8.72972972972973 0.30876913804772865  8.72972972972973 0.6896551724137931  L 8.72972972972973 2.0689655172413794  Z M 0.31290090090090145 4.221379310344827  L 1.2810450450450455 5.197241379310345  C 1.4086970404665666 5.3214268320984175  1.5792336854789957 5.3908357201879635  1.7567035708532748 5.3908357201879635  C 2.1348444806473315 5.3908357201879635  2.441388255537959 5.082066582140234  2.441388255537959 4.70118054777417  C 2.441388255537959 4.522422314774669  2.3724796116868974 4.350647654190461  2.249189189189189 4.222068965517241  L 1.2810450450450455 3.246206896551724  C 1.153393049623523 3.122021443763651  0.9828564046110949 3.052612555674106  0.8053865192368157 3.052612555674106  C 0.4272456094427588 3.052612555674106  0.1207018345521311 3.361381693721835  0.1207018345521311 3.7422677280878998  C 0.1207018345521311 3.9210259610874  0.189610478403193 4.092800621671606  0.31290090090090145 4.221379310344827  Z M 18.68230630630631 4.911034482758621  C 18.94959484066034 4.641724240354612  18.94959484066034 4.205172311369528  18.68230630630631 3.935862068965517  C 18.414937038622327 3.6666331459773356  17.981531429846143 3.6666331459773356  17.71416216216216 3.935862068965517  L 16.746018018018017 4.911034482758621  C 16.622727595520296 5.039613171431844  16.55381895166923 5.211387832016059  16.55381895166923 5.390146065015568  C 16.55381895166923 5.771032099381632  16.860362726559856 6.079801237429361  17.23850363635391 6.079801237429361  C 17.4159735217282 6.079801237429361  17.586510166740638 6.010392349339808  17.71416216216216 5.886206896551725  L 18.68230630630631 4.911034482758621  Z M 17.972972972972972 18.620689655172413  L 16.945945945945947 18.620689655172413  L 16.945945945945947 11.03448275862069  C 16.945945945945947 6.844827586206898  13.573873873873872 3.4482758620689657  9.414414414414415 3.4482758620689657  C 5.254954954954955 3.4482758620689657  1.882882882882883 6.844827586206898  1.882882882882883 11.03448275862069  L 1.882882882882883 18.620689655172413  L 0.8558558558558558 18.620689655172413  C 0.4777149460617992 18.620689655172413  0.17117117117117117 18.929458793220142  0.17117117117117117 19.310344827586206  C 0.17117117117117117 19.69123086195227  0.4777149460617992 20  0.8558558558558558 20  L 17.972972972972972 20  C 18.351113882767027 20  18.65765765765766 19.69123086195227  18.65765765765766 19.310344827586206  C 18.65765765765766 18.929458793220142  18.351113882767027 18.620689655172413  17.972972972972972 18.620689655172413  Z M 15.576576576576576 18.620689655172413  L 10.0990990990991 18.620689655172413  L 10.0990990990991 15.862068965517242  C 10.0990990990991 15.481182931151176  9.792555324208472 15.172413793103448  9.414414414414415 15.172413793103448  C 9.036273504620357 15.172413793103448  8.72972972972973 15.481182931151176  8.72972972972973 15.862068965517242  L 8.72972972972973 18.620689655172413  L 3.2522522522522523 18.620689655172413  L 3.2522522522522523 11.03448275862069  C 3.2522522522522523 7.606206896551724  6.010846846846847 4.827586206896552  9.414414414414415 4.827586206896552  C 12.817981981981983 4.827586206896552  15.576576576576576 7.606206896551724  15.576576576576576 11.03448275862069  L 15.576576576576576 18.620689655172413  Z M 9.414414414414415 8.96551724137931  C 7.901850775238188 8.96551724137931  6.675675675675676 10.200593793570224  6.675675675675676 11.724137931034482  C 6.675675675675676 13.24768206849874  7.901850775238188 14.482758620689655  9.414414414414415 14.482758620689655  C 10.926978053590641 14.482758620689655  12.153153153153154 13.24768206849874  12.153153153153154 11.724137931034482  C 12.153153153153154 10.200593793570224  10.926978053590641 8.96551724137931  9.414414414414415 8.96551724137931  Z M 9.414414414414415 13.103448275862068  C 8.658077213909438 13.103257866501485  8.045045002262949 12.485620978931811  8.045045002262949 11.723793103448275  C 8.045045002262949 10.961830567899536  8.658285843085848 10.344137887941807  9.414756756756757 10.344137887941807  C 10.171436299604078 10.344328340395064  10.784468511250568 10.961965227964736  10.784468511250568 11.723793103448275  C 10.784468511250568 12.485755638997013  10.171227670427669 13.103448318954742  9.414756756756757 13.103448318954742  Z " fill-rule="evenodd" />
    </mask>
  </defs>
  <g transform="matrix(1 0 0 1 -137 -6 )">
    <path d="M 8.72972972972973 2.0689655172413794  C 8.72972972972973 2.449851551607444  9.036273504620357 2.7586206896551726  9.414414414414415 2.7586206896551726  C 9.792555324208472 2.7586206896551726  10.0990990990991 2.449851551607444  10.0990990990991 2.0689655172413794  L 10.0990990990991 0.6896551724137931  C 10.0990990990991 0.30876913804772865  9.792555324208472 0  9.414414414414415 0  C 9.036273504620357 0  8.72972972972973 0.30876913804772865  8.72972972972973 0.6896551724137931  L 8.72972972972973 2.0689655172413794  Z M 0.31290090090090145 4.221379310344827  L 1.2810450450450455 5.197241379310345  C 1.4086970404665666 5.3214268320984175  1.5792336854789957 5.3908357201879635  1.7567035708532748 5.3908357201879635  C 2.1348444806473315 5.3908357201879635  2.441388255537959 5.082066582140234  2.441388255537959 4.70118054777417  C 2.441388255537959 4.522422314774669  2.3724796116868974 4.350647654190461  2.249189189189189 4.222068965517241  L 1.2810450450450455 3.246206896551724  C 1.153393049623523 3.122021443763651  0.9828564046110949 3.052612555674106  0.8053865192368157 3.052612555674106  C 0.4272456094427588 3.052612555674106  0.1207018345521311 3.361381693721835  0.1207018345521311 3.7422677280878998  C 0.1207018345521311 3.9210259610874  0.189610478403193 4.092800621671606  0.31290090090090145 4.221379310344827  Z M 18.68230630630631 4.911034482758621  C 18.94959484066034 4.641724240354612  18.94959484066034 4.205172311369528  18.68230630630631 3.935862068965517  C 18.414937038622327 3.6666331459773356  17.981531429846143 3.6666331459773356  17.71416216216216 3.935862068965517  L 16.746018018018017 4.911034482758621  C 16.622727595520296 5.039613171431844  16.55381895166923 5.211387832016059  16.55381895166923 5.390146065015568  C 16.55381895166923 5.771032099381632  16.860362726559856 6.079801237429361  17.23850363635391 6.079801237429361  C 17.4159735217282 6.079801237429361  17.586510166740638 6.010392349339808  17.71416216216216 5.886206896551725  L 18.68230630630631 4.911034482758621  Z M 17.972972972972972 18.620689655172413  L 16.945945945945947 18.620689655172413  L 16.945945945945947 11.03448275862069  C 16.945945945945947 6.844827586206898  13.573873873873872 3.4482758620689657  9.414414414414415 3.4482758620689657  C 5.254954954954955 3.4482758620689657  1.882882882882883 6.844827586206898  1.882882882882883 11.03448275862069  L 1.882882882882883 18.620689655172413  L 0.8558558558558558 18.620689655172413  C 0.4777149460617992 18.620689655172413  0.17117117117117117 18.929458793220142  0.17117117117117117 19.310344827586206  C 0.17117117117117117 19.69123086195227  0.4777149460617992 20  0.8558558558558558 20  L 17.972972972972972 20  C 18.351113882767027 20  18.65765765765766 19.69123086195227  18.65765765765766 19.310344827586206  C 18.65765765765766 18.929458793220142  18.351113882767027 18.620689655172413  17.972972972972972 18.620689655172413  Z M 15.576576576576576 18.620689655172413  L 10.0990990990991 18.620689655172413  L 10.0990990990991 15.862068965517242  C 10.0990990990991 15.481182931151176  9.792555324208472 15.172413793103448  9.414414414414415 15.172413793103448  C 9.036273504620357 15.172413793103448  8.72972972972973 15.481182931151176  8.72972972972973 15.862068965517242  L 8.72972972972973 18.620689655172413  L 3.2522522522522523 18.620689655172413  L 3.2522522522522523 11.03448275862069  C 3.2522522522522523 7.606206896551724  6.010846846846847 4.827586206896552  9.414414414414415 4.827586206896552  C 12.817981981981983 4.827586206896552  15.576576576576576 7.606206896551724  15.576576576576576 11.03448275862069  L 15.576576576576576 18.620689655172413  Z M 9.414414414414415 8.96551724137931  C 7.901850775238188 8.96551724137931  6.675675675675676 10.200593793570224  6.675675675675676 11.724137931034482  C 6.675675675675676 13.24768206849874  7.901850775238188 14.482758620689655  9.414414414414415 14.482758620689655  C 10.926978053590641 14.482758620689655  12.153153153153154 13.24768206849874  12.153153153153154 11.724137931034482  C 12.153153153153154 10.200593793570224  10.926978053590641 8.96551724137931  9.414414414414415 8.96551724137931  Z M 9.414414414414415 13.103448275862068  C 8.658077213909438 13.103257866501485  8.045045002262949 12.485620978931811  8.045045002262949 11.723793103448275  C 8.045045002262949 10.961830567899536  8.658285843085848 10.344137887941807  9.414756756756757 10.344137887941807  C 10.171436299604078 10.344328340395064  10.784468511250568 10.961965227964736  10.784468511250568 11.723793103448275  C 10.784468511250568 12.485755638997013  10.171227670427669 13.103448318954742  9.414756756756757 13.103448318954742  Z " fill-rule="nonzero" fill="rgba(215, 215, 215, 1)" stroke="none" transform="matrix(1 0 0 1 137 6 )" class="fill" />
    <path d="M 8.72972972972973 2.0689655172413794  C 8.72972972972973 2.449851551607444  9.036273504620357 2.7586206896551726  9.414414414414415 2.7586206896551726  C 9.792555324208472 2.7586206896551726  10.0990990990991 2.449851551607444  10.0990990990991 2.0689655172413794  L 10.0990990990991 0.6896551724137931  C 10.0990990990991 0.30876913804772865  9.792555324208472 0  9.414414414414415 0  C 9.036273504620357 0  8.72972972972973 0.30876913804772865  8.72972972972973 0.6896551724137931  L 8.72972972972973 2.0689655172413794  Z " stroke-width="0" stroke-dasharray="0" stroke="rgba(255, 255, 255, 0)" fill="none" transform="matrix(1 0 0 1 137 6 )" class="stroke" mask="url(#Clip1263)" />
    <path d="M 0.31290090090090145 4.221379310344827  L 1.2810450450450455 5.197241379310345  C 1.4086970404665666 5.3214268320984175  1.5792336854789957 5.3908357201879635  1.7567035708532748 5.3908357201879635  C 2.1348444806473315 5.3908357201879635  2.441388255537959 5.082066582140234  2.441388255537959 4.70118054777417  C 2.441388255537959 4.522422314774669  2.3724796116868974 4.350647654190461  2.249189189189189 4.222068965517241  L 1.2810450450450455 3.246206896551724  C 1.153393049623523 3.122021443763651  0.9828564046110949 3.052612555674106  0.8053865192368157 3.052612555674106  C 0.4272456094427588 3.052612555674106  0.1207018345521311 3.361381693721835  0.1207018345521311 3.7422677280878998  C 0.1207018345521311 3.9210259610874  0.189610478403193 4.092800621671606  0.31290090090090145 4.221379310344827  Z " stroke-width="0" stroke-dasharray="0" stroke="rgba(255, 255, 255, 0)" fill="none" transform="matrix(1 0 0 1 137 6 )" class="stroke" mask="url(#Clip1263)" />
    <path d="M 18.68230630630631 4.911034482758621  C 18.94959484066034 4.641724240354612  18.94959484066034 4.205172311369528  18.68230630630631 3.935862068965517  C 18.414937038622327 3.6666331459773356  17.981531429846143 3.6666331459773356  17.71416216216216 3.935862068965517  L 16.746018018018017 4.911034482758621  C 16.622727595520296 5.039613171431844  16.55381895166923 5.211387832016059  16.55381895166923 5.390146065015568  C 16.55381895166923 5.771032099381632  16.860362726559856 6.079801237429361  17.23850363635391 6.079801237429361  C 17.4159735217282 6.079801237429361  17.586510166740638 6.010392349339808  17.71416216216216 5.886206896551725  L 18.68230630630631 4.911034482758621  Z " stroke-width="0" stroke-dasharray="0" stroke="rgba(255, 255, 255, 0)" fill="none" transform="matrix(1 0 0 1 137 6 )" class="stroke" mask="url(#Clip1263)" />
    <path d="M 17.972972972972972 18.620689655172413  L 16.945945945945947 18.620689655172413  L 16.945945945945947 11.03448275862069  C 16.945945945945947 6.844827586206898  13.573873873873872 3.4482758620689657  9.414414414414415 3.4482758620689657  C 5.254954954954955 3.4482758620689657  1.882882882882883 6.844827586206898  1.882882882882883 11.03448275862069  L 1.882882882882883 18.620689655172413  L 0.8558558558558558 18.620689655172413  C 0.4777149460617992 18.620689655172413  0.17117117117117117 18.929458793220142  0.17117117117117117 19.310344827586206  C 0.17117117117117117 19.69123086195227  0.4777149460617992 20  0.8558558558558558 20  L 17.972972972972972 20  C 18.351113882767027 20  18.65765765765766 19.69123086195227  18.65765765765766 19.310344827586206  C 18.65765765765766 18.929458793220142  18.351113882767027 18.620689655172413  17.972972972972972 18.620689655172413  Z " stroke-width="0" stroke-dasharray="0" stroke="rgba(255, 255, 255, 0)" fill="none" transform="matrix(1 0 0 1 137 6 )" class="stroke" mask="url(#Clip1263)" />
    <path d="M 15.576576576576576 18.620689655172413  L 10.0990990990991 18.620689655172413  L 10.0990990990991 15.862068965517242  C 10.0990990990991 15.481182931151176  9.792555324208472 15.172413793103448  9.414414414414415 15.172413793103448  C 9.036273504620357 15.172413793103448  8.72972972972973 15.481182931151176  8.72972972972973 15.862068965517242  L 8.72972972972973 18.620689655172413  L 3.2522522522522523 18.620689655172413  L 3.2522522522522523 11.03448275862069  C 3.2522522522522523 7.606206896551724  6.010846846846847 4.827586206896552  9.414414414414415 4.827586206896552  C 12.817981981981983 4.827586206896552  15.576576576576576 7.606206896551724  15.576576576576576 11.03448275862069  L 15.576576576576576 18.620689655172413  Z " stroke-width="0" stroke-dasharray="0" stroke="rgba(255, 255, 255, 0)" fill="none" transform="matrix(1 0 0 1 137 6 )" class="stroke" mask="url(#Clip1263)" />
    <path d="M 9.414414414414415 8.96551724137931  C 7.901850775238188 8.96551724137931  6.675675675675676 10.200593793570224  6.675675675675676 11.724137931034482  C 6.675675675675676 13.24768206849874  7.901850775238188 14.482758620689655  9.414414414414415 14.482758620689655  C 10.926978053590641 14.482758620689655  12.153153153153154 13.24768206849874  12.153153153153154 11.724137931034482  C 12.153153153153154 10.200593793570224  10.926978053590641 8.96551724137931  9.414414414414415 8.96551724137931  Z " stroke-width="0" stroke-dasharray="0" stroke="rgba(255, 255, 255, 0)" fill="none" transform="matrix(1 0 0 1 137 6 )" class="stroke" mask="url(#Clip1263)" />
    <path d="M 9.414414414414415 13.103448275862068  C 8.658077213909438 13.103257866501485  8.045045002262949 12.485620978931811  8.045045002262949 11.723793103448275  C 8.045045002262949 10.961830567899536  8.658285843085848 10.344137887941807  9.414756756756757 10.344137887941807  C 10.171436299604078 10.344328340395064  10.784468511250568 10.961965227964736  10.784468511250568 11.723793103448275  C 10.784468511250568 12.485755638997013  10.171227670427669 13.103448318954742  9.414756756756757 13.103448318954742  Z " stroke-width="0" stroke-dasharray="0" stroke="rgba(255, 255, 255, 0)" fill="none" transform="matrix(1 0 0 1 137 6 )" class="stroke" mask="url(#Clip1263)" />
  </g>
</svg>