<?xml version="1.0" encoding="utf-8"?>
<svg version="1.1" xmlns:xlink="http://www.w3.org/1999/xlink" width="17px" height="20px" xmlns="http://www.w3.org/2000/svg">
  <defs>
    <pattern id="BGPattern" patternUnits="userSpaceOnUse" alignment="0 0" imageRepeat="None" />
    <mask fill="white" id="Clip23">
      <path d="M 10.801120000000001 16.129333333333335  L 10.80044 16.128666666666668  C 10.458064836072452 16.08912263255441  10.20004547700866 15.804649886401203  10.2 15.466666666666669  L 10.2 13.784666666666672  C 10.19990996332257 13.570938176247509  10.304347542832899 13.370125283014431  10.480839999999999 13.244666666666669  C 11.604200000000002 12.447333333333336  12.58816 11.168000000000003  13.13148 9.72066666666667  C 13.201936227978967 9.532857300056936  13.354716964491328 9.386009225746704  13.54764 9.320666666666671  C 13.75504 9.250666666666671  14.005279999999999 8.816000000000004  14.23648 7.847333333333337  C 14.362279999999998 7.323333333333338  14.21472 6.994000000000005  13.88424 6.797333333333338  C 13.699656748565586 6.687467619440852  13.579270895503322 6.498181686953019  13.559879999999998 6.287333333333337  C 13.269519999999998 3.1106666666666682  11.43556 1.3333333333333344  8.547600000000001 1.3333333333333344  C 5.61 1.3333333333333344  3.7039599999999995 3.168000000000001  3.4333199999999997 6.384000000000002  C 3.4154084266073816 6.594451790090198  3.296848598157506 6.784137623258857  3.1137199999999994 6.895333333333334  C 2.7648799999999993 7.108666666666668  2.6404399999999995 7.3820000000000014  2.7689599999999994 7.812666666666668  C 3.0110399999999995 8.622666666666667  3.2755599999999987 9.07  3.55096 9.239333333333335  C 3.680394112286102 9.319143967822502  3.7786137921184824 9.439393791051048  3.82976 9.58066666666667  C 4.3628800000000005 11.049333333333337  5.364519999999999 12.36266666666667  6.5225599999999995 13.195333333333332  C 6.6969934677685625 13.320950714253968  6.800013426721547 13.520475144559871  6.799999999999999 13.732666666666669  L 6.799999999999999 15.466666666666669  C 6.799954522991342 15.804649886401199  6.541935163927544 16.08912263255441  6.199559999999998 16.128666666666664  C 3.540759999999998 16.435333333333332  1.681639999999998 17.262  1.3980799999999982 17.976  C 1.4470399999999983 17.998  1.5068799999999982 18.021333333333335  1.5762399999999985 18.044666666666668  C 1.9413999999999985 18.17  2.501039999999999 18.284666666666666  3.215039999999999 18.380000000000003  C 4.606999999999999 18.565333333333335  6.512359999999998 18.666666666666668  8.499999999999998 18.666666666666668  C 10.487639999999999 18.666666666666668  12.392999999999997 18.565333333333335  13.784959999999998 18.380000000000003  C 14.49896 18.284666666666666  15.0586 18.17  15.42376 18.044666666666668  C 15.4938 18.021333333333335  15.55296 17.998  15.601919999999998 17.976  C 15.318359999999998 17.262  13.45924 16.436  10.801120000000001 16.129333333333335  Z M 11.559999999999997 14.114666666666668  L 11.56 14.883333333333335  C 14.776399999999999 15.355333333333334  17 16.53266666666667  17 18.162  C 17 19.558000000000003  13.681600000000001 20  8.5 20  C 3.318399999999999 20  0 19.558000000000003  0 18.162  C 0 16.532666666666668  2.2235999999999994 15.355333333333334  5.44 14.883333333333335  L 5.44 14.060000000000002  C 4.2364 13.111333333333334  3.2177599999999997 11.748666666666669  2.62276 10.224  C 2.1141199999999998 9.82  1.7530400000000004 9.155333333333335  1.4640400000000002 8.186666666666667  C 1.19204 7.277333333333332  1.4654000000000003 6.492  2.1086800000000006 5.966  C 2.5384399999999996 2.2600000000000007  4.97964 0  8.547600000000001 0  C 12.0666 0  14.43368 2.202666666666668  14.881799999999998 5.863333333333335  C 15.5074 6.381333333333334  15.7896 7.194666666666668  15.561119999999997 8.152000000000001  C 15.278239999999997 9.334666666666667  14.905599999999998 10.079333333333334  14.307879999999997 10.436  C 13.703359999999998 11.907333333333337  12.71464 13.210666666666668  11.559999999999997 14.114666666666668  Z " fill-rule="evenodd" />
    </mask>
  </defs>
  <g transform="matrix(1 0 0 1 -357 -71 )">
    <path d="M 10.801120000000001 16.129333333333335  L 10.80044 16.128666666666668  C 10.458064836072452 16.08912263255441  10.20004547700866 15.804649886401203  10.2 15.466666666666669  L 10.2 13.784666666666672  C 10.19990996332257 13.570938176247509  10.304347542832899 13.370125283014431  10.480839999999999 13.244666666666669  C 11.604200000000002 12.447333333333336  12.58816 11.168000000000003  13.13148 9.72066666666667  C 13.201936227978967 9.532857300056936  13.354716964491328 9.386009225746704  13.54764 9.320666666666671  C 13.75504 9.250666666666671  14.005279999999999 8.816000000000004  14.23648 7.847333333333337  C 14.362279999999998 7.323333333333338  14.21472 6.994000000000005  13.88424 6.797333333333338  C 13.699656748565586 6.687467619440852  13.579270895503322 6.498181686953019  13.559879999999998 6.287333333333337  C 13.269519999999998 3.1106666666666682  11.43556 1.3333333333333344  8.547600000000001 1.3333333333333344  C 5.61 1.3333333333333344  3.7039599999999995 3.168000000000001  3.4333199999999997 6.384000000000002  C 3.4154084266073816 6.594451790090198  3.296848598157506 6.784137623258857  3.1137199999999994 6.895333333333334  C 2.7648799999999993 7.108666666666668  2.6404399999999995 7.3820000000000014  2.7689599999999994 7.812666666666668  C 3.0110399999999995 8.622666666666667  3.2755599999999987 9.07  3.55096 9.239333333333335  C 3.680394112286102 9.319143967822502  3.7786137921184824 9.439393791051048  3.82976 9.58066666666667  C 4.3628800000000005 11.049333333333337  5.364519999999999 12.36266666666667  6.5225599999999995 13.195333333333332  C 6.6969934677685625 13.320950714253968  6.800013426721547 13.520475144559871  6.799999999999999 13.732666666666669  L 6.799999999999999 15.466666666666669  C 6.799954522991342 15.804649886401199  6.541935163927544 16.08912263255441  6.199559999999998 16.128666666666664  C 3.540759999999998 16.435333333333332  1.681639999999998 17.262  1.3980799999999982 17.976  C 1.4470399999999983 17.998  1.5068799999999982 18.021333333333335  1.5762399999999985 18.044666666666668  C 1.9413999999999985 18.17  2.501039999999999 18.284666666666666  3.215039999999999 18.380000000000003  C 4.606999999999999 18.565333333333335  6.512359999999998 18.666666666666668  8.499999999999998 18.666666666666668  C 10.487639999999999 18.666666666666668  12.392999999999997 18.565333333333335  13.784959999999998 18.380000000000003  C 14.49896 18.284666666666666  15.0586 18.17  15.42376 18.044666666666668  C 15.4938 18.021333333333335  15.55296 17.998  15.601919999999998 17.976  C 15.318359999999998 17.262  13.45924 16.436  10.801120000000001 16.129333333333335  Z M 11.559999999999997 14.114666666666668  L 11.56 14.883333333333335  C 14.776399999999999 15.355333333333334  17 16.53266666666667  17 18.162  C 17 19.558000000000003  13.681600000000001 20  8.5 20  C 3.318399999999999 20  0 19.558000000000003  0 18.162  C 0 16.532666666666668  2.2235999999999994 15.355333333333334  5.44 14.883333333333335  L 5.44 14.060000000000002  C 4.2364 13.111333333333334  3.2177599999999997 11.748666666666669  2.62276 10.224  C 2.1141199999999998 9.82  1.7530400000000004 9.155333333333335  1.4640400000000002 8.186666666666667  C 1.19204 7.277333333333332  1.4654000000000003 6.492  2.1086800000000006 5.966  C 2.5384399999999996 2.2600000000000007  4.97964 0  8.547600000000001 0  C 12.0666 0  14.43368 2.202666666666668  14.881799999999998 5.863333333333335  C 15.5074 6.381333333333334  15.7896 7.194666666666668  15.561119999999997 8.152000000000001  C 15.278239999999997 9.334666666666667  14.905599999999998 10.079333333333334  14.307879999999997 10.436  C 13.703359999999998 11.907333333333337  12.71464 13.210666666666668  11.559999999999997 14.114666666666668  Z " fill-rule="nonzero" fill="rgba(0, 0, 0, 1)" stroke="none" transform="matrix(1 0 0 1 357 71 )" class="fill" />
    <path d="M 10.801120000000001 16.129333333333335  L 10.80044 16.128666666666668  C 10.458064836072452 16.08912263255441  10.20004547700866 15.804649886401203  10.2 15.466666666666669  L 10.2 13.784666666666672  C 10.19990996332257 13.570938176247509  10.304347542832899 13.370125283014431  10.480839999999999 13.244666666666669  C 11.604200000000002 12.447333333333336  12.58816 11.168000000000003  13.13148 9.72066666666667  C 13.201936227978967 9.532857300056936  13.354716964491328 9.386009225746704  13.54764 9.320666666666671  C 13.75504 9.250666666666671  14.005279999999999 8.816000000000004  14.23648 7.847333333333337  C 14.362279999999998 7.323333333333338  14.21472 6.994000000000005  13.88424 6.797333333333338  C 13.699656748565586 6.687467619440852  13.579270895503322 6.498181686953019  13.559879999999998 6.287333333333337  C 13.269519999999998 3.1106666666666682  11.43556 1.3333333333333344  8.547600000000001 1.3333333333333344  C 5.61 1.3333333333333344  3.7039599999999995 3.168000000000001  3.4333199999999997 6.384000000000002  C 3.4154084266073816 6.594451790090198  3.296848598157506 6.784137623258857  3.1137199999999994 6.895333333333334  C 2.7648799999999993 7.108666666666668  2.6404399999999995 7.3820000000000014  2.7689599999999994 7.812666666666668  C 3.0110399999999995 8.622666666666667  3.2755599999999987 9.07  3.55096 9.239333333333335  C 3.680394112286102 9.319143967822502  3.7786137921184824 9.439393791051048  3.82976 9.58066666666667  C 4.3628800000000005 11.049333333333337  5.364519999999999 12.36266666666667  6.5225599999999995 13.195333333333332  C 6.6969934677685625 13.320950714253968  6.800013426721547 13.520475144559871  6.799999999999999 13.732666666666669  L 6.799999999999999 15.466666666666669  C 6.799954522991342 15.804649886401199  6.541935163927544 16.08912263255441  6.199559999999998 16.128666666666664  C 3.540759999999998 16.435333333333332  1.681639999999998 17.262  1.3980799999999982 17.976  C 1.4470399999999983 17.998  1.5068799999999982 18.021333333333335  1.5762399999999985 18.044666666666668  C 1.9413999999999985 18.17  2.501039999999999 18.284666666666666  3.215039999999999 18.380000000000003  C 4.606999999999999 18.565333333333335  6.512359999999998 18.666666666666668  8.499999999999998 18.666666666666668  C 10.487639999999999 18.666666666666668  12.392999999999997 18.565333333333335  13.784959999999998 18.380000000000003  C 14.49896 18.284666666666666  15.0586 18.17  15.42376 18.044666666666668  C 15.4938 18.021333333333335  15.55296 17.998  15.601919999999998 17.976  C 15.318359999999998 17.262  13.45924 16.436  10.801120000000001 16.129333333333335  Z " stroke-width="0" stroke-dasharray="0" stroke="rgba(255, 255, 255, 0)" fill="none" transform="matrix(1 0 0 1 357 71 )" class="stroke" mask="url(#Clip23)" />
    <path d="M 11.559999999999997 14.114666666666668  L 11.56 14.883333333333335  C 14.776399999999999 15.355333333333334  17 16.53266666666667  17 18.162  C 17 19.558000000000003  13.681600000000001 20  8.5 20  C 3.318399999999999 20  0 19.558000000000003  0 18.162  C 0 16.532666666666668  2.2235999999999994 15.355333333333334  5.44 14.883333333333335  L 5.44 14.060000000000002  C 4.2364 13.111333333333334  3.2177599999999997 11.748666666666669  2.62276 10.224  C 2.1141199999999998 9.82  1.7530400000000004 9.155333333333335  1.4640400000000002 8.186666666666667  C 1.19204 7.277333333333332  1.4654000000000003 6.492  2.1086800000000006 5.966  C 2.5384399999999996 2.2600000000000007  4.97964 0  8.547600000000001 0  C 12.0666 0  14.43368 2.202666666666668  14.881799999999998 5.863333333333335  C 15.5074 6.381333333333334  15.7896 7.194666666666668  15.561119999999997 8.152000000000001  C 15.278239999999997 9.334666666666667  14.905599999999998 10.079333333333334  14.307879999999997 10.436  C 13.703359999999998 11.907333333333337  12.71464 13.210666666666668  11.559999999999997 14.114666666666668  Z " stroke-width="0" stroke-dasharray="0" stroke="rgba(255, 255, 255, 0)" fill="none" transform="matrix(1 0 0 1 357 71 )" class="stroke" mask="url(#Clip23)" />
  </g>
</svg>