<?xml version="1.0" encoding="utf-8"?>
<svg version="1.1" xmlns:xlink="http://www.w3.org/1999/xlink" width="19px" height="21px" xmlns="http://www.w3.org/2000/svg">
  <defs>
    <pattern id="BGPattern" patternUnits="userSpaceOnUse" alignment="0 0" imageRepeat="None" />
    <mask fill="white" id="Clip24">
      <path d="M 8.999250000000002 1.0841836734693877  L 8.857750000000001 1.0854591836734697  C 5.273 1.1627551020408167  2.3899999999999997 4.152295918367346  2.3899999999999997 7.828316326530612  L 2.3899999999999997 13.048469387755102  L 0.39599999999999935 15.76122448979592  C -0.012250000000000226 16.31683673469388  0.09799999999999968 17.10484693877551  0.6424999999999997 17.52168367346939  C 0.8557556513085707 17.684935528199276  1.1151533865424241 17.773195888237574  1.3817499999999996 17.77321428571429  L 16.6185 17.77321428571429  C 16.8845 17.77321428571429  17.1435 17.68520408163265  17.3565 17.522704081632654  L 17.41925 17.47091836734694  C 17.9125 17.040306122448982  17.99375 16.293112244897962  17.60525 15.762755102040815  L 15.6085 13.038520408163265  L 15.6085 7.828316326530612  C 15.6085 4.103571428571429  12.64925 1.0841836734693877  8.999250000000002 1.0841836734693877  Z M 3.9582499999999996 7.828316326530612  C 3.9582499999999996 4.9875  6.21525 2.6844387755102046  8.999250000000002 2.6844387755102046  C 11.78325 2.6844387755102046  14.04025 4.9875  14.04025 7.828316326530612  L 14.04025 13.315051020408164  L 14.0435 13.387244897959185  C 14.058750000000002 13.55510204081633  14.125 13.714285714285719  14.2345 13.841836734693882  L 14.267249999999999 13.879846938775513  L 15.947499999999998 16  L 2.0534999999999997 16  L 3.8015 13.795408163265307  C 3.9032654328204006 13.656887401786577  3.9582662305005827 13.488428102183507  3.9582499999999996 13.31530612244898  L 3.9582499999999996 7.828316326530612  Z " fill-rule="evenodd" />
    </mask>
  </defs>
  <g transform="matrix(1 0 0 1 -306 -71 )">
    <path d="M 8.999250000000002 1.0841836734693877  L 8.857750000000001 1.0854591836734697  C 5.273 1.1627551020408167  2.3899999999999997 4.152295918367346  2.3899999999999997 7.828316326530612  L 2.3899999999999997 13.048469387755102  L 0.39599999999999935 15.76122448979592  C -0.012250000000000226 16.31683673469388  0.09799999999999968 17.10484693877551  0.6424999999999997 17.52168367346939  C 0.8557556513085707 17.684935528199276  1.1151533865424241 17.773195888237574  1.3817499999999996 17.77321428571429  L 16.6185 17.77321428571429  C 16.8845 17.77321428571429  17.1435 17.68520408163265  17.3565 17.522704081632654  L 17.41925 17.47091836734694  C 17.9125 17.040306122448982  17.99375 16.293112244897962  17.60525 15.762755102040815  L 15.6085 13.038520408163265  L 15.6085 7.828316326530612  C 15.6085 4.103571428571429  12.64925 1.0841836734693877  8.999250000000002 1.0841836734693877  Z M 3.9582499999999996 7.828316326530612  C 3.9582499999999996 4.9875  6.21525 2.6844387755102046  8.999250000000002 2.6844387755102046  C 11.78325 2.6844387755102046  14.04025 4.9875  14.04025 7.828316326530612  L 14.04025 13.315051020408164  L 14.0435 13.387244897959185  C 14.058750000000002 13.55510204081633  14.125 13.714285714285719  14.2345 13.841836734693882  L 14.267249999999999 13.879846938775513  L 15.947499999999998 16  L 2.0534999999999997 16  L 3.8015 13.795408163265307  C 3.9032654328204006 13.656887401786577  3.9582662305005827 13.488428102183507  3.9582499999999996 13.31530612244898  L 3.9582499999999996 7.828316326530612  Z M 10.66925 18.34464285714286  L 7.53275 18.34464285714286  C 7.53275 19.228571428571428  8.235 19.944897959183674  9.100999999999999 19.944897959183674  C 9.967249999999998 19.944897959183674  10.66925 19.228316326530614  10.66925 18.34464285714286  Z M 7.980750000000002 1.1984693877551025  L 10.221250000000001 1.1984693877551025  C 10.2215 0.5670918367346943  9.720250000000002 0.055102040816327164  9.101500000000001 0.054846938775510716  C 8.482750000000001 0.054591836734694255  7.981000000000002 0.5660714285714292  7.980750000000002 1.1974489795918373  L 7.980750000000002 1.1984693877551025  Z " fill-rule="nonzero" fill="rgba(0, 0, 0, 1)" stroke="none" transform="matrix(1 0 0 1 306 71 )" class="fill" />
    <path d="M 8.999250000000002 1.0841836734693877  L 8.857750000000001 1.0854591836734697  C 5.273 1.1627551020408167  2.3899999999999997 4.152295918367346  2.3899999999999997 7.828316326530612  L 2.3899999999999997 13.048469387755102  L 0.39599999999999935 15.76122448979592  C -0.012250000000000226 16.31683673469388  0.09799999999999968 17.10484693877551  0.6424999999999997 17.52168367346939  C 0.8557556513085707 17.684935528199276  1.1151533865424241 17.773195888237574  1.3817499999999996 17.77321428571429  L 16.6185 17.77321428571429  C 16.8845 17.77321428571429  17.1435 17.68520408163265  17.3565 17.522704081632654  L 17.41925 17.47091836734694  C 17.9125 17.040306122448982  17.99375 16.293112244897962  17.60525 15.762755102040815  L 15.6085 13.038520408163265  L 15.6085 7.828316326530612  C 15.6085 4.103571428571429  12.64925 1.0841836734693877  8.999250000000002 1.0841836734693877  Z " stroke-width="0" stroke-dasharray="0" stroke="rgba(255, 255, 255, 0)" fill="none" transform="matrix(1 0 0 1 306 71 )" class="stroke" mask="url(#Clip24)" />
    <path d="M 3.9582499999999996 7.828316326530612  C 3.9582499999999996 4.9875  6.21525 2.6844387755102046  8.999250000000002 2.6844387755102046  C 11.78325 2.6844387755102046  14.04025 4.9875  14.04025 7.828316326530612  L 14.04025 13.315051020408164  L 14.0435 13.387244897959185  C 14.058750000000002 13.55510204081633  14.125 13.714285714285719  14.2345 13.841836734693882  L 14.267249999999999 13.879846938775513  L 15.947499999999998 16  L 2.0534999999999997 16  L 3.8015 13.795408163265307  C 3.9032654328204006 13.656887401786577  3.9582662305005827 13.488428102183507  3.9582499999999996 13.31530612244898  L 3.9582499999999996 7.828316326530612  Z " stroke-width="0" stroke-dasharray="0" stroke="rgba(255, 255, 255, 0)" fill="none" transform="matrix(1 0 0 1 306 71 )" class="stroke" mask="url(#Clip24)" />
    <path d="M 7.53275 18.34464285714286  C 7.53275 19.228571428571428  8.235 19.944897959183674  9.100999999999999 19.944897959183674  C 9.967249999999998 19.944897959183674  10.66925 19.228316326530614  10.66925 18.34464285714286  M 10.221250000000001 1.1984693877551025  C 10.2215 0.5670918367346943  9.720250000000002 0.055102040816327164  9.101500000000001 0.054846938775510716  C 8.482750000000001 0.054591836734694255  7.981000000000002 0.5660714285714292  7.980750000000002 1.1974489795918373  L 7.980750000000002 1.1984693877551025  " stroke-width="0" stroke-dasharray="0" stroke="rgba(255, 255, 255, 0)" fill="none" transform="matrix(1 0 0 1 306 71 )" class="stroke" />
  </g>
</svg>