<?xml version="1.0" encoding="utf-8"?>
<svg version="1.1" xmlns:xlink="http://www.w3.org/1999/xlink" width="13px" height="18px" xmlns="http://www.w3.org/2000/svg">
  <defs>
    <pattern id="BGPattern" patternUnits="userSpaceOnUse" alignment="0 0" imageRepeat="None" />
    <mask fill="white" id="Clip489">
      <path d="M 7.132963709677418 17.51625  C 6.977047690583515 17.713841056192305  6.745072152616196 17.82832752933863  6.500262096774193 17.828506097560975  C 6.25546370967742 17.828506097560975  6.023508064516129 17.71408536585366  5.867822580645161 17.51625  C 5.279153225806452 16.768262195121952  0.11663306451612875 10.109085365853659  0.11663306451612875 6.683323170731707  C 0.11637096774193544 2.997713414634146  2.980040322580645 0  6.500262096774193 0  C 10.019959677419353 0  12.883891129032257 2.997713414634146  12.883891129032257 6.683323170731707  C 12.883891129032257 10.109085365853657  7.721633064516126 16.768262195121952  7.132963709677418 17.51625  Z M 11.244737903225806 6.683323170731704  C 11.244737903225806 3.9440853658536557  9.116249999999997 1.7160365853658504  6.500262096774193 1.7160365853658526  C 3.8840120967741933 1.7160365853658526  1.7555241935483874 3.944085365853657  1.7555241935483874 6.683323170731706  C 1.7555241935483874 8.78076219512195  4.7594153225806455 13.255518292682925  6.500262096774193 15.595792682926826  C 8.24110887096774 13.255518292682925  11.244737903225806 8.780762195121948  11.244737903225806 6.683323170731704  Z " fill-rule="evenodd" />
    </mask>
  </defs>
  <g transform="matrix(1 0 0 1 -41 -85 )">
    <path d="M 7.132963709677418 17.51625  C 6.977047690583515 17.713841056192305  6.745072152616196 17.82832752933863  6.500262096774193 17.828506097560975  C 6.25546370967742 17.828506097560975  6.023508064516129 17.71408536585366  5.867822580645161 17.51625  C 5.279153225806452 16.768262195121952  0.11663306451612875 10.109085365853659  0.11663306451612875 6.683323170731707  C 0.11637096774193544 2.997713414634146  2.980040322580645 0  6.500262096774193 0  C 10.019959677419353 0  12.883891129032257 2.997713414634146  12.883891129032257 6.683323170731707  C 12.883891129032257 10.109085365853657  7.721633064516126 16.768262195121952  7.132963709677418 17.51625  Z M 11.244737903225806 6.683323170731704  C 11.244737903225806 3.9440853658536557  9.116249999999997 1.7160365853658504  6.500262096774193 1.7160365853658526  C 3.8840120967741933 1.7160365853658526  1.7555241935483874 3.944085365853657  1.7555241935483874 6.683323170731706  C 1.7555241935483874 8.78076219512195  4.7594153225806455 13.255518292682925  6.500262096774193 15.595792682926826  C 8.24110887096774 13.255518292682925  11.244737903225806 8.780762195121948  11.244737903225806 6.683323170731704  Z " fill-rule="nonzero" fill="rgba(255, 255, 255, 1)" stroke="none" transform="matrix(1 0 0 1 41 85 )" class="fill" />
    <path d="M 7.132963709677418 17.51625  C 6.977047690583515 17.713841056192305  6.745072152616196 17.82832752933863  6.500262096774193 17.828506097560975  C 6.25546370967742 17.828506097560975  6.023508064516129 17.71408536585366  5.867822580645161 17.51625  C 5.279153225806452 16.768262195121952  0.11663306451612875 10.109085365853659  0.11663306451612875 6.683323170731707  C 0.11637096774193544 2.997713414634146  2.980040322580645 0  6.500262096774193 0  C 10.019959677419353 0  12.883891129032257 2.997713414634146  12.883891129032257 6.683323170731707  C 12.883891129032257 10.109085365853657  7.721633064516126 16.768262195121952  7.132963709677418 17.51625  Z " stroke-width="0" stroke-dasharray="0" stroke="rgba(255, 255, 255, 0)" fill="none" transform="matrix(1 0 0 1 41 85 )" class="stroke" mask="url(#Clip489)" />
    <path d="M 11.244737903225806 6.683323170731704  C 11.244737903225806 3.9440853658536557  9.116249999999997 1.7160365853658504  6.500262096774193 1.7160365853658526  C 3.8840120967741933 1.7160365853658526  1.7555241935483874 3.944085365853657  1.7555241935483874 6.683323170731706  C 1.7555241935483874 8.78076219512195  4.7594153225806455 13.255518292682925  6.500262096774193 15.595792682926826  C 8.24110887096774 13.255518292682925  11.244737903225806 8.780762195121948  11.244737903225806 6.683323170731704  Z " stroke-width="0" stroke-dasharray="0" stroke="rgba(255, 255, 255, 0)" fill="none" transform="matrix(1 0 0 1 41 85 )" class="stroke" mask="url(#Clip489)" />
  </g>
</svg>