<?xml version="1.0" encoding="utf-8"?>
<svg version="1.1" xmlns:xlink="http://www.w3.org/1999/xlink" width="24px" height="21px" xmlns="http://www.w3.org/2000/svg">
  <defs>
    <pattern id="BGPattern" patternUnits="userSpaceOnUse" alignment="0 0" imageRepeat="None" />
    <mask fill="white" id="Clip1278">
      <path d="M 15.07125 3.1873026315789477  C 15.07125 4.933894736842107  13.693392857142857 6.354986842105263  12.000267857142859 6.354986842105263  C 10.306874999999998 6.354986842105263  8.929285714285715 4.933618421052632  8.929285714285715 3.1870263157894745  C 8.929285714285715 1.4404342105263173  10.306875000000002 0.01934210526315758  12.000267857142859 0.01934210526315758  C 13.693660714285713 0.01934210526315758  15.07125 1.4407105263157893  15.07125 3.1873026315789477  Z M 13.396071428571428 3.1870263157894745  C 13.396071428571428 2.3928947368421056  12.76982142857143 1.7471447368421058  12.000267857142859 1.7471447368421058  C 11.230714285714285 1.7471447368421058  10.604464285714286 2.3928947368421056  10.604464285714286 3.1870263157894745  C 10.604464285714286 3.981157894736843  11.230714285714285 4.626907894736844  12.000267857142859 4.626907894736844  C 12.76982142857143 4.626907894736844  13.396071428571428 3.981157894736843  13.396071428571428 3.1870263157894745  Z M 23.80392857142857 18.402907894736842  C 23.80392857142857 19.837263157894736  22.676785714285714 21  21.291160714285716 21  L 4.375446428571428 21  C 3.912857142857142 21  3.537857142857142 20.61288157894737  3.537857142857142 20.135960526315788  C 3.537857142857142 19.65903947368421  3.912857142857142 19.27192105263158  4.375446428571428 19  L 21.291428571428572 19  C 21.753214285714286 19.27192105263158  22.129017857142856 18.88425  22.129017857142856 18.407881578947368  C 22.129017857142856 17.926263157894738  21.753214285714286 17.53886842105263  21.291428571428572 17.53886842105263  L 2.7088392857142853 17.53886842105263  C 1.323214285714286 17.53886842105263  0.19633928571428566 16.376131578947366  0.19633928571428566 14.947026315789474  C 0.19633928571428566 13.480618421052633  1.3234821428571428 12.31788157894737  2.7088392857142853 12.31788157894737  L 5.134821428571428 12.31788157894737  C 5.597410714285713 12.31788157894737  5.972410714285713 12.705000000000002  5.972410714285713 13.18192105263158  C 5.972410714285713 13.65884210526316  5.597410714285713 14.04596052631579  5.134821428571428 14.04596052631579  L 2.708839285714285 14.04596052631579  C 2.2470535714285704 14.04596052631579  1.8712499999999987 14.433631578947368  1.8712499999999987 14.910000000000002  C 1.8712499999999987 15.42367105263158  2.2470535714285704 15.811065789473686  2.708839285714285 15.811065789473686  L 21.291428571428572 15.811065789473686  C 22.677053571428573 15.811065789473686  23.80392857142857 16.97380263157895  23.80392857142857 18.402907894736842  Z " fill-rule="evenodd" />
    </mask>
  </defs>
  <g transform="matrix(1 0 0 1 -36 -89 )">
    <path d="M 15.07125 3.1873026315789477  C 15.07125 4.933894736842107  13.693392857142857 6.354986842105263  12.000267857142859 6.354986842105263  C 10.306874999999998 6.354986842105263  8.929285714285715 4.933618421052632  8.929285714285715 3.1870263157894745  C 8.929285714285715 1.4404342105263173  10.306875000000002 0.01934210526315758  12.000267857142859 0.01934210526315758  C 13.693660714285713 0.01934210526315758  15.07125 1.4407105263157893  15.07125 3.1873026315789477  Z M 13.396071428571428 3.1870263157894745  C 13.396071428571428 2.3928947368421056  12.76982142857143 1.7471447368421058  12.000267857142859 1.7471447368421058  C 11.230714285714285 1.7471447368421058  10.604464285714286 2.3928947368421056  10.604464285714286 3.1870263157894745  C 10.604464285714286 3.981157894736843  11.230714285714285 4.626907894736844  12.000267857142859 4.626907894736844  C 12.76982142857143 4.626907894736844  13.396071428571428 3.981157894736843  13.396071428571428 3.1870263157894745  Z M 23.80392857142857 18.402907894736842  C 23.80392857142857 19.837263157894736  22.676785714285714 21  21.291160714285716 21  L 4.375446428571428 21  C 3.912857142857142 21  3.537857142857142 20.61288157894737  3.537857142857142 20.135960526315788  C 3.537857142857142 19.65903947368421  3.912857142857142 19.27192105263158  4.375446428571428 19  L 21.291428571428572 19  C 21.753214285714286 19.27192105263158  22.129017857142856 18.88425  22.129017857142856 18.407881578947368  C 22.129017857142856 17.926263157894738  21.753214285714286 17.53886842105263  21.291428571428572 17.53886842105263  L 2.7088392857142853 17.53886842105263  C 1.323214285714286 17.53886842105263  0.19633928571428566 16.376131578947366  0.19633928571428566 14.947026315789474  C 0.19633928571428566 13.480618421052633  1.3234821428571428 12.31788157894737  2.7088392857142853 12.31788157894737  L 5.134821428571428 12.31788157894737  C 5.597410714285713 12.31788157894737  5.972410714285713 12.705000000000002  5.972410714285713 13.18192105263158  C 5.972410714285713 13.65884210526316  5.597410714285713 14.04596052631579  5.134821428571428 14.04596052631579  L 2.708839285714285 14.04596052631579  C 2.2470535714285704 14.04596052631579  1.8712499999999987 14.433631578947368  1.8712499999999987 14.910000000000002  C 1.8712499999999987 15.42367105263158  2.2470535714285704 15.811065789473686  2.708839285714285 15.811065789473686  L 21.291428571428572 15.811065789473686  C 22.677053571428573 15.811065789473686  23.80392857142857 16.97380263157895  23.80392857142857 18.402907894736842  Z " fill-rule="nonzero" fill="rgba(255, 255, 255, 1)" stroke="none" transform="matrix(1 0 0 1 36 89 )" class="fill" />
    <path d="M 15.07125 3.1873026315789477  C 15.07125 4.933894736842107  13.693392857142857 6.354986842105263  12.000267857142859 6.354986842105263  C 10.306874999999998 6.354986842105263  8.929285714285715 4.933618421052632  8.929285714285715 3.1870263157894745  C 8.929285714285715 1.4404342105263173  10.306875000000002 0.01934210526315758  12.000267857142859 0.01934210526315758  C 13.693660714285713 0.01934210526315758  15.07125 1.4407105263157893  15.07125 3.1873026315789477  Z " stroke-width="0" stroke-dasharray="0" stroke="rgba(255, 255, 255, 0)" fill="none" transform="matrix(1 0 0 1 36 89 )" class="stroke" mask="url(#Clip1278)" />
    <path d="M 13.396071428571428 3.1870263157894745  C 13.396071428571428 2.3928947368421056  12.76982142857143 1.7471447368421058  12.000267857142859 1.7471447368421058  C 11.230714285714285 1.7471447368421058  10.604464285714286 2.3928947368421056  10.604464285714286 3.1870263157894745  C 10.604464285714286 3.981157894736843  11.230714285714285 4.626907894736844  12.000267857142859 4.626907894736844  C 12.76982142857143 4.626907894736844  13.396071428571428 3.981157894736843  13.396071428571428 3.1870263157894745  Z " stroke-width="0" stroke-dasharray="0" stroke="rgba(255, 255, 255, 0)" fill="none" transform="matrix(1 0 0 1 36 89 )" class="stroke" mask="url(#Clip1278)" />
    <path d="M 23.80392857142857 18.402907894736842  C 23.80392857142857 19.837263157894736  22.676785714285714 21  21.291160714285716 21  L 4.375446428571428 21  C 3.912857142857142 21  3.537857142857142 20.61288157894737  3.537857142857142 20.135960526315788  C 3.537857142857142 19.65903947368421  3.912857142857142 19.27192105263158  4.375446428571428 19  L 21.291428571428572 19  C 21.753214285714286 19.27192105263158  22.129017857142856 18.88425  22.129017857142856 18.407881578947368  C 22.129017857142856 17.926263157894738  21.753214285714286 17.53886842105263  21.291428571428572 17.53886842105263  L 2.7088392857142853 17.53886842105263  C 1.323214285714286 17.53886842105263  0.19633928571428566 16.376131578947366  0.19633928571428566 14.947026315789474  C 0.19633928571428566 13.480618421052633  1.3234821428571428 12.31788157894737  2.7088392857142853 12.31788157894737  L 5.134821428571428 12.31788157894737  C 5.597410714285713 12.31788157894737  5.972410714285713 12.705000000000002  5.972410714285713 13.18192105263158  C 5.972410714285713 13.65884210526316  5.597410714285713 14.04596052631579  5.134821428571428 14.04596052631579  L 2.708839285714285 14.04596052631579  C 2.2470535714285704 14.04596052631579  1.8712499999999987 14.433631578947368  1.8712499999999987 14.910000000000002  C 1.8712499999999987 15.42367105263158  2.2470535714285704 15.811065789473686  2.708839285714285 15.811065789473686  L 21.291428571428572 15.811065789473686  C 22.677053571428573 15.811065789473686  23.80392857142857 16.97380263157895  23.80392857142857 18.402907894736842  Z " stroke-width="0" stroke-dasharray="0" stroke="rgba(255, 255, 255, 0)" fill="none" transform="matrix(1 0 0 1 36 89 )" class="stroke" mask="url(#Clip1278)" />
  </g>
</svg>