<?xml version="1.0" encoding="utf-8"?>
<svg version="1.1" xmlns:xlink="http://www.w3.org/1999/xlink" width="24px" height="22px" xmlns="http://www.w3.org/2000/svg">
  <defs>
    <pattern id="BGPattern" patternUnits="userSpaceOnUse" alignment="0 0" imageRepeat="None" />
    <mask fill="white" id="Clip24">
      <path d="M 23.493219315652173 20.575732283333334  C 22.97680886243478 21.4089710887381  22.03620410869565 21.871881535690477  20.837394127826087 21.871881535428567  L 3.0950064143478264 21.871881535428567  C 1.8961964334782606 21.871881535428567  0.9555916794782607 21.408971088214287  0.4760676873913043 20.594248701190477  C -0.003456304695652203 19.779526313642858  0.05187338634782612 18.724090493952378  0.6420567613043477 17.687171091595236  L 9.605466770347824 1.6889860313333334  C 10.195650145304349 0.6520666289761904  11.062481977304348 0.04102483864285739  11.984643501391304 0.04102483864285739  C 12.90680502547826 0.04102483864285739  13.773636856695653 0.6335502111190479  14.36382023243478 1.670469613214286  L 23.32723024147826 17.66865467347619  C 23.898970386260867 18.705574075833336  23.972743308 19.761009895523813  23.493219315652173 20.575732283333334  Z M 12.833032102956526 2.522224836738098  C 12.593270106782612 2.022281553547622  12.242848728000002 1.74453528516667  11.947757040260871 1.744535284904762  C 11.65266535304348 1.744535284904762  11.320687204173913 2.0407979708809525  11.044038747652175 2.5222248367380953  L 2.0806287386086963 18.520409897  C 1.8039802818260875 19.02035318019048  1.7302073598260879 19.46474720954762  1.8961964337391315 19.761009895785715  C 2.0621855079130444 20.038756163904765  2.486379808695653 20.20540392514286  3.0765631839130445 20  L 20.81895089713044 20  C 21.390691041913048 20.20540392514286  21.814885342434785 20.03875616416667  21.980874416869568 19.761009895785715  C 22.14686349104348 19.48326362766667  22.091533799739132 19.020353179928573  21.796442112000005 18.520409897000004  L 12.833032102956526 2.522224836738098  Z M 12.814588872782608 13.465427811523808  C 12.796145642347824 13.928338258738092  12.427281032869566 14.298666616928571  11.966200270956522 14.298666616928573  C 11.505119509304347 14.298666616928573  11.117811669391305 13.928338259000002  11.117811668869566 13.46542781152381  L 11.117811668869566 5.910729311404762  C 11.117811668869566 5.447818864190476  11.486676278347826 5.077490506  11.966200270956522 5.077490506  C 12.427281032608693 5.077490506  12.814588872521739 5.447818863928571  12.814588872782608 5.910729311404762  L 12.814588872782608 13.465427811523808  Z M 10.638287676782609 17.076129301261904  C 10.638287676782609 17.816786017119046  11.228471051739131 18.390794971738096  11.947757040260871 18.390794971476193  C 12.667043028782608 18.390794971476193  13.257226403739132 17.798269599  13.257226404000003 17.076129301261904  C 13.257226404000003 16.35398900326191  12.66704302904348 15.761463630785716  11.947757040260871 15.761463630785716  C 11.228471051739131 15.761463630785716  10.638287676782609 16.35398900326191  10.638287676782609 17.076129301261904  Z " fill-rule="evenodd" />
    </mask>
  </defs>
  <g transform="matrix(1 0 0 1 -133 -87 )">
    <path d="M 23.493219315652173 20.575732283333334  C 22.97680886243478 21.4089710887381  22.03620410869565 21.871881535690477  20.837394127826087 21.871881535428567  L 3.0950064143478264 21.871881535428567  C 1.8961964334782606 21.871881535428567  0.9555916794782607 21.408971088214287  0.4760676873913043 20.594248701190477  C -0.003456304695652203 19.779526313642858  0.05187338634782612 18.724090493952378  0.6420567613043477 17.687171091595236  L 9.605466770347824 1.6889860313333334  C 10.195650145304349 0.6520666289761904  11.062481977304348 0.04102483864285739  11.984643501391304 0.04102483864285739  C 12.90680502547826 0.04102483864285739  13.773636856695653 0.6335502111190479  14.36382023243478 1.670469613214286  L 23.32723024147826 17.66865467347619  C 23.898970386260867 18.705574075833336  23.972743308 19.761009895523813  23.493219315652173 20.575732283333334  Z M 12.833032102956526 2.522224836738098  C 12.593270106782612 2.022281553547622  12.242848728000002 1.74453528516667  11.947757040260871 1.744535284904762  C 11.65266535304348 1.744535284904762  11.320687204173913 2.0407979708809525  11.044038747652175 2.5222248367380953  L 2.0806287386086963 18.520409897  C 1.8039802818260875 19.02035318019048  1.7302073598260879 19.46474720954762  1.8961964337391315 19.761009895785715  C 2.0621855079130444 20.038756163904765  2.486379808695653 20.20540392514286  3.0765631839130445 20  L 20.81895089713044 20  C 21.390691041913048 20.20540392514286  21.814885342434785 20.03875616416667  21.980874416869568 19.761009895785715  C 22.14686349104348 19.48326362766667  22.091533799739132 19.020353179928573  21.796442112000005 18.520409897000004  L 12.833032102956526 2.522224836738098  Z M 12.814588872782608 13.465427811523808  C 12.796145642347824 13.928338258738092  12.427281032869566 14.298666616928571  11.966200270956522 14.298666616928573  C 11.505119509304347 14.298666616928573  11.117811669391305 13.928338259000002  11.117811668869566 13.46542781152381  L 11.117811668869566 5.910729311404762  C 11.117811668869566 5.447818864190476  11.486676278347826 5.077490506  11.966200270956522 5.077490506  C 12.427281032608693 5.077490506  12.814588872521739 5.447818863928571  12.814588872782608 5.910729311404762  L 12.814588872782608 13.465427811523808  Z M 10.638287676782609 17.076129301261904  C 10.638287676782609 17.816786017119046  11.228471051739131 18.390794971738096  11.947757040260871 18.390794971476193  C 12.667043028782608 18.390794971476193  13.257226403739132 17.798269599  13.257226404000003 17.076129301261904  C 13.257226404000003 16.35398900326191  12.66704302904348 15.761463630785716  11.947757040260871 15.761463630785716  C 11.228471051739131 15.761463630785716  10.638287676782609 16.35398900326191  10.638287676782609 17.076129301261904  Z " fill-rule="nonzero" fill="rgba(255, 255, 255, 1)" stroke="none" transform="matrix(1 0 0 1 133 87 )" class="fill" />
    <path d="M 23.493219315652173 20.575732283333334  C 22.97680886243478 21.4089710887381  22.03620410869565 21.871881535690477  20.837394127826087 21.871881535428567  L 3.0950064143478264 21.871881535428567  C 1.8961964334782606 21.871881535428567  0.9555916794782607 21.408971088214287  0.4760676873913043 20.594248701190477  C -0.003456304695652203 19.779526313642858  0.05187338634782612 18.724090493952378  0.6420567613043477 17.687171091595236  L 9.605466770347824 1.6889860313333334  C 10.195650145304349 0.6520666289761904  11.062481977304348 0.04102483864285739  11.984643501391304 0.04102483864285739  C 12.90680502547826 0.04102483864285739  13.773636856695653 0.6335502111190479  14.36382023243478 1.670469613214286  L 23.32723024147826 17.66865467347619  C 23.898970386260867 18.705574075833336  23.972743308 19.761009895523813  23.493219315652173 20.575732283333334  Z " stroke-width="0" stroke-dasharray="0" stroke="rgba(255, 255, 255, 0)" fill="none" transform="matrix(1 0 0 1 133 87 )" class="stroke" mask="url(#Clip24)" />
    <path d="M 12.833032102956526 2.522224836738098  C 12.593270106782612 2.022281553547622  12.242848728000002 1.74453528516667  11.947757040260871 1.744535284904762  C 11.65266535304348 1.744535284904762  11.320687204173913 2.0407979708809525  11.044038747652175 2.5222248367380953  L 2.0806287386086963 18.520409897  C 1.8039802818260875 19.02035318019048  1.7302073598260879 19.46474720954762  1.8961964337391315 19.761009895785715  C 2.0621855079130444 20.038756163904765  2.486379808695653 20.20540392514286  3.0765631839130445 20  L 20.81895089713044 20  C 21.390691041913048 20.20540392514286  21.814885342434785 20.03875616416667  21.980874416869568 19.761009895785715  C 22.14686349104348 19.48326362766667  22.091533799739132 19.020353179928573  21.796442112000005 18.520409897000004  L 12.833032102956526 2.522224836738098  Z " stroke-width="0" stroke-dasharray="0" stroke="rgba(255, 255, 255, 0)" fill="none" transform="matrix(1 0 0 1 133 87 )" class="stroke" mask="url(#Clip24)" />
    <path d="M 12.814588872782608 13.465427811523808  C 12.796145642347824 13.928338258738092  12.427281032869566 14.298666616928571  11.966200270956522 14.298666616928573  C 11.505119509304347 14.298666616928573  11.117811669391305 13.928338259000002  11.117811668869566 13.46542781152381  L 11.117811668869566 5.910729311404762  C 11.117811668869566 5.447818864190476  11.486676278347826 5.077490506  11.966200270956522 5.077490506  C 12.427281032608693 5.077490506  12.814588872521739 5.447818863928571  12.814588872782608 5.910729311404762  L 12.814588872782608 13.465427811523808  Z " stroke-width="0" stroke-dasharray="0" stroke="rgba(255, 255, 255, 0)" fill="none" transform="matrix(1 0 0 1 133 87 )" class="stroke" mask="url(#Clip24)" />
    <path d="M 10.638287676782609 17.076129301261904  C 10.638287676782609 17.816786017119046  11.228471051739131 18.390794971738096  11.947757040260871 18.390794971476193  C 12.667043028782608 18.390794971476193  13.257226403739132 17.798269599  13.257226404000003 17.076129301261904  C 13.257226404000003 16.35398900326191  12.66704302904348 15.761463630785716  11.947757040260871 15.761463630785716  C 11.228471051739131 15.761463630785716  10.638287676782609 16.35398900326191  10.638287676782609 17.076129301261904  Z " stroke-width="0" stroke-dasharray="0" stroke="rgba(255, 255, 255, 0)" fill="none" transform="matrix(1 0 0 1 133 87 )" class="stroke" mask="url(#Clip24)" />
  </g>
</svg>