<?xml version="1.0" encoding="utf-8"?>
<svg version="1.1" xmlns:xlink="http://www.w3.org/1999/xlink" width="24px" height="24px" xmlns="http://www.w3.org/2000/svg">
  <defs>
    <pattern id="BGPattern" patternUnits="userSpaceOnUse" alignment="0 0" imageRepeat="None" />
    <mask fill="white" id="Clip1281">
      <path d="M 23.85 23.092913385826773  C 23.85 23.546456692913385  23.4 23.8488188976378  22.950000000000003 23.8488188976378  L 2.0999999999999996 23.8488188976378  C 1.0499999999999998 23.8488188976378  0.1499999999999998 22.941732283464567  0.1499999999999998 21.883464566929135  L 0.1499999999999998 1.0204724409448818  C 0.15000000000000002 0.5669291338582677  0.6000000000000001 0.11338582677165357  1.0499999999999998 0.11338582677165357  C 1.4999999999999998 0.11338582677165357  1.9499999999999997 0.5669291338582677  2 1.0204724409448818  L 2 22.03464566929134  L 22.950000000000003 22.185826771653545  C 23.400000000000002 22.185826771653545  23.85 22.639370078740157  23.85 23.092913385826773  Z M 5.1 20.371653543307087  C 4.6499999999999995 20.371653543307087  4.199999999999999 20.069291338582676  4.199999999999999 19.46456692913386  L 4.199999999999999 16.440944881889763  C 4.199999999999999 15.987401574803147  4.6499999999999995 15.533858267716536  5.1 15.533858267716536  C 5.550000000000001 15.533858267716536  6 15.987401574803151  6 16.440944881889763  L 6 19.46456692913386  C 6 19.918110236220475  5.550000000000001 20.371653543307087  5.1 20.371653543307087  Z M 9.75 20.371653543307087  C 9.149999999999999 20.371653543307087  8.850000000000001 20.069291338582676  8.850000000000001 19.46456692913386  L 8.850000000000001 14.022047244094487  C 8.850000000000001 13.568503937007872  9.3 13.11496062992126  9.75 13.11496062992126  C 10.2 13.11496062992126  10.649999999999999 13.568503937007875  10.649999999999999 14.022047244094487  L 10.649999999999999 19.46456692913386  C 10.649999999999999 19.918110236220475  10.2 20.371653543307087  9.75 20.371653543307087  Z M 14.25 20.371653543307087  C 13.8 20.371653543307087  13.350000000000001 20.069291338582676  13.350000000000001 19.46456692913386  L 13.350000000000001 16.440944881889763  C 13.350000000000001 15.987401574803147  13.8 15.533858267716536  14.25 15.533858267716536  C 14.7 15.533858267716536  15.149999999999999 15.987401574803151  15.149999999999999 16.440944881889763  L 15.149999999999999 19.46456692913386  C 15.149999999999999 19.918110236220475  14.7 20.371653543307087  14.25 20.371653543307087  Z M 18.9 20.371653543307087  C 18.450000000000003 20.371653543307087  18 20.069291338582676  18 19.46456692913386  L 18 14.929133858267717  C 18 14.475590551181101  18.450000000000003 14.022047244094487  18.9 14.022047244094487  C 19.349999999999998 14.022047244094487  19.799999999999997 14.475590551181103  19.799999999999997 14.929133858267717  L 19.799999999999997 19.46456692913386  C 19.799999999999997 19.918110236220475  19.349999999999998 20.371653543307087  18.9 20.371653543307087  Z M 19.799999999999997 3.2881889763779526  C 19.799999999999997 2.834645669291338  19.349999999999998 2.229921259842519  18.75 2.2299212598425195  L 15.450000000000001 2.2299212598425195  C 15 2.2299212598425195  14.55 2.683464566929134  14.55 3.1370078740157483  C 14.55 3.5905511811023625  15.000000000000004 4.044094488188977  15.450000000000001 4.044094488188977  L 16.8 4.044094488188977  L 12.450000000000001 8.428346456692914  L 10.8 6.765354330708661  C 10.5 6.311811023622047  9.9 6.311811023622047  9.45 6.614173228346457  L 4.5 11.754330708661417  C 4.199999999999999 12.056692913385826  4.199999999999999 12.661417322834644  4.5 12.963779527559057  C 4.800000000000001 13.417322834645672  5.4 13.417322834645672  5.699999999999999 12.963779527559057  L 10.049999999999999 8.57952755905512  L 11.549999999999999 10.091338582677167  L 11.7 10.24251968503937  L 11.7 10.393700787401574  C 11.999999999999998 10.696062992125984  12.599999999999998 10.696062992125984  12.899999999999999 10.393700787401574  L 18 5.40472440944882  L 18 6.765354330708662  C 18 7.218897637795276  18.450000000000003 7.67244094488189  18.9 7.67244094488189  C 19.349999999999998 7.67244094488189  19.799999999999997 7.218897637795276  19.799999999999997 6.765354330708662  L 19.799999999999997 3.2881889763779526  Z " fill-rule="evenodd" />
    </mask>
  </defs>
  <g transform="matrix(1 0 0 1 -327 -86 )">
    <path d="M 23.85 23.092913385826773  C 23.85 23.546456692913385  23.4 23.8488188976378  22.950000000000003 23.8488188976378  L 2.0999999999999996 23.8488188976378  C 1.0499999999999998 23.8488188976378  0.1499999999999998 22.941732283464567  0.1499999999999998 21.883464566929135  L 0.1499999999999998 1.0204724409448818  C 0.15000000000000002 0.5669291338582677  0.6000000000000001 0.11338582677165357  1.0499999999999998 0.11338582677165357  C 1.4999999999999998 0.11338582677165357  1.9499999999999997 0.5669291338582677  2 1.0204724409448818  L 2 22.03464566929134  L 22.950000000000003 22.185826771653545  C 23.400000000000002 22.185826771653545  23.85 22.639370078740157  23.85 23.092913385826773  Z M 5.1 20.371653543307087  C 4.6499999999999995 20.371653543307087  4.199999999999999 20.069291338582676  4.199999999999999 19.46456692913386  L 4.199999999999999 16.440944881889763  C 4.199999999999999 15.987401574803147  4.6499999999999995 15.533858267716536  5.1 15.533858267716536  C 5.550000000000001 15.533858267716536  6 15.987401574803151  6 16.440944881889763  L 6 19.46456692913386  C 6 19.918110236220475  5.550000000000001 20.371653543307087  5.1 20.371653543307087  Z M 9.75 20.371653543307087  C 9.149999999999999 20.371653543307087  8.850000000000001 20.069291338582676  8.850000000000001 19.46456692913386  L 8.850000000000001 14.022047244094487  C 8.850000000000001 13.568503937007872  9.3 13.11496062992126  9.75 13.11496062992126  C 10.2 13.11496062992126  10.649999999999999 13.568503937007875  10.649999999999999 14.022047244094487  L 10.649999999999999 19.46456692913386  C 10.649999999999999 19.918110236220475  10.2 20.371653543307087  9.75 20.371653543307087  Z M 14.25 20.371653543307087  C 13.8 20.371653543307087  13.350000000000001 20.069291338582676  13.350000000000001 19.46456692913386  L 13.350000000000001 16.440944881889763  C 13.350000000000001 15.987401574803147  13.8 15.533858267716536  14.25 15.533858267716536  C 14.7 15.533858267716536  15.149999999999999 15.987401574803151  15.149999999999999 16.440944881889763  L 15.149999999999999 19.46456692913386  C 15.149999999999999 19.918110236220475  14.7 20.371653543307087  14.25 20.371653543307087  Z M 18.9 20.371653543307087  C 18.450000000000003 20.371653543307087  18 20.069291338582676  18 19.46456692913386  L 18 14.929133858267717  C 18 14.475590551181101  18.450000000000003 14.022047244094487  18.9 14.022047244094487  C 19.349999999999998 14.022047244094487  19.799999999999997 14.475590551181103  19.799999999999997 14.929133858267717  L 19.799999999999997 19.46456692913386  C 19.799999999999997 19.918110236220475  19.349999999999998 20.371653543307087  18.9 20.371653543307087  Z M 19.799999999999997 3.2881889763779526  C 19.799999999999997 2.834645669291338  19.349999999999998 2.229921259842519  18.75 2.2299212598425195  L 15.450000000000001 2.2299212598425195  C 15 2.2299212598425195  14.55 2.683464566929134  14.55 3.1370078740157483  C 14.55 3.5905511811023625  15.000000000000004 4.044094488188977  15.450000000000001 4.044094488188977  L 16.8 4.044094488188977  L 12.450000000000001 8.428346456692914  L 10.8 6.765354330708661  C 10.5 6.311811023622047  9.9 6.311811023622047  9.45 6.614173228346457  L 4.5 11.754330708661417  C 4.199999999999999 12.056692913385826  4.199999999999999 12.661417322834644  4.5 12.963779527559057  C 4.800000000000001 13.417322834645672  5.4 13.417322834645672  5.699999999999999 12.963779527559057  L 10.049999999999999 8.57952755905512  L 11.549999999999999 10.091338582677167  L 11.7 10.24251968503937  L 11.7 10.393700787401574  C 11.999999999999998 10.696062992125984  12.599999999999998 10.696062992125984  12.899999999999999 10.393700787401574  L 18 5.40472440944882  L 18 6.765354330708662  C 18 7.218897637795276  18.450000000000003 7.67244094488189  18.9 7.67244094488189  C 19.349999999999998 7.67244094488189  19.799999999999997 7.218897637795276  19.799999999999997 6.765354330708662  L 19.799999999999997 3.2881889763779526  Z " fill-rule="nonzero" fill="rgba(255, 255, 255, 1)" stroke="none" transform="matrix(1 0 0 1 327 86 )" class="fill" />
    <path d="M 23.85 23.092913385826773  C 23.85 23.546456692913385  23.4 23.8488188976378  22.950000000000003 23.8488188976378  L 2.0999999999999996 23.8488188976378  C 1.0499999999999998 23.8488188976378  0.1499999999999998 22.941732283464567  0.1499999999999998 21.883464566929135  L 0.1499999999999998 1.0204724409448818  C 0.15000000000000002 0.5669291338582677  0.6000000000000001 0.11338582677165357  1.0499999999999998 0.11338582677165357  C 1.4999999999999998 0.11338582677165357  1.9499999999999997 0.5669291338582677  2 1.0204724409448818  L 2 22.03464566929134  L 22.950000000000003 22.185826771653545  C 23.400000000000002 22.185826771653545  23.85 22.639370078740157  23.85 23.092913385826773  Z " stroke-width="0" stroke-dasharray="0" stroke="rgba(255, 255, 255, 0)" fill="none" transform="matrix(1 0 0 1 327 86 )" class="stroke" mask="url(#Clip1281)" />
    <path d="M 5.1 20.371653543307087  C 4.6499999999999995 20.371653543307087  4.199999999999999 20.069291338582676  4.199999999999999 19.46456692913386  L 4.199999999999999 16.440944881889763  C 4.199999999999999 15.987401574803147  4.6499999999999995 15.533858267716536  5.1 15.533858267716536  C 5.550000000000001 15.533858267716536  6 15.987401574803151  6 16.440944881889763  L 6 19.46456692913386  C 6 19.918110236220475  5.550000000000001 20.371653543307087  5.1 20.371653543307087  Z " stroke-width="0" stroke-dasharray="0" stroke="rgba(255, 255, 255, 0)" fill="none" transform="matrix(1 0 0 1 327 86 )" class="stroke" mask="url(#Clip1281)" />
    <path d="M 9.75 20.371653543307087  C 9.149999999999999 20.371653543307087  8.850000000000001 20.069291338582676  8.850000000000001 19.46456692913386  L 8.850000000000001 14.022047244094487  C 8.850000000000001 13.568503937007872  9.3 13.11496062992126  9.75 13.11496062992126  C 10.2 13.11496062992126  10.649999999999999 13.568503937007875  10.649999999999999 14.022047244094487  L 10.649999999999999 19.46456692913386  C 10.649999999999999 19.918110236220475  10.2 20.371653543307087  9.75 20.371653543307087  Z " stroke-width="0" stroke-dasharray="0" stroke="rgba(255, 255, 255, 0)" fill="none" transform="matrix(1 0 0 1 327 86 )" class="stroke" mask="url(#Clip1281)" />
    <path d="M 14.25 20.371653543307087  C 13.8 20.371653543307087  13.350000000000001 20.069291338582676  13.350000000000001 19.46456692913386  L 13.350000000000001 16.440944881889763  C 13.350000000000001 15.987401574803147  13.8 15.533858267716536  14.25 15.533858267716536  C 14.7 15.533858267716536  15.149999999999999 15.987401574803151  15.149999999999999 16.440944881889763  L 15.149999999999999 19.46456692913386  C 15.149999999999999 19.918110236220475  14.7 20.371653543307087  14.25 20.371653543307087  Z " stroke-width="0" stroke-dasharray="0" stroke="rgba(255, 255, 255, 0)" fill="none" transform="matrix(1 0 0 1 327 86 )" class="stroke" mask="url(#Clip1281)" />
    <path d="M 18.9 20.371653543307087  C 18.450000000000003 20.371653543307087  18 20.069291338582676  18 19.46456692913386  L 18 14.929133858267717  C 18 14.475590551181101  18.450000000000003 14.022047244094487  18.9 14.022047244094487  C 19.349999999999998 14.022047244094487  19.799999999999997 14.475590551181103  19.799999999999997 14.929133858267717  L 19.799999999999997 19.46456692913386  C 19.799999999999997 19.918110236220475  19.349999999999998 20.371653543307087  18.9 20.371653543307087  Z " stroke-width="0" stroke-dasharray="0" stroke="rgba(255, 255, 255, 0)" fill="none" transform="matrix(1 0 0 1 327 86 )" class="stroke" mask="url(#Clip1281)" />
    <path d="M 19.799999999999997 3.2881889763779526  C 19.799999999999997 2.834645669291338  19.349999999999998 2.229921259842519  18.75 2.2299212598425195  L 15.450000000000001 2.2299212598425195  C 15 2.2299212598425195  14.55 2.683464566929134  14.55 3.1370078740157483  C 14.55 3.5905511811023625  15.000000000000004 4.044094488188977  15.450000000000001 4.044094488188977  L 16.8 4.044094488188977  L 12.450000000000001 8.428346456692914  L 10.8 6.765354330708661  C 10.5 6.311811023622047  9.9 6.311811023622047  9.45 6.614173228346457  L 4.5 11.754330708661417  C 4.199999999999999 12.056692913385826  4.199999999999999 12.661417322834644  4.5 12.963779527559057  C 4.800000000000001 13.417322834645672  5.4 13.417322834645672  5.699999999999999 12.963779527559057  L 10.049999999999999 8.57952755905512  L 11.549999999999999 10.091338582677167  L 11.7 10.24251968503937  L 11.7 10.393700787401574  C 11.999999999999998 10.696062992125984  12.599999999999998 10.696062992125984  12.899999999999999 10.393700787401574  L 18 5.40472440944882  L 18 6.765354330708662  C 18 7.218897637795276  18.450000000000003 7.67244094488189  18.9 7.67244094488189  C 19.349999999999998 7.67244094488189  19.799999999999997 7.218897637795276  19.799999999999997 6.765354330708662  L 19.799999999999997 3.2881889763779526  Z " stroke-width="0" stroke-dasharray="0" stroke="rgba(255, 255, 255, 0)" fill="none" transform="matrix(1 0 0 1 327 86 )" class="stroke" mask="url(#Clip1281)" />
  </g>
</svg>