<?xml version="1.0" encoding="utf-8"?>
<svg version="1.1" xmlns:xlink="http://www.w3.org/1999/xlink" width="12px" height="12px" xmlns="http://www.w3.org/2000/svg">
  <defs>
    <pattern id="BGPattern" patternUnits="userSpaceOnUse" alignment="0 0" imageRepeat="None" />
    <mask fill="white" id="Clip32">
      <path d="M 10 11.89474342105263  L 10 0.1052565789473684  L 11.89474342105263 0.1052565789473684  L 11.89474342105263 11.89474342105263  L 10 11.89474342105263  Z M 6.842111842105265 2.631572368421053  L 8.526315789473685 2.631572368421052  L 8.526315789473685 11.89474342105263  L 6.842111842105265 11.89474342105263  L 6.842111842105265 2.631572368421053  Z M 3.473684210526316 5.157888157894737  L 5.157888157894736 5.157888157894736  L 5.157888157894736 11.89474342105263  L 3.473684210526316 11.89474342105263  L 3.473684210526316 5.157888157894737  Z M 0.10525657894736783 7.68420394736842  L 1.789480263157894 7.68420394736842  L 1.789480263157894 11.89474342105263  L 0.10525657894736783 11.89474342105263  L 0.10525657894736783 7.68420394736842  Z " fill-rule="evenodd" />
    </mask>
  </defs>
  <g transform="matrix(1 0 0 1 -319 -4 )">
    <path d="M 10 11.89474342105263  L 10 0.1052565789473684  L 11.89474342105263 0.1052565789473684  L 11.89474342105263 11.89474342105263  L 10 11.89474342105263  Z M 6.842111842105265 2.631572368421053  L 8.526315789473685 2.631572368421052  L 8.526315789473685 11.89474342105263  L 6.842111842105265 11.89474342105263  L 6.842111842105265 2.631572368421053  Z M 3.473684210526316 5.157888157894737  L 5.157888157894736 5.157888157894736  L 5.157888157894736 11.89474342105263  L 3.473684210526316 11.89474342105263  L 3.473684210526316 5.157888157894737  Z M 0.10525657894736783 7.68420394736842  L 1.789480263157894 7.68420394736842  L 1.789480263157894 11.89474342105263  L 0.10525657894736783 11.89474342105263  L 0.10525657894736783 7.68420394736842  Z " fill-rule="nonzero" fill="rgba(0, 0, 0, 1)" stroke="none" transform="matrix(1 0 0 1 319 4 )" class="fill" />
    <path d="M 10 11.89474342105263  L 10 0.1052565789473684  L 11.89474342105263 0.1052565789473684  L 11.89474342105263 11.89474342105263  L 10 11.89474342105263  Z " stroke-width="0" stroke-dasharray="0" stroke="rgba(255, 255, 255, 0)" fill="none" transform="matrix(1 0 0 1 319 4 )" class="stroke" mask="url(#Clip32)" />
    <path d="M 6.842111842105265 2.631572368421053  L 8.526315789473685 2.631572368421052  L 8.526315789473685 11.89474342105263  L 6.842111842105265 11.89474342105263  L 6.842111842105265 2.631572368421053  Z " stroke-width="0" stroke-dasharray="0" stroke="rgba(255, 255, 255, 0)" fill="none" transform="matrix(1 0 0 1 319 4 )" class="stroke" mask="url(#Clip32)" />
    <path d="M 3.473684210526316 5.157888157894737  L 5.157888157894736 5.157888157894736  L 5.157888157894736 11.89474342105263  L 3.473684210526316 11.89474342105263  L 3.473684210526316 5.157888157894737  Z " stroke-width="0" stroke-dasharray="0" stroke="rgba(255, 255, 255, 0)" fill="none" transform="matrix(1 0 0 1 319 4 )" class="stroke" mask="url(#Clip32)" />
    <path d="M 0.10525657894736783 7.68420394736842  L 1.789480263157894 7.68420394736842  L 1.789480263157894 11.89474342105263  L 0.10525657894736783 11.89474342105263  L 0.10525657894736783 7.68420394736842  Z " stroke-width="0" stroke-dasharray="0" stroke="rgba(255, 255, 255, 0)" fill="none" transform="matrix(1 0 0 1 319 4 )" class="stroke" mask="url(#Clip32)" />
  </g>
</svg>