<?xml version="1.0" encoding="utf-8"?>
<svg version="1.1" xmlns:xlink="http://www.w3.org/1999/xlink" width="21px" height="10px" xmlns="http://www.w3.org/2000/svg">
  <defs>
    <pattern id="BGPattern" patternUnits="userSpaceOnUse" alignment="0 0" imageRepeat="None" />
    <mask fill="white" id="Clip1288">
      <path d="M 20.997949218749998 4.862847222222222  C 21 4.348958333333333  20.671875 3.8993055555555562  20.1837890625 3.6597222222222223  C 20.08125 3.609375000000001  20.015625 3.5173611111111116  20.015625 3.418402777777778  L 20.015625 1.6944444444444449  C 20.015625 0.763888888888889  19.115332031250002 0.0017361111111115059  18.01611328125 0  L 1.99951171875 0  C 0.90029296875 0  0 0.7621527777777775  0 1.6927083333333335  L 0 8.305555555555555  C 0 9.237847222222223  0.90029296875 10  1.99951171875 10  L 18.014062499999998 10  C 19.11328125 10  20.013574218749998 9.237847222222223  20.013574218749998 8.307291666666666  L 20.013574218749998 6.583333333333334  C 20.013574218749998 6.482638888888891  20.079199218750002 6.3923611111111125  20.181738281250002 6.34201388888889  C 20.669824218749998 6.1006944444444455  20.997949218749998 5.652777777777778  20.997949218749998 5.140625000000001  L 20.997949218749998 4.862847222222222  Z M 18.701074218749998 8.307291666666666  L 18.703125 8.307291666666666  C 18.703125 8.515625  18.5759765625 8.652777777777777  18.500097656250002 8.71701388888889  C 18.424218749999998 8.781250000000002  18.260156249999998 8.88888888888889  18.01611328125 8.88888888888889  L 1.99951171875 8.88888888888889  C 1.75546875 8.88888888888889  1.59140625 8.78125  1.51552734375 8.71701388888889  C 1.4396484375 8.652777777777777  1.3125 8.51388888888889  1.3125 8.307291666666666  L 1.3125 1.6927083333333335  C 1.3125 1.4861111111111114  1.4396484375 1.3472222222222228  1.51552734375 1.2829861111111107  C 1.5914062500000001 1.2187499999999998  1.7554687500000001 1.1111111111111112  1.99951171875 1.1111111111111112  L 18.014062499999998 1.1111111111111112  C 18.25810546875 1.1111111111111112  18.42216796875 1.2187499999999998  18.498046875 1.2829861111111107  C 18.57392578125 1.3472222222222217  18.701074218749998 1.4861111111111105  18.701074218749998 1.6927083333333335  L 18.701074218749998 8.307291666666666  Z M 14.765625 2  C 14.94609375 1.8055555555555556  15.09375 1.9305555555555554  15.09375 2.0833333333333335  L 15.09375 7.916666666666666  C 15.09375 8.069444444444443  14.94609375 8.194444444444445  14.765625 8  L 2.296875 8  C 2.1164062500000003 8.194444444444445  1.96875 8.069444444444443  1.96875 7.916666666666666  L 1.96875 2.0833333333333335  C 1.96875 1.9305555555555554  2.1164062500000003 1.8055555555555556  2.296875 2  L 14.765625 2  Z " fill-rule="evenodd" />
    </mask>
  </defs>
  <g transform="matrix(1 0 0 1 -359 -5 )">
    <path d="M 20.997949218749998 4.862847222222222  C 21 4.348958333333333  20.671875 3.8993055555555562  20.1837890625 3.6597222222222223  C 20.08125 3.609375000000001  20.015625 3.5173611111111116  20.015625 3.418402777777778  L 20.015625 1.6944444444444449  C 20.015625 0.763888888888889  19.115332031250002 0.0017361111111115059  18.01611328125 0  L 1.99951171875 0  C 0.90029296875 0  0 0.7621527777777775  0 1.6927083333333335  L 0 8.305555555555555  C 0 9.237847222222223  0.90029296875 10  1.99951171875 10  L 18.014062499999998 10  C 19.11328125 10  20.013574218749998 9.237847222222223  20.013574218749998 8.307291666666666  L 20.013574218749998 6.583333333333334  C 20.013574218749998 6.482638888888891  20.079199218750002 6.3923611111111125  20.181738281250002 6.34201388888889  C 20.669824218749998 6.1006944444444455  20.997949218749998 5.652777777777778  20.997949218749998 5.140625000000001  L 20.997949218749998 4.862847222222222  Z M 18.701074218749998 8.307291666666666  L 18.703125 8.307291666666666  C 18.703125 8.515625  18.5759765625 8.652777777777777  18.500097656250002 8.71701388888889  C 18.424218749999998 8.781250000000002  18.260156249999998 8.88888888888889  18.01611328125 8.88888888888889  L 1.99951171875 8.88888888888889  C 1.75546875 8.88888888888889  1.59140625 8.78125  1.51552734375 8.71701388888889  C 1.4396484375 8.652777777777777  1.3125 8.51388888888889  1.3125 8.307291666666666  L 1.3125 1.6927083333333335  C 1.3125 1.4861111111111114  1.4396484375 1.3472222222222228  1.51552734375 1.2829861111111107  C 1.5914062500000001 1.2187499999999998  1.7554687500000001 1.1111111111111112  1.99951171875 1.1111111111111112  L 18.014062499999998 1.1111111111111112  C 18.25810546875 1.1111111111111112  18.42216796875 1.2187499999999998  18.498046875 1.2829861111111107  C 18.57392578125 1.3472222222222217  18.701074218749998 1.4861111111111105  18.701074218749998 1.6927083333333335  L 18.701074218749998 8.307291666666666  Z M 14.765625 2  C 14.94609375 1.8055555555555556  15.09375 1.9305555555555554  15.09375 2.0833333333333335  L 15.09375 7.916666666666666  C 15.09375 8.069444444444443  14.94609375 8.194444444444445  14.765625 8  L 2.296875 8  C 2.1164062500000003 8.194444444444445  1.96875 8.069444444444443  1.96875 7.916666666666666  L 1.96875 2.0833333333333335  C 1.96875 1.9305555555555554  2.1164062500000003 1.8055555555555556  2.296875 2  L 14.765625 2  Z " fill-rule="nonzero" fill="rgba(0, 0, 0, 1)" stroke="none" transform="matrix(1 0 0 1 359 5 )" class="fill" />
    <path d="M 20.997949218749998 4.862847222222222  C 21 4.348958333333333  20.671875 3.8993055555555562  20.1837890625 3.6597222222222223  C 20.08125 3.609375000000001  20.015625 3.5173611111111116  20.015625 3.418402777777778  L 20.015625 1.6944444444444449  C 20.015625 0.763888888888889  19.115332031250002 0.0017361111111115059  18.01611328125 0  L 1.99951171875 0  C 0.90029296875 0  0 0.7621527777777775  0 1.6927083333333335  L 0 8.305555555555555  C 0 9.237847222222223  0.90029296875 10  1.99951171875 10  L 18.014062499999998 10  C 19.11328125 10  20.013574218749998 9.237847222222223  20.013574218749998 8.307291666666666  L 20.013574218749998 6.583333333333334  C 20.013574218749998 6.482638888888891  20.079199218750002 6.3923611111111125  20.181738281250002 6.34201388888889  C 20.669824218749998 6.1006944444444455  20.997949218749998 5.652777777777778  20.997949218749998 5.140625000000001  L 20.997949218749998 4.862847222222222  Z " stroke-width="0" stroke-dasharray="0" stroke="rgba(255, 255, 255, 0)" fill="none" transform="matrix(1 0 0 1 359 5 )" class="stroke" mask="url(#Clip1288)" />
    <path d="M 18.701074218749998 8.307291666666666  L 18.703125 8.307291666666666  C 18.703125 8.515625  18.5759765625 8.652777777777777  18.500097656250002 8.71701388888889  C 18.424218749999998 8.781250000000002  18.260156249999998 8.88888888888889  18.01611328125 8.88888888888889  L 1.99951171875 8.88888888888889  C 1.75546875 8.88888888888889  1.59140625 8.78125  1.51552734375 8.71701388888889  C 1.4396484375 8.652777777777777  1.3125 8.51388888888889  1.3125 8.307291666666666  L 1.3125 1.6927083333333335  C 1.3125 1.4861111111111114  1.4396484375 1.3472222222222228  1.51552734375 1.2829861111111107  C 1.5914062500000001 1.2187499999999998  1.7554687500000001 1.1111111111111112  1.99951171875 1.1111111111111112  L 18.014062499999998 1.1111111111111112  C 18.25810546875 1.1111111111111112  18.42216796875 1.2187499999999998  18.498046875 1.2829861111111107  C 18.57392578125 1.3472222222222217  18.701074218749998 1.4861111111111105  18.701074218749998 1.6927083333333335  L 18.701074218749998 8.307291666666666  Z " stroke-width="0" stroke-dasharray="0" stroke="rgba(255, 255, 255, 0)" fill="none" transform="matrix(1 0 0 1 359 5 )" class="stroke" mask="url(#Clip1288)" />
    <path d="M 14.765625 2  C 14.94609375 1.8055555555555556  15.09375 1.9305555555555554  15.09375 2.0833333333333335  L 15.09375 7.916666666666666  C 15.09375 8.069444444444443  14.94609375 8.194444444444445  14.765625 8  L 2.296875 8  C 2.1164062500000003 8.194444444444445  1.96875 8.069444444444443  1.96875 7.916666666666666  L 1.96875 2.0833333333333335  C 1.96875 1.9305555555555554  2.1164062500000003 1.8055555555555556  2.296875 2  L 14.765625 2  Z " stroke-width="0" stroke-dasharray="0" stroke="rgba(255, 255, 255, 0)" fill="none" transform="matrix(1 0 0 1 359 5 )" class="stroke" mask="url(#Clip1288)" />
  </g>
</svg>