<?xml version="1.0" encoding="utf-8"?>
<svg version="1.1" xmlns:xlink="http://www.w3.org/1999/xlink" width="16px" height="12px" xmlns="http://www.w3.org/2000/svg">
  <defs>
    <pattern id="BGPattern" patternUnits="userSpaceOnUse" alignment="0 0" imageRepeat="None" />
    <mask fill="white" id="Clip501">
      <path d="M 16 3.513  C 11.585 -1.171  4.422 -1.171  0 3.513  L 1.455 5.056  C 5.069 1.221  10.931000000000001 1.221  14.545 5.056  L 16 3.513  Z M 10.182 9.685  C 8.982000000000001 8.405000000000001  7.025 8.405000000000001  5.818 9.684999999999999  L 8 12  L 10.182 9.685  Z M 2.908999999999999 6.6  L 2.91 6.6  L 4.365 8.142999999999999  C 6.372 6.012999999999998  9.629999999999999 6.012999999999998  11.637 8.142999999999999  L 13.091 6.6  C 10.283999999999999 3.622  5.723999999999999 3.622  2.908999999999999 6.6  Z " fill-rule="evenodd" />
    </mask>
  </defs>
  <g transform="matrix(1 0 0 1 -337 -4 )">
    <path d="M 16 3.513  C 11.585 -1.171  4.422 -1.171  0 3.513  L 1.455 5.056  C 5.069 1.221  10.931000000000001 1.221  14.545 5.056  L 16 3.513  Z M 10.182 9.685  C 8.982000000000001 8.405000000000001  7.025 8.405000000000001  5.818 9.684999999999999  L 8 12  L 10.182 9.685  Z M 2.908999999999999 6.6  L 2.91 6.6  L 4.365 8.142999999999999  C 6.372 6.012999999999998  9.629999999999999 6.012999999999998  11.637 8.142999999999999  L 13.091 6.6  C 10.283999999999999 3.622  5.723999999999999 3.622  2.908999999999999 6.6  Z " fill-rule="nonzero" fill="rgba(51, 51, 51, 1)" stroke="none" transform="matrix(1 0 0 1 337 4 )" class="fill" />
    <path d="M 16 3.513  C 11.585 -1.171  4.422 -1.171  0 3.513  L 1.455 5.056  C 5.069 1.221  10.931000000000001 1.221  14.545 5.056  L 16 3.513  Z " stroke-width="0" stroke-dasharray="0" stroke="rgba(255, 255, 255, 0)" fill="none" transform="matrix(1 0 0 1 337 4 )" class="stroke" mask="url(#Clip501)" />
    <path d="M 10.182 9.685  C 8.982000000000001 8.405000000000001  7.025 8.405000000000001  5.818 9.684999999999999  L 8 12  L 10.182 9.685  Z " stroke-width="0" stroke-dasharray="0" stroke="rgba(255, 255, 255, 0)" fill="none" transform="matrix(1 0 0 1 337 4 )" class="stroke" mask="url(#Clip501)" />
    <path d="M 2.908999999999999 6.6  L 2.91 6.6  L 4.365 8.142999999999999  C 6.372 6.012999999999998  9.629999999999999 6.012999999999998  11.637 8.142999999999999  L 13.091 6.6  C 10.283999999999999 3.622  5.723999999999999 3.622  2.908999999999999 6.6  Z " stroke-width="0" stroke-dasharray="0" stroke="rgba(255, 255, 255, 0)" fill="none" transform="matrix(1 0 0 1 337 4 )" class="stroke" mask="url(#Clip501)" />
  </g>
</svg>