<?xml version="1.0" encoding="utf-8"?>
<svg version="1.1" xmlns:xlink="http://www.w3.org/1999/xlink" width="10px" height="8px" xmlns="http://www.w3.org/2000/svg">
  <defs>
    <pattern id="BGPattern" patternUnits="userSpaceOnUse" alignment="0 0" imageRepeat="None" />
    <mask fill="white" id="Clip18">
      <path d="M 10 1.2  L 0 1.2  L 0 0.4  L 10 0.4  L 10 1.2  Z M 10 4.4  L 0 4.4  L 0 3.6  L 10 3.6  L 10 4.4  Z M 0 7.6  L 10 7.6  L 10 6.8  L 0 6.8  L 0 7.6  Z " fill-rule="evenodd" />
    </mask>
  </defs>
  <g transform="matrix(1 0 0 1 -354 -4 )">
    <path d="M 10 1.2  L 0 1.2  L 0 0.4  L 10 0.4  L 10 1.2  Z M 10 4.4  L 0 4.4  L 0 3.6  L 10 3.6  L 10 4.4  Z M 0 7.6  L 10 7.6  L 10 6.8  L 0 6.8  L 0 7.6  Z " fill-rule="nonzero" fill="rgba(0, 0, 0, 0.8980392156862745)" stroke="none" transform="matrix(1 0 0 1 354 4 )" class="fill" />
    <path d="M 10 1.2  L 0 1.2  L 0 0.4  L 10 0.4  L 10 1.2  Z " stroke-width="0" stroke-dasharray="0" stroke="rgba(255, 255, 255, 0)" fill="none" transform="matrix(1 0 0 1 354 4 )" class="stroke" mask="url(#Clip18)" />
    <path d="M 10 4.4  L 0 4.4  L 0 3.6  L 10 3.6  L 10 4.4  Z " stroke-width="0" stroke-dasharray="0" stroke="rgba(255, 255, 255, 0)" fill="none" transform="matrix(1 0 0 1 354 4 )" class="stroke" mask="url(#Clip18)" />
    <path d="M 0 7.6  L 10 7.6  L 10 6.8  L 0 6.8  L 0 7.6  Z " stroke-width="0" stroke-dasharray="0" stroke="rgba(255, 255, 255, 0)" fill="none" transform="matrix(1 0 0 1 354 4 )" class="stroke" mask="url(#Clip18)" />
  </g>
</svg>