<?xml version="1.0" encoding="utf-8"?>
<svg version="1.1" xmlns:xlink="http://www.w3.org/1999/xlink" width="10px" height="10px" xmlns="http://www.w3.org/2000/svg">
  <defs>
    <pattern id="BGPattern" patternUnits="userSpaceOnUse" alignment="0 0" imageRepeat="None" />
    <mask fill="white" id="Clip49">
      <path d="M 6.900000000000006 3.5500000000000114  C 6.899917160216461 5.206795669080918  5.556795674901906 6.549850000000021  3.9000000037499944 6.549850000000021  C 2.2431457542576254 6.549850000000021  0.9000000037499944 5.20670424949239  0.9000000037499944 3.5498500000000206  C 0.9000000037499944 1.892995750507623  2.2431457542576254 0.5498500000000206  3.9000000037499944 0.5498500000000206  C 5.556795674901906 0.5498500000000206  6.899917160216461 1.892904330919123  6.900000000000006 3.5497000000000014  Z " fill-rule="evenodd" />
    </mask>
  </defs>
  <g transform="matrix(1 0 0 1 -201 -437 )">
    <path d="M 6.900000000000006 3.5500000000000114  C 6.899917160216461 5.206795669080918  5.556795674901906 6.549850000000021  3.9000000037499944 6.549850000000021  C 2.2431457542576254 6.549850000000021  0.9000000037499944 5.20670424949239  0.9000000037499944 3.5498500000000206  C 0.9000000037499944 1.892995750507623  2.2431457542576254 0.5498500000000206  3.9000000037499944 0.5498500000000206  C 5.556795674901906 0.5498500000000206  6.899917160216461 1.892904330919123  6.900000000000006 3.5497000000000014  Z " fill-rule="nonzero" fill="rgba(255, 255, 255, 1)" stroke="none" transform="matrix(1 0 0 1 202 438 )" class="fill" />
    <path d="M 6.900000000000006 3.5500000000000114  C 6.899917160216461 5.206795669080918  5.556795674901906 6.549850000000021  3.9000000037499944 6.549850000000021  C 2.2431457542576254 6.549850000000021  0.9000000037499944 5.20670424949239  0.9000000037499944 3.5498500000000206  C 0.9000000037499944 1.892995750507623  2.2431457542576254 0.5498500000000206  3.9000000037499944 0.5498500000000206  C 5.556795674901906 0.5498500000000206  6.899917160216461 1.892904330919123  6.900000000000006 3.5497000000000014  Z " stroke-width="4" stroke-dasharray="0" stroke="rgba(227, 77, 89, 1)" fill="none" transform="matrix(1 0 0 1 202 438 )" class="stroke" mask="url(#Clip49)" />
  </g>
</svg>