<?xml version="1.0" encoding="utf-8"?>
<svg version="1.1" xmlns:xlink="http://www.w3.org/1999/xlink" width="10px" height="10px" xmlns="http://www.w3.org/2000/svg">
  <defs>
    <pattern id="BGPattern" patternUnits="userSpaceOnUse" alignment="0 0" imageRepeat="None" />
    <mask fill="white" id="Clip53">
      <path d="M 6.899999999999977 3.8100000000000023  C 6.899917160216432 5.466795669080909  5.556795674901878 6.8098500000000115  3.9000000037499376 6.8098500000000115  C 2.2431457542576254 6.8098500000000115  0.9000000037499377 5.4667042494923805  0.9000000037499377 3.809850000000011  C 0.9000000037499377 2.152995750507614  2.2431457542576254 0.8098500000000115  3.9000000037499376 0.8098500000000115  C 5.556795674901878 0.8098500000000115  6.899917160216432 2.152904330919114  6.899999999999977 3.8096999999999923  Z " fill-rule="evenodd" />
    </mask>
  </defs>
  <g transform="matrix(1 0 0 1 -103 -444 )">
    <path d="M 6.899999999999977 3.8100000000000023  C 6.899917160216432 5.466795669080909  5.556795674901878 6.8098500000000115  3.9000000037499376 6.8098500000000115  C 2.2431457542576254 6.8098500000000115  0.9000000037499377 5.4667042494923805  0.9000000037499377 3.809850000000011  C 0.9000000037499377 2.152995750507614  2.2431457542576254 0.8098500000000115  3.9000000037499376 0.8098500000000115  C 5.556795674901878 0.8098500000000115  6.899917160216432 2.152904330919114  6.899999999999977 3.8096999999999923  Z " fill-rule="nonzero" fill="rgba(255, 255, 255, 1)" stroke="none" transform="matrix(1 0 0 1 104 445 )" class="fill" />
    <path d="M 6.899999999999977 3.8100000000000023  C 6.899917160216432 5.466795669080909  5.556795674901878 6.8098500000000115  3.9000000037499376 6.8098500000000115  C 2.2431457542576254 6.8098500000000115  0.9000000037499377 5.4667042494923805  0.9000000037499377 3.809850000000011  C 0.9000000037499377 2.152995750507614  2.2431457542576254 0.8098500000000115  3.9000000037499376 0.8098500000000115  C 5.556795674901878 0.8098500000000115  6.899917160216432 2.152904330919114  6.899999999999977 3.8096999999999923  Z " stroke-width="4" stroke-dasharray="0" stroke="rgba(227, 77, 89, 1)" fill="none" transform="matrix(1 0 0 1 104 445 )" class="stroke" mask="url(#Clip53)" />
  </g>
</svg>