<?xml version="1.0" encoding="utf-8"?>
<svg version="1.1" xmlns:xlink="http://www.w3.org/1999/xlink" width="31px" height="44px" xmlns="http://www.w3.org/2000/svg">
  <defs>
    <pattern id="BGPattern" patternUnits="userSpaceOnUse" alignment="0 0" imageRepeat="None" />
    <mask fill="white" id="Clip58">
      <path d="M 15.149999999999977 43.94  C 15.149999999999977 33.44  5.454999999999984 29.92750000000001  1.5974999999999682 21.7975  C 0.6444299003781566 19.7883474892663  0.14999999999997726 17.592422451663268  0.14999999999997726 15.368678665571736  C 0.14999999999997726 7.0844074181098335  6.865728752538075 0.36867866557173556  15.149999999999977 0.36867866557173556  C 23.43427124746188 0.36867866557173556  30.149999999999977 7.0844074181098335  30.149999999999977 15.368678665571736  C 30.149999999999977 17.592422451663268  29.655570099621798 19.7883474892663  28.702499999999986 21.7975  C 24.84499999999997 29.92750000000001  15.149999999999977 33.44  15.149999999999977 43.94  Z " fill-rule="evenodd" />
    </mask>
  </defs>
  <g transform="matrix(1 0 0 1 -44 -406 )">
    <path d="M 15.149999999999977 43.94  C 15.149999999999977 33.44  5.454999999999984 29.92750000000001  1.5974999999999682 21.7975  C 0.6444299003781566 19.7883474892663  0.14999999999997726 17.592422451663268  0.14999999999997726 15.368678665571736  C 0.14999999999997726 7.0844074181098335  6.865728752538075 0.36867866557173556  15.149999999999977 0.36867866557173556  C 23.43427124746188 0.36867866557173556  30.149999999999977 7.0844074181098335  30.149999999999977 15.368678665571736  C 30.149999999999977 17.592422451663268  29.655570099621798 19.7883474892663  28.702499999999986 21.7975  C 24.84499999999997 29.92750000000001  15.149999999999977 33.44  15.149999999999977 43.94  Z " fill-rule="nonzero" fill="rgba(227, 77, 89, 1)" stroke="none" transform="matrix(1 0 0 1 44 406 )" class="fill" />
    <path d="M 15.149999999999977 43.94  C 15.149999999999977 33.44  5.454999999999984 29.92750000000001  1.5974999999999682 21.7975  C 0.6444299003781566 19.7883474892663  0.14999999999997726 17.592422451663268  0.14999999999997726 15.368678665571736  C 0.14999999999997726 7.0844074181098335  6.865728752538075 0.36867866557173556  15.149999999999977 0.36867866557173556  C 23.43427124746188 0.36867866557173556  30.149999999999977 7.0844074181098335  30.149999999999977 15.368678665571736  C 30.149999999999977 17.592422451663268  29.655570099621798 19.7883474892663  28.702499999999986 21.7975  C 24.84499999999997 29.92750000000001  15.149999999999977 33.44  15.149999999999977 43.94  Z " stroke-width="0" stroke-dasharray="0" stroke="rgba(255, 255, 255, 0)" fill="none" transform="matrix(1 0 0 1 44 406 )" class="stroke" mask="url(#Clip58)" />
  </g>
</svg>