<?xml version="1.0" encoding="utf-8"?>
<svg version="1.1" xmlns:xlink="http://www.w3.org/1999/xlink" width="10px" height="10px" xmlns="http://www.w3.org/2000/svg">
  <defs>
    <pattern id="BGPattern" patternUnits="userSpaceOnUse" alignment="0 0" imageRepeat="None" />
    <mask fill="white" id="Clip60">
      <path d="M 6.399999999999977 3.680000000000007  C 6.399917160216432 5.336795669080914  5.056795674901878 6.679850000000016  3.4000000037499376 6.679850000000016  C 1.7431457542576254 6.679850000000016  0.4000000037499376 5.336704249492385  0.4000000037499376 3.679850000000016  C 0.4000000037499376 2.0229957505076186  1.7431457542576254 0.679850000000016  3.4000000037499376 0.679850000000016  C 5.056795674901878 0.679850000000016  6.399917160216432 2.0229043309191184  6.399999999999977 3.679699999999997  Z " fill-rule="evenodd" />
    </mask>
  </defs>
  <g transform="matrix(1 0 0 1 -298 -446 )">
    <path d="M 6.399999999999977 3.680000000000007  C 6.399917160216432 5.336795669080914  5.056795674901878 6.679850000000016  3.4000000037499376 6.679850000000016  C 1.7431457542576254 6.679850000000016  0.4000000037499376 5.336704249492385  0.4000000037499376 3.679850000000016  C 0.4000000037499376 2.0229957505076186  1.7431457542576254 0.679850000000016  3.4000000037499376 0.679850000000016  C 5.056795674901878 0.679850000000016  6.399917160216432 2.0229043309191184  6.399999999999977 3.679699999999997  Z " fill-rule="nonzero" fill="rgba(255, 255, 255, 1)" stroke="none" transform="matrix(1 0 0 1 299 447 )" class="fill" />
    <path d="M 6.399999999999977 3.680000000000007  C 6.399917160216432 5.336795669080914  5.056795674901878 6.679850000000016  3.4000000037499376 6.679850000000016  C 1.7431457542576254 6.679850000000016  0.4000000037499376 5.336704249492385  0.4000000037499376 3.679850000000016  C 0.4000000037499376 2.0229957505076186  1.7431457542576254 0.679850000000016  3.4000000037499376 0.679850000000016  C 5.056795674901878 0.679850000000016  6.399917160216432 2.0229043309191184  6.399999999999977 3.679699999999997  Z " stroke-width="4" stroke-dasharray="0" stroke="rgba(227, 77, 89, 1)" fill="none" transform="matrix(1 0 0 1 299 447 )" class="stroke" mask="url(#Clip60)" />
  </g>
</svg>