<?xml version="1.0" encoding="utf-8"?>
<svg version="1.1" xmlns:xlink="http://www.w3.org/1999/xlink" width="10px" height="10px" xmlns="http://www.w3.org/2000/svg">
  <defs>
    <pattern id="BGPattern" patternUnits="userSpaceOnUse" alignment="0 0" imageRepeat="None" />
    <mask fill="white" id="Clip60">
      <path d="M 6.149999999999977 3.9399999999999977  C 6.149917160216432 5.596795669080905  4.806795674901878 6.939850000000007  3.1500000037499944 6.939850000000007  C 1.4931457542576254 6.939850000000007  0.15000000374999445 5.596704249492376  0.15000000374999445 3.9398500000000074  C 0.15000000374999445 2.2829957505076095  1.4931457542576254 0.9398500000000068  3.1500000037499944 0.9398500000000068  C 4.806795674901878 0.9398500000000068  6.149917160216432 2.2829043309191093  6.149999999999977 3.9396999999999878  Z " fill-rule="evenodd" />
    </mask>
  </defs>
  <g transform="matrix(1 0 0 1 -347 -440 )">
    <path d="M 6.149999999999977 3.9399999999999977  C 6.149917160216432 5.596795669080905  4.806795674901878 6.939850000000007  3.1500000037499944 6.939850000000007  C 1.4931457542576254 6.939850000000007  0.15000000374999445 5.596704249492376  0.15000000374999445 3.9398500000000074  C 0.15000000374999445 2.2829957505076095  1.4931457542576254 0.9398500000000068  3.1500000037499944 0.9398500000000068  C 4.806795674901878 0.9398500000000068  6.149917160216432 2.2829043309191093  6.149999999999977 3.9396999999999878  Z " fill-rule="nonzero" fill="rgba(255, 255, 255, 1)" stroke="none" transform="matrix(1 0 0 1 348 441 )" class="fill" />
    <path d="M 6.149999999999977 3.9399999999999977  C 6.149917160216432 5.596795669080905  4.806795674901878 6.939850000000007  3.1500000037499944 6.939850000000007  C 1.4931457542576254 6.939850000000007  0.15000000374999445 5.596704249492376  0.15000000374999445 3.9398500000000074  C 0.15000000374999445 2.2829957505076095  1.4931457542576254 0.9398500000000068  3.1500000037499944 0.9398500000000068  C 4.806795674901878 0.9398500000000068  6.149917160216432 2.2829043309191093  6.149999999999977 3.9396999999999878  Z " stroke-width="4" stroke-dasharray="0" stroke="rgba(227, 77, 89, 1)" fill="none" transform="matrix(1 0 0 1 348 441 )" class="stroke" mask="url(#Clip60)" />
  </g>
</svg>