<?xml version="1.0" encoding="utf-8"?>
<svg version="1.1" xmlns:xlink="http://www.w3.org/1999/xlink" width="10px" height="10px" xmlns="http://www.w3.org/2000/svg">
  <defs>
    <pattern id="BGPattern" patternUnits="userSpaceOnUse" alignment="0 0" imageRepeat="None" />
    <mask fill="white" id="Clip1319">
      <path d="M 6.400000000000091 3.1599999999999966  C 6.399917160216546 4.8167956690809035  5.056795674901878 6.159850000000006  3.400000003750165 6.159850000000006  C 1.743145754257739 6.159850000000006  0.400000003750165 4.816704249492375  0.400000003750165 3.159850000000006  C 0.400000003750165 1.5029957505076084  1.743145754257739 0.15985000000000582  3.400000003750165 0.15985000000000582  C 5.056795674901878 0.15985000000000582  6.399917160216546 1.5029043309191081  6.400000000000091 3.1596999999999866  Z " fill-rule="evenodd" />
    </mask>
  </defs>
  <g transform="matrix(1 0 0 1 -55 -445 )">
    <path d="M 6.400000000000091 3.1599999999999966  C 6.399917160216546 4.8167956690809035  5.056795674901878 6.159850000000006  3.400000003750165 6.159850000000006  C 1.743145754257739 6.159850000000006  0.400000003750165 4.816704249492375  0.400000003750165 3.159850000000006  C 0.400000003750165 1.5029957505076084  1.743145754257739 0.15985000000000582  3.400000003750165 0.15985000000000582  C 5.056795674901878 0.15985000000000582  6.399917160216546 1.5029043309191081  6.400000000000091 3.1596999999999866  Z " fill-rule="nonzero" fill="rgba(255, 255, 255, 1)" stroke="none" transform="matrix(1 0 0 1 56 446 )" class="fill" />
    <path d="M 6.400000000000091 3.1599999999999966  C 6.399917160216546 4.8167956690809035  5.056795674901878 6.159850000000006  3.400000003750165 6.159850000000006  C 1.743145754257739 6.159850000000006  0.400000003750165 4.816704249492375  0.400000003750165 3.159850000000006  C 0.400000003750165 1.5029957505076084  1.743145754257739 0.15985000000000582  3.400000003750165 0.15985000000000582  C 5.056795674901878 0.15985000000000582  6.399917160216546 1.5029043309191081  6.400000000000091 3.1596999999999866  Z " stroke-width="4" stroke-dasharray="0" stroke="rgba(227, 77, 89, 1)" fill="none" transform="matrix(1 0 0 1 56 446 )" class="stroke" mask="url(#Clip1319)" />
  </g>
</svg>