<?xml version="1.0" encoding="utf-8"?>
<svg version="1.1" xmlns:xlink="http://www.w3.org/1999/xlink" width="10px" height="10px" xmlns="http://www.w3.org/2000/svg">
  <defs>
    <pattern id="BGPattern" patternUnits="userSpaceOnUse" alignment="0 0" imageRepeat="None" />
    <mask fill="white" id="Clip65">
      <path d="M 4.900000000000006 0.828000000000003  C 7.109060892107863 0.8281104530447578  8.899799999999999 2.618939100130831  8.899799999999999 4.827999994999999  C 8.899799999999999 7.037138994323186  7.108938999323186 8.827999994999999  4.899799999999999 8.827999994999999  C 2.6906610006768403 8.827999994999999  0.899799999999999 7.037138994323186  0.899799999999999 4.827999994999999  C 0.899799999999999 2.618939100130831  2.6905391078921355 0.8281104530447578  4.899599999999992 0.828000000000003  Z " fill-rule="evenodd" />
    </mask>
  </defs>
  <g transform="matrix(1 0 0 1 -5 -441 )">
    <path d="M 4.900000000000006 0.828000000000003  C 7.109060892107863 0.8281104530447578  8.899799999999999 2.618939100130831  8.899799999999999 4.827999994999999  C 8.899799999999999 7.037138994323186  7.108938999323186 8.827999994999999  4.899799999999999 8.827999994999999  C 2.6906610006768403 8.827999994999999  0.899799999999999 7.037138994323186  0.899799999999999 4.827999994999999  C 0.899799999999999 2.618939100130831  2.6905391078921355 0.8281104530447578  4.899599999999992 0.828000000000003  Z " fill-rule="nonzero" fill="rgba(227, 77, 89, 1)" stroke="none" transform="matrix(1 0 0 1 5 441 )" class="fill" />
    <path d="M 4.900000000000006 0.828000000000003  C 7.109060892107863 0.8281104530447578  8.899799999999999 2.618939100130831  8.899799999999999 4.827999994999999  C 8.899799999999999 7.037138994323186  7.108938999323186 8.827999994999999  4.899799999999999 8.827999994999999  C 2.6906610006768403 8.827999994999999  0.899799999999999 7.037138994323186  0.899799999999999 4.827999994999999  C 0.899799999999999 2.618939100130831  2.6905391078921355 0.8281104530447578  4.899599999999992 0.828000000000003  Z " stroke-width="0" stroke-dasharray="0" stroke="rgba(255, 255, 255, 0)" fill="none" transform="matrix(1 0 0 1 5 441 )" class="stroke" mask="url(#Clip65)" />
  </g>
</svg>