<?xml version="1.0" encoding="utf-8"?>
<svg version="1.1" xmlns:xlink="http://www.w3.org/1999/xlink" width="31px" height="45px" xmlns="http://www.w3.org/2000/svg">
  <defs>
    <pattern id="BGPattern" patternUnits="userSpaceOnUse" alignment="0 0" imageRepeat="None" />
    <mask fill="white" id="Clip66">
      <path d="M 15.400000000000091 44.16  C 15.400000000000091 33.66  5.705000000000155 30.147499999999994  1.8475000000000819 22.0175  C 0.8944299003783271 20.0083474892663  0.40000000000009095 17.812422451663267  0.40000000000009095 15.588678665571734  C 0.40000000000009095 7.304407418109832  7.115728752538189 0.5886786655717344  15.400000000000091 0.5886786655717344  C 23.684271247461993 0.5886786655717344  30.40000000000009 7.304407418109832  30.40000000000009 15.588678665571734  C 30.40000000000009 17.812422451663267  29.905570099621855 20.0083474892663  28.9525000000001 22.0175  C 25.095000000000027 30.147499999999994  15.400000000000091 33.66  15.400000000000091 44.16  Z " fill-rule="evenodd" />
    </mask>
  </defs>
  <g transform="matrix(1 0 0 1 -336 -400 )">
    <path d="M 15.400000000000091 44.16  C 15.400000000000091 33.66  5.705000000000155 30.147499999999994  1.8475000000000819 22.0175  C 0.8944299003783271 20.0083474892663  0.40000000000009095 17.812422451663267  0.40000000000009095 15.588678665571734  C 0.40000000000009095 7.304407418109832  7.115728752538189 0.5886786655717344  15.400000000000091 0.5886786655717344  C 23.684271247461993 0.5886786655717344  30.40000000000009 7.304407418109832  30.40000000000009 15.588678665571734  C 30.40000000000009 17.812422451663267  29.905570099621855 20.0083474892663  28.9525000000001 22.0175  C 25.095000000000027 30.147499999999994  15.400000000000091 33.66  15.400000000000091 44.16  Z " fill-rule="nonzero" fill="rgba(227, 77, 89, 1)" stroke="none" transform="matrix(1 0 0 1 336 400 )" class="fill" />
    <path d="M 15.400000000000091 44.16  C 15.400000000000091 33.66  5.705000000000155 30.147499999999994  1.8475000000000819 22.0175  C 0.8944299003783271 20.0083474892663  0.40000000000009095 17.812422451663267  0.40000000000009095 15.588678665571734  C 0.40000000000009095 7.304407418109832  7.115728752538189 0.5886786655717344  15.400000000000091 0.5886786655717344  C 23.684271247461993 0.5886786655717344  30.40000000000009 7.304407418109832  30.40000000000009 15.588678665571734  C 30.40000000000009 17.812422451663267  29.905570099621855 20.0083474892663  28.9525000000001 22.0175  C 25.095000000000027 30.147499999999994  15.400000000000091 33.66  15.400000000000091 44.16  Z " stroke-width="0" stroke-dasharray="0" stroke="rgba(255, 255, 255, 0)" fill="none" transform="matrix(1 0 0 1 336 400 )" class="stroke" mask="url(#Clip66)" />
  </g>
</svg>