<?xml version="1.0" encoding="utf-8"?>
<svg version="1.1" xmlns:xlink="http://www.w3.org/1999/xlink" width="23px" height="28px" xmlns="http://www.w3.org/2000/svg">
  <defs>
    <pattern id="BGPattern" patternUnits="userSpaceOnUse" alignment="0 0" imageRepeat="None" />
    <mask fill="white" id="Clip537">
      <path d="M 10.932666666666664 27.31850847457627  C 10.610666666666663 27.682983050847458  10.196666666666664 27.86522033898305  9.767333333333333 27.86522033898305  C 9.522 27.86522033898305  9.276666666666667 27.804474576271186  9.046666666666667 27.698169491525427  C 8.402666666666665 27.37925423728814  8.096 26.695864406779663  8.249333333333333 26.012474576271188  L 10.395999999999999 16.612067796610173  L 1.6713333333333331 16.612067796610173  C 1.058 16.612067796610173  0.521333333333333 16.262779661016953  0.27600000000000025 15.716067796610172  C 0.030666666666666696 15.169355932203391  0.12266666666666678 14.546711864406785  0.5213333333333338 14.091118644067798  L 12.113333333333335 0.6511186440677966  C 12.588666666666667 0.10440677966101683  13.340000000000002 -0.032271186440677994  13.984 0.2866440677966102  C 14.628 0.6055593220338984  14.934666666666667 1.2889491525423729  14.781333333333333 1.9723389830508478  L 12.634666666666664 11.372745762711864  L 21.359333333333332 11.372745762711864  C 21.972666666666665 11.372745762711864  22.493999999999996 11.706847457627118  22.75466666666666 12.253559322033897  C 23.015333333333327 12.800271186440678  22.92333333333333 13.422915254237287  22.524666666666665 13.878508474576272  L 10.932666666666664 27.31850847457627  Z M 11.898666666666665 16.946169491525424  L 9.751999999999999 26.34657627118644  C 9.751999999999999 26.34657627118644  9.767333333333333 26.34657627118644  9.751999999999999 26.34657627118644  L 21.343999999999998 12.90657627118644  L 12.619333333333334 12.891389830508473  C 12.144 12.891389830508473  11.714666666666666 12.678779661016948  11.423333333333332 12.314305084745762  C 11.132 11.949830508474575  11.024666666666667 11.479050847457625  11.116666666666667 11.038644067796609  L 13.263333333333334 1.6382372881355922  L 13.248000000000001 1.6382372881355922  L 1.6713333333333347 15.078237288135593  L 1.6713333333333347 15.093423728813555  L 10.396 15.093423728813555  C 10.871333333333334 15.093423728813555  11.300666666666668 15.306033898305083  11.592 15.67050847457627  C 11.883333333333333 16.034983050847455  11.990666666666666 16.505762711864406  11.898666666666665 16.946169491525424  Z " fill-rule="evenodd" />
    </mask>
  </defs>
  <g transform="matrix(1 0 0 1 -76 -520 )">
    <path d="M 10.932666666666664 27.31850847457627  C 10.610666666666663 27.682983050847458  10.196666666666664 27.86522033898305  9.767333333333333 27.86522033898305  C 9.522 27.86522033898305  9.276666666666667 27.804474576271186  9.046666666666667 27.698169491525427  C 8.402666666666665 27.37925423728814  8.096 26.695864406779663  8.249333333333333 26.012474576271188  L 10.395999999999999 16.612067796610173  L 1.6713333333333331 16.612067796610173  C 1.058 16.612067796610173  0.521333333333333 16.262779661016953  0.27600000000000025 15.716067796610172  C 0.030666666666666696 15.169355932203391  0.12266666666666678 14.546711864406785  0.5213333333333338 14.091118644067798  L 12.113333333333335 0.6511186440677966  C 12.588666666666667 0.10440677966101683  13.340000000000002 -0.032271186440677994  13.984 0.2866440677966102  C 14.628 0.6055593220338984  14.934666666666667 1.2889491525423729  14.781333333333333 1.9723389830508478  L 12.634666666666664 11.372745762711864  L 21.359333333333332 11.372745762711864  C 21.972666666666665 11.372745762711864  22.493999999999996 11.706847457627118  22.75466666666666 12.253559322033897  C 23.015333333333327 12.800271186440678  22.92333333333333 13.422915254237287  22.524666666666665 13.878508474576272  L 10.932666666666664 27.31850847457627  Z M 11.898666666666665 16.946169491525424  L 9.751999999999999 26.34657627118644  C 9.751999999999999 26.34657627118644  9.767333333333333 26.34657627118644  9.751999999999999 26.34657627118644  L 21.343999999999998 12.90657627118644  L 12.619333333333334 12.891389830508473  C 12.144 12.891389830508473  11.714666666666666 12.678779661016948  11.423333333333332 12.314305084745762  C 11.132 11.949830508474575  11.024666666666667 11.479050847457625  11.116666666666667 11.038644067796609  L 13.263333333333334 1.6382372881355922  L 13.248000000000001 1.6382372881355922  L 1.6713333333333347 15.078237288135593  L 1.6713333333333347 15.093423728813555  L 10.396 15.093423728813555  C 10.871333333333334 15.093423728813555  11.300666666666668 15.306033898305083  11.592 15.67050847457627  C 11.883333333333333 16.034983050847455  11.990666666666666 16.505762711864406  11.898666666666665 16.946169491525424  Z " fill-rule="nonzero" fill="rgba(0, 0, 0, 1)" stroke="none" transform="matrix(1 0 0 1 76 520 )" class="fill" />
    <path d="M 10.932666666666664 27.31850847457627  C 10.610666666666663 27.682983050847458  10.196666666666664 27.86522033898305  9.767333333333333 27.86522033898305  C 9.522 27.86522033898305  9.276666666666667 27.804474576271186  9.046666666666667 27.698169491525427  C 8.402666666666665 27.37925423728814  8.096 26.695864406779663  8.249333333333333 26.012474576271188  L 10.395999999999999 16.612067796610173  L 1.6713333333333331 16.612067796610173  C 1.058 16.612067796610173  0.521333333333333 16.262779661016953  0.27600000000000025 15.716067796610172  C 0.030666666666666696 15.169355932203391  0.12266666666666678 14.546711864406785  0.5213333333333338 14.091118644067798  L 12.113333333333335 0.6511186440677966  C 12.588666666666667 0.10440677966101683  13.340000000000002 -0.032271186440677994  13.984 0.2866440677966102  C 14.628 0.6055593220338984  14.934666666666667 1.2889491525423729  14.781333333333333 1.9723389830508478  L 12.634666666666664 11.372745762711864  L 21.359333333333332 11.372745762711864  C 21.972666666666665 11.372745762711864  22.493999999999996 11.706847457627118  22.75466666666666 12.253559322033897  C 23.015333333333327 12.800271186440678  22.92333333333333 13.422915254237287  22.524666666666665 13.878508474576272  L 10.932666666666664 27.31850847457627  Z " stroke-width="0" stroke-dasharray="0" stroke="rgba(255, 255, 255, 0)" fill="none" transform="matrix(1 0 0 1 76 520 )" class="stroke" mask="url(#Clip537)" />
    <path d="M 11.898666666666665 16.946169491525424  L 9.751999999999999 26.34657627118644  C 9.751999999999999 26.34657627118644  9.767333333333333 26.34657627118644  9.751999999999999 26.34657627118644  L 21.343999999999998 12.90657627118644  L 12.619333333333334 12.891389830508473  C 12.144 12.891389830508473  11.714666666666666 12.678779661016948  11.423333333333332 12.314305084745762  C 11.132 11.949830508474575  11.024666666666667 11.479050847457625  11.116666666666667 11.038644067796609  L 13.263333333333334 1.6382372881355922  L 13.248000000000001 1.6382372881355922  L 1.6713333333333347 15.078237288135593  L 1.6713333333333347 15.093423728813555  L 10.396 15.093423728813555  C 10.871333333333334 15.093423728813555  11.300666666666668 15.306033898305083  11.592 15.67050847457627  C 11.883333333333333 16.034983050847455  11.990666666666666 16.505762711864406  11.898666666666665 16.946169491525424  Z " stroke-width="0" stroke-dasharray="0" stroke="rgba(255, 255, 255, 0)" fill="none" transform="matrix(1 0 0 1 76 520 )" class="stroke" mask="url(#Clip537)" />
  </g>
</svg>