<?xml version="1.0" encoding="utf-8"?>
<svg version="1.1" xmlns:xlink="http://www.w3.org/1999/xlink" width="28px" height="28px" xmlns="http://www.w3.org/2000/svg">
  <defs>
    <pattern id="BGPattern" patternUnits="userSpaceOnUse" alignment="0 0" imageRepeat="None" />
    <mask fill="white" id="Clip59">
      <path d="M 17.639999999999997 12.494999999999994  L 17.68666667578125 12.495  L 13.45166667578125 10.045  C 13.18840482267343 9.895670751126383  12.890913940788865 9.81717279801336  12.588249063621191 9.81717279801336  C 11.628450459110839 9.81717279801336  10.847751854258043 10.590247608749047  10.83833332421875 11.549999999999999  L 10.83833332421875 16.449999999999996  C 10.832275614757492 17.06199866396663  11.146379751778824 17.632694900361543  11.666666675781249 17.954999999999995  C 12.204508878059718 18.26552334026701  12.86715779772153 18.26552334026701  13.405000000000001 17.955  L 17.639999999999997 15.504999999999992  C 18.18376695328859 15.19919837094759  18.520290394654776 14.623856662880065  18.520290394654776 13.999999999999995  C 18.520290394654776 13.37614333711992  18.18376695328859 12.8008016290524  17.639999999999997 12.494999999999994  Z M 15.63333332421875 14  L 13.171666675781251 15.42333332421875  L 13.171666675781251 12.576666675781247  L 15.63333332421875 14  Z M 28 14  C 28 6.268013502368891  21.73198649763111 0  14 0  C 6.268013502368891 0  0 6.268013502368891  0 14  C 0 21.73198649763111  6.268013502368891 28  14 28  C 21.73198649763111 28  28 21.73198649763111  28 14  Z M 13.999999999999998 25.66666667578125  C 7.5566779136068964 25.66666667578125  2.333333324218749 20.443322086393103  2.333333324218749 13.999999999999998  C 2.333333324218749 7.5566779136068964  7.5566779136068964 2.333333324218749  13.999999999999998 2.333333324218749  C 20.443322086393103 2.333333324218749  25.66666667578125 7.5566779136068964  25.66666667578125 13.999999999999998  C 25.66666667578125 20.443322086393103  20.443322086393103 25.66666667578125  13.999999999999998 25.66666667578125  Z " fill-rule="evenodd" />
    </mask>
  </defs>
  <g transform="matrix(1 0 0 1 -181 -520 )">
    <path d="M 17.639999999999997 12.494999999999994  L 17.68666667578125 12.495  L 13.45166667578125 10.045  C 13.18840482267343 9.895670751126383  12.890913940788865 9.81717279801336  12.588249063621191 9.81717279801336  C 11.628450459110839 9.81717279801336  10.847751854258043 10.590247608749047  10.83833332421875 11.549999999999999  L 10.83833332421875 16.449999999999996  C 10.832275614757492 17.06199866396663  11.146379751778824 17.632694900361543  11.666666675781249 17.954999999999995  C 12.204508878059718 18.26552334026701  12.86715779772153 18.26552334026701  13.405000000000001 17.955  L 17.639999999999997 15.504999999999992  C 18.18376695328859 15.19919837094759  18.520290394654776 14.623856662880065  18.520290394654776 13.999999999999995  C 18.520290394654776 13.37614333711992  18.18376695328859 12.8008016290524  17.639999999999997 12.494999999999994  Z M 15.63333332421875 14  L 13.171666675781251 15.42333332421875  L 13.171666675781251 12.576666675781247  L 15.63333332421875 14  Z M 28 14  C 28 6.268013502368891  21.73198649763111 0  14 0  C 6.268013502368891 0  0 6.268013502368891  0 14  C 0 21.73198649763111  6.268013502368891 28  14 28  C 21.73198649763111 28  28 21.73198649763111  28 14  Z M 13.999999999999998 25.66666667578125  C 7.5566779136068964 25.66666667578125  2.333333324218749 20.443322086393103  2.333333324218749 13.999999999999998  C 2.333333324218749 7.5566779136068964  7.5566779136068964 2.333333324218749  13.999999999999998 2.333333324218749  C 20.443322086393103 2.333333324218749  25.66666667578125 7.5566779136068964  25.66666667578125 13.999999999999998  C 25.66666667578125 20.443322086393103  20.443322086393103 25.66666667578125  13.999999999999998 25.66666667578125  Z " fill-rule="nonzero" fill="rgba(0, 0, 0, 1)" stroke="none" transform="matrix(1 0 0 1 181 520 )" class="fill" />
    <path d="M 17.639999999999997 12.494999999999994  L 17.68666667578125 12.495  L 13.45166667578125 10.045  C 13.18840482267343 9.895670751126383  12.890913940788865 9.81717279801336  12.588249063621191 9.81717279801336  C 11.628450459110839 9.81717279801336  10.847751854258043 10.590247608749047  10.83833332421875 11.549999999999999  L 10.83833332421875 16.449999999999996  C 10.832275614757492 17.06199866396663  11.146379751778824 17.632694900361543  11.666666675781249 17.954999999999995  C 12.204508878059718 18.26552334026701  12.86715779772153 18.26552334026701  13.405000000000001 17.955  L 17.639999999999997 15.504999999999992  C 18.18376695328859 15.19919837094759  18.520290394654776 14.623856662880065  18.520290394654776 13.999999999999995  C 18.520290394654776 13.37614333711992  18.18376695328859 12.8008016290524  17.639999999999997 12.494999999999994  Z " stroke-width="0" stroke-dasharray="0" stroke="rgba(255, 255, 255, 0)" fill="none" transform="matrix(1 0 0 1 181 520 )" class="stroke" mask="url(#Clip59)" />
    <path d="M 15.63333332421875 14  L 13.171666675781251 15.42333332421875  L 13.171666675781251 12.576666675781247  L 15.63333332421875 14  Z " stroke-width="0" stroke-dasharray="0" stroke="rgba(255, 255, 255, 0)" fill="none" transform="matrix(1 0 0 1 181 520 )" class="stroke" mask="url(#Clip59)" />
    <path d="M 28 14  C 28 6.268013502368891  21.73198649763111 0  14 0  C 6.268013502368891 0  0 6.268013502368891  0 14  C 0 21.73198649763111  6.268013502368891 28  14 28  C 21.73198649763111 28  28 21.73198649763111  28 14  Z " stroke-width="0" stroke-dasharray="0" stroke="rgba(255, 255, 255, 0)" fill="none" transform="matrix(1 0 0 1 181 520 )" class="stroke" mask="url(#Clip59)" />
    <path d="M 13.999999999999998 25.66666667578125  C 7.5566779136068964 25.66666667578125  2.333333324218749 20.443322086393103  2.333333324218749 13.999999999999998  C 2.333333324218749 7.5566779136068964  7.5566779136068964 2.333333324218749  13.999999999999998 2.333333324218749  C 20.443322086393103 2.333333324218749  25.66666667578125 7.5566779136068964  25.66666667578125 13.999999999999998  C 25.66666667578125 20.443322086393103  20.443322086393103 25.66666667578125  13.999999999999998 25.66666667578125  Z " stroke-width="0" stroke-dasharray="0" stroke="rgba(255, 255, 255, 0)" fill="none" transform="matrix(1 0 0 1 181 520 )" class="stroke" mask="url(#Clip59)" />
  </g>
</svg>