<?xml version="1.0" encoding="utf-8"?>
<svg version="1.1" xmlns:xlink="http://www.w3.org/1999/xlink" width="40px" height="20px" xmlns="http://www.w3.org/2000/svg">
  <defs>
    <pattern id="BGPattern" patternUnits="userSpaceOnUse" alignment="0 0" imageRepeat="None" />
    <mask fill="white" id="Clip50">
      <path d="M 0 10  C 0 4.4771525000000025  4.472075920000033 0  9.990506770000028 0  L 30.00949320000002 0  C 35.527097800000014 0  40 4.47593818  40 10  C 40 15.522847499999997  35.527924100000014 20  30.00949320000002 20  L 9.990506770000028 20  C 4.472902240000034 20  0 15.524061799999998  0 10  Z " fill-rule="evenodd" />
    </mask>
  </defs>
  <g transform="matrix(1 0 0 1 -34 0 )">
    <path d="M 0 10  C 0 4.4771525000000025  4.472075920000033 0  9.990506770000028 0  L 30.00949320000002 0  C 35.527097800000014 0  40 4.47593818  40 10  C 40 15.522847499999997  35.527924100000014 20  30.00949320000002 20  L 9.990506770000028 20  C 4.472902240000034 20  0 15.524061799999998  0 10  Z " fill-rule="nonzero" fill="rgba(0, 82, 217, 1)" stroke="none" transform="matrix(1 0 0 1 34 0 )" class="fill" />
    <path d="M 0 10  C 0 4.4771525000000025  4.472075920000033 0  9.990506770000028 0  L 30.00949320000002 0  C 35.527097800000014 0  40 4.47593818  40 10  C 40 15.522847499999997  35.527924100000014 20  30.00949320000002 20  L 9.990506770000028 20  C 4.472902240000034 20  0 15.524061799999998  0 10  Z " stroke-width="0" stroke-dasharray="0" stroke="rgba(255, 255, 255, 0)" fill="none" transform="matrix(1 0 0 1 34 0 )" class="stroke" mask="url(#Clip50)" />
  </g>
</svg>