<?xml version="1.0" encoding="utf-8"?>
<svg version="1.1" xmlns:xlink="http://www.w3.org/1999/xlink" width="40px" height="20px" xmlns="http://www.w3.org/2000/svg">
  <defs>
    <pattern id="BGPattern" patternUnits="userSpaceOnUse" alignment="0 0" imageRepeat="None" />
    <mask fill="white" id="Clip519">
      <path d="M 0 10  C 0 4.4771525000000025  4.47207592 0  9.99050677 0  L 30.0094932 0  C 35.5270978 0  40 4.47593818  40 10  C 40 15.522847499999997  35.5279241 20  30.0094932 20  L 9.99050677 20  C 4.47290224 20  0 15.524061799999998  0 10  Z " fill-rule="evenodd" />
    </mask>
  </defs>
  <g transform="matrix(1 0 0 1 -34 0 )">
    <path d="M 0 10  C 0 4.4771525000000025  4.47207592 0  9.99050677 0  L 30.0094932 0  C 35.5270978 0  40 4.47593818  40 10  C 40 15.522847499999997  35.5279241 20  30.0094932 20  L 9.99050677 20  C 4.47290224 20  0 15.524061799999998  0 10  Z " fill-rule="nonzero" fill="rgba(187, 187, 187, 1)" stroke="none" transform="matrix(1 0 0 1 34 0 )" class="fill" />
    <path d="M 0 10  C 0 4.4771525000000025  4.47207592 0  9.99050677 0  L 30.0094932 0  C 35.5270978 0  40 4.47593818  40 10  C 40 15.522847499999997  35.5279241 20  30.0094932 20  L 9.99050677 20  C 4.47290224 20  0 15.524061799999998  0 10  Z " stroke-width="0" stroke-dasharray="0" stroke="rgba(255, 255, 255, 0)" fill="none" transform="matrix(1 0 0 1 34 0 )" class="stroke" mask="url(#Clip519)" />
  </g>
</svg>