<?xml version="1.0" encoding="utf-8"?>
<svg version="1.1" xmlns:xlink="http://www.w3.org/1999/xlink" width="12px" height="11px" xmlns="http://www.w3.org/2000/svg">
  <defs>
    <pattern id="BGPattern" patternUnits="userSpaceOnUse" alignment="0 0" imageRepeat="None" />
    <mask fill="white" id="Clip86">
      <path d="M 1.1589993514286172 10.884277800000003  L 4.255823545714261 10.27285346153842  L 10.510911085714334 4.097959740769231  L 7.730872285714311 1.353562125384612  L 1.475784814285719 7.528456176153869  L 0.8564200542856986 10.585577707692332  C 0.8204340599999602 10.763199784615425  0.9790712742856806 10.919801538461526  1.1589993514286172 10.884277800000003  Z M 8.470226057142845 0.6235756323076814  L 11.25026485714287 3.367972739999975  L 11.856357000000019 2.769651779230772  L 9.076318199999996 0.025254468461490924  L 8.470226057142845 0.6235756323076814  Z M 7.730872285714311 2.5502041484615594  L 9.298728428571394 4.097959740769231  L 3.83324166857145 9.493375099999971  L 1.8734219400000387 9.880314146153882  L 2.265385971428616 7.945620523076951  L 7.730872285714311 2.5502041484615594  Z " fill-rule="evenodd" />
    </mask>
  </defs>
  <g transform="matrix(1 0 0 1 -358 -100 )">
    <path d="M 1.1589993514286172 10.884277800000003  L 4.255823545714261 10.27285346153842  L 10.510911085714334 4.097959740769231  L 7.730872285714311 1.353562125384612  L 1.475784814285719 7.528456176153869  L 0.8564200542856986 10.585577707692332  C 0.8204340599999602 10.763199784615425  0.9790712742856806 10.919801538461526  1.1589993514286172 10.884277800000003  Z M 8.470226057142845 0.6235756323076814  L 11.25026485714287 3.367972739999975  L 11.856357000000019 2.769651779230772  L 9.076318199999996 0.025254468461490924  L 8.470226057142845 0.6235756323076814  Z M 7.730872285714311 2.5502041484615594  L 9.298728428571394 4.097959740769231  L 3.83324166857145 9.493375099999971  L 1.8734219400000387 9.880314146153882  L 2.265385971428616 7.945620523076951  L 7.730872285714311 2.5502041484615594  Z " fill-rule="nonzero" fill="rgba(255, 255, 255, 0.8980392156862745)" stroke="none" transform="matrix(1 0 0 1 358 100 )" class="fill" />
    <path d="M 1.1589993514286172 10.884277800000003  L 4.255823545714261 10.27285346153842  L 10.510911085714334 4.097959740769231  L 7.730872285714311 1.353562125384612  L 1.475784814285719 7.528456176153869  L 0.8564200542856986 10.585577707692332  C 0.8204340599999602 10.763199784615425  0.9790712742856806 10.919801538461526  1.1589993514286172 10.884277800000003  Z " stroke-width="0" stroke-dasharray="0" stroke="rgba(255, 255, 255, 0)" fill="none" transform="matrix(1 0 0 1 358 100 )" class="stroke" mask="url(#Clip86)" />
    <path d="M 8.470226057142845 0.6235756323076814  L 11.25026485714287 3.367972739999975  L 11.856357000000019 2.769651779230772  L 9.076318199999996 0.025254468461490924  L 8.470226057142845 0.6235756323076814  Z " stroke-width="0" stroke-dasharray="0" stroke="rgba(255, 255, 255, 0)" fill="none" transform="matrix(1 0 0 1 358 100 )" class="stroke" mask="url(#Clip86)" />
    <path d="M 7.730872285714311 2.5502041484615594  L 9.298728428571394 4.097959740769231  L 3.83324166857145 9.493375099999971  L 1.8734219400000387 9.880314146153882  L 2.265385971428616 7.945620523076951  L 7.730872285714311 2.5502041484615594  Z " stroke-width="0" stroke-dasharray="0" stroke="rgba(255, 255, 255, 0)" fill="none" transform="matrix(1 0 0 1 358 100 )" class="stroke" mask="url(#Clip86)" />
  </g>
</svg>