<?xml version="1.0" encoding="utf-8"?>
<svg version="1.1" xmlns:xlink="http://www.w3.org/1999/xlink" width="9px" height="14px" xmlns="http://www.w3.org/2000/svg">
  <defs>
    <pattern id="BGPattern" patternUnits="userSpaceOnUse" alignment="0 0" imageRepeat="None" />
    <mask fill="white" id="Clip75">
      <path d="M 3.5874999999999986 0.11150442477875824  C 3.1625000000000014 0.08672566371681276  2.862499999999997 0.19823008849557805  2.5625 0.29734513274336  C 2.262500000000003 0.39646017699114905  1.9500000000000028 0.49557522123893805  1.6499999999999986 0.5946902654867271  L 2.1625000000000014 1.7097345132743376  C 2.1625000000000014 1.9079646017699086  2.362499999999997 2.118584070796463  2.575000000000003 2.118584070796463  C 2.7124999999999986 2.1929203539822995  2.8125 2.1557522123893778  2.887500000000003 2.143362831858408  C 2.924999999999997 2.130973451327432  2.950000000000003 2.118584070796463  2.987499999999997 2.118584070796463  C 3.0874999999999986 2.118584070796463  3.2875000000000014 2.019469026548674  3.5 2.019469026548674  C 3.700000000000003 1.9203539823008848  4.012500000000003 1.9203539823008848  4.212499999999999 1.9203539823008848  C 4.625 1.9203539823008848  4.924999999999997 1.9203539823008848  5.225000000000001 2.019469026548674  C 5.524999999999999 2.118584070796463  5.737499999999997 2.217699115044245  5.9375 2.316814159292034  C 6.137500000000003 2.5150442477876123  6.350000000000001 2.614159292035401  6.450000000000003 2.8247787610619484  C 6.549999999999997 3.0230088495575194  6.649999999999999 3.2336283185840737  6.649999999999999 3.4318584070796447  L 6.649999999999999 3.939823008849559  C 6.549999999999997 4.348672566371684  6.350000000000001 4.646017699115045  6.137500000000003 4.844247787610622  C 5.837499999999999 5.042477876106194  5.625 5.2530973451327405  5.325000000000003 5.352212389380529  C 5.024999999999999 5.550442477876108  4.712499999999999 5.649557522123897  4.412500000000001 5.761061946902655  C 4.212499999999999 5.8601769911504435  3.8999999999999986 5.959292035398233  3.6000000000000014 6.058407079646015  C 3.299999999999997 6.157522123893804  3.0874999999999986 6.3557522123893815  2.887500000000003 6.566371681415929  C 2.6875 6.764601769911507  2.4750000000000014 6.975221238938055  2.4750000000000014 7.272566371681414  L 2.174999999999997 8.883185840707963  L 3.799999999999997 9.589380530973449  L 4.412500000000001 8.276106194690266  C 4.412500000000001 8.077876106194688  4.612499999999997 7.867256637168142  4.825000000000003 7.768141592920353  C 5.024999999999999 7.669026548672563  5.337499999999999 7.5699115044247804  5.537500000000001 7.4707964601769925  L 6.450000000000003 7.173451327433626  C 6.75 7.074336283185843  7.0625 6.876106194690266  7.362499999999997 6.665486725663719  C 7.662500000000001 6.46725663716814  7.975000000000001 6.157522123893804  8.174999999999997 5.8601769911504435  C 8.475000000000001 5.451327433628318  8.6875 5.05486725663717  8.787500000000001 4.646017699115045  C 8.887500000000003 4.237168141592919  8.987499999999997 3.7415929203539813  8.887500000000003 3.2336283185840737  C 8.787500000000001 2.8247787610619484  8.587499999999999 2.4283185840707993  8.375 2.019469026548674  C 8.075000000000003 1.6106194690265487  7.762500000000003 1.3132743362831887  7.362499999999997 1.0159292035398217  C 6.950000000000003 0.7185840707964616  6.450000000000003 0.4088495575221253  5.9375 0.30973451327433627  C 5.524999999999999 0.21061946902654727  5.125 0.11150442477875824  4.712499999999999 0.11150442477875824  L 3.5874999999999986 0.11150442477875824  Z M 0.8374999999999986 11.299115044247786  C 0.7250000000000014 11.385840707964599  0.5249999999999986 11.484955752212388  0.42499999999999716 11.695575221238935  C 0.22500000000000142 11.794690265486725  0.22500000000000142 11.992920353982303  0.125 12.20353982300885  C 0.125 12.401769911504427  0.125 12.612389380530974  0.02499999999999858 12.711504424778763  C 0.125 12.909734513274335  0.125 13.008849557522124  0.22500000000000142 13.219469026548671  C 0.32500000000000284 13.318584070796462  0.42499999999999716 13.516814159292037  0.6375000000000028 13.628318584070795  C 0.7374999999999972 13.826548672566375  0.9375 13.826548672566375  1.1499999999999986 13.925663716814157  C 1.4500000000000028 14.024778761061945  1.8624999999999972 14.024778761061945  2.2749999999999986 13.826548672566375  C 2.987499999999997 13.529203539823008  3.2875000000000014 12.612389380530974  2.887500000000003 11.90619469026549  C 2.7875000000000014 11.807079646017701  2.5874999999999986 11.608849557522122  2.4750000000000014 11.497345132743364  C 2.375 11.398230088495575  2.174999999999997 11.299115044247786  1.9624999999999986 11.199999999999998  C 1.6625000000000014 11.100884955752216  1.25 11.100884955752216  0.8374999999999986 11.299115044247786  Z " fill-rule="evenodd" />
    </mask>
  </defs>
  <g transform="matrix(1 0 0 1 -183 -52 )">
    <path d="M 3.5874999999999986 0.11150442477875824  C 3.1625000000000014 0.08672566371681276  2.862499999999997 0.19823008849557805  2.5625 0.29734513274336  C 2.262500000000003 0.39646017699114905  1.9500000000000028 0.49557522123893805  1.6499999999999986 0.5946902654867271  L 2.1625000000000014 1.7097345132743376  C 2.1625000000000014 1.9079646017699086  2.362499999999997 2.118584070796463  2.575000000000003 2.118584070796463  C 2.7124999999999986 2.1929203539822995  2.8125 2.1557522123893778  2.887500000000003 2.143362831858408  C 2.924999999999997 2.130973451327432  2.950000000000003 2.118584070796463  2.987499999999997 2.118584070796463  C 3.0874999999999986 2.118584070796463  3.2875000000000014 2.019469026548674  3.5 2.019469026548674  C 3.700000000000003 1.9203539823008848  4.012500000000003 1.9203539823008848  4.212499999999999 1.9203539823008848  C 4.625 1.9203539823008848  4.924999999999997 1.9203539823008848  5.225000000000001 2.019469026548674  C 5.524999999999999 2.118584070796463  5.737499999999997 2.217699115044245  5.9375 2.316814159292034  C 6.137500000000003 2.5150442477876123  6.350000000000001 2.614159292035401  6.450000000000003 2.8247787610619484  C 6.549999999999997 3.0230088495575194  6.649999999999999 3.2336283185840737  6.649999999999999 3.4318584070796447  L 6.649999999999999 3.939823008849559  C 6.549999999999997 4.348672566371684  6.350000000000001 4.646017699115045  6.137500000000003 4.844247787610622  C 5.837499999999999 5.042477876106194  5.625 5.2530973451327405  5.325000000000003 5.352212389380529  C 5.024999999999999 5.550442477876108  4.712499999999999 5.649557522123897  4.412500000000001 5.761061946902655  C 4.212499999999999 5.8601769911504435  3.8999999999999986 5.959292035398233  3.6000000000000014 6.058407079646015  C 3.299999999999997 6.157522123893804  3.0874999999999986 6.3557522123893815  2.887500000000003 6.566371681415929  C 2.6875 6.764601769911507  2.4750000000000014 6.975221238938055  2.4750000000000014 7.272566371681414  L 2.174999999999997 8.883185840707963  L 3.799999999999997 9.589380530973449  L 4.412500000000001 8.276106194690266  C 4.412500000000001 8.077876106194688  4.612499999999997 7.867256637168142  4.825000000000003 7.768141592920353  C 5.024999999999999 7.669026548672563  5.337499999999999 7.5699115044247804  5.537500000000001 7.4707964601769925  L 6.450000000000003 7.173451327433626  C 6.75 7.074336283185843  7.0625 6.876106194690266  7.362499999999997 6.665486725663719  C 7.662500000000001 6.46725663716814  7.975000000000001 6.157522123893804  8.174999999999997 5.8601769911504435  C 8.475000000000001 5.451327433628318  8.6875 5.05486725663717  8.787500000000001 4.646017699115045  C 8.887500000000003 4.237168141592919  8.987499999999997 3.7415929203539813  8.887500000000003 3.2336283185840737  C 8.787500000000001 2.8247787610619484  8.587499999999999 2.4283185840707993  8.375 2.019469026548674  C 8.075000000000003 1.6106194690265487  7.762500000000003 1.3132743362831887  7.362499999999997 1.0159292035398217  C 6.950000000000003 0.7185840707964616  6.450000000000003 0.4088495575221253  5.9375 0.30973451327433627  C 5.524999999999999 0.21061946902654727  5.125 0.11150442477875824  4.712499999999999 0.11150442477875824  L 3.5874999999999986 0.11150442477875824  Z M 0.8374999999999986 11.299115044247786  C 0.7250000000000014 11.385840707964599  0.5249999999999986 11.484955752212388  0.42499999999999716 11.695575221238935  C 0.22500000000000142 11.794690265486725  0.22500000000000142 11.992920353982303  0.125 12.20353982300885  C 0.125 12.401769911504427  0.125 12.612389380530974  0.02499999999999858 12.711504424778763  C 0.125 12.909734513274335  0.125 13.008849557522124  0.22500000000000142 13.219469026548671  C 0.32500000000000284 13.318584070796462  0.42499999999999716 13.516814159292037  0.6375000000000028 13.628318584070795  C 0.7374999999999972 13.826548672566375  0.9375 13.826548672566375  1.1499999999999986 13.925663716814157  C 1.4500000000000028 14.024778761061945  1.8624999999999972 14.024778761061945  2.2749999999999986 13.826548672566375  C 2.987499999999997 13.529203539823008  3.2875000000000014 12.612389380530974  2.887500000000003 11.90619469026549  C 2.7875000000000014 11.807079646017701  2.5874999999999986 11.608849557522122  2.4750000000000014 11.497345132743364  C 2.375 11.398230088495575  2.174999999999997 11.299115044247786  1.9624999999999986 11.199999999999998  C 1.6625000000000014 11.100884955752216  1.25 11.100884955752216  0.8374999999999986 11.299115044247786  Z " fill-rule="nonzero" fill="rgba(254, 159, 57, 1)" stroke="none" transform="matrix(1 0 0 1 183 52 )" class="fill" />
    <path d="M 3.5874999999999986 0.11150442477875824  C 3.1625000000000014 0.08672566371681276  2.862499999999997 0.19823008849557805  2.5625 0.29734513274336  C 2.262500000000003 0.39646017699114905  1.9500000000000028 0.49557522123893805  1.6499999999999986 0.5946902654867271  L 2.1625000000000014 1.7097345132743376  C 2.1625000000000014 1.9079646017699086  2.362499999999997 2.118584070796463  2.575000000000003 2.118584070796463  C 2.7124999999999986 2.1929203539822995  2.8125 2.1557522123893778  2.887500000000003 2.143362831858408  C 2.924999999999997 2.130973451327432  2.950000000000003 2.118584070796463  2.987499999999997 2.118584070796463  C 3.0874999999999986 2.118584070796463  3.2875000000000014 2.019469026548674  3.5 2.019469026548674  C 3.700000000000003 1.9203539823008848  4.012500000000003 1.9203539823008848  4.212499999999999 1.9203539823008848  C 4.625 1.9203539823008848  4.924999999999997 1.9203539823008848  5.225000000000001 2.019469026548674  C 5.524999999999999 2.118584070796463  5.737499999999997 2.217699115044245  5.9375 2.316814159292034  C 6.137500000000003 2.5150442477876123  6.350000000000001 2.614159292035401  6.450000000000003 2.8247787610619484  C 6.549999999999997 3.0230088495575194  6.649999999999999 3.2336283185840737  6.649999999999999 3.4318584070796447  L 6.649999999999999 3.939823008849559  C 6.549999999999997 4.348672566371684  6.350000000000001 4.646017699115045  6.137500000000003 4.844247787610622  C 5.837499999999999 5.042477876106194  5.625 5.2530973451327405  5.325000000000003 5.352212389380529  C 5.024999999999999 5.550442477876108  4.712499999999999 5.649557522123897  4.412500000000001 5.761061946902655  C 4.212499999999999 5.8601769911504435  3.8999999999999986 5.959292035398233  3.6000000000000014 6.058407079646015  C 3.299999999999997 6.157522123893804  3.0874999999999986 6.3557522123893815  2.887500000000003 6.566371681415929  C 2.6875 6.764601769911507  2.4750000000000014 6.975221238938055  2.4750000000000014 7.272566371681414  L 2.174999999999997 8.883185840707963  L 3.799999999999997 9.589380530973449  L 4.412500000000001 8.276106194690266  C 4.412500000000001 8.077876106194688  4.612499999999997 7.867256637168142  4.825000000000003 7.768141592920353  C 5.024999999999999 7.669026548672563  5.337499999999999 7.5699115044247804  5.537500000000001 7.4707964601769925  L 6.450000000000003 7.173451327433626  C 6.75 7.074336283185843  7.0625 6.876106194690266  7.362499999999997 6.665486725663719  C 7.662500000000001 6.46725663716814  7.975000000000001 6.157522123893804  8.174999999999997 5.8601769911504435  C 8.475000000000001 5.451327433628318  8.6875 5.05486725663717  8.787500000000001 4.646017699115045  C 8.887500000000003 4.237168141592919  8.987499999999997 3.7415929203539813  8.887500000000003 3.2336283185840737  C 8.787500000000001 2.8247787610619484  8.587499999999999 2.4283185840707993  8.375 2.019469026548674  C 8.075000000000003 1.6106194690265487  7.762500000000003 1.3132743362831887  7.362499999999997 1.0159292035398217  C 6.950000000000003 0.7185840707964616  6.450000000000003 0.4088495575221253  5.9375 0.30973451327433627  C 5.524999999999999 0.21061946902654727  5.125 0.11150442477875824  4.712499999999999 0.11150442477875824  L 3.5874999999999986 0.11150442477875824  Z " stroke-width="0" stroke-dasharray="0" stroke="rgba(255, 255, 255, 0)" fill="none" transform="matrix(1 0 0 1 183 52 )" class="stroke" mask="url(#Clip75)" />
    <path d="M 0.8374999999999986 11.299115044247786  C 0.7250000000000014 11.385840707964599  0.5249999999999986 11.484955752212388  0.42499999999999716 11.695575221238935  C 0.22500000000000142 11.794690265486725  0.22500000000000142 11.992920353982303  0.125 12.20353982300885  C 0.125 12.401769911504427  0.125 12.612389380530974  0.02499999999999858 12.711504424778763  C 0.125 12.909734513274335  0.125 13.008849557522124  0.22500000000000142 13.219469026548671  C 0.32500000000000284 13.318584070796462  0.42499999999999716 13.516814159292037  0.6375000000000028 13.628318584070795  C 0.7374999999999972 13.826548672566375  0.9375 13.826548672566375  1.1499999999999986 13.925663716814157  C 1.4500000000000028 14.024778761061945  1.8624999999999972 14.024778761061945  2.2749999999999986 13.826548672566375  C 2.987499999999997 13.529203539823008  3.2875000000000014 12.612389380530974  2.887500000000003 11.90619469026549  C 2.7875000000000014 11.807079646017701  2.5874999999999986 11.608849557522122  2.4750000000000014 11.497345132743364  C 2.375 11.398230088495575  2.174999999999997 11.299115044247786  1.9624999999999986 11.199999999999998  C 1.6625000000000014 11.100884955752216  1.25 11.100884955752216  0.8374999999999986 11.299115044247786  Z " stroke-width="0" stroke-dasharray="0" stroke="rgba(255, 255, 255, 0)" fill="none" transform="matrix(1 0 0 1 183 52 )" class="stroke" mask="url(#Clip75)" />
  </g>
</svg>