<?xml version="1.0" encoding="utf-8"?>
<svg version="1.1" xmlns:xlink="http://www.w3.org/1999/xlink" width="66px" height="23px" xmlns="http://www.w3.org/2000/svg">
  <defs>
    <pattern id="BGPattern" patternUnits="userSpaceOnUse" alignment="0 0" imageRepeat="None" />
    <mask fill="white" id="Clip78">
      <path d="M 64.34382022471911 21.410471204188475  C 65.4191011235955 20.386910994764392  65.95056179775281 19.170680628272258  66 17.76178010471204  L 66 1.4811518324607276  L 63 1.4811518324607276  L 63 17.749738219895285  C 63.09550561797752 18.399999999999995  62.848314606741575 18.965968586387433  62.34157303370786 19.44764397905759  C 61.83483146067415 19.941361256544504  61.25393258426967 20.182198952879585  60.598876404494376 20  L 5.351685393258428 20  C 3.6831460674157315 20.182198952879585  2.855056179775284 19.375392670157066  3 17.749738219895285  L 3 0.1083769633507826  L 0 0.1083769633507826  L 0 17.749738219895285  C 0 19.158638743455498  0.5314606741573048 20.386910994764392  1.5820224719101137 21.410471204188475  C 2.644943820224716 22.446073298429315  3.893258426966292 22.951832460732987  5.339325842696628 23  L 60.586516853932594 23  C 62.03258426966292 22.951832460732987  63.29325842696629 22.434031413612562  64.34382022471911 21.410471204188475  Z " fill-rule="evenodd" />
    </mask>
  </defs>
  <g transform="matrix(1 0 0 1 -163 -78 )">
    <path d="M 64.34382022471911 21.410471204188475  C 65.4191011235955 20.386910994764392  65.95056179775281 19.170680628272258  66 17.76178010471204  L 66 1.4811518324607276  L 63 1.4811518324607276  L 63 17.749738219895285  C 63.09550561797752 18.399999999999995  62.848314606741575 18.965968586387433  62.34157303370786 19.44764397905759  C 61.83483146067415 19.941361256544504  61.25393258426967 20.182198952879585  60.598876404494376 20  L 5.351685393258428 20  C 3.6831460674157315 20.182198952879585  2.855056179775284 19.375392670157066  3 17.749738219895285  L 3 0.1083769633507826  L 0 0.1083769633507826  L 0 17.749738219895285  C 0 19.158638743455498  0.5314606741573048 20.386910994764392  1.5820224719101137 21.410471204188475  C 2.644943820224716 22.446073298429315  3.893258426966292 22.951832460732987  5.339325842696628 23  L 60.586516853932594 23  C 62.03258426966292 22.951832460732987  63.29325842696629 22.434031413612562  64.34382022471911 21.410471204188475  Z " fill-rule="nonzero" fill="rgba(22, 118, 238, 1)" stroke="none" transform="matrix(1 0 0 1 163 78 )" class="fill" />
    <path d="M 64.34382022471911 21.410471204188475  C 65.4191011235955 20.386910994764392  65.95056179775281 19.170680628272258  66 17.76178010471204  L 66 1.4811518324607276  L 63 1.4811518324607276  L 63 17.749738219895285  C 63.09550561797752 18.399999999999995  62.848314606741575 18.965968586387433  62.34157303370786 19.44764397905759  C 61.83483146067415 19.941361256544504  61.25393258426967 20.182198952879585  60.598876404494376 20  L 5.351685393258428 20  C 3.6831460674157315 20.182198952879585  2.855056179775284 19.375392670157066  3 17.749738219895285  L 3 0.1083769633507826  L 0 0.1083769633507826  L 0 17.749738219895285  C 0 19.158638743455498  0.5314606741573048 20.386910994764392  1.5820224719101137 21.410471204188475  C 2.644943820224716 22.446073298429315  3.893258426966292 22.951832460732987  5.339325842696628 23  L 60.586516853932594 23  C 62.03258426966292 22.951832460732987  63.29325842696629 22.434031413612562  64.34382022471911 21.410471204188475  Z " stroke-width="0" stroke-dasharray="0" stroke="rgba(255, 255, 255, 0)" fill="none" transform="matrix(1 0 0 1 163 78 )" class="stroke" mask="url(#Clip78)" />
  </g>
</svg>