<?xml version="1.0" encoding="utf-8"?>
<svg version="1.1" xmlns:xlink="http://www.w3.org/1999/xlink" width="7px" height="7px" xmlns="http://www.w3.org/2000/svg">
  <defs>
    <pattern id="BGPattern" patternUnits="userSpaceOnUse" alignment="0 0" imageRepeat="None" />
    <mask fill="white" id="Clip92">
      <path d="M 1.0374999999999943 5.8125  C 2.237499999999997 7.112499999999996  4.462500000000006 7.299999999999997  5.862499999999997 6  C 7.250000000000001 4.700000000000003  7.349999999999994 2.5625  6.049999999999997 1.1749999999999972  C 4.75 -0.21249999999999858  2.612499999999997 -0.3125  1.2249999999999943 0.987499999999997  C -0.16249999999999432 2.2875000000000014  -0.26250000000000284 4.424999999999997  1.0374999999999943 5.8125  Z " fill-rule="evenodd" />
    </mask>
  </defs>
  <g transform="matrix(1 0 0 1 -243 -52 )">
    <path d="M 1.0374999999999943 5.8125  C 2.237499999999997 7.112499999999996  4.462500000000006 7.299999999999997  5.862499999999997 6  C 7.250000000000001 4.700000000000003  7.349999999999994 2.5625  6.049999999999997 1.1749999999999972  C 4.75 -0.21249999999999858  2.612499999999997 -0.3125  1.2249999999999943 0.987499999999997  C -0.16249999999999432 2.2875000000000014  -0.26250000000000284 4.424999999999997  1.0374999999999943 5.8125  Z " fill-rule="nonzero" fill="rgba(234, 238, 249, 1)" stroke="none" transform="matrix(1 0 0 1 243 52 )" class="fill" />
    <path d="M 1.0374999999999943 5.8125  C 2.237499999999997 7.112499999999996  4.462500000000006 7.299999999999997  5.862499999999997 6  C 7.250000000000001 4.700000000000003  7.349999999999994 2.5625  6.049999999999997 1.1749999999999972  C 4.75 -0.21249999999999858  2.612499999999997 -0.3125  1.2249999999999943 0.987499999999997  C -0.16249999999999432 2.2875000000000014  -0.26250000000000284 4.424999999999997  1.0374999999999943 5.8125  Z " stroke-width="0" stroke-dasharray="0" stroke="rgba(255, 255, 255, 0)" fill="none" transform="matrix(1 0 0 1 243 52 )" class="stroke" mask="url(#Clip92)" />
  </g>
</svg>