<?xml version="1.0" encoding="utf-8"?>
<svg version="1.1" xmlns:xlink="http://www.w3.org/1999/xlink" width="61px" height="42px" xmlns="http://www.w3.org/2000/svg">
  <defs>
    <pattern id="BGPattern" patternUnits="userSpaceOnUse" alignment="0 0" imageRepeat="None" />
    <mask fill="white" id="Clip558">
      <path d="M 0 3.938278931750745  C 0.03682092555332132 1.8071216617210684  1.8287726358148866 0.07477744807121944  3.829376257545271 0  L 57.19517102615694 0  C 59.19577464788732 0.07477744807121944  60.98772635814889 1.7946587537091958  61 3.925816023738872  L 61 38.1240356083086  C 60.98772635814889 40.15548961424333  59.293963782696174 41.975074183976254  57.19517102615694 42  L 3.829376257545271 42  C 1.8287726358148866 41.975074183976254  0.03682092555332132 40.25519287833828  0 38.1240356083086  L 0 3.938278931750745  Z " fill-rule="evenodd" />
    </mask>
  </defs>
  <g transform="matrix(1 0 0 1 -165 -58 )">
    <path d="M 0 3.938278931750745  C 0.03682092555332132 1.8071216617210684  1.8287726358148866 0.07477744807121944  3.829376257545271 0  L 57.19517102615694 0  C 59.19577464788732 0.07477744807121944  60.98772635814889 1.7946587537091958  61 3.925816023738872  L 61 38.1240356083086  C 60.98772635814889 40.15548961424333  59.293963782696174 41.975074183976254  57.19517102615694 42  L 3.829376257545271 42  C 1.8287726358148866 41.975074183976254  0.03682092555332132 40.25519287833828  0 38.1240356083086  L 0 3.938278931750745  Z " fill-rule="nonzero" fill="rgba(58, 58, 119, 1)" stroke="none" transform="matrix(1 0 0 1 165 58 )" class="fill" />
    <path d="M 0 3.938278931750745  C 0.03682092555332132 1.8071216617210684  1.8287726358148866 0.07477744807121944  3.829376257545271 0  L 57.19517102615694 0  C 59.19577464788732 0.07477744807121944  60.98772635814889 1.7946587537091958  61 3.925816023738872  L 61 38.1240356083086  C 60.98772635814889 40.15548961424333  59.293963782696174 41.975074183976254  57.19517102615694 42  L 3.829376257545271 42  C 1.8287726358148866 41.975074183976254  0.03682092555332132 40.25519287833828  0 38.1240356083086  L 0 3.938278931750745  Z " stroke-width="0" stroke-dasharray="0" stroke="rgba(255, 255, 255, 0)" fill="none" transform="matrix(1 0 0 1 165 58 )" class="stroke" mask="url(#Clip558)" />
  </g>
</svg>