<?xml version="1.0" encoding="utf-8"?>
<svg version="1.1" xmlns:xlink="http://www.w3.org/1999/xlink" width="3px" height="3px" xmlns="http://www.w3.org/2000/svg">
  <defs>
    <pattern id="BGPattern" patternUnits="userSpaceOnUse" alignment="0 0" imageRepeat="None" />
    <mask fill="white" id="Clip560">
      <path d="M 0.38750000000000284 2.4624999999999986  C 0.9375 3.112499999999997  1.8624999999999972 3.112499999999997  2.424999999999997 2.549999999999997  C 2.987499999999997 1.9874999999999972  3.075000000000003 1.0625  2.512500000000003 0.5125000000000028  C 1.9500000000000028 -0.04999999999999716  1.0250000000000057 -0.13750000000000284  0.4749999999999943 0.42499999999999716  C -0.08750000000000568 0.9874999999999972  -0.17499999999999716 1.9125000000000014  0.38750000000000284 2.4624999999999986  Z " fill-rule="evenodd" />
    </mask>
  </defs>
  <g transform="matrix(1 0 0 1 -247 -40 )">
    <path d="M 0.38750000000000284 2.4624999999999986  C 0.9375 3.112499999999997  1.8624999999999972 3.112499999999997  2.424999999999997 2.549999999999997  C 2.987499999999997 1.9874999999999972  3.075000000000003 1.0625  2.512500000000003 0.5125000000000028  C 1.9500000000000028 -0.04999999999999716  1.0250000000000057 -0.13750000000000284  0.4749999999999943 0.42499999999999716  C -0.08750000000000568 0.9874999999999972  -0.17499999999999716 1.9125000000000014  0.38750000000000284 2.4624999999999986  Z " fill-rule="nonzero" fill="rgba(234, 238, 249, 1)" stroke="none" transform="matrix(1 0 0 1 247 40 )" class="fill" />
    <path d="M 0.38750000000000284 2.4624999999999986  C 0.9375 3.112499999999997  1.8624999999999972 3.112499999999997  2.424999999999997 2.549999999999997  C 2.987499999999997 1.9874999999999972  3.075000000000003 1.0625  2.512500000000003 0.5125000000000028  C 1.9500000000000028 -0.04999999999999716  1.0250000000000057 -0.13750000000000284  0.4749999999999943 0.42499999999999716  C -0.08750000000000568 0.9874999999999972  -0.17499999999999716 1.9125000000000014  0.38750000000000284 2.4624999999999986  Z " stroke-width="0" stroke-dasharray="0" stroke="rgba(255, 255, 255, 0)" fill="none" transform="matrix(1 0 0 1 247 40 )" class="stroke" mask="url(#Clip560)" />
  </g>
</svg>