<?xml version="1.0" encoding="utf-8"?>
<svg version="1.1" xmlns:xlink="http://www.w3.org/1999/xlink" width="2px" height="2px" xmlns="http://www.w3.org/2000/svg">
  <defs>
    <pattern id="BGPattern" patternUnits="userSpaceOnUse" alignment="0 0" imageRepeat="None" />
    <mask fill="white" id="Clip561">
      <path d="M 0.2750000000000057 1.6470588235294117  C 0.6375000000000028 2  1.2874999999999943 2.0823529411764694  1.6624999999999943 1.729411764705881  C 2.0374999999999943 1.3764705882352928  2.125 0.7647058823529411  1.75 0.4235294117647052  C 1.375 0.07058823529411698  0.7249999999999943 -0.011764705882352273  0.36249999999999716 0.34117647058823597  C -0.012500000000002842 0.6941176470588242  -0.09999999999999432 1.3058823529411758  0.2750000000000057 1.6470588235294117  Z " fill-rule="evenodd" />
    </mask>
  </defs>
  <g transform="matrix(1 0 0 1 -211 -20 )">
    <path d="M 0.2750000000000057 1.6470588235294117  C 0.6375000000000028 2  1.2874999999999943 2.0823529411764694  1.6624999999999943 1.729411764705881  C 2.0374999999999943 1.3764705882352928  2.125 0.7647058823529411  1.75 0.4235294117647052  C 1.375 0.07058823529411698  0.7249999999999943 -0.011764705882352273  0.36249999999999716 0.34117647058823597  C -0.012500000000002842 0.6941176470588242  -0.09999999999999432 1.3058823529411758  0.2750000000000057 1.6470588235294117  Z " fill-rule="nonzero" fill="rgba(234, 238, 249, 1)" stroke="none" transform="matrix(1 0 0 1 211 20 )" class="fill" />
    <path d="M 0.2750000000000057 1.6470588235294117  C 0.6375000000000028 2  1.2874999999999943 2.0823529411764694  1.6624999999999943 1.729411764705881  C 2.0374999999999943 1.3764705882352928  2.125 0.7647058823529411  1.75 0.4235294117647052  C 1.375 0.07058823529411698  0.7249999999999943 -0.011764705882352273  0.36249999999999716 0.34117647058823597  C -0.012500000000002842 0.6941176470588242  -0.09999999999999432 1.3058823529411758  0.2750000000000057 1.6470588235294117  Z " stroke-width="0" stroke-dasharray="0" stroke="rgba(255, 255, 255, 0)" fill="none" transform="matrix(1 0 0 1 211 20 )" class="stroke" mask="url(#Clip561)" />
  </g>
</svg>