<?xml version="1.0" encoding="utf-8"?>
<svg version="1.1" xmlns:xlink="http://www.w3.org/1999/xlink" width="29px" height="36px" xmlns="http://www.w3.org/2000/svg">
  <defs>
    <pattern id="BGPattern" patternUnits="userSpaceOnUse" alignment="0 0" imageRepeat="None" />
    <mask fill="white" id="Clip1354">
      <path d="M 24.607172995780594 4.518367346938772  L 29 13.885714285714283  L 23.126582278481013 34.92244897959184  C 22.93080168776371 35.6204081632653  22.135443037974678 36.12244897959183  21.4379746835443 35.816326530612244  L 1.015611814345993 29.82857142857143  C 0.3181434599156146 29.63265306122449  -0.18354430379746836 28.83673469387755  0.12236286919831223 28.138775510204077  L 8.075949367088608 1.0285714285714258  C 8.27172995780591 0.33061224489795776  9.06708860759494 -0.17142857142856863  9.764556962025319 0.1346938775510232  L 24.607172995780594 4.518367346938772  Z " fill-rule="evenodd" />
    </mask>
  </defs>
  <g transform="matrix(1 0 0 1 -171 -40 )">
    <path d="M 24.607172995780594 4.518367346938772  L 29 13.885714285714283  L 23.126582278481013 34.92244897959184  C 22.93080168776371 35.6204081632653  22.135443037974678 36.12244897959183  21.4379746835443 35.816326530612244  L 1.015611814345993 29.82857142857143  C 0.3181434599156146 29.63265306122449  -0.18354430379746836 28.83673469387755  0.12236286919831223 28.138775510204077  L 8.075949367088608 1.0285714285714258  C 8.27172995780591 0.33061224489795776  9.06708860759494 -0.17142857142856863  9.764556962025319 0.1346938775510232  L 24.607172995780594 4.518367346938772  Z " fill-rule="nonzero" fill="rgba(242, 246, 250, 1)" stroke="none" transform="matrix(1 0 0 1 171 40 )" class="fill" />
    <path d="M 24.607172995780594 4.518367346938772  L 29 13.885714285714283  L 23.126582278481013 34.92244897959184  C 22.93080168776371 35.6204081632653  22.135443037974678 36.12244897959183  21.4379746835443 35.816326530612244  L 1.015611814345993 29.82857142857143  C 0.3181434599156146 29.63265306122449  -0.18354430379746836 28.83673469387755  0.12236286919831223 28.138775510204077  L 8.075949367088608 1.0285714285714258  C 8.27172995780591 0.33061224489795776  9.06708860759494 -0.17142857142856863  9.764556962025319 0.1346938775510232  L 24.607172995780594 4.518367346938772  Z " stroke-width="0" stroke-dasharray="0" stroke="rgba(255, 255, 255, 0)" fill="none" transform="matrix(1 0 0 1 171 40 )" class="stroke" mask="url(#Clip1354)" />
  </g>
</svg>