<?xml version="1.0" encoding="utf-8"?>
<svg version="1.1" xmlns:xlink="http://www.w3.org/1999/xlink" width="13px" height="16px" xmlns="http://www.w3.org/2000/svg">
  <defs>
    <pattern id="BGPattern" patternUnits="userSpaceOnUse" alignment="0 0" imageRepeat="None" />
    <mask fill="white" id="Clip1351">
      <path d="M 7.714150943396224 0.04885496183206176  L 6.5 0.04885496183206176  C 6.205660377358494 0.04885496183206176  5.800943396226409 0.04885496183206176  5.39622641509434 0.14656488549618182  L 5.298113207547175 1.538931297709923  C 5.298113207547175 1.7343511450381666  5.494339622641504 2.0396946564885483  5.702830188679245 2.1374045801526718  C 5.800943396226409 2.235114503816795  5.997169811320752 2.235114503816795  6.1075471698113155 2.235114503816795  L 6.806603773584906 2.235114503816795  C 7.100943396226413 2.235114503816795  7.407547169811318 2.235114503816795  7.701886792452824 2.332824427480915  C 8.10660377358491 2.430534351145039  8.49905660377358 2.6259541984732824  8.805660377358484 2.8335877862595407  C 9.100000000000005 3.0290076335877876  9.308490566037733 3.236641221374046  9.504716981132075 3.4320610687022928  C 9.700943396226418 3.627480916030533  9.799056603773582 3.8351145038167913  9.909433962264146 4.128244274809162  C 10.007547169811323 4.3236641221374015  10.007547169811323 4.531297709923667  10.007547169811323 4.824427480916031  C 9.909433962264146 5.117557251908394  9.811320754716983 5.422900763358776  9.713207547169816 5.6183206106870225  C 9.516981132075474 6.021374045801528  9.308490566037733 6.314503816793891  8.916037735849063 6.509923664122139  C 8.511320754716978 6.705343511450379  8.216981132075471 6.803053435114502  7.8122641509434025 6.912977099236644  C 7.407547169811318 7.01068702290076  7.015094339622647 7.108396946564884  6.610377358490564 7.108396946564884  C 6.205660377358494 7.206106870229007  5.9113207547169875 7.206106870229007  5.506603773584903 7.303816793893131  C 5.212264150943397 7.401526717557255  4.905660377358491 7.499236641221371  4.611320754716984 7.706870229007636  C 4.415094339622641 7.902290076335876  4.1084905660377355 8.207633587786258  4.0103773584905715 8.500763358778629  L 3.2132075471698167 10.283969465648854  L 5.003773584905655 11.273282442748092  L 6.1075471698113155 9.880916030534348  C 6.303773584905658 9.685496183206109  6.512264150943398 9.587786259541986  6.806603773584906 9.47786259541985  C 7.211320754716975 9.380152671755727  7.505660377358496 9.282442748091603  7.8000000000000025 9.282442748091603  L 8.903773584905663 9.18473282442748  C 9.308490566037733 9.18473282442748  9.700943396226418 9.087022900763357  10.105660377358488 8.891603053435116  C 10.608490566037736 8.696183206106868  10.902830188679243 8.488549618320612  11.307547169811327 8.195419847328248  C 11.712264150943396 7.792366412213742  12.006603773584903 7.401526717557255  12.30094339622641 6.900763358778626  C 12.59528301886793 6.399999999999997  12.803773584905658 5.801526717557252  12.901886792452835 5.215267175572517  C 12.901886792452835 4.714503816793896  12.901886792452835 4.116030534351144  12.705660377358493 3.627480916030533  C 12.50943396226415 3.0290076335877876  12.202830188679245 2.528244274809159  11.810377358490559 2.1374045801526718  C 11.40566037735849 1.6366412213740464  10.915094339622643 1.245801526717556  10.314150943396228 0.9404580152671742  C 9.909433962264146 0.7450381679389306  9.516981132075474 0.5374045801526725  9.014150943396226 0.34198473282442887  C 8.609433962264156 0.24427480916030533  8.118867924528308 0.14656488549618182  7.714150943396224 0.04885496183206176  Z M 1.4103773584905661 12.384732824427479  C 1.2018867924528247 12.384732824427479  1.0056603773584962 12.580152671755725  0.8094339622641538 12.677862595419848  C 0.6132075471698114 12.873282442748089  0.4047169811320699 13.080916030534354  0.3066037735849057 13.276335877862595  C 0.20849056603774144 13.47175572519084  0.11037735849056324 13.679389312977099  0.11037735849056324 13.874809160305347  C 0.012264150943399015 14.070229007633586  0.012264150943399015 14.375572519083969  0.11037735849056324 14.570992366412215  C 0.11037735849056324 14.766412213740455  0.3066037735849057 14.97404580152672  0.4047169811320699 15.16946564885496  C 0.6009433962264124 15.364885496183208  0.8094339622641538 15.572519083969466  1.0056603773584962 15.670229007633589  C 1.4103773584905661 15.86564885496183  1.900943396226415 15.963358778625953  2.403773584905663 15.86564885496183  C 3.3971698113207607 15.572519083969466  3.9981132075471724 14.66870229007634  3.703773584905666 13.679389312977099  C 3.6056603773584874 13.483969465648853  3.5075471698113234 13.276335877862595  3.409433962264145 13.080916030534354  C 3.2132075471698167 12.885496183206106  3.0047169811320753 12.677862595419848  2.808490566037733 12.580152671755725  C 2.403773584905663 12.287022900763361  1.9132075471698142 12.287022900763361  1.4103773584905661 12.384732824427479  Z " fill-rule="evenodd" />
    </mask>
  </defs>
  <g transform="matrix(1 0 0 1 -222 -33 )">
    <path d="M 7.714150943396224 0.04885496183206176  L 6.5 0.04885496183206176  C 6.205660377358494 0.04885496183206176  5.800943396226409 0.04885496183206176  5.39622641509434 0.14656488549618182  L 5.298113207547175 1.538931297709923  C 5.298113207547175 1.7343511450381666  5.494339622641504 2.0396946564885483  5.702830188679245 2.1374045801526718  C 5.800943396226409 2.235114503816795  5.997169811320752 2.235114503816795  6.1075471698113155 2.235114503816795  L 6.806603773584906 2.235114503816795  C 7.100943396226413 2.235114503816795  7.407547169811318 2.235114503816795  7.701886792452824 2.332824427480915  C 8.10660377358491 2.430534351145039  8.49905660377358 2.6259541984732824  8.805660377358484 2.8335877862595407  C 9.100000000000005 3.0290076335877876  9.308490566037733 3.236641221374046  9.504716981132075 3.4320610687022928  C 9.700943396226418 3.627480916030533  9.799056603773582 3.8351145038167913  9.909433962264146 4.128244274809162  C 10.007547169811323 4.3236641221374015  10.007547169811323 4.531297709923667  10.007547169811323 4.824427480916031  C 9.909433962264146 5.117557251908394  9.811320754716983 5.422900763358776  9.713207547169816 5.6183206106870225  C 9.516981132075474 6.021374045801528  9.308490566037733 6.314503816793891  8.916037735849063 6.509923664122139  C 8.511320754716978 6.705343511450379  8.216981132075471 6.803053435114502  7.8122641509434025 6.912977099236644  C 7.407547169811318 7.01068702290076  7.015094339622647 7.108396946564884  6.610377358490564 7.108396946564884  C 6.205660377358494 7.206106870229007  5.9113207547169875 7.206106870229007  5.506603773584903 7.303816793893131  C 5.212264150943397 7.401526717557255  4.905660377358491 7.499236641221371  4.611320754716984 7.706870229007636  C 4.415094339622641 7.902290076335876  4.1084905660377355 8.207633587786258  4.0103773584905715 8.500763358778629  L 3.2132075471698167 10.283969465648854  L 5.003773584905655 11.273282442748092  L 6.1075471698113155 9.880916030534348  C 6.303773584905658 9.685496183206109  6.512264150943398 9.587786259541986  6.806603773584906 9.47786259541985  C 7.211320754716975 9.380152671755727  7.505660377358496 9.282442748091603  7.8000000000000025 9.282442748091603  L 8.903773584905663 9.18473282442748  C 9.308490566037733 9.18473282442748  9.700943396226418 9.087022900763357  10.105660377358488 8.891603053435116  C 10.608490566037736 8.696183206106868  10.902830188679243 8.488549618320612  11.307547169811327 8.195419847328248  C 11.712264150943396 7.792366412213742  12.006603773584903 7.401526717557255  12.30094339622641 6.900763358778626  C 12.59528301886793 6.399999999999997  12.803773584905658 5.801526717557252  12.901886792452835 5.215267175572517  C 12.901886792452835 4.714503816793896  12.901886792452835 4.116030534351144  12.705660377358493 3.627480916030533  C 12.50943396226415 3.0290076335877876  12.202830188679245 2.528244274809159  11.810377358490559 2.1374045801526718  C 11.40566037735849 1.6366412213740464  10.915094339622643 1.245801526717556  10.314150943396228 0.9404580152671742  C 9.909433962264146 0.7450381679389306  9.516981132075474 0.5374045801526725  9.014150943396226 0.34198473282442887  C 8.609433962264156 0.24427480916030533  8.118867924528308 0.14656488549618182  7.714150943396224 0.04885496183206176  Z M 1.4103773584905661 12.384732824427479  C 1.2018867924528247 12.384732824427479  1.0056603773584962 12.580152671755725  0.8094339622641538 12.677862595419848  C 0.6132075471698114 12.873282442748089  0.4047169811320699 13.080916030534354  0.3066037735849057 13.276335877862595  C 0.20849056603774144 13.47175572519084  0.11037735849056324 13.679389312977099  0.11037735849056324 13.874809160305347  C 0.012264150943399015 14.070229007633586  0.012264150943399015 14.375572519083969  0.11037735849056324 14.570992366412215  C 0.11037735849056324 14.766412213740455  0.3066037735849057 14.97404580152672  0.4047169811320699 15.16946564885496  C 0.6009433962264124 15.364885496183208  0.8094339622641538 15.572519083969466  1.0056603773584962 15.670229007633589  C 1.4103773584905661 15.86564885496183  1.900943396226415 15.963358778625953  2.403773584905663 15.86564885496183  C 3.3971698113207607 15.572519083969466  3.9981132075471724 14.66870229007634  3.703773584905666 13.679389312977099  C 3.6056603773584874 13.483969465648853  3.5075471698113234 13.276335877862595  3.409433962264145 13.080916030534354  C 3.2132075471698167 12.885496183206106  3.0047169811320753 12.677862595419848  2.808490566037733 12.580152671755725  C 2.403773584905663 12.287022900763361  1.9132075471698142 12.287022900763361  1.4103773584905661 12.384732824427479  Z " fill-rule="nonzero" fill="rgba(206, 214, 226, 1)" stroke="none" transform="matrix(1 0 0 1 222 33 )" class="fill" />
    <path d="M 7.714150943396224 0.04885496183206176  L 6.5 0.04885496183206176  C 6.205660377358494 0.04885496183206176  5.800943396226409 0.04885496183206176  5.39622641509434 0.14656488549618182  L 5.298113207547175 1.538931297709923  C 5.298113207547175 1.7343511450381666  5.494339622641504 2.0396946564885483  5.702830188679245 2.1374045801526718  C 5.800943396226409 2.235114503816795  5.997169811320752 2.235114503816795  6.1075471698113155 2.235114503816795  L 6.806603773584906 2.235114503816795  C 7.100943396226413 2.235114503816795  7.407547169811318 2.235114503816795  7.701886792452824 2.332824427480915  C 8.10660377358491 2.430534351145039  8.49905660377358 2.6259541984732824  8.805660377358484 2.8335877862595407  C 9.100000000000005 3.0290076335877876  9.308490566037733 3.236641221374046  9.504716981132075 3.4320610687022928  C 9.700943396226418 3.627480916030533  9.799056603773582 3.8351145038167913  9.909433962264146 4.128244274809162  C 10.007547169811323 4.3236641221374015  10.007547169811323 4.531297709923667  10.007547169811323 4.824427480916031  C 9.909433962264146 5.117557251908394  9.811320754716983 5.422900763358776  9.713207547169816 5.6183206106870225  C 9.516981132075474 6.021374045801528  9.308490566037733 6.314503816793891  8.916037735849063 6.509923664122139  C 8.511320754716978 6.705343511450379  8.216981132075471 6.803053435114502  7.8122641509434025 6.912977099236644  C 7.407547169811318 7.01068702290076  7.015094339622647 7.108396946564884  6.610377358490564 7.108396946564884  C 6.205660377358494 7.206106870229007  5.9113207547169875 7.206106870229007  5.506603773584903 7.303816793893131  C 5.212264150943397 7.401526717557255  4.905660377358491 7.499236641221371  4.611320754716984 7.706870229007636  C 4.415094339622641 7.902290076335876  4.1084905660377355 8.207633587786258  4.0103773584905715 8.500763358778629  L 3.2132075471698167 10.283969465648854  L 5.003773584905655 11.273282442748092  L 6.1075471698113155 9.880916030534348  C 6.303773584905658 9.685496183206109  6.512264150943398 9.587786259541986  6.806603773584906 9.47786259541985  C 7.211320754716975 9.380152671755727  7.505660377358496 9.282442748091603  7.8000000000000025 9.282442748091603  L 8.903773584905663 9.18473282442748  C 9.308490566037733 9.18473282442748  9.700943396226418 9.087022900763357  10.105660377358488 8.891603053435116  C 10.608490566037736 8.696183206106868  10.902830188679243 8.488549618320612  11.307547169811327 8.195419847328248  C 11.712264150943396 7.792366412213742  12.006603773584903 7.401526717557255  12.30094339622641 6.900763358778626  C 12.59528301886793 6.399999999999997  12.803773584905658 5.801526717557252  12.901886792452835 5.215267175572517  C 12.901886792452835 4.714503816793896  12.901886792452835 4.116030534351144  12.705660377358493 3.627480916030533  C 12.50943396226415 3.0290076335877876  12.202830188679245 2.528244274809159  11.810377358490559 2.1374045801526718  C 11.40566037735849 1.6366412213740464  10.915094339622643 1.245801526717556  10.314150943396228 0.9404580152671742  C 9.909433962264146 0.7450381679389306  9.516981132075474 0.5374045801526725  9.014150943396226 0.34198473282442887  C 8.609433962264156 0.24427480916030533  8.118867924528308 0.14656488549618182  7.714150943396224 0.04885496183206176  Z " stroke-width="0" stroke-dasharray="0" stroke="rgba(255, 255, 255, 0)" fill="none" transform="matrix(1 0 0 1 222 33 )" class="stroke" mask="url(#Clip1351)" />
    <path d="M 1.4103773584905661 12.384732824427479  C 1.2018867924528247 12.384732824427479  1.0056603773584962 12.580152671755725  0.8094339622641538 12.677862595419848  C 0.6132075471698114 12.873282442748089  0.4047169811320699 13.080916030534354  0.3066037735849057 13.276335877862595  C 0.20849056603774144 13.47175572519084  0.11037735849056324 13.679389312977099  0.11037735849056324 13.874809160305347  C 0.012264150943399015 14.070229007633586  0.012264150943399015 14.375572519083969  0.11037735849056324 14.570992366412215  C 0.11037735849056324 14.766412213740455  0.3066037735849057 14.97404580152672  0.4047169811320699 15.16946564885496  C 0.6009433962264124 15.364885496183208  0.8094339622641538 15.572519083969466  1.0056603773584962 15.670229007633589  C 1.4103773584905661 15.86564885496183  1.900943396226415 15.963358778625953  2.403773584905663 15.86564885496183  C 3.3971698113207607 15.572519083969466  3.9981132075471724 14.66870229007634  3.703773584905666 13.679389312977099  C 3.6056603773584874 13.483969465648853  3.5075471698113234 13.276335877862595  3.409433962264145 13.080916030534354  C 3.2132075471698167 12.885496183206106  3.0047169811320753 12.677862595419848  2.808490566037733 12.580152671755725  C 2.403773584905663 12.287022900763361  1.9132075471698142 12.287022900763361  1.4103773584905661 12.384732824427479  Z " stroke-width="0" stroke-dasharray="0" stroke="rgba(255, 255, 255, 0)" fill="none" transform="matrix(1 0 0 1 222 33 )" class="stroke" mask="url(#Clip1351)" />
  </g>
</svg>