<?xml version="1.0" encoding="utf-8"?>
<svg version="1.1" xmlns:xlink="http://www.w3.org/1999/xlink" width="12px" height="13px" xmlns="http://www.w3.org/2000/svg">
  <defs>
    <pattern id="BGPattern" patternUnits="userSpaceOnUse" alignment="0 0" imageRepeat="None" />
    <mask fill="white" id="Clip97">
      <path d="M 0.6122448979591837 3.204950495049502  C 0.5020408163265299 3.565346534653464  0.40408163265306263 3.874257425742577  0.29387755102040886 4.183168316831683  C 0.19591836734693807 4.4920792079207885  0.09795918367347077 4.813861386138611  0.09795918367347077 5.122772277227725  L 1.2000000000000015 5.3287128712871255  C 1.3959183673469395 5.43168316831683  1.7020408163265315 5.43168316831683  1.7999999999999985 5.225742574257429  C 1.8979591836734695 5.122772277227725  1.99591836734694 5.01980198019802  1.99591836734694 4.916831683168315  C 1.99591836734694 4.813861386138611  1.99591836734694 4.607920792079209  2.0938775510204075 4.389108910891093  C 2.191836734693878 4.080198019801979  2.2897959183673455 3.8613861386138613  2.387755102040816 3.655445544554452  C 2.5836734693877546 3.4495049504950512  2.791836734693879 3.127722772277229  2.987755102040817 2.9217821782178204  C 3.183673469387755 2.7158415841584187  3.391836734693876 2.6128712871287143  3.587755102040818 2.4970297029702944  C 3.7836734693877556 2.394059405940597  3.9918367346938766 2.2910891089108922  4.187755102040815 2.2910891089108922  C 4.383673469387756 2.2910891089108922  4.591836734693877 2.2910891089108922  4.787755102040816 2.394059405940597  C 4.983673469387753 2.4970297029702944  5.1918367346938785 2.5999999999999988  5.2897959183673455 2.818811881188116  C 5.485714285714287 3.127722772277229  5.6938775510204085 3.4495049504950512  5.791836734693879 3.758415841584157  C 5.889795918367346 4.06732673267327  5.889795918367346 4.389108910891093  5.889795918367346 4.698019801980198  C 5.889795918367346 5.006930693069304  5.889795918367346 5.3287128712871255  5.791836734693879 5.637623762376239  C 5.791836734693879 5.946534653465346  5.6938775510204085 6.268316831683166  5.6938775510204085 6.57722772277228  C 5.6938775510204085 6.8861386138613865  5.6938775510204085 7.104950495049504  5.791836734693879 7.413861386138616  C 5.889795918367346 7.7227722772277225  6.085714285714284 7.94158415841584  6.293877551020409 8.147524752475249  L 7.493877551020407 9.305940594059408  L 8.693877551020408 8.147524752475249  L 7.8979591836734695 6.8861386138613865  C 7.702040816326531 6.680198019801978  7.702040816326531 6.46138613861386  7.702040816326531 6.255445544554458  C 7.702040816326531 5.946534653465346  7.799999999999999 5.727722772277228  7.799999999999999 5.418811881188121  C 7.8979591836734695 5.109900990099009  7.8979591836734695 4.788118811881187  7.99591836734694 4.479207920792081  L 7.99591836734694 3.4366336633663352  C 7.8979591836734695 3.011881188118809  7.799999999999999 2.5999999999999988  7.702040816326531 2.2782178217821767  C 7.6040816326530605 1.8534653465346504  7.297959183673469 1.4415841584158402  7.00408163265306 1.1198019801980184  C 6.6000000000000005 0.8108910891089123  6.208163265306121 0.48910891089109054  5.804081632653062 0.2831683168316817  C 5.3999999999999995 0.18019801980197728  4.910204081632653 0.07722772277228016  4.5061224489795935 0.07722772277228016  C 4.1020408163265305 0.07722772277228016  3.612244897959184 0.18019801980197728  3.208163265306121 0.38613861386138615  C 2.706122448979591 0.592079207920795  2.314285714285715 0.9138613861386169  1.9102040816326524 1.3257425742574274  C 1.6163265306122436 1.6346534653465332  1.3102040816326517 1.9564356435643548  1.1142857142857137 2.2653465346534682  C 0.9183673469387755 2.5742574257425743  0.7102040816326545 2.896039603960396  0.6122448979591837 3.204950495049502  Z M 8.877551020408163 11.326732673267326  C 8.877551020408163 11.51980198019802  8.877551020408163 11.738613861386138  8.975510204081633 11.944554455445546  C 9.073469387755102 12.150495049504947  9.171428571428573 12.369306930693071  9.26938775510204 12.472277227722769  C 9.36734693877551 12.678217821782178  9.563265306122448 12.781188118811883  9.869387755102041 12.897029702970295  C 10.16326530612245 13  10.567346938775511 13  10.971428571428572 12.897029702970295  C 11.167346938775509 12.897029702970295  11.375510204081634 12.691089108910894  11.4734693877551 12.58811881188119  C 11.669387755102042 12.38217821782178  11.76734693877551 12.279207920792075  11.877551020408163 12.06039603960396  C 11.877551020408163 11.854455445544557  11.975510204081633 11.635643564356434  11.975510204081633 11.429702970297031  C 11.975510204081633 11.223762376237623  11.975510204081633 11.004950495049505  11.877551020408163 10.799009900990095  C 11.681632653061225 10.16831683168317  11.081632653061224 9.756435643564357  10.481632653061224 9.756435643564357  C 10.285714285714285 9.756435643564357  10.077551020408164 9.756435643564357  9.881632653061223 9.859405940594062  C 9.685714285714285 9.96237623762376  9.477551020408164 10.065346534653465  9.379591836734694 10.16831683168317  C 9.085714285714284 10.477227722772275  8.877551020408163 10.9019801980198  8.877551020408163 11.326732673267326  Z " fill-rule="evenodd" />
    </mask>
  </defs>
  <g transform="matrix(1 0 0 1 -151 -37 )">
    <path d="M 0.6122448979591837 3.204950495049502  C 0.5020408163265299 3.565346534653464  0.40408163265306263 3.874257425742577  0.29387755102040886 4.183168316831683  C 0.19591836734693807 4.4920792079207885  0.09795918367347077 4.813861386138611  0.09795918367347077 5.122772277227725  L 1.2000000000000015 5.3287128712871255  C 1.3959183673469395 5.43168316831683  1.7020408163265315 5.43168316831683  1.7999999999999985 5.225742574257429  C 1.8979591836734695 5.122772277227725  1.99591836734694 5.01980198019802  1.99591836734694 4.916831683168315  C 1.99591836734694 4.813861386138611  1.99591836734694 4.607920792079209  2.0938775510204075 4.389108910891093  C 2.191836734693878 4.080198019801979  2.2897959183673455 3.8613861386138613  2.387755102040816 3.655445544554452  C 2.5836734693877546 3.4495049504950512  2.791836734693879 3.127722772277229  2.987755102040817 2.9217821782178204  C 3.183673469387755 2.7158415841584187  3.391836734693876 2.6128712871287143  3.587755102040818 2.4970297029702944  C 3.7836734693877556 2.394059405940597  3.9918367346938766 2.2910891089108922  4.187755102040815 2.2910891089108922  C 4.383673469387756 2.2910891089108922  4.591836734693877 2.2910891089108922  4.787755102040816 2.394059405940597  C 4.983673469387753 2.4970297029702944  5.1918367346938785 2.5999999999999988  5.2897959183673455 2.818811881188116  C 5.485714285714287 3.127722772277229  5.6938775510204085 3.4495049504950512  5.791836734693879 3.758415841584157  C 5.889795918367346 4.06732673267327  5.889795918367346 4.389108910891093  5.889795918367346 4.698019801980198  C 5.889795918367346 5.006930693069304  5.889795918367346 5.3287128712871255  5.791836734693879 5.637623762376239  C 5.791836734693879 5.946534653465346  5.6938775510204085 6.268316831683166  5.6938775510204085 6.57722772277228  C 5.6938775510204085 6.8861386138613865  5.6938775510204085 7.104950495049504  5.791836734693879 7.413861386138616  C 5.889795918367346 7.7227722772277225  6.085714285714284 7.94158415841584  6.293877551020409 8.147524752475249  L 7.493877551020407 9.305940594059408  L 8.693877551020408 8.147524752475249  L 7.8979591836734695 6.8861386138613865  C 7.702040816326531 6.680198019801978  7.702040816326531 6.46138613861386  7.702040816326531 6.255445544554458  C 7.702040816326531 5.946534653465346  7.799999999999999 5.727722772277228  7.799999999999999 5.418811881188121  C 7.8979591836734695 5.109900990099009  7.8979591836734695 4.788118811881187  7.99591836734694 4.479207920792081  L 7.99591836734694 3.4366336633663352  C 7.8979591836734695 3.011881188118809  7.799999999999999 2.5999999999999988  7.702040816326531 2.2782178217821767  C 7.6040816326530605 1.8534653465346504  7.297959183673469 1.4415841584158402  7.00408163265306 1.1198019801980184  C 6.6000000000000005 0.8108910891089123  6.208163265306121 0.48910891089109054  5.804081632653062 0.2831683168316817  C 5.3999999999999995 0.18019801980197728  4.910204081632653 0.07722772277228016  4.5061224489795935 0.07722772277228016  C 4.1020408163265305 0.07722772277228016  3.612244897959184 0.18019801980197728  3.208163265306121 0.38613861386138615  C 2.706122448979591 0.592079207920795  2.314285714285715 0.9138613861386169  1.9102040816326524 1.3257425742574274  C 1.6163265306122436 1.6346534653465332  1.3102040816326517 1.9564356435643548  1.1142857142857137 2.2653465346534682  C 0.9183673469387755 2.5742574257425743  0.7102040816326545 2.896039603960396  0.6122448979591837 3.204950495049502  Z M 8.877551020408163 11.326732673267326  C 8.877551020408163 11.51980198019802  8.877551020408163 11.738613861386138  8.975510204081633 11.944554455445546  C 9.073469387755102 12.150495049504947  9.171428571428573 12.369306930693071  9.26938775510204 12.472277227722769  C 9.36734693877551 12.678217821782178  9.563265306122448 12.781188118811883  9.869387755102041 12.897029702970295  C 10.16326530612245 13  10.567346938775511 13  10.971428571428572 12.897029702970295  C 11.167346938775509 12.897029702970295  11.375510204081634 12.691089108910894  11.4734693877551 12.58811881188119  C 11.669387755102042 12.38217821782178  11.76734693877551 12.279207920792075  11.877551020408163 12.06039603960396  C 11.877551020408163 11.854455445544557  11.975510204081633 11.635643564356434  11.975510204081633 11.429702970297031  C 11.975510204081633 11.223762376237623  11.975510204081633 11.004950495049505  11.877551020408163 10.799009900990095  C 11.681632653061225 10.16831683168317  11.081632653061224 9.756435643564357  10.481632653061224 9.756435643564357  C 10.285714285714285 9.756435643564357  10.077551020408164 9.756435643564357  9.881632653061223 9.859405940594062  C 9.685714285714285 9.96237623762376  9.477551020408164 10.065346534653465  9.379591836734694 10.16831683168317  C 9.085714285714284 10.477227722772275  8.877551020408163 10.9019801980198  8.877551020408163 11.326732673267326  Z " fill-rule="nonzero" fill="rgba(206, 214, 226, 1)" stroke="none" transform="matrix(1 0 0 1 151 37 )" class="fill" />
    <path d="M 0.6122448979591837 3.204950495049502  C 0.5020408163265299 3.565346534653464  0.40408163265306263 3.874257425742577  0.29387755102040886 4.183168316831683  C 0.19591836734693807 4.4920792079207885  0.09795918367347077 4.813861386138611  0.09795918367347077 5.122772277227725  L 1.2000000000000015 5.3287128712871255  C 1.3959183673469395 5.43168316831683  1.7020408163265315 5.43168316831683  1.7999999999999985 5.225742574257429  C 1.8979591836734695 5.122772277227725  1.99591836734694 5.01980198019802  1.99591836734694 4.916831683168315  C 1.99591836734694 4.813861386138611  1.99591836734694 4.607920792079209  2.0938775510204075 4.389108910891093  C 2.191836734693878 4.080198019801979  2.2897959183673455 3.8613861386138613  2.387755102040816 3.655445544554452  C 2.5836734693877546 3.4495049504950512  2.791836734693879 3.127722772277229  2.987755102040817 2.9217821782178204  C 3.183673469387755 2.7158415841584187  3.391836734693876 2.6128712871287143  3.587755102040818 2.4970297029702944  C 3.7836734693877556 2.394059405940597  3.9918367346938766 2.2910891089108922  4.187755102040815 2.2910891089108922  C 4.383673469387756 2.2910891089108922  4.591836734693877 2.2910891089108922  4.787755102040816 2.394059405940597  C 4.983673469387753 2.4970297029702944  5.1918367346938785 2.5999999999999988  5.2897959183673455 2.818811881188116  C 5.485714285714287 3.127722772277229  5.6938775510204085 3.4495049504950512  5.791836734693879 3.758415841584157  C 5.889795918367346 4.06732673267327  5.889795918367346 4.389108910891093  5.889795918367346 4.698019801980198  C 5.889795918367346 5.006930693069304  5.889795918367346 5.3287128712871255  5.791836734693879 5.637623762376239  C 5.791836734693879 5.946534653465346  5.6938775510204085 6.268316831683166  5.6938775510204085 6.57722772277228  C 5.6938775510204085 6.8861386138613865  5.6938775510204085 7.104950495049504  5.791836734693879 7.413861386138616  C 5.889795918367346 7.7227722772277225  6.085714285714284 7.94158415841584  6.293877551020409 8.147524752475249  L 7.493877551020407 9.305940594059408  L 8.693877551020408 8.147524752475249  L 7.8979591836734695 6.8861386138613865  C 7.702040816326531 6.680198019801978  7.702040816326531 6.46138613861386  7.702040816326531 6.255445544554458  C 7.702040816326531 5.946534653465346  7.799999999999999 5.727722772277228  7.799999999999999 5.418811881188121  C 7.8979591836734695 5.109900990099009  7.8979591836734695 4.788118811881187  7.99591836734694 4.479207920792081  L 7.99591836734694 3.4366336633663352  C 7.8979591836734695 3.011881188118809  7.799999999999999 2.5999999999999988  7.702040816326531 2.2782178217821767  C 7.6040816326530605 1.8534653465346504  7.297959183673469 1.4415841584158402  7.00408163265306 1.1198019801980184  C 6.6000000000000005 0.8108910891089123  6.208163265306121 0.48910891089109054  5.804081632653062 0.2831683168316817  C 5.3999999999999995 0.18019801980197728  4.910204081632653 0.07722772277228016  4.5061224489795935 0.07722772277228016  C 4.1020408163265305 0.07722772277228016  3.612244897959184 0.18019801980197728  3.208163265306121 0.38613861386138615  C 2.706122448979591 0.592079207920795  2.314285714285715 0.9138613861386169  1.9102040816326524 1.3257425742574274  C 1.6163265306122436 1.6346534653465332  1.3102040816326517 1.9564356435643548  1.1142857142857137 2.2653465346534682  C 0.9183673469387755 2.5742574257425743  0.7102040816326545 2.896039603960396  0.6122448979591837 3.204950495049502  Z " stroke-width="0" stroke-dasharray="0" stroke="rgba(255, 255, 255, 0)" fill="none" transform="matrix(1 0 0 1 151 37 )" class="stroke" mask="url(#Clip97)" />
    <path d="M 8.877551020408163 11.326732673267326  C 8.877551020408163 11.51980198019802  8.877551020408163 11.738613861386138  8.975510204081633 11.944554455445546  C 9.073469387755102 12.150495049504947  9.171428571428573 12.369306930693071  9.26938775510204 12.472277227722769  C 9.36734693877551 12.678217821782178  9.563265306122448 12.781188118811883  9.869387755102041 12.897029702970295  C 10.16326530612245 13  10.567346938775511 13  10.971428571428572 12.897029702970295  C 11.167346938775509 12.897029702970295  11.375510204081634 12.691089108910894  11.4734693877551 12.58811881188119  C 11.669387755102042 12.38217821782178  11.76734693877551 12.279207920792075  11.877551020408163 12.06039603960396  C 11.877551020408163 11.854455445544557  11.975510204081633 11.635643564356434  11.975510204081633 11.429702970297031  C 11.975510204081633 11.223762376237623  11.975510204081633 11.004950495049505  11.877551020408163 10.799009900990095  C 11.681632653061225 10.16831683168317  11.081632653061224 9.756435643564357  10.481632653061224 9.756435643564357  C 10.285714285714285 9.756435643564357  10.077551020408164 9.756435643564357  9.881632653061223 9.859405940594062  C 9.685714285714285 9.96237623762376  9.477551020408164 10.065346534653465  9.379591836734694 10.16831683168317  C 9.085714285714284 10.477227722772275  8.877551020408163 10.9019801980198  8.877551020408163 11.326732673267326  Z " stroke-width="0" stroke-dasharray="0" stroke="rgba(255, 255, 255, 0)" fill="none" transform="matrix(1 0 0 1 151 37 )" class="stroke" mask="url(#Clip97)" />
  </g>
</svg>