<?xml version="1.0" encoding="utf-8"?>
<svg version="1.1" xmlns:xlink="http://www.w3.org/1999/xlink" width="39px" height="47px" xmlns="http://www.w3.org/2000/svg">
  <defs>
    <pattern id="BGPattern" patternUnits="userSpaceOnUse" alignment="0 0" imageRepeat="None" />
    <mask fill="white" id="Clip562">
      <path d="M 36.2858934169279 9.941361256544504  L 38.97554858934169 22.355759162303663  L 25.735109717868337 46.10183246073298  C 25.233855799373035 46.90157068062827  24.243573667711594 47.209162303664925  23.546708463949848 46.70471204188482  L 0.8557993730407524 33.379842931937176  C 0.061128526645768025 32.87539267015706  -0.2445141065830721 31.878795811518327  0.2567398119122285 31.177486910994762  L 17.678369905956117 0.9227748691099477  C 18.179623824451415 0.12303664921465969  19.169905956112846 -0.18455497382198952  19.86677115987461 0.3198952879581145  L 36.2858934169279 9.941361256544504  Z " fill-rule="evenodd" />
    </mask>
  </defs>
  <g transform="matrix(1 0 0 1 -207 -17 )">
    <path d="M 36.2858934169279 9.941361256544504  L 38.97554858934169 22.355759162303663  L 25.735109717868337 46.10183246073298  C 25.233855799373035 46.90157068062827  24.243573667711594 47.209162303664925  23.546708463949848 46.70471204188482  L 0.8557993730407524 33.379842931937176  C 0.061128526645768025 32.87539267015706  -0.2445141065830721 31.878795811518327  0.2567398119122285 31.177486910994762  L 17.678369905956117 0.9227748691099477  C 18.179623824451415 0.12303664921465969  19.169905956112846 -0.18455497382198952  19.86677115987461 0.3198952879581145  L 36.2858934169279 9.941361256544504  Z " fill-rule="nonzero" fill="rgba(242, 246, 250, 1)" stroke="none" transform="matrix(1 0 0 1 207 17 )" class="fill" />
    <path d="M 36.2858934169279 9.941361256544504  L 38.97554858934169 22.355759162303663  L 25.735109717868337 46.10183246073298  C 25.233855799373035 46.90157068062827  24.243573667711594 47.209162303664925  23.546708463949848 46.70471204188482  L 0.8557993730407524 33.379842931937176  C 0.061128526645768025 32.87539267015706  -0.2445141065830721 31.878795811518327  0.2567398119122285 31.177486910994762  L 17.678369905956117 0.9227748691099477  C 18.179623824451415 0.12303664921465969  19.169905956112846 -0.18455497382198952  19.86677115987461 0.3198952879581145  L 36.2858934169279 9.941361256544504  Z " stroke-width="0" stroke-dasharray="0" stroke="rgba(255, 255, 255, 0)" fill="none" transform="matrix(1 0 0 1 207 17 )" class="stroke" mask="url(#Clip562)" />
  </g>
</svg>