<?xml version="1.0" encoding="utf-8"?>
<svg version="1.1" xmlns:xlink="http://www.w3.org/1999/xlink" width="31px" height="31px" xmlns="http://www.w3.org/2000/svg">
  <defs>
    <pattern id="BGPattern" patternUnits="userSpaceOnUse" alignment="0 0" imageRepeat="None" />
    <mask fill="white" id="Clip106">
      <path d="M 19.744047619047617 22.384738955823288  C 27.13730158730159 29.879518072289155  27.801587301587304 30.77590361445784  28.576587301587296 30.88795180722892  C 28.687301587301594 30.900401606425707  28.810317460317464 30.900401606425707  28.957936507936505 30.900401606425707  C 30.766269841269846 30.900401606425707  31.56587301587302 28.7714859437751  30.261904761904763 27.551405622489956  L 22.339682539682542 19.546184738955823  C 28.047619047619047 11.130120481927708  22.044444444444448 0.08714859437751571  12.326190476190483 0.08714859437751571  C 5.621825396825403 0.08714859437751571  0.11071428571428292 5.664658634538153  0.11071428571428292 12.449799196787149  C 0.11071428571428292 22.583935742971885  11.526587301587307 28.572289156626507  19.744047619047617 22.384738955823288  Z M 12.436904761904763 21.065060240963863  C 7.725396825396819 21.065060240963863  4.010317460317463 17.317670682730927  4.010317460317463 12.54939759036144  C 4.010317460317463 7.781124497991968  7.811507936507937 4.033734939759033  12.424603174603176 4.033734939759033  C 17.02539682539682 4.033734939759033  20.83888888888889 7.781124497991968  20.740476190476194 12.648995983935745  C 20.740476190476194 13.059839357429716  20.64206349206349 13.358634538152605  20.64206349206349 13.769477911646588  C 20.64206349206349 14.279919678714865  20.543650793650794 14.777911646586352  20.346825396825395 15.288353413654614  C 20.149999999999995 15.798795180722887  19.940873015873017 16.296787148594376  19.744047619047617 16.70763052208836  C 19.547222222222217 17.11847389558233  19.239682539682537 17.516867469879525  18.944444444444446 17.927710843373493  C 18.649206349206352 18.226506024096384  18.243253968253963 18.63734939759037  17.948015873015873 18.936144578313257  C 17.542063492063495 19.34698795180723  17.148412698412695 19.645783132530113  16.644047619047615 19.944578313253018  C 16.238095238095237 20.143775100401598  15.84444444444444 20.355421686746986  15.34007936507937 20.554618473895584  C 14.934126984126982 20.75381526104418  14.44206349206349 20.853413654618475  13.937698412698408 20.965461847389555  C 13.433333333333339 21.065060240963863  12.941269841269847 21.065060240963863  12.436904761904763 21.065060240963863  Z " fill-rule="evenodd" />
    </mask>
  </defs>
  <g transform="matrix(1 0 0 1 -211 -86 )">
    <path d="M 19.744047619047617 22.384738955823288  C 27.13730158730159 29.879518072289155  27.801587301587304 30.77590361445784  28.576587301587296 30.88795180722892  C 28.687301587301594 30.900401606425707  28.810317460317464 30.900401606425707  28.957936507936505 30.900401606425707  C 30.766269841269846 30.900401606425707  31.56587301587302 28.7714859437751  30.261904761904763 27.551405622489956  L 22.339682539682542 19.546184738955823  C 28.047619047619047 11.130120481927708  22.044444444444448 0.08714859437751571  12.326190476190483 0.08714859437751571  C 5.621825396825403 0.08714859437751571  0.11071428571428292 5.664658634538153  0.11071428571428292 12.449799196787149  C 0.11071428571428292 22.583935742971885  11.526587301587307 28.572289156626507  19.744047619047617 22.384738955823288  Z M 12.436904761904763 21.065060240963863  C 7.725396825396819 21.065060240963863  4.010317460317463 17.317670682730927  4.010317460317463 12.54939759036144  C 4.010317460317463 7.781124497991968  7.811507936507937 4.033734939759033  12.424603174603176 4.033734939759033  C 17.02539682539682 4.033734939759033  20.83888888888889 7.781124497991968  20.740476190476194 12.648995983935745  C 20.740476190476194 13.059839357429716  20.64206349206349 13.358634538152605  20.64206349206349 13.769477911646588  C 20.64206349206349 14.279919678714865  20.543650793650794 14.777911646586352  20.346825396825395 15.288353413654614  C 20.149999999999995 15.798795180722887  19.940873015873017 16.296787148594376  19.744047619047617 16.70763052208836  C 19.547222222222217 17.11847389558233  19.239682539682537 17.516867469879525  18.944444444444446 17.927710843373493  C 18.649206349206352 18.226506024096384  18.243253968253963 18.63734939759037  17.948015873015873 18.936144578313257  C 17.542063492063495 19.34698795180723  17.148412698412695 19.645783132530113  16.644047619047615 19.944578313253018  C 16.238095238095237 20.143775100401598  15.84444444444444 20.355421686746986  15.34007936507937 20.554618473895584  C 14.934126984126982 20.75381526104418  14.44206349206349 20.853413654618475  13.937698412698408 20.965461847389555  C 13.433333333333339 21.065060240963863  12.941269841269847 21.065060240963863  12.436904761904763 21.065060240963863  Z " fill-rule="nonzero" fill="rgba(76, 150, 236, 1)" stroke="none" transform="matrix(1 0 0 1 211 86 )" class="fill" />
    <path d="M 19.744047619047617 22.384738955823288  C 27.13730158730159 29.879518072289155  27.801587301587304 30.77590361445784  28.576587301587296 30.88795180722892  C 28.687301587301594 30.900401606425707  28.810317460317464 30.900401606425707  28.957936507936505 30.900401606425707  C 30.766269841269846 30.900401606425707  31.56587301587302 28.7714859437751  30.261904761904763 27.551405622489956  L 22.339682539682542 19.546184738955823  C 28.047619047619047 11.130120481927708  22.044444444444448 0.08714859437751571  12.326190476190483 0.08714859437751571  C 5.621825396825403 0.08714859437751571  0.11071428571428292 5.664658634538153  0.11071428571428292 12.449799196787149  C 0.11071428571428292 22.583935742971885  11.526587301587307 28.572289156626507  19.744047619047617 22.384738955823288  Z " stroke-width="0" stroke-dasharray="0" stroke="rgba(255, 255, 255, 0)" fill="none" transform="matrix(1 0 0 1 211 86 )" class="stroke" mask="url(#Clip106)" />
    <path d="M 12.436904761904763 21.065060240963863  C 7.725396825396819 21.065060240963863  4.010317460317463 17.317670682730927  4.010317460317463 12.54939759036144  C 4.010317460317463 7.781124497991968  7.811507936507937 4.033734939759033  12.424603174603176 4.033734939759033  C 17.02539682539682 4.033734939759033  20.83888888888889 7.781124497991968  20.740476190476194 12.648995983935745  C 20.740476190476194 13.059839357429716  20.64206349206349 13.358634538152605  20.64206349206349 13.769477911646588  C 20.64206349206349 14.279919678714865  20.543650793650794 14.777911646586352  20.346825396825395 15.288353413654614  C 20.149999999999995 15.798795180722887  19.940873015873017 16.296787148594376  19.744047619047617 16.70763052208836  C 19.547222222222217 17.11847389558233  19.239682539682537 17.516867469879525  18.944444444444446 17.927710843373493  C 18.649206349206352 18.226506024096384  18.243253968253963 18.63734939759037  17.948015873015873 18.936144578313257  C 17.542063492063495 19.34698795180723  17.148412698412695 19.645783132530113  16.644047619047615 19.944578313253018  C 16.238095238095237 20.143775100401598  15.84444444444444 20.355421686746986  15.34007936507937 20.554618473895584  C 14.934126984126982 20.75381526104418  14.44206349206349 20.853413654618475  13.937698412698408 20.965461847389555  C 13.433333333333339 21.065060240963863  12.941269841269847 21.065060240963863  12.436904761904763 21.065060240963863  Z " stroke-width="0" stroke-dasharray="0" stroke="rgba(255, 255, 255, 0)" fill="none" transform="matrix(1 0 0 1 211 86 )" class="stroke" mask="url(#Clip106)" />
  </g>
</svg>