<?xml version="1.0" encoding="utf-8"?>
<svg version="1.1" xmlns:xlink="http://www.w3.org/1999/xlink" width="14px" height="10px" xmlns="http://www.w3.org/2000/svg">
  <defs>
    <pattern id="BGPattern" patternUnits="userSpaceOnUse" alignment="0 0" imageRepeat="None" />
    <mask fill="white" id="Clip569">
      <path d="M 12.082882882882878 1.1139240506329058  C 11.754954954954961 0.8481012658227906  11.553153153153156 0.6329113924050633  11.23783783783784 0.5316455696202589  C 10.935135135135141 0.4303797468354401  10.72072072072072 0.22784810126581703  10.41801801801802 0.11392405063290852  L 9.9009009009009 1.3544303797468413  C 9.800000000000006 1.4556962025316456  9.800000000000006 1.7721518987341773  9.9009009009009 1.8734177215189816  C 10.001801801801797 2.075949367088605  10.102702702702706 2.075949367088605  10.2036036036036 2.1772151898734236  C 10.304504504504509 2.2784810126582276  10.5063063063063 2.3797468354430324  10.619819819819824 2.481012658227851  C 10.821621621621615 2.582278481012655  11.036036036036037 2.7848101265822782  11.13693693693693 2.898734177215187  C 11.338738738738737 3.2025316455696147  11.553153153153156 3.4177215189873418  11.654054054054052 3.7215189873417693  C 11.855855855855856 4.0253164556961964  11.855855855855856 4.240506329113924  11.956756756756752 4.4430379746835476  C 11.956756756756752 4.556962025316455  11.969369369369367 4.6582278481012604  11.981981981981983 4.746835443037974  C 12.007207207207214 4.911392405063285  12.019819819819814 5.037974683544299  11.956756756756752 5.16455696202531  C 11.956756756756752 5.683544303797465  11.54054054054054 5.987341772151893  11.23783783783784 6.1898734177215164  C 10.821621621621615 6.392405063291139  10.518918918918915 6.493670886075944  10.216216216216216 6.493670886075944  C 9.800000000000006 6.392405063291139  9.598198198198201 6.392405063291139  9.295495495495501 6.291139240506335  C 8.879279279279277 6.1898734177215164  8.67747747747747 5.987341772151893  8.374774774774771 5.873417721518984  C 8.172972972972968 5.77215189873418  7.958558558558561 5.5696202531645564  7.655855855855862 5.455696202531648  C 7.353153153153148 5.354430379746829  7.138738738738742 5.354430379746829  6.836036036036042 5.354430379746829  C 6.533333333333327 5.354430379746829  6.218018018018012 5.354430379746829  6.016216216216222 5.556962025316453  L 4.679279279279282 6.481012658227854  L 5.398198198198193 8.0253164556962  L 6.735135135135132 7.506329113924045  C 6.836036036036042 7.3037974683544356  7.151351351351358 7.3037974683544356  7.353153153153148 7.40506329113924  C 7.554954954954953 7.506329113924045  7.870270270270268 7.607594936708864  8.072072072072071 7.708860759493668  L 8.891891891891891 8.126582278481019  C 9.194594594594593 8.329113924050628  9.610810810810817 8.329113924050628  9.913513513513516 8.430379746835445  C 10.216216216216216 8.531645569620249  10.733333333333336 8.531645569620249  11.048648648648651 8.430379746835445  C 11.464864864864861 8.329113924050628  11.969369369369367 8.227848101265824  12.284684684684683 8.012658227848096  C 12.700900900900907 7.810126582278487  13.1045045045045 7.493670886075955  13.419819819819816 7.088607594936709  C 13.621621621621623 6.670886075949372  13.836036036036042 6.265822784810126  13.936936936936938 5.84810126582279  C 13.936936936936938 5.670886075949362  13.949549549549554 5.5063291139240516  13.962162162162167 5.354430379746829  C 13.987387387387384 5.050632911392402  14 4.746835443037974  13.936936936936938 4.405063291139235  C 13.936936936936938 3.9873417721518987  13.836036036036042 3.3797468354430436  13.520720720720727 2.9620253164556933  C 13.318918918918921 2.5443037974683573  13.1045045045045 2.2405063291139298  12.801801801801801 1.936708860759488  C 12.599999999999998 1.6329113924050604  12.385585585585591 1.4177215189873476  12.082882882882878 1.1139240506329058  Z M 1.4882882882882826 7.139240506329111  C 1.2234234234234291 7.037974683544307  1.1099099099099041 7.101265822784813  0.9585585585585614 7.189873417721513  C 0.9333333333333305 7.202531645569618  0.9081081081081138 7.215189873417721  0.8702702702702674 7.240506329113929  C 0.7693693693693722 7.443037974683539  0.4540540540540569 7.443037974683539  0.35315315315314744 7.544303797468357  C 0.35315315315314744 7.74683544303798  0.25225225225225223 7.848101265822784  0.15135135135135708 8.063291139240512  C 0.15135135135135708 8.088607594936706  0.1387387387387416 8.126582278481019  0.1387387387387416 8.17721518987342  C 0.11351351351351066 8.291139240506329  0.08828828828829403 8.430379746835445  0.15135135135135708 8.582278481012652  C 0.15135135135135708 8.784810126582276  0.15135135135135708 9.000000000000002  0.25225225225225223 9.202531645569627  C 0.35315315315314744 9.506329113924053  0.6684684684684628 9.822784810126585  1.072072072072072 9.92405063291139  L 1.589189189189192 9.92405063291139  C 1.7909909909909967 9.92405063291139  2.0054054054054022 9.92405063291139  2.2072072072072073 9.822784810126585  C 2.5099099099099074 9.721518987341767  2.8252252252252226 9.30379746835443  2.9261261261261318 9.000000000000002  L 2.9261261261261318 8.481012658227847  C 2.9261261261261318 8.278481012658226  2.9261261261261318 8.063291139240512  2.8252252252252226 7.860759493670889  C 2.724324324324327 7.556962025316461  2.409009009009012 7.240506329113929  2.0054054054054022 7.139240506329111  C 1.980180180180186 7.139240506329111  1.9423423423423396 7.126582278481007  1.891891891891892 7.126582278481007  C 1.778378378378381 7.101265822784813  1.6396396396396395 7.0759493670886044  1.4882882882882826 7.139240506329111  Z " fill-rule="evenodd" />
    </mask>
  </defs>
  <g transform="matrix(1 0 0 1 -228 -78 )">
    <path d="M 12.082882882882878 1.1139240506329058  C 11.754954954954961 0.8481012658227906  11.553153153153156 0.6329113924050633  11.23783783783784 0.5316455696202589  C 10.935135135135141 0.4303797468354401  10.72072072072072 0.22784810126581703  10.41801801801802 0.11392405063290852  L 9.9009009009009 1.3544303797468413  C 9.800000000000006 1.4556962025316456  9.800000000000006 1.7721518987341773  9.9009009009009 1.8734177215189816  C 10.001801801801797 2.075949367088605  10.102702702702706 2.075949367088605  10.2036036036036 2.1772151898734236  C 10.304504504504509 2.2784810126582276  10.5063063063063 2.3797468354430324  10.619819819819824 2.481012658227851  C 10.821621621621615 2.582278481012655  11.036036036036037 2.7848101265822782  11.13693693693693 2.898734177215187  C 11.338738738738737 3.2025316455696147  11.553153153153156 3.4177215189873418  11.654054054054052 3.7215189873417693  C 11.855855855855856 4.0253164556961964  11.855855855855856 4.240506329113924  11.956756756756752 4.4430379746835476  C 11.956756756756752 4.556962025316455  11.969369369369367 4.6582278481012604  11.981981981981983 4.746835443037974  C 12.007207207207214 4.911392405063285  12.019819819819814 5.037974683544299  11.956756756756752 5.16455696202531  C 11.956756756756752 5.683544303797465  11.54054054054054 5.987341772151893  11.23783783783784 6.1898734177215164  C 10.821621621621615 6.392405063291139  10.518918918918915 6.493670886075944  10.216216216216216 6.493670886075944  C 9.800000000000006 6.392405063291139  9.598198198198201 6.392405063291139  9.295495495495501 6.291139240506335  C 8.879279279279277 6.1898734177215164  8.67747747747747 5.987341772151893  8.374774774774771 5.873417721518984  C 8.172972972972968 5.77215189873418  7.958558558558561 5.5696202531645564  7.655855855855862 5.455696202531648  C 7.353153153153148 5.354430379746829  7.138738738738742 5.354430379746829  6.836036036036042 5.354430379746829  C 6.533333333333327 5.354430379746829  6.218018018018012 5.354430379746829  6.016216216216222 5.556962025316453  L 4.679279279279282 6.481012658227854  L 5.398198198198193 8.0253164556962  L 6.735135135135132 7.506329113924045  C 6.836036036036042 7.3037974683544356  7.151351351351358 7.3037974683544356  7.353153153153148 7.40506329113924  C 7.554954954954953 7.506329113924045  7.870270270270268 7.607594936708864  8.072072072072071 7.708860759493668  L 8.891891891891891 8.126582278481019  C 9.194594594594593 8.329113924050628  9.610810810810817 8.329113924050628  9.913513513513516 8.430379746835445  C 10.216216216216216 8.531645569620249  10.733333333333336 8.531645569620249  11.048648648648651 8.430379746835445  C 11.464864864864861 8.329113924050628  11.969369369369367 8.227848101265824  12.284684684684683 8.012658227848096  C 12.700900900900907 7.810126582278487  13.1045045045045 7.493670886075955  13.419819819819816 7.088607594936709  C 13.621621621621623 6.670886075949372  13.836036036036042 6.265822784810126  13.936936936936938 5.84810126582279  C 13.936936936936938 5.670886075949362  13.949549549549554 5.5063291139240516  13.962162162162167 5.354430379746829  C 13.987387387387384 5.050632911392402  14 4.746835443037974  13.936936936936938 4.405063291139235  C 13.936936936936938 3.9873417721518987  13.836036036036042 3.3797468354430436  13.520720720720727 2.9620253164556933  C 13.318918918918921 2.5443037974683573  13.1045045045045 2.2405063291139298  12.801801801801801 1.936708860759488  C 12.599999999999998 1.6329113924050604  12.385585585585591 1.4177215189873476  12.082882882882878 1.1139240506329058  Z M 1.4882882882882826 7.139240506329111  C 1.2234234234234291 7.037974683544307  1.1099099099099041 7.101265822784813  0.9585585585585614 7.189873417721513  C 0.9333333333333305 7.202531645569618  0.9081081081081138 7.215189873417721  0.8702702702702674 7.240506329113929  C 0.7693693693693722 7.443037974683539  0.4540540540540569 7.443037974683539  0.35315315315314744 7.544303797468357  C 0.35315315315314744 7.74683544303798  0.25225225225225223 7.848101265822784  0.15135135135135708 8.063291139240512  C 0.15135135135135708 8.088607594936706  0.1387387387387416 8.126582278481019  0.1387387387387416 8.17721518987342  C 0.11351351351351066 8.291139240506329  0.08828828828829403 8.430379746835445  0.15135135135135708 8.582278481012652  C 0.15135135135135708 8.784810126582276  0.15135135135135708 9.000000000000002  0.25225225225225223 9.202531645569627  C 0.35315315315314744 9.506329113924053  0.6684684684684628 9.822784810126585  1.072072072072072 9.92405063291139  L 1.589189189189192 9.92405063291139  C 1.7909909909909967 9.92405063291139  2.0054054054054022 9.92405063291139  2.2072072072072073 9.822784810126585  C 2.5099099099099074 9.721518987341767  2.8252252252252226 9.30379746835443  2.9261261261261318 9.000000000000002  L 2.9261261261261318 8.481012658227847  C 2.9261261261261318 8.278481012658226  2.9261261261261318 8.063291139240512  2.8252252252252226 7.860759493670889  C 2.724324324324327 7.556962025316461  2.409009009009012 7.240506329113929  2.0054054054054022 7.139240506329111  C 1.980180180180186 7.139240506329111  1.9423423423423396 7.126582278481007  1.891891891891892 7.126582278481007  C 1.778378378378381 7.101265822784813  1.6396396396396395 7.0759493670886044  1.4882882882882826 7.139240506329111  Z " fill-rule="nonzero" fill="rgba(206, 214, 226, 1)" stroke="none" transform="matrix(1 0 0 1 228 78 )" class="fill" />
    <path d="M 12.082882882882878 1.1139240506329058  C 11.754954954954961 0.8481012658227906  11.553153153153156 0.6329113924050633  11.23783783783784 0.5316455696202589  C 10.935135135135141 0.4303797468354401  10.72072072072072 0.22784810126581703  10.41801801801802 0.11392405063290852  L 9.9009009009009 1.3544303797468413  C 9.800000000000006 1.4556962025316456  9.800000000000006 1.7721518987341773  9.9009009009009 1.8734177215189816  C 10.001801801801797 2.075949367088605  10.102702702702706 2.075949367088605  10.2036036036036 2.1772151898734236  C 10.304504504504509 2.2784810126582276  10.5063063063063 2.3797468354430324  10.619819819819824 2.481012658227851  C 10.821621621621615 2.582278481012655  11.036036036036037 2.7848101265822782  11.13693693693693 2.898734177215187  C 11.338738738738737 3.2025316455696147  11.553153153153156 3.4177215189873418  11.654054054054052 3.7215189873417693  C 11.855855855855856 4.0253164556961964  11.855855855855856 4.240506329113924  11.956756756756752 4.4430379746835476  C 11.956756756756752 4.556962025316455  11.969369369369367 4.6582278481012604  11.981981981981983 4.746835443037974  C 12.007207207207214 4.911392405063285  12.019819819819814 5.037974683544299  11.956756756756752 5.16455696202531  C 11.956756756756752 5.683544303797465  11.54054054054054 5.987341772151893  11.23783783783784 6.1898734177215164  C 10.821621621621615 6.392405063291139  10.518918918918915 6.493670886075944  10.216216216216216 6.493670886075944  C 9.800000000000006 6.392405063291139  9.598198198198201 6.392405063291139  9.295495495495501 6.291139240506335  C 8.879279279279277 6.1898734177215164  8.67747747747747 5.987341772151893  8.374774774774771 5.873417721518984  C 8.172972972972968 5.77215189873418  7.958558558558561 5.5696202531645564  7.655855855855862 5.455696202531648  C 7.353153153153148 5.354430379746829  7.138738738738742 5.354430379746829  6.836036036036042 5.354430379746829  C 6.533333333333327 5.354430379746829  6.218018018018012 5.354430379746829  6.016216216216222 5.556962025316453  L 4.679279279279282 6.481012658227854  L 5.398198198198193 8.0253164556962  L 6.735135135135132 7.506329113924045  C 6.836036036036042 7.3037974683544356  7.151351351351358 7.3037974683544356  7.353153153153148 7.40506329113924  C 7.554954954954953 7.506329113924045  7.870270270270268 7.607594936708864  8.072072072072071 7.708860759493668  L 8.891891891891891 8.126582278481019  C 9.194594594594593 8.329113924050628  9.610810810810817 8.329113924050628  9.913513513513516 8.430379746835445  C 10.216216216216216 8.531645569620249  10.733333333333336 8.531645569620249  11.048648648648651 8.430379746835445  C 11.464864864864861 8.329113924050628  11.969369369369367 8.227848101265824  12.284684684684683 8.012658227848096  C 12.700900900900907 7.810126582278487  13.1045045045045 7.493670886075955  13.419819819819816 7.088607594936709  C 13.621621621621623 6.670886075949372  13.836036036036042 6.265822784810126  13.936936936936938 5.84810126582279  C 13.936936936936938 5.670886075949362  13.949549549549554 5.5063291139240516  13.962162162162167 5.354430379746829  C 13.987387387387384 5.050632911392402  14 4.746835443037974  13.936936936936938 4.405063291139235  C 13.936936936936938 3.9873417721518987  13.836036036036042 3.3797468354430436  13.520720720720727 2.9620253164556933  C 13.318918918918921 2.5443037974683573  13.1045045045045 2.2405063291139298  12.801801801801801 1.936708860759488  C 12.599999999999998 1.6329113924050604  12.385585585585591 1.4177215189873476  12.082882882882878 1.1139240506329058  Z " stroke-width="0" stroke-dasharray="0" stroke="rgba(255, 255, 255, 0)" fill="none" transform="matrix(1 0 0 1 228 78 )" class="stroke" mask="url(#Clip569)" />
    <path d="M 1.4882882882882826 7.139240506329111  C 1.2234234234234291 7.037974683544307  1.1099099099099041 7.101265822784813  0.9585585585585614 7.189873417721513  C 0.9333333333333305 7.202531645569618  0.9081081081081138 7.215189873417721  0.8702702702702674 7.240506329113929  C 0.7693693693693722 7.443037974683539  0.4540540540540569 7.443037974683539  0.35315315315314744 7.544303797468357  C 0.35315315315314744 7.74683544303798  0.25225225225225223 7.848101265822784  0.15135135135135708 8.063291139240512  C 0.15135135135135708 8.088607594936706  0.1387387387387416 8.126582278481019  0.1387387387387416 8.17721518987342  C 0.11351351351351066 8.291139240506329  0.08828828828829403 8.430379746835445  0.15135135135135708 8.582278481012652  C 0.15135135135135708 8.784810126582276  0.15135135135135708 9.000000000000002  0.25225225225225223 9.202531645569627  C 0.35315315315314744 9.506329113924053  0.6684684684684628 9.822784810126585  1.072072072072072 9.92405063291139  L 1.589189189189192 9.92405063291139  C 1.7909909909909967 9.92405063291139  2.0054054054054022 9.92405063291139  2.2072072072072073 9.822784810126585  C 2.5099099099099074 9.721518987341767  2.8252252252252226 9.30379746835443  2.9261261261261318 9.000000000000002  L 2.9261261261261318 8.481012658227847  C 2.9261261261261318 8.278481012658226  2.9261261261261318 8.063291139240512  2.8252252252252226 7.860759493670889  C 2.724324324324327 7.556962025316461  2.409009009009012 7.240506329113929  2.0054054054054022 7.139240506329111  C 1.980180180180186 7.139240506329111  1.9423423423423396 7.126582278481007  1.891891891891892 7.126582278481007  C 1.778378378378381 7.101265822784813  1.6396396396396395 7.0759493670886044  1.4882882882882826 7.139240506329111  Z " stroke-width="0" stroke-dasharray="0" stroke="rgba(255, 255, 255, 0)" fill="none" transform="matrix(1 0 0 1 228 78 )" class="stroke" mask="url(#Clip569)" />
  </g>
</svg>