<?xml version="1.0" encoding="utf-8"?>
<svg version="1.1" xmlns:xlink="http://www.w3.org/1999/xlink" width="63px" height="36px" xmlns="http://www.w3.org/2000/svg">
  <defs>
    <pattern id="BGPattern" patternUnits="userSpaceOnUse" alignment="0 0" imageRepeat="None" />
    <mask fill="white" id="Clip103">
      <path d="M 59.65389105058366 0.1346938775510232  C 59.47003891050584 0.024489795918372914  59.2739299610895 0.024489795918372914  59.06556420233463 0  L 40.31264591439688 0  C 38.51089494163424 0.024489795918372914  36.72140077821012 0.6244897959183701  35.324124513618685 1.8244897959183646  L 30.335603112840467 5.816326530612246  C 28.93832684824903 6.918367346938775  27.13657587548638 7.616326530612251  25.34708171206226 8  L 3.9834630350194553 8  C 1.887548638132293 7.616326530612251  0.0980544747081726 9.306122448979592  0.0980544747081726 11.497959183673467  C 0.0980544747081726 11.693877551020408  0.0980544747081726 11.902040816326535  0.1961089494163452 12.097959183673463  L 4.081517509727628 32.53469387755102  C 4.375680933852139 34.43265306122449  6.079377431906618 35.926530612244896  7.966926070038911 36  L 53.574513618677045 36  C 55.57237354085603 35.926530612244896  57.165758754863816 34.53061224489796  57.45992217898832 32.63265306122449  L 62.95097276264592 4.518367346938772  C 63.245136186770424 2.424489795918362  61.84785992217899 0.42857142857142855  59.65389105058366 0.1346938775510232  Z " fill-rule="evenodd" />
    </mask>
  </defs>
  <g transform="matrix(1 0 0 1 -166 -68 )">
    <path d="M 59.65389105058366 0.1346938775510232  C 59.47003891050584 0.024489795918372914  59.2739299610895 0.024489795918372914  59.06556420233463 0  L 40.31264591439688 0  C 38.51089494163424 0.024489795918372914  36.72140077821012 0.6244897959183701  35.324124513618685 1.8244897959183646  L 30.335603112840467 5.816326530612246  C 28.93832684824903 6.918367346938775  27.13657587548638 7.616326530612251  25.34708171206226 8  L 3.9834630350194553 8  C 1.887548638132293 7.616326530612251  0.0980544747081726 9.306122448979592  0.0980544747081726 11.497959183673467  C 0.0980544747081726 11.693877551020408  0.0980544747081726 11.902040816326535  0.1961089494163452 12.097959183673463  L 4.081517509727628 32.53469387755102  C 4.375680933852139 34.43265306122449  6.079377431906618 35.926530612244896  7.966926070038911 36  L 53.574513618677045 36  C 55.57237354085603 35.926530612244896  57.165758754863816 34.53061224489796  57.45992217898832 32.63265306122449  L 62.95097276264592 4.518367346938772  C 63.245136186770424 2.424489795918362  61.84785992217899 0.42857142857142855  59.65389105058366 0.1346938775510232  Z " fill-rule="nonzero" fill="rgba(255, 255, 255, 1)" stroke="none" transform="matrix(1 0 0 1 166 68 )" class="fill" />
    <path d="M 59.65389105058366 0.1346938775510232  C 59.47003891050584 0.024489795918372914  59.2739299610895 0.024489795918372914  59.06556420233463 0  L 40.31264591439688 0  C 38.51089494163424 0.024489795918372914  36.72140077821012 0.6244897959183701  35.324124513618685 1.8244897959183646  L 30.335603112840467 5.816326530612246  C 28.93832684824903 6.918367346938775  27.13657587548638 7.616326530612251  25.34708171206226 8  L 3.9834630350194553 8  C 1.887548638132293 7.616326530612251  0.0980544747081726 9.306122448979592  0.0980544747081726 11.497959183673467  C 0.0980544747081726 11.693877551020408  0.0980544747081726 11.902040816326535  0.1961089494163452 12.097959183673463  L 4.081517509727628 32.53469387755102  C 4.375680933852139 34.43265306122449  6.079377431906618 35.926530612244896  7.966926070038911 36  L 53.574513618677045 36  C 55.57237354085603 35.926530612244896  57.165758754863816 34.53061224489796  57.45992217898832 32.63265306122449  L 62.95097276264592 4.518367346938772  C 63.245136186770424 2.424489795918362  61.84785992217899 0.42857142857142855  59.65389105058366 0.1346938775510232  Z " stroke-width="0" stroke-dasharray="0" stroke="rgba(255, 255, 255, 0)" fill="none" transform="matrix(1 0 0 1 166 68 )" class="stroke" mask="url(#Clip103)" />
  </g>
</svg>