<?xml version="1.0" encoding="utf-8"?>
<svg version="1.1" xmlns:xlink="http://www.w3.org/1999/xlink" width="76px" height="44px" xmlns="http://www.w3.org/2000/svg">
  <defs>
    <pattern id="BGPattern" patternUnits="userSpaceOnUse" alignment="0 0" imageRepeat="None" />
    <mask fill="white" id="Clip105">
      <path d="M 71.91530944625407 0  C 71.70488599348533 0.012394366197185916  71.40781758957655 0.012394366197185916  71.20977198697068 0  L 48.63257328990228 0  C 46.51596091205211 0.012394366197185916  44.30032573289902 0.8180281690140874  42.691205211726384 2.1318309859154914  L 36.63843648208469 7.077183098591552  C 34.93029315960912 8.490140845070423  32.81368078175896 9.196619718309865  30.697068403908794 10  L 4.7902280130293144 10  C 2.265146579804562 9.196619718309865  0.0495114006514665 11.216901408450704  0.0495114006514665 13.943661971830988  C 0.0495114006514665 14.141971830985918  0.0495114006514665 14.451830985915496  0.14853420195439598 14.650140845070428  L 4.8892508143322475 39.77352112676056  C 5.297719869706842 42.09126760563381  7.203908794788272 43.91323943661971  9.629967426710099 44  L 64.55048859934854 44  C 66.86514657980456 43.91323943661971  68.88273615635178 42.202816901408454  69.29120521172638 39.87267605633803  L 75.83908794788273 5.453521126760563  C 76.24755700325733 2.925070422535214  74.5270358306189 0.4090140845070437  71.91530944625407 0  Z " fill-rule="evenodd" />
    </mask>
  </defs>
  <g transform="matrix(1 0 0 1 -160 -64 )">
    <path d="M 71.91530944625407 0  C 71.70488599348533 0.012394366197185916  71.40781758957655 0.012394366197185916  71.20977198697068 0  L 48.63257328990228 0  C 46.51596091205211 0.012394366197185916  44.30032573289902 0.8180281690140874  42.691205211726384 2.1318309859154914  L 36.63843648208469 7.077183098591552  C 34.93029315960912 8.490140845070423  32.81368078175896 9.196619718309865  30.697068403908794 10  L 4.7902280130293144 10  C 2.265146579804562 9.196619718309865  0.0495114006514665 11.216901408450704  0.0495114006514665 13.943661971830988  C 0.0495114006514665 14.141971830985918  0.0495114006514665 14.451830985915496  0.14853420195439598 14.650140845070428  L 4.8892508143322475 39.77352112676056  C 5.297719869706842 42.09126760563381  7.203908794788272 43.91323943661971  9.629967426710099 44  L 64.55048859934854 44  C 66.86514657980456 43.91323943661971  68.88273615635178 42.202816901408454  69.29120521172638 39.87267605633803  L 75.83908794788273 5.453521126760563  C 76.24755700325733 2.925070422535214  74.5270358306189 0.4090140845070437  71.91530944625407 0  Z " fill-rule="nonzero" fill="rgba(0, 82, 217, 1)" stroke="none" transform="matrix(1 0 0 1 160 64 )" class="fill" />
    <path d="M 71.91530944625407 0  C 71.70488599348533 0.012394366197185916  71.40781758957655 0.012394366197185916  71.20977198697068 0  L 48.63257328990228 0  C 46.51596091205211 0.012394366197185916  44.30032573289902 0.8180281690140874  42.691205211726384 2.1318309859154914  L 36.63843648208469 7.077183098591552  C 34.93029315960912 8.490140845070423  32.81368078175896 9.196619718309865  30.697068403908794 10  L 4.7902280130293144 10  C 2.265146579804562 9.196619718309865  0.0495114006514665 11.216901408450704  0.0495114006514665 13.943661971830988  C 0.0495114006514665 14.141971830985918  0.0495114006514665 14.451830985915496  0.14853420195439598 14.650140845070428  L 4.8892508143322475 39.77352112676056  C 5.297719869706842 42.09126760563381  7.203908794788272 43.91323943661971  9.629967426710099 44  L 64.55048859934854 44  C 66.86514657980456 43.91323943661971  68.88273615635178 42.202816901408454  69.29120521172638 39.87267605633803  L 75.83908794788273 5.453521126760563  C 76.24755700325733 2.925070422535214  74.5270358306189 0.4090140845070437  71.91530944625407 0  Z " stroke-width="0" stroke-dasharray="0" stroke="rgba(255, 255, 255, 0)" fill="none" transform="matrix(1 0 0 1 160 64 )" class="stroke" mask="url(#Clip105)" />
  </g>
</svg>