<?xml version="1.0" encoding="utf-8"?>
<svg version="1.1" xmlns:xlink="http://www.w3.org/1999/xlink" width="12px" height="6px" xmlns="http://www.w3.org/2000/svg">
  <defs>
    <pattern id="BGPattern" patternUnits="userSpaceOnUse" alignment="0 0" imageRepeat="None" />
    <mask fill="white" id="Clip75">
      <path d="M 0.7678787878787888 5.896473214285716  C 0.6988602179354081 5.928384570586871  0.6221327161242514 5.945064280665919  0.5442424242424242 5.945089285714285  C 0.27592654830110624 5.945089552953904  0.05885248761300599 5.753211588595672  0.05885248761300599 5.5165181243824755  C 0.05885248761300599 5.356748688097806  0.15939485591683636 5.210243370000915  0.3196969696969696 5.136428571428571  L 11.216515151515152 0.11544642857142862  C 11.285728167921087 0.08355253599275958  11.362628305234512 0.0668980746597552  11.440681818181819 0.0668980746597552  C 11.70849761147187 0.0668980746597552  11.925605208465733 0.2588056827168297  11.925605208465733 0.4955357142857143  C 11.925605208465733 0.6552839614957603  11.82510446787476 0.8017778051638164  11.664848484848486 0.875625  L 0.7678787878787888 5.896473214285716  Z " fill-rule="evenodd" />
    </mask>
  </defs>
  <g transform="matrix(1 0 0 1 -325 -624 )">
    <path d="M 0.7678787878787888 5.896473214285716  C 0.6988602179354081 5.928384570586871  0.6221327161242514 5.945064280665919  0.5442424242424242 5.945089285714285  C 0.27592654830110624 5.945089552953904  0.05885248761300599 5.753211588595672  0.05885248761300599 5.5165181243824755  C 0.05885248761300599 5.356748688097806  0.15939485591683636 5.210243370000915  0.3196969696969696 5.136428571428571  L 11.216515151515152 0.11544642857142862  C 11.285728167921087 0.08355253599275958  11.362628305234512 0.0668980746597552  11.440681818181819 0.0668980746597552  C 11.70849761147187 0.0668980746597552  11.925605208465733 0.2588056827168297  11.925605208465733 0.4955357142857143  C 11.925605208465733 0.6552839614957603  11.82510446787476 0.8017778051638164  11.664848484848486 0.875625  L 0.7678787878787888 5.896473214285716  Z " fill-rule="nonzero" fill="rgba(0, 82, 217, 1)" stroke="none" transform="matrix(1 0 0 1 325 624 )" class="fill" />
    <path d="M 0.7678787878787888 5.896473214285716  C 0.6988602179354081 5.928384570586871  0.6221327161242514 5.945064280665919  0.5442424242424242 5.945089285714285  C 0.27592654830110624 5.945089552953904  0.05885248761300599 5.753211588595672  0.05885248761300599 5.5165181243824755  C 0.05885248761300599 5.356748688097806  0.15939485591683636 5.210243370000915  0.3196969696969696 5.136428571428571  L 11.216515151515152 0.11544642857142862  C 11.285728167921087 0.08355253599275958  11.362628305234512 0.0668980746597552  11.440681818181819 0.0668980746597552  C 11.70849761147187 0.0668980746597552  11.925605208465733 0.2588056827168297  11.925605208465733 0.4955357142857143  C 11.925605208465733 0.6552839614957603  11.82510446787476 0.8017778051638164  11.664848484848486 0.875625  L 0.7678787878787888 5.896473214285716  Z " stroke-width="0" stroke-dasharray="0" stroke="rgba(255, 255, 255, 0)" fill="none" transform="matrix(1 0 0 1 325 624 )" class="stroke" mask="url(#Clip75)" />
  </g>
</svg>