<?xml version="1.0" encoding="utf-8"?>
<svg version="1.1" xmlns:xlink="http://www.w3.org/1999/xlink" width="24px" height="28px" xmlns="http://www.w3.org/2000/svg">
  <defs>
    <pattern id="BGPattern" patternUnits="userSpaceOnUse" alignment="0 0" imageRepeat="None" />
    <mask fill="white" id="Clip25">
      <path d="M 15.988328100000004 28  L 4.020351790909091 28  C 1.8171081902933794 27.9980001328125  0.031026354545455152 26.207267042283984  0 23.998285828125002  L 0 7.999428609374999  C 0.031026354545455152 5.790447395216018  1.8171081902933794 3.9997143046874997  4.020351790909091 3.9997143046874997  C 4.020351790909091 1.790733090528518  5.806433626657018 0  8.009677227272729 0  L 19.97765353636364 0  C 22.180897136979347 0  23.966978972727276 1.790733090528518  24 3.9997143046874997  L 24 19.998571523437498  C 23.966978972727276 22.20755273759648  22.180897136979347 23.998285828125  19.97765353636364 23.998285828125  C 19.97765353636364 26.20726704228398  18.19157170061571 27.998000132812496  15.988328100000004 28  Z M 4.020351790909091 6  C 2.9187299906012356 5.99957145703125  2.025689072727273 6.894938002295509  2 7.999428609374999  L 2 23.998285828125002  C 2.0238140920961047 24.45096362317957  2.176563086545153 24.890643099614294  2.4585308727272728 25.244196851562496  C 2.837319462891109 25.72103239131911  3.412344320291396 25.99861720287773  4.020351790909091 26  L 15.9883281 26  C 17.08994990030785 25.99814298046875  17.98299081818182 25.10277643520449  18 23.998285828125  L 18 7.999428609374999  C 17.984269547149704 6.932101818170853  17.149343125579772 6.051869737285993  16.086066572727272 6  L 4.020351790909091 6  Z M 8.009677227272729 2  C 6.908055426964872 1.9998571523437498  6.01501450909091 2.895223697608009  6.015014509090909 3.9997143046874997  L 15.9883281 3.9997143046874997  C 18.191571700615707 3.9997143046874997  19.977653536363633 5.790447395216018  20 7.999428609374999  L 20 21.99842867578125  C 21.07927533667149 21.99842867578125  21.97231625454545 21.103062130516992  22 19.9985715234375  L 22 3.9997143046874997  C 21.972316254545454 3.9997143046874997  21.972316254545454 3.9997143046874997  21.972316254545454 3.9997143046874997  C 21.972316254545454 2.895223697608009  21.07927533667149 1.9998571523437498  19.977653536363633 1.9998571523437498  L 8.009677227272729 2  Z M 11.00167131818182 19.998571523437498  L 5.017683163636363 19.998571523437498  C 4.466872266601939 19.998571523437498  4.020351805971403 19.550888261349613  4.02035179090909 18.9986429609375  C 4.02035179090909 18.446397649846986  4.466872255951279 17.99871437109375  5.017683163636363 17.99871437109375  L 11.001671318181819 17.99871437109375  C 11.55248221521624 17.998714386195285  11.999002663636364 18.44639766052539  11.999002663636364 18.9986429609375  C 11.999002648574052 19.550888250671214  11.552482204565578 19.998571508335964  11.00167131818182 19.998571523437498  Z M 14.990996754545453 15.998857218749999  L 5.017683163636363 15.998857218749999  C 4.466872266601943 15.998857218749999  4.020351805971401 15.551173956662115  4.02035179090909 14.99892865625  C 4.02035179090909 14.446683345159485  4.466872255951279 13.999000066406248  5.017683163636363 13.999000066406248  L 14.990996754545453 13.999000066406248  C 15.541807651579877 13.999000081507784  15.9883281 14.446683355837884  15.9883281 14.99892865625  C 15.98832808493769 15.551173945983713  15.541807640929214 15.998857203648466  14.990996754545453 15.998857218749999  Z M 14.990996754545453 11.9991429140625  L 5.017683163636363 11.9991429140625  C 4.466872266601943 11.9991429140625  4.020351805971401 11.551459651974612  4.02035179090909 10.9992143515625  C 4.02035179090909 10.446969040471986  4.466872255951279 9.999285761718749  5.017683163636363 9.999285761718749  L 14.990996754545453 9.999285761718749  C 15.541807651579877 9.999285776820285  15.9883281 10.446969051150385  15.9883281 10.9992143515625  C 15.98832808493769 11.551459641296216  15.541807640929214 11.999142898960965  14.990996754545453 11.9991429140625  Z " fill-rule="evenodd" />
    </mask>
  </defs>
  <g transform="matrix(1 0 0 1 -230 -85 )">
    <path d="M 15.988328100000004 28  L 4.020351790909091 28  C 1.8171081902933794 27.9980001328125  0.031026354545455152 26.207267042283984  0 23.998285828125002  L 0 7.999428609374999  C 0.031026354545455152 5.790447395216018  1.8171081902933794 3.9997143046874997  4.020351790909091 3.9997143046874997  C 4.020351790909091 1.790733090528518  5.806433626657018 0  8.009677227272729 0  L 19.97765353636364 0  C 22.180897136979347 0  23.966978972727276 1.790733090528518  24 3.9997143046874997  L 24 19.998571523437498  C 23.966978972727276 22.20755273759648  22.180897136979347 23.998285828125  19.97765353636364 23.998285828125  C 19.97765353636364 26.20726704228398  18.19157170061571 27.998000132812496  15.988328100000004 28  Z M 4.020351790909091 6  C 2.9187299906012356 5.99957145703125  2.025689072727273 6.894938002295509  2 7.999428609374999  L 2 23.998285828125002  C 2.0238140920961047 24.45096362317957  2.176563086545153 24.890643099614294  2.4585308727272728 25.244196851562496  C 2.837319462891109 25.72103239131911  3.412344320291396 25.99861720287773  4.020351790909091 26  L 15.9883281 26  C 17.08994990030785 25.99814298046875  17.98299081818182 25.10277643520449  18 23.998285828125  L 18 7.999428609374999  C 17.984269547149704 6.932101818170853  17.149343125579772 6.051869737285993  16.086066572727272 6  L 4.020351790909091 6  Z M 8.009677227272729 2  C 6.908055426964872 1.9998571523437498  6.01501450909091 2.895223697608009  6.015014509090909 3.9997143046874997  L 15.9883281 3.9997143046874997  C 18.191571700615707 3.9997143046874997  19.977653536363633 5.790447395216018  20 7.999428609374999  L 20 21.99842867578125  C 21.07927533667149 21.99842867578125  21.97231625454545 21.103062130516992  22 19.9985715234375  L 22 3.9997143046874997  C 21.972316254545454 3.9997143046874997  21.972316254545454 3.9997143046874997  21.972316254545454 3.9997143046874997  C 21.972316254545454 2.895223697608009  21.07927533667149 1.9998571523437498  19.977653536363633 1.9998571523437498  L 8.009677227272729 2  Z M 11.00167131818182 19.998571523437498  L 5.017683163636363 19.998571523437498  C 4.466872266601939 19.998571523437498  4.020351805971403 19.550888261349613  4.02035179090909 18.9986429609375  C 4.02035179090909 18.446397649846986  4.466872255951279 17.99871437109375  5.017683163636363 17.99871437109375  L 11.001671318181819 17.99871437109375  C 11.55248221521624 17.998714386195285  11.999002663636364 18.44639766052539  11.999002663636364 18.9986429609375  C 11.999002648574052 19.550888250671214  11.552482204565578 19.998571508335964  11.00167131818182 19.998571523437498  Z M 14.990996754545453 15.998857218749999  L 5.017683163636363 15.998857218749999  C 4.466872266601943 15.998857218749999  4.020351805971401 15.551173956662115  4.02035179090909 14.99892865625  C 4.02035179090909 14.446683345159485  4.466872255951279 13.999000066406248  5.017683163636363 13.999000066406248  L 14.990996754545453 13.999000066406248  C 15.541807651579877 13.999000081507784  15.9883281 14.446683355837884  15.9883281 14.99892865625  C 15.98832808493769 15.551173945983713  15.541807640929214 15.998857203648466  14.990996754545453 15.998857218749999  Z M 14.990996754545453 11.9991429140625  L 5.017683163636363 11.9991429140625  C 4.466872266601943 11.9991429140625  4.020351805971401 11.551459651974612  4.02035179090909 10.9992143515625  C 4.02035179090909 10.446969040471986  4.466872255951279 9.999285761718749  5.017683163636363 9.999285761718749  L 14.990996754545453 9.999285761718749  C 15.541807651579877 9.999285776820285  15.9883281 10.446969051150385  15.9883281 10.9992143515625  C 15.98832808493769 11.551459641296216  15.541807640929214 11.999142898960965  14.990996754545453 11.9991429140625  Z " fill-rule="nonzero" fill="rgba(255, 255, 255, 1)" stroke="none" transform="matrix(1 0 0 1 230 85 )" class="fill" />
    <path d="M 15.988328100000004 28  L 4.020351790909091 28  C 1.8171081902933794 27.9980001328125  0.031026354545455152 26.207267042283984  0 23.998285828125002  L 0 7.999428609374999  C 0.031026354545455152 5.790447395216018  1.8171081902933794 3.9997143046874997  4.020351790909091 3.9997143046874997  C 4.020351790909091 1.790733090528518  5.806433626657018 0  8.009677227272729 0  L 19.97765353636364 0  C 22.180897136979347 0  23.966978972727276 1.790733090528518  24 3.9997143046874997  L 24 19.998571523437498  C 23.966978972727276 22.20755273759648  22.180897136979347 23.998285828125  19.97765353636364 23.998285828125  C 19.97765353636364 26.20726704228398  18.19157170061571 27.998000132812496  15.988328100000004 28  Z " stroke-width="0" stroke-dasharray="0" stroke="rgba(255, 255, 255, 0)" fill="none" transform="matrix(1 0 0 1 230 85 )" class="stroke" mask="url(#Clip25)" />
    <path d="M 4.020351790909091 6  C 2.9187299906012356 5.99957145703125  2.025689072727273 6.894938002295509  2 7.999428609374999  L 2 23.998285828125002  C 2.0238140920961047 24.45096362317957  2.176563086545153 24.890643099614294  2.4585308727272728 25.244196851562496  C 2.837319462891109 25.72103239131911  3.412344320291396 25.99861720287773  4.020351790909091 26  L 15.9883281 26  C 17.08994990030785 25.99814298046875  17.98299081818182 25.10277643520449  18 23.998285828125  L 18 7.999428609374999  C 17.984269547149704 6.932101818170853  17.149343125579772 6.051869737285993  16.086066572727272 6  L 4.020351790909091 6  Z " stroke-width="0" stroke-dasharray="0" stroke="rgba(255, 255, 255, 0)" fill="none" transform="matrix(1 0 0 1 230 85 )" class="stroke" mask="url(#Clip25)" />
    <path d="M 8.009677227272729 2  C 6.908055426964872 1.9998571523437498  6.01501450909091 2.895223697608009  6.015014509090909 3.9997143046874997  L 15.9883281 3.9997143046874997  C 18.191571700615707 3.9997143046874997  19.977653536363633 5.790447395216018  20 7.999428609374999  L 20 21.99842867578125  C 21.07927533667149 21.99842867578125  21.97231625454545 21.103062130516992  22 19.9985715234375  L 22 3.9997143046874997  C 21.972316254545454 3.9997143046874997  21.972316254545454 3.9997143046874997  21.972316254545454 3.9997143046874997  C 21.972316254545454 2.895223697608009  21.07927533667149 1.9998571523437498  19.977653536363633 1.9998571523437498  L 8.009677227272729 2  Z " stroke-width="0" stroke-dasharray="0" stroke="rgba(255, 255, 255, 0)" fill="none" transform="matrix(1 0 0 1 230 85 )" class="stroke" mask="url(#Clip25)" />
    <path d="M 11.00167131818182 19.998571523437498  L 5.017683163636363 19.998571523437498  C 4.466872266601939 19.998571523437498  4.020351805971403 19.550888261349613  4.02035179090909 18.9986429609375  C 4.02035179090909 18.446397649846986  4.466872255951279 17.99871437109375  5.017683163636363 17.99871437109375  L 11.001671318181819 17.99871437109375  C 11.55248221521624 17.998714386195285  11.999002663636364 18.44639766052539  11.999002663636364 18.9986429609375  C 11.999002648574052 19.550888250671214  11.552482204565578 19.998571508335964  11.00167131818182 19.998571523437498  Z " stroke-width="0" stroke-dasharray="0" stroke="rgba(255, 255, 255, 0)" fill="none" transform="matrix(1 0 0 1 230 85 )" class="stroke" mask="url(#Clip25)" />
    <path d="M 14.990996754545453 15.998857218749999  L 5.017683163636363 15.998857218749999  C 4.466872266601943 15.998857218749999  4.020351805971401 15.551173956662115  4.02035179090909 14.99892865625  C 4.02035179090909 14.446683345159485  4.466872255951279 13.999000066406248  5.017683163636363 13.999000066406248  L 14.990996754545453 13.999000066406248  C 15.541807651579877 13.999000081507784  15.9883281 14.446683355837884  15.9883281 14.99892865625  C 15.98832808493769 15.551173945983713  15.541807640929214 15.998857203648466  14.990996754545453 15.998857218749999  Z " stroke-width="0" stroke-dasharray="0" stroke="rgba(255, 255, 255, 0)" fill="none" transform="matrix(1 0 0 1 230 85 )" class="stroke" mask="url(#Clip25)" />
    <path d="M 14.990996754545453 11.9991429140625  L 5.017683163636363 11.9991429140625  C 4.466872266601943 11.9991429140625  4.020351805971401 11.551459651974612  4.02035179090909 10.9992143515625  C 4.02035179090909 10.446969040471986  4.466872255951279 9.999285761718749  5.017683163636363 9.999285761718749  L 14.990996754545453 9.999285761718749  C 15.541807651579877 9.999285776820285  15.9883281 10.446969051150385  15.9883281 10.9992143515625  C 15.98832808493769 11.551459641296216  15.541807640929214 11.999142898960965  14.990996754545453 11.9991429140625  Z " stroke-width="0" stroke-dasharray="0" stroke="rgba(255, 255, 255, 0)" fill="none" transform="matrix(1 0 0 1 230 85 )" class="stroke" mask="url(#Clip25)" />
  </g>
</svg>