<?xml version="1.0" encoding="utf-8"?>
<svg version="1.1" xmlns:xlink="http://www.w3.org/1999/xlink" width="11px" height="11px" xmlns="http://www.w3.org/2000/svg">
  <defs>
    <pattern id="BGPattern" patternUnits="userSpaceOnUse" alignment="0 0" imageRepeat="None" />
    <mask fill="white" id="Clip35">
      <path d="M 10.939165217391304 6.7489376344086  C 10.937061101593393 7.685813221260843  10.169841625839764 8.444783025232175  9.222782608695653 8.446864516129033  C 8.903283479680494 8.446864516129033  8.644278260869564 8.19064429967091  8.644278260869564 7.874580645161291  C 8.644278260869564 7.558516990651674  8.903283479680494 7.3022967741935485  9.222782608695653 7.3022967741935485  C 9.531716290322745 7.3022967741935485  9.782156521739129 7.054549448491315  9.782156521739129 6.748937634408603  L 9.782156521739129 1.7891440860215049  C 9.782156521739129 1.4835322719387949  9.53171629032274 1.2357849462365589  9.222782608695653 1.2357849462365589  L 4.209078260869566 1.2357849462365589  C 3.9001445792424763 1.2357849462365589  3.6497043478260864 1.4835322719387933  3.6497043478260864 1.7891440860215049  C 3.6497043478260864 2.1052077405311227  3.390699129015156 2.361427956989247  3.0712 2.361427956989247  C 2.751700870984843 2.361427956989247  2.492695652173913 2.1052077405311227  2.492695652173912 1.7891440860215049  C 2.4947997679718235 0.8522684991692654  3.262019243725452 0.09329869519793281  4.209078260869565 0.09121720430107488  L 9.222782608695649 0.09121720430107447  C 10.169841625839762 0.0932986951979324  10.937061101593393 0.8522684991692654  10.939165217391304 1.7891440860215049  L 10.939165217391304 6.7489376344086  Z M 8.470573913043477 9.133453763440862  C 8.489704347826086 10.125866666666669  7.660973913043478 10.927518279569894  6.657773913043478 10.927518279569894  L 1.8560347826086958 10.927518279569894  C 1.8552690798518625 10.927519240623361  1.8545033765582208 10.927519721150237  1.8537376731850848 10.927519721150237  C 0.8538237323783905 10.927519721150237  0.04323332535899781 10.125645340012774  0.04323332535899781 9.136483162010453  C 0.04323332535899781 9.135725692007755  0.04323381110899489 9.134968222081193  0.04323478260869599 9.134210752688174  L 0.043234782608695566 4.365178494623658  C 0.04323305604387247 4.36416869552899  0.04323219276099876 4.363158895171302  0.04323219276099876 4.3621490946321595  C 0.04323219276099876 3.372986916629838  0.8538225997803914 2.5711125354923743  1.853736540587086 2.5711125354923743  C 1.8545026214922935 2.5711125354923743  1.8552687023207048 2.5711130164932214  1.8560347826086958 2.5711139784946253  L 6.657773913043478 2.5711139784946244  C 6.658539615799042 2.571113017441158  6.6593053190952185 2.571112536914278  6.660071022467088 2.571112536914278  C 7.659984963273782 2.571112536914278  8.470575370293176 3.3729869180517422  8.470575370293176 4.362149096054063  C 8.470575370293176 4.362906566057178  8.47057488454318 4.363664035982907  8.470573913043477 4.364421505376345  L 8.470573913043477 9.133453763440862  Z M 6.657773913043478 3.715681720430107  L 1.8560347826086958 3.715681720430107  C 1.8542419002848252 3.715667053133372  1.8524489643183149 3.715659719390967  1.8506560206886964 3.715659719390967  C 1.4914308094944064 3.715659719390967  1.2002212380800006 4.00373800509124  1.2002212380800006 4.359100579606021  C 1.2002212380800006 4.3608742442719715  1.200228651536995 4.36264790135694  1.20024347826087 4.3644215053763435  L 1.20024347826087 9.133453763440862  C 1.200228651536996 9.135227367460221  1.2002212380800006 9.137001024545278  1.2002212380800006 9.138774689211182  C 1.2002212380800006 9.494137263725964  1.4914308094944064 9.782215549426237  1.8506560206886964 9.782215549426237  C 1.8524489643183615 9.782215549426237  1.8542419002847783 9.782208215683832  1.8560347826086958 9.782193548387097  L 6.657773913043478 9.782193548387097  C 6.659566795367466 9.782208215683836  6.661359731333742 9.782215549426237  6.663152674963479 9.782215549426237  C 7.022377886157768 9.782215549426237  7.313587457572173 9.494137263725964  7.313587457572173 9.138774689211182  C 7.313587457572173 9.137001024545278  7.31358004411518 9.135227367460221  7.3135652173913055 9.13345376344086  L 7.3135652173913055 4.364421505376345  C 7.31358004411518 4.362647901356917  7.313587457572173 4.360874244271995  7.313587457572173 4.359100579606021  C 7.313587457572173 4.00373800509124  7.022377886157768 3.715659719390967  6.663152674963479 3.715659719390967  C 6.661359731333721 3.715659719390967  6.659566795367489 3.715667053133371  6.657773913043478 3.715681720430107  Z " fill-rule="evenodd" />
    </mask>
  </defs>
  <g transform="matrix(1 0 0 1 -271 -44 )">
    <path d="M 10.939165217391304 6.7489376344086  C 10.937061101593393 7.685813221260843  10.169841625839764 8.444783025232175  9.222782608695653 8.446864516129033  C 8.903283479680494 8.446864516129033  8.644278260869564 8.19064429967091  8.644278260869564 7.874580645161291  C 8.644278260869564 7.558516990651674  8.903283479680494 7.3022967741935485  9.222782608695653 7.3022967741935485  C 9.531716290322745 7.3022967741935485  9.782156521739129 7.054549448491315  9.782156521739129 6.748937634408603  L 9.782156521739129 1.7891440860215049  C 9.782156521739129 1.4835322719387949  9.53171629032274 1.2357849462365589  9.222782608695653 1.2357849462365589  L 4.209078260869566 1.2357849462365589  C 3.9001445792424763 1.2357849462365589  3.6497043478260864 1.4835322719387933  3.6497043478260864 1.7891440860215049  C 3.6497043478260864 2.1052077405311227  3.390699129015156 2.361427956989247  3.0712 2.361427956989247  C 2.751700870984843 2.361427956989247  2.492695652173913 2.1052077405311227  2.492695652173912 1.7891440860215049  C 2.4947997679718235 0.8522684991692654  3.262019243725452 0.09329869519793281  4.209078260869565 0.09121720430107488  L 9.222782608695649 0.09121720430107447  C 10.169841625839762 0.0932986951979324  10.937061101593393 0.8522684991692654  10.939165217391304 1.7891440860215049  L 10.939165217391304 6.7489376344086  Z M 8.470573913043477 9.133453763440862  C 8.489704347826086 10.125866666666669  7.660973913043478 10.927518279569894  6.657773913043478 10.927518279569894  L 1.8560347826086958 10.927518279569894  C 1.8552690798518625 10.927519240623361  1.8545033765582208 10.927519721150237  1.8537376731850848 10.927519721150237  C 0.8538237323783905 10.927519721150237  0.04323332535899781 10.125645340012774  0.04323332535899781 9.136483162010453  C 0.04323332535899781 9.135725692007755  0.04323381110899489 9.134968222081193  0.04323478260869599 9.134210752688174  L 0.043234782608695566 4.365178494623658  C 0.04323305604387247 4.36416869552899  0.04323219276099876 4.363158895171302  0.04323219276099876 4.3621490946321595  C 0.04323219276099876 3.372986916629838  0.8538225997803914 2.5711125354923743  1.853736540587086 2.5711125354923743  C 1.8545026214922935 2.5711125354923743  1.8552687023207048 2.5711130164932214  1.8560347826086958 2.5711139784946253  L 6.657773913043478 2.5711139784946244  C 6.658539615799042 2.571113017441158  6.6593053190952185 2.571112536914278  6.660071022467088 2.571112536914278  C 7.659984963273782 2.571112536914278  8.470575370293176 3.3729869180517422  8.470575370293176 4.362149096054063  C 8.470575370293176 4.362906566057178  8.47057488454318 4.363664035982907  8.470573913043477 4.364421505376345  L 8.470573913043477 9.133453763440862  Z M 6.657773913043478 3.715681720430107  L 1.8560347826086958 3.715681720430107  C 1.8542419002848252 3.715667053133372  1.8524489643183149 3.715659719390967  1.8506560206886964 3.715659719390967  C 1.4914308094944064 3.715659719390967  1.2002212380800006 4.00373800509124  1.2002212380800006 4.359100579606021  C 1.2002212380800006 4.3608742442719715  1.200228651536995 4.36264790135694  1.20024347826087 4.3644215053763435  L 1.20024347826087 9.133453763440862  C 1.200228651536996 9.135227367460221  1.2002212380800006 9.137001024545278  1.2002212380800006 9.138774689211182  C 1.2002212380800006 9.494137263725964  1.4914308094944064 9.782215549426237  1.8506560206886964 9.782215549426237  C 1.8524489643183615 9.782215549426237  1.8542419002847783 9.782208215683832  1.8560347826086958 9.782193548387097  L 6.657773913043478 9.782193548387097  C 6.659566795367466 9.782208215683836  6.661359731333742 9.782215549426237  6.663152674963479 9.782215549426237  C 7.022377886157768 9.782215549426237  7.313587457572173 9.494137263725964  7.313587457572173 9.138774689211182  C 7.313587457572173 9.137001024545278  7.31358004411518 9.135227367460221  7.3135652173913055 9.13345376344086  L 7.3135652173913055 4.364421505376345  C 7.31358004411518 4.362647901356917  7.313587457572173 4.360874244271995  7.313587457572173 4.359100579606021  C 7.313587457572173 4.00373800509124  7.022377886157768 3.715659719390967  6.663152674963479 3.715659719390967  C 6.661359731333721 3.715659719390967  6.659566795367489 3.715667053133371  6.657773913043478 3.715681720430107  Z " fill-rule="nonzero" fill="rgba(0, 82, 217, 1)" stroke="none" transform="matrix(1 0 0 1 271 44 )" class="fill" />
    <path d="M 10.939165217391304 6.7489376344086  C 10.937061101593393 7.685813221260843  10.169841625839764 8.444783025232175  9.222782608695653 8.446864516129033  C 8.903283479680494 8.446864516129033  8.644278260869564 8.19064429967091  8.644278260869564 7.874580645161291  C 8.644278260869564 7.558516990651674  8.903283479680494 7.3022967741935485  9.222782608695653 7.3022967741935485  C 9.531716290322745 7.3022967741935485  9.782156521739129 7.054549448491315  9.782156521739129 6.748937634408603  L 9.782156521739129 1.7891440860215049  C 9.782156521739129 1.4835322719387949  9.53171629032274 1.2357849462365589  9.222782608695653 1.2357849462365589  L 4.209078260869566 1.2357849462365589  C 3.9001445792424763 1.2357849462365589  3.6497043478260864 1.4835322719387933  3.6497043478260864 1.7891440860215049  C 3.6497043478260864 2.1052077405311227  3.390699129015156 2.361427956989247  3.0712 2.361427956989247  C 2.751700870984843 2.361427956989247  2.492695652173913 2.1052077405311227  2.492695652173912 1.7891440860215049  C 2.4947997679718235 0.8522684991692654  3.262019243725452 0.09329869519793281  4.209078260869565 0.09121720430107488  L 9.222782608695649 0.09121720430107447  C 10.169841625839762 0.0932986951979324  10.937061101593393 0.8522684991692654  10.939165217391304 1.7891440860215049  L 10.939165217391304 6.7489376344086  Z " stroke-width="0" stroke-dasharray="0" stroke="rgba(255, 255, 255, 0)" fill="none" transform="matrix(1 0 0 1 271 44 )" class="stroke" mask="url(#Clip35)" />
    <path d="M 8.470573913043477 9.133453763440862  C 8.489704347826086 10.125866666666669  7.660973913043478 10.927518279569894  6.657773913043478 10.927518279569894  L 1.8560347826086958 10.927518279569894  C 1.8552690798518625 10.927519240623361  1.8545033765582208 10.927519721150237  1.8537376731850848 10.927519721150237  C 0.8538237323783905 10.927519721150237  0.04323332535899781 10.125645340012774  0.04323332535899781 9.136483162010453  C 0.04323332535899781 9.135725692007755  0.04323381110899489 9.134968222081193  0.04323478260869599 9.134210752688174  L 0.043234782608695566 4.365178494623658  C 0.04323305604387247 4.36416869552899  0.04323219276099876 4.363158895171302  0.04323219276099876 4.3621490946321595  C 0.04323219276099876 3.372986916629838  0.8538225997803914 2.5711125354923743  1.853736540587086 2.5711125354923743  C 1.8545026214922935 2.5711125354923743  1.8552687023207048 2.5711130164932214  1.8560347826086958 2.5711139784946253  L 6.657773913043478 2.5711139784946244  C 6.658539615799042 2.571113017441158  6.6593053190952185 2.571112536914278  6.660071022467088 2.571112536914278  C 7.659984963273782 2.571112536914278  8.470575370293176 3.3729869180517422  8.470575370293176 4.362149096054063  C 8.470575370293176 4.362906566057178  8.47057488454318 4.363664035982907  8.470573913043477 4.364421505376345  L 8.470573913043477 9.133453763440862  Z " stroke-width="0" stroke-dasharray="0" stroke="rgba(255, 255, 255, 0)" fill="none" transform="matrix(1 0 0 1 271 44 )" class="stroke" mask="url(#Clip35)" />
    <path d="M 6.657773913043478 3.715681720430107  L 1.8560347826086958 3.715681720430107  C 1.8542419002848252 3.715667053133372  1.8524489643183149 3.715659719390967  1.8506560206886964 3.715659719390967  C 1.4914308094944064 3.715659719390967  1.2002212380800006 4.00373800509124  1.2002212380800006 4.359100579606021  C 1.2002212380800006 4.3608742442719715  1.200228651536995 4.36264790135694  1.20024347826087 4.3644215053763435  L 1.20024347826087 9.133453763440862  C 1.200228651536996 9.135227367460221  1.2002212380800006 9.137001024545278  1.2002212380800006 9.138774689211182  C 1.2002212380800006 9.494137263725964  1.4914308094944064 9.782215549426237  1.8506560206886964 9.782215549426237  C 1.8524489643183615 9.782215549426237  1.8542419002847783 9.782208215683832  1.8560347826086958 9.782193548387097  L 6.657773913043478 9.782193548387097  C 6.659566795367466 9.782208215683836  6.661359731333742 9.782215549426237  6.663152674963479 9.782215549426237  C 7.022377886157768 9.782215549426237  7.313587457572173 9.494137263725964  7.313587457572173 9.138774689211182  C 7.313587457572173 9.137001024545278  7.31358004411518 9.135227367460221  7.3135652173913055 9.13345376344086  L 7.3135652173913055 4.364421505376345  C 7.31358004411518 4.362647901356917  7.313587457572173 4.360874244271995  7.313587457572173 4.359100579606021  C 7.313587457572173 4.00373800509124  7.022377886157768 3.715659719390967  6.663152674963479 3.715659719390967  C 6.661359731333721 3.715659719390967  6.659566795367489 3.715667053133371  6.657773913043478 3.715681720430107  Z " stroke-width="0" stroke-dasharray="0" stroke="rgba(255, 255, 255, 0)" fill="none" transform="matrix(1 0 0 1 271 44 )" class="stroke" mask="url(#Clip35)" />
  </g>
</svg>