<?xml version="1.0" encoding="utf-8"?>
<svg version="1.1" xmlns:xlink="http://www.w3.org/1999/xlink" width="10px" height="10px" xmlns="http://www.w3.org/2000/svg">
  <defs>
    <pattern id="BGPattern" patternUnits="userSpaceOnUse" alignment="0 0" imageRepeat="None" />
    <mask fill="white" id="Clip542">
      <path d="M 7.485795454545454 3.9346590909090913  L 9.97159090909091 3.9346590909090913  L 9.97159090909091 1.4488636363636365  L 9.160866477272727 2.2595880681818183  C 8.241444254128377 0.8665673073825365  6.683999555623146 0.028281869660320525  5.0149147727272725 0.028053977272727192  C 2.2691761363636367 0.028053977272727293  0.04296874999999998 2.25390625  0.04296874999999998 5  C 0.04296874999999998 7.74609375  2.2691761363636367 9.971946022727273  5.014914772727273 9.971946022727273  C 7.039011330839018 9.972349309541555  8.861339514065591 8.745760657237229  9.62286931818182 6.870383522727273  C 9.643554927948305 6.819459812305464  9.654190993593069 6.765014420352362  9.654190993593069 6.7100497159090935  C 9.654190993593069 6.474759577610719  9.463450649662011 6.284019233679663  9.228160511363637 6.284019233679663  C 9.054784024517659 6.284019233679663  8.898700820062519 6.389086026705054  8.833451704545453 6.549715909090911  C 8.202163637627711 8.103595964735803  6.6921350352454825 9.119877653142774  5.014914772727273 9.119673295454549  C 2.7397017045454546 9.119673295454545  0.8952414772727271 7.2752130681818175  0.8952414772727271 5  C 0.8952414772727271 2.7247869318181817  2.7397017045454546 0.8803267045454545  5.014914772727273 0.8803267045454545  C 6.484730113636364 0.8803267045454545  7.810724431818183 1.6580255681818183  8.544034090909093 2.876065340909091  L 7.485795454545454 3.9346590909090913  Z " fill-rule="evenodd" />
    </mask>
  </defs>
  <g transform="matrix(1 0 0 1 -327 -545 )">
    <path d="M 7.485795454545454 3.9346590909090913  L 9.97159090909091 3.9346590909090913  L 9.97159090909091 1.4488636363636365  L 9.160866477272727 2.2595880681818183  C 8.241444254128377 0.8665673073825365  6.683999555623146 0.028281869660320525  5.0149147727272725 0.028053977272727192  C 2.2691761363636367 0.028053977272727293  0.04296874999999998 2.25390625  0.04296874999999998 5  C 0.04296874999999998 7.74609375  2.2691761363636367 9.971946022727273  5.014914772727273 9.971946022727273  C 7.039011330839018 9.972349309541555  8.861339514065591 8.745760657237229  9.62286931818182 6.870383522727273  C 9.643554927948305 6.819459812305464  9.654190993593069 6.765014420352362  9.654190993593069 6.7100497159090935  C 9.654190993593069 6.474759577610719  9.463450649662011 6.284019233679663  9.228160511363637 6.284019233679663  C 9.054784024517659 6.284019233679663  8.898700820062519 6.389086026705054  8.833451704545453 6.549715909090911  C 8.202163637627711 8.103595964735803  6.6921350352454825 9.119877653142774  5.014914772727273 9.119673295454549  C 2.7397017045454546 9.119673295454545  0.8952414772727271 7.2752130681818175  0.8952414772727271 5  C 0.8952414772727271 2.7247869318181817  2.7397017045454546 0.8803267045454545  5.014914772727273 0.8803267045454545  C 6.484730113636364 0.8803267045454545  7.810724431818183 1.6580255681818183  8.544034090909093 2.876065340909091  L 7.485795454545454 3.9346590909090913  Z " fill-rule="nonzero" fill="rgba(0, 82, 217, 1)" stroke="none" transform="matrix(1 0 0 1 327 545 )" class="fill" />
    <path d="M 7.485795454545454 3.9346590909090913  L 9.97159090909091 3.9346590909090913  L 9.97159090909091 1.4488636363636365  L 9.160866477272727 2.2595880681818183  C 8.241444254128377 0.8665673073825365  6.683999555623146 0.028281869660320525  5.0149147727272725 0.028053977272727192  C 2.2691761363636367 0.028053977272727293  0.04296874999999998 2.25390625  0.04296874999999998 5  C 0.04296874999999998 7.74609375  2.2691761363636367 9.971946022727273  5.014914772727273 9.971946022727273  C 7.039011330839018 9.972349309541555  8.861339514065591 8.745760657237229  9.62286931818182 6.870383522727273  C 9.643554927948305 6.819459812305464  9.654190993593069 6.765014420352362  9.654190993593069 6.7100497159090935  C 9.654190993593069 6.474759577610719  9.463450649662011 6.284019233679663  9.228160511363637 6.284019233679663  C 9.054784024517659 6.284019233679663  8.898700820062519 6.389086026705054  8.833451704545453 6.549715909090911  C 8.202163637627711 8.103595964735803  6.6921350352454825 9.119877653142774  5.014914772727273 9.119673295454549  C 2.7397017045454546 9.119673295454545  0.8952414772727271 7.2752130681818175  0.8952414772727271 5  C 0.8952414772727271 2.7247869318181817  2.7397017045454546 0.8803267045454545  5.014914772727273 0.8803267045454545  C 6.484730113636364 0.8803267045454545  7.810724431818183 1.6580255681818183  8.544034090909093 2.876065340909091  L 7.485795454545454 3.9346590909090913  Z " stroke-width="0" stroke-dasharray="0" stroke="rgba(255, 255, 255, 0)" fill="none" transform="matrix(1 0 0 1 327 545 )" class="stroke" mask="url(#Clip542)" />
  </g>
</svg>