<?xml version="1.0" encoding="utf-8"?>
<svg version="1.1" xmlns:xlink="http://www.w3.org/1999/xlink" width="12px" height="12px" xmlns="http://www.w3.org/2000/svg">
  <defs>
    <pattern id="BGPattern" patternUnits="userSpaceOnUse" alignment="0 0" imageRepeat="None" />
    <mask fill="white" id="Clip1332">
      <path d="M 8.351818181818182 11.64622641509434  C 8.2897679639024 11.837026097482799  8.101384914416217 11.967460400845471  7.887878787878788 11.96745283018868  C 7.620269402036644 11.96723509263596  7.403452688086482 11.764559976096287  7.403452688086482 11.514622813343975  C 7.403452688086482 11.470180436421362  7.4104576939343625 11.425980135987652  7.424242424242425 11.383443396226417  L 10.97939393939394 0.3975000000000004  C 11.042357801378667 0.20803039517529684  11.230039001873607 0.07889864907588832  11.442451907917922 0.07889864907588832  C 11.710226332078307 0.07889864907588832  11.927300392766407 0.28163763028458577  11.927300392766407 0.5317288377551336  C 11.927300392766407 0.5750057355745289  11.92065795559747 0.6180591672359139  11.907575757575756 0.6595754716981138  L 8.351818181818182 11.64622641509434  Z M 6.332121212121213 6.628867924528303  C 6.321818181818182 6.628867924528303  6.3115151515151515 6.628867924528303  6.301060606060606 6.627877358490565  L 0.5213636363636367 6.286556603773585  C 0.2658348361482792 6.271612692890372  0.06677945230442556 6.073697145252787  0.06677945230442556 5.834575471698113  C 0.06677945230442556 5.584464287036415  0.2838708527864661 5.3817091111145094  0.5516666666666671 5.3817091111145094  C 0.561775087058977 5.3817091111145094  0.5718810357440693 5.382004331552476  0.5819696969696974 5.382594339622642  L 6.362272727272728 5.724056603773585  C 6.618044906587261 5.738702322591743  6.8174510850975025 5.936708017916464  6.8174510850975025 6.176038121654339  C 6.8174510850975025 6.426129329124887  6.600377024409402 6.628868310333584  6.332602600249018 6.628868310333584  Z " fill-rule="evenodd" />
    </mask>
  </defs>
  <g transform="matrix(1 0 0 1 -325 -624 )">
    <path d="M 8.351818181818182 11.64622641509434  C 8.2897679639024 11.837026097482799  8.101384914416217 11.967460400845471  7.887878787878788 11.96745283018868  C 7.620269402036644 11.96723509263596  7.403452688086482 11.764559976096287  7.403452688086482 11.514622813343975  C 7.403452688086482 11.470180436421362  7.4104576939343625 11.425980135987652  7.424242424242425 11.383443396226417  L 10.97939393939394 0.3975000000000004  C 11.042357801378667 0.20803039517529684  11.230039001873607 0.07889864907588832  11.442451907917922 0.07889864907588832  C 11.710226332078307 0.07889864907588832  11.927300392766407 0.28163763028458577  11.927300392766407 0.5317288377551336  C 11.927300392766407 0.5750057355745289  11.92065795559747 0.6180591672359139  11.907575757575756 0.6595754716981138  L 8.351818181818182 11.64622641509434  Z M 6.332121212121213 6.628867924528303  C 6.321818181818182 6.628867924528303  6.3115151515151515 6.628867924528303  6.301060606060606 6.627877358490565  L 0.5213636363636367 6.286556603773585  C 0.2658348361482792 6.271612692890372  0.06677945230442556 6.073697145252787  0.06677945230442556 5.834575471698113  C 0.06677945230442556 5.584464287036415  0.2838708527864661 5.3817091111145094  0.5516666666666671 5.3817091111145094  C 0.561775087058977 5.3817091111145094  0.5718810357440693 5.382004331552476  0.5819696969696974 5.382594339622642  L 6.362272727272728 5.724056603773585  C 6.618044906587261 5.738702322591743  6.8174510850975025 5.936708017916464  6.8174510850975025 6.176038121654339  C 6.8174510850975025 6.426129329124887  6.600377024409402 6.628868310333584  6.332602600249018 6.628868310333584  Z " fill-rule="nonzero" fill="rgba(0, 82, 217, 1)" stroke="none" transform="matrix(1 0 0 1 325 624 )" class="fill" />
    <path d="M 8.351818181818182 11.64622641509434  C 8.2897679639024 11.837026097482799  8.101384914416217 11.967460400845471  7.887878787878788 11.96745283018868  C 7.620269402036644 11.96723509263596  7.403452688086482 11.764559976096287  7.403452688086482 11.514622813343975  C 7.403452688086482 11.470180436421362  7.4104576939343625 11.425980135987652  7.424242424242425 11.383443396226417  L 10.97939393939394 0.3975000000000004  C 11.042357801378667 0.20803039517529684  11.230039001873607 0.07889864907588832  11.442451907917922 0.07889864907588832  C 11.710226332078307 0.07889864907588832  11.927300392766407 0.28163763028458577  11.927300392766407 0.5317288377551336  C 11.927300392766407 0.5750057355745289  11.92065795559747 0.6180591672359139  11.907575757575756 0.6595754716981138  L 8.351818181818182 11.64622641509434  Z " stroke-width="0" stroke-dasharray="0" stroke="rgba(255, 255, 255, 0)" fill="none" transform="matrix(1 0 0 1 325 624 )" class="stroke" mask="url(#Clip1332)" />
    <path d="M 6.332121212121213 6.628867924528303  C 6.321818181818182 6.628867924528303  6.3115151515151515 6.628867924528303  6.301060606060606 6.627877358490565  L 0.5213636363636367 6.286556603773585  C 0.2658348361482792 6.271612692890372  0.06677945230442556 6.073697145252787  0.06677945230442556 5.834575471698113  C 0.06677945230442556 5.584464287036415  0.2838708527864661 5.3817091111145094  0.5516666666666671 5.3817091111145094  C 0.561775087058977 5.3817091111145094  0.5718810357440693 5.382004331552476  0.5819696969696974 5.382594339622642  L 6.362272727272728 5.724056603773585  C 6.618044906587261 5.738702322591743  6.8174510850975025 5.936708017916464  6.8174510850975025 6.176038121654339  C 6.8174510850975025 6.426129329124887  6.600377024409402 6.628868310333584  6.332602600249018 6.628868310333584  Z " stroke-width="0" stroke-dasharray="0" stroke="rgba(255, 255, 255, 0)" fill="none" transform="matrix(1 0 0 1 325 624 )" class="stroke" mask="url(#Clip1332)" />
  </g>
</svg>