<?xml version="1.0" encoding="utf-8"?>
<svg version="1.1" xmlns:xlink="http://www.w3.org/1999/xlink" width="3px" height="6px" xmlns="http://www.w3.org/2000/svg">
  <defs>
    <pattern id="BGPattern" patternUnits="userSpaceOnUse" alignment="0 0" imageRepeat="None" />
    <mask fill="white" id="Clip1333">
      <path d="M 2.4628977272727295 5.948973214285715  C 2.4165267036614693 5.958985855194728  2.368658341764311 5.964075707533322  2.3205681818181816 5.964107142857143  C 2.0743694979742275 5.964010600949239  1.858771320601681 5.834341402364282  1.7943749999999996 5.647633928571429  L 0.05113636363636363 0.6002678571428578  C 0.03850263766161888 0.5636831410328195  0.03210201824248057 0.525943191580508  0.03210201824248057 0.488035714285715  C 0.03210201824248057 0.2513298118572967  0.27632316963655934 0.059441764333378444  0.5775852272727271 0.059441764333378444  C 0.8238352684926562 0.059441764333378444  1.0395507499570171 0.18907285340647362  1.1040340909090907 0.37580357142857224  L 2.846590909090909 5.423169642857142  C 2.85921084140608 5.459734547308612  2.865604384045099 5.4974528128955775  2.865604384045099 5.535338332196359  C 2.865604384045099 5.728836206972893  2.7005847612284173 5.898333956956178  2.4628977272727295 5.948973214285715  Z " fill-rule="evenodd" />
    </mask>
  </defs>
  <g transform="matrix(1 0 0 1 -331 -630 )">
    <path d="M 2.4628977272727295 5.948973214285715  C 2.4165267036614693 5.958985855194728  2.368658341764311 5.964075707533322  2.3205681818181816 5.964107142857143  C 2.0743694979742275 5.964010600949239  1.858771320601681 5.834341402364282  1.7943749999999996 5.647633928571429  L 0.05113636363636363 0.6002678571428578  C 0.03850263766161888 0.5636831410328195  0.03210201824248057 0.525943191580508  0.03210201824248057 0.488035714285715  C 0.03210201824248057 0.2513298118572967  0.27632316963655934 0.059441764333378444  0.5775852272727271 0.059441764333378444  C 0.8238352684926562 0.059441764333378444  1.0395507499570171 0.18907285340647362  1.1040340909090907 0.37580357142857224  L 2.846590909090909 5.423169642857142  C 2.85921084140608 5.459734547308612  2.865604384045099 5.4974528128955775  2.865604384045099 5.535338332196359  C 2.865604384045099 5.728836206972893  2.7005847612284173 5.898333956956178  2.4628977272727295 5.948973214285715  Z " fill-rule="nonzero" fill="rgba(0, 82, 217, 1)" stroke="none" transform="matrix(1 0 0 1 331 630 )" class="fill" />
    <path d="M 2.4628977272727295 5.948973214285715  C 2.4165267036614693 5.958985855194728  2.368658341764311 5.964075707533322  2.3205681818181816 5.964107142857143  C 2.0743694979742275 5.964010600949239  1.858771320601681 5.834341402364282  1.7943749999999996 5.647633928571429  L 0.05113636363636363 0.6002678571428578  C 0.03850263766161888 0.5636831410328195  0.03210201824248057 0.525943191580508  0.03210201824248057 0.488035714285715  C 0.03210201824248057 0.2513298118572967  0.27632316963655934 0.059441764333378444  0.5775852272727271 0.059441764333378444  C 0.8238352684926562 0.059441764333378444  1.0395507499570171 0.18907285340647362  1.1040340909090907 0.37580357142857224  L 2.846590909090909 5.423169642857142  C 2.85921084140608 5.459734547308612  2.865604384045099 5.4974528128955775  2.865604384045099 5.535338332196359  C 2.865604384045099 5.728836206972893  2.7005847612284173 5.898333956956178  2.4628977272727295 5.948973214285715  Z " stroke-width="0" stroke-dasharray="0" stroke="rgba(255, 255, 255, 0)" fill="none" transform="matrix(1 0 0 1 331 630 )" class="stroke" mask="url(#Clip1333)" />
  </g>
</svg>