<?xml version="1.0" encoding="utf-8"?>
<svg version="1.1" xmlns:xlink="http://www.w3.org/1999/xlink" width="35px" height="35px" xmlns="http://www.w3.org/2000/svg">
  <defs>
    <pattern id="BGPattern" patternUnits="userSpaceOnUse" alignment="0 0" imageRepeat="None" />
    <mask fill="white" id="Clip100">
      <path d="M 34.95070422535212 14.54035087719298  L 31.228873239436616 24.352631578947364  L 11.769366197183098 34.85263157894736  C 11.165492957746482 35.14736842105264  10.265845070422529 34.95087719298246  9.957746478873235 34.25087719298246  L 0.22183098591548736 15.350877192982455  C -0.07394366197183379 14.749122807017546  0.12323943661971831 13.852631578947362  0.8257042253521183 13.545614035087715  L 26.114436619718308 0.2456140350877193  C 26.718309859154925 -0.04912280701754107  27.617957746478876 0.14736842105263018  27.92605633802817 0.8473684210526288  L 34.95070422535212 14.54035087719298  Z " fill-rule="evenodd" />
    </mask>
  </defs>
  <g transform="matrix(1 0 0 1 -217 -66 )">
    <path d="M 34.95070422535212 14.54035087719298  L 31.228873239436616 24.352631578947364  L 11.769366197183098 34.85263157894736  C 11.165492957746482 35.14736842105264  10.265845070422529 34.95087719298246  9.957746478873235 34.25087719298246  L 0.22183098591548736 15.350877192982455  C -0.07394366197183379 14.749122807017546  0.12323943661971831 13.852631578947362  0.8257042253521183 13.545614035087715  L 26.114436619718308 0.2456140350877193  C 26.718309859154925 -0.04912280701754107  27.617957746478876 0.14736842105263018  27.92605633802817 0.8473684210526288  L 34.95070422535212 14.54035087719298  Z " fill-rule="nonzero" fill="rgba(242, 246, 250, 1)" stroke="none" transform="matrix(1 0 0 1 217 66 )" class="fill" />
    <path d="M 34.95070422535212 14.54035087719298  L 31.228873239436616 24.352631578947364  L 11.769366197183098 34.85263157894736  C 11.165492957746482 35.14736842105264  10.265845070422529 34.95087719298246  9.957746478873235 34.25087719298246  L 0.22183098591548736 15.350877192982455  C -0.07394366197183379 14.749122807017546  0.12323943661971831 13.852631578947362  0.8257042253521183 13.545614035087715  L 26.114436619718308 0.2456140350877193  C 26.718309859154925 -0.04912280701754107  27.617957746478876 0.14736842105263018  27.92605633802817 0.8473684210526288  L 34.95070422535212 14.54035087719298  Z " stroke-width="0" stroke-dasharray="0" stroke="rgba(255, 255, 255, 0)" fill="none" transform="matrix(1 0 0 1 217 66 )" class="stroke" mask="url(#Clip100)" />
  </g>
</svg>