<?xml version="1.0" encoding="utf-8"?>
<svg version="1.1" xmlns:xlink="http://www.w3.org/1999/xlink" width="38px" height="34px" xmlns="http://www.w3.org/2000/svg">
  <defs>
    <pattern id="BGPattern" patternUnits="userSpaceOnUse" alignment="0 0" imageRepeat="None" />
    <mask fill="white" id="Clip96">
      <path d="M 11.85798045602606 0.11167883211678903  L 22.242996742671007 0.7321167883211687  L 37.56677524429968 16.801459854014595  C 38.0742671009772 17.40948905109489  38.0742671009772 18.216058394160584  37.46775244299674 18.724817518248173  L 21.846905537459286 33.565693430656935  C 21.240390879478824 34.074452554744525  20.435830618892506 34.074452554744525  19.928338762214985 33.46642335766423  L 0.37133550488599343 12.743795620437956  C -0.13615635179153113 12.135766423357666  -0.13615635179153113 11.329197080291973  0.4703583061889247 10.820437956204378  L 11.85798045602606 0.11167883211678903  Z " fill-rule="evenodd" />
    </mask>
  </defs>
  <g transform="matrix(1 0 0 1 -138 -28 )">
    <path d="M 11.85798045602606 0.11167883211678903  L 22.242996742671007 0.7321167883211687  L 37.56677524429968 16.801459854014595  C 38.0742671009772 17.40948905109489  38.0742671009772 18.216058394160584  37.46775244299674 18.724817518248173  L 21.846905537459286 33.565693430656935  C 21.240390879478824 34.074452554744525  20.435830618892506 34.074452554744525  19.928338762214985 33.46642335766423  L 0.37133550488599343 12.743795620437956  C -0.13615635179153113 12.135766423357666  -0.13615635179153113 11.329197080291973  0.4703583061889247 10.820437956204378  L 11.85798045602606 0.11167883211678903  Z " fill-rule="nonzero" fill="rgba(242, 246, 250, 1)" stroke="none" transform="matrix(1 0 0 1 138 28 )" class="fill" />
    <path d="M 11.85798045602606 0.11167883211678903  L 22.242996742671007 0.7321167883211687  L 37.56677524429968 16.801459854014595  C 38.0742671009772 17.40948905109489  38.0742671009772 18.216058394160584  37.46775244299674 18.724817518248173  L 21.846905537459286 33.565693430656935  C 21.240390879478824 34.074452554744525  20.435830618892506 34.074452554744525  19.928338762214985 33.46642335766423  L 0.37133550488599343 12.743795620437956  C -0.13615635179153113 12.135766423357666  -0.13615635179153113 11.329197080291973  0.4703583061889247 10.820437956204378  L 11.85798045602606 0.11167883211678903  Z " stroke-width="0" stroke-dasharray="0" stroke="rgba(255, 255, 255, 0)" fill="none" transform="matrix(1 0 0 1 138 28 )" class="stroke" mask="url(#Clip96)" />
  </g>
</svg>