<?xml version="1.0" encoding="utf-8"?>
<svg version="1.1" xmlns:xlink="http://www.w3.org/1999/xlink" width="16px" height="16px" xmlns="http://www.w3.org/2000/svg">
  <defs>
    <pattern id="BGPattern" patternUnits="userSpaceOnUse" alignment="0 0" imageRepeat="None" />
    <mask fill="white" id="Clip394">
      <path d="M 8 15.990012482443854  C 12.409380358727095 15.985236838097261  15.981358786809324 12.409387631147274  15.981358786809324 8.00000468625485  C 15.981358786809324 3.65677406613122  12.511935121056286 0.10898267135735296  8.169787763342764 0.011985024578643788  L 8 0.009987517556146486  C 3.5872379549886775 0.009987517556146486  0.00998751755610101 3.5872379549886317  0.00998751755610101 8  C 0.00998751755610101 8.551595256838391  0.4571438232177115 8.9987515625  1.0087390800561935 8.9987515625  C 1.5603343368945388 8.9987515625  2.0074906425561494 8.551595256838391  2.0074906425561494 8  C 2.0074906425561494 4.690428468665414  4.6904284686655044 2.0074906425561494  8 2.0074906425561494  C 11.309571531334495 2.0074906425561494  13.99250935744385 4.690428468665414  13.99250935744385 8  C 13.99250935744385 11.309571531334587  11.309571531334495 13.99250935744385  8 13.99250935744385  C 7.448404701067375 13.99250935744385  7.0012483954057645 14.43966566310537  7.0012483954057645 14.991260919943851  C 7.0012483954057645 15.542856176782243  7.448404701067375 15.990012482443854  7.99999995790572 15.990012482443854  Z " fill-rule="evenodd" />
    </mask>
  </defs>
  <g transform="matrix(1 0 0 1 -13 -8 )">
    <path d="M 8 15.990012482443854  C 12.409380358727095 15.985236838097261  15.981358786809324 12.409387631147274  15.981358786809324 8.00000468625485  C 15.981358786809324 3.65677406613122  12.511935121056286 0.10898267135735296  8.169787763342764 0.011985024578643788  L 8 0.009987517556146486  C 3.5872379549886775 0.009987517556146486  0.00998751755610101 3.5872379549886317  0.00998751755610101 8  C 0.00998751755610101 8.551595256838391  0.4571438232177115 8.9987515625  1.0087390800561935 8.9987515625  C 1.5603343368945388 8.9987515625  2.0074906425561494 8.551595256838391  2.0074906425561494 8  C 2.0074906425561494 4.690428468665414  4.6904284686655044 2.0074906425561494  8 2.0074906425561494  C 11.309571531334495 2.0074906425561494  13.99250935744385 4.690428468665414  13.99250935744385 8  C 13.99250935744385 11.309571531334587  11.309571531334495 13.99250935744385  8 13.99250935744385  C 7.448404701067375 13.99250935744385  7.0012483954057645 14.43966566310537  7.0012483954057645 14.991260919943851  C 7.0012483954057645 15.542856176782243  7.448404701067375 15.990012482443854  7.99999995790572 15.990012482443854  Z " fill-rule="nonzero" fill="rgba(255, 255, 255, 0.8980392156862745)" stroke="none" transform="matrix(1 0 0 1 13 8 )" class="fill" />
    <path d="M 8 15.990012482443854  C 12.409380358727095 15.985236838097261  15.981358786809324 12.409387631147274  15.981358786809324 8.00000468625485  C 15.981358786809324 3.65677406613122  12.511935121056286 0.10898267135735296  8.169787763342764 0.011985024578643788  L 8 0.009987517556146486  C 3.5872379549886775 0.009987517556146486  0.00998751755610101 3.5872379549886317  0.00998751755610101 8  C 0.00998751755610101 8.551595256838391  0.4571438232177115 8.9987515625  1.0087390800561935 8.9987515625  C 1.5603343368945388 8.9987515625  2.0074906425561494 8.551595256838391  2.0074906425561494 8  C 2.0074906425561494 4.690428468665414  4.6904284686655044 2.0074906425561494  8 2.0074906425561494  C 11.309571531334495 2.0074906425561494  13.99250935744385 4.690428468665414  13.99250935744385 8  C 13.99250935744385 11.309571531334587  11.309571531334495 13.99250935744385  8 13.99250935744385  C 7.448404701067375 13.99250935744385  7.0012483954057645 14.43966566310537  7.0012483954057645 14.991260919943851  C 7.0012483954057645 15.542856176782243  7.448404701067375 15.990012482443854  7.99999995790572 15.990012482443854  Z " stroke-width="0" stroke-dasharray="0" stroke="rgba(255, 255, 255, 0)" fill="none" transform="matrix(1 0 0 1 13 8 )" class="stroke" mask="url(#Clip394)" />
  </g>
</svg>