<?xml version="1.0" encoding="utf-8"?>
<svg version="1.1" xmlns:xlink="http://www.w3.org/1999/xlink" width="10px" height="10px" xmlns="http://www.w3.org/2000/svg">
  <defs>
    <pattern id="BGPattern" patternUnits="userSpaceOnUse" alignment="0 0" imageRepeat="None" />
    <mask fill="white" id="Clip61">
      <path d="M 6.649999999999977 3.289999999999992  C 6.649917160216432 4.946795669080899  5.306795674901878 6.289850000000001  3.6500000037499376 6.289850000000001  C 1.9931457542576254 6.289850000000001  0.6500000037499376 4.94670424949237  0.6500000037499376 3.2898500000000013  C 0.6500000037499376 1.6329957505076038  1.9931457542576254 0.2898500000000013  3.6500000037499376 0.2898500000000013  C 5.306795674901878 0.2898500000000013  6.649917160216432 1.6329043309191036  6.649999999999977 3.289699999999982  Z " fill-rule="evenodd" />
    </mask>
  </defs>
  <g transform="matrix(1 0 0 1 -152 -441 )">
    <path d="M 6.649999999999977 3.289999999999992  C 6.649917160216432 4.946795669080899  5.306795674901878 6.289850000000001  3.6500000037499376 6.289850000000001  C 1.9931457542576254 6.289850000000001  0.6500000037499376 4.94670424949237  0.6500000037499376 3.2898500000000013  C 0.6500000037499376 1.6329957505076038  1.9931457542576254 0.2898500000000013  3.6500000037499376 0.2898500000000013  C 5.306795674901878 0.2898500000000013  6.649917160216432 1.6329043309191036  6.649999999999977 3.289699999999982  Z " fill-rule="nonzero" fill="rgba(255, 255, 255, 1)" stroke="none" transform="matrix(1 0 0 1 153 442 )" class="fill" />
    <path d="M 6.649999999999977 3.289999999999992  C 6.649917160216432 4.946795669080899  5.306795674901878 6.289850000000001  3.6500000037499376 6.289850000000001  C 1.9931457542576254 6.289850000000001  0.6500000037499376 4.94670424949237  0.6500000037499376 3.2898500000000013  C 0.6500000037499376 1.6329957505076038  1.9931457542576254 0.2898500000000013  3.6500000037499376 0.2898500000000013  C 5.306795674901878 0.2898500000000013  6.649917160216432 1.6329043309191036  6.649999999999977 3.289699999999982  Z " stroke-width="4" stroke-dasharray="0" stroke="rgba(227, 77, 89, 1)" fill="none" transform="matrix(1 0 0 1 153 442 )" class="stroke" mask="url(#Clip61)" />
  </g>
</svg>