<?xml version="1.0" encoding="utf-8"?>
<svg version="1.1" xmlns:xlink="http://www.w3.org/1999/xlink" width="17px" height="20px" xmlns="http://www.w3.org/2000/svg">
  <defs>
    <pattern id="BGPattern" patternUnits="userSpaceOnUse" alignment="0 0" imageRepeat="None" />
    <mask fill="white" id="Clip372">
      <path d="M 13.135115018593511 7.803333333333332  C 13.892922623460098 7.3646666666666665  13.246268851921656 6.205333333333332  12.488461247055065 6.645333333333333  L 8.43265402273458 9.046666666666667  L 4.446808328802985 6.719333333333334  C 3.689000723936397 6.279333333333334  3.0423469523979554 7.438666666666668  3.800154557264542 7.878  L 7.860538704133833 10.248666666666669  L 7.860538704133833 15.597333333333335  C 7.860538704133833 15.965523166553863  8.153275564697225 16.264  8.514384782534684 16.264  C 8.875494000372145 16.264  9.168230860935537 15.965523166553863  9.168230860935537 15.597333333333335  L 9.168230860935537 10.222  C 9.168230860935537 10.199999999999998  9.157769323681126 10.181333333333333  9.155807785445923 10.15933333333333  L 13.135115018593511 7.803333333333332  Z M 16.999999188020944 5.914666666666667  C 17.000617662102357 5.199971763958125  16.629588647389333 4.5385104055553  16.02511468512527 4.176666666666666  L 9.48469236288155 0.27333333333333326  C 8.874885887141954 -0.09063207796759354  8.119883681850572 -0.09063207796759354  7.510077206110976 0.27333333333333326  L 0.9742318064160593 4.176666666666666  C 0.370009203707191 4.538677956431333  -0.0007534293154299831 5.200108031213078  0 5.914666666666667  L 0 14.199333333333332  C 0 14.924  0.3805395672280855 15.592666666666666  0.9958087270032872 15.949333333333334  L 7.534269511011805 19.739333333333327  C 8.132797411052524 20.086659867451907  8.866549080488802 20.086659867451907  9.465076980529522 19.739333333333335  L 16.003537764538045 15.949333333333334  C 16.620157245637944 15.5911350075783  17.000641510612937 14.922923024640797  16.999999188020944 14.199333333333332  L 16.999999188020944 5.914666666666667  Z M 15.692307031219238 5.914666666666667  L 15.692307031219238 14.199333333333332  C 15.692307031219238 14.440666666666665  15.565460892009474 14.664  15.360153223391606 14.782666666666666  L 8.821692439383085 18.57266666666667  C 8.62230866689703 18.68862608803041  8.377691670722704 18.68862608803041  8.178307898236648 18.572666666666667  L 1.6398471142281272 14.782666666666666  C 1.4343072871948261 14.663267224748322  1.3074791988698289 14.440529897102488  1.3076933064004936 14.199333333333332  L 1.3076933064004936 5.914666666666667  C 1.3076933064004936 5.676  1.4312702152182548 5.4559999999999995  1.632654807365717 5.335333333333333  L 8.168500207060635 1.4320000000000002  C 8.371609112419673 1.310663431042129  8.623160456572853 1.3106634310421283  8.82626936193189 1.4319999999999997  L 15.367345530254015 5.335999999999999  C 15.568730122401478 5.455333333333333  15.692307031219238 5.676  15.692307031219238 5.914666666666667  Z " fill-rule="evenodd" />
    </mask>
  </defs>
  <g transform="matrix(1 0 0 1 -41 -6 )">
    <path d="M 13.135115018593511 7.803333333333332  C 13.892922623460098 7.3646666666666665  13.246268851921656 6.205333333333332  12.488461247055065 6.645333333333333  L 8.43265402273458 9.046666666666667  L 4.446808328802985 6.719333333333334  C 3.689000723936397 6.279333333333334  3.0423469523979554 7.438666666666668  3.800154557264542 7.878  L 7.860538704133833 10.248666666666669  L 7.860538704133833 15.597333333333335  C 7.860538704133833 15.965523166553863  8.153275564697225 16.264  8.514384782534684 16.264  C 8.875494000372145 16.264  9.168230860935537 15.965523166553863  9.168230860935537 15.597333333333335  L 9.168230860935537 10.222  C 9.168230860935537 10.199999999999998  9.157769323681126 10.181333333333333  9.155807785445923 10.15933333333333  L 13.135115018593511 7.803333333333332  Z M 16.999999188020944 5.914666666666667  C 17.000617662102357 5.199971763958125  16.629588647389333 4.5385104055553  16.02511468512527 4.176666666666666  L 9.48469236288155 0.27333333333333326  C 8.874885887141954 -0.09063207796759354  8.119883681850572 -0.09063207796759354  7.510077206110976 0.27333333333333326  L 0.9742318064160593 4.176666666666666  C 0.370009203707191 4.538677956431333  -0.0007534293154299831 5.200108031213078  0 5.914666666666667  L 0 14.199333333333332  C 0 14.924  0.3805395672280855 15.592666666666666  0.9958087270032872 15.949333333333334  L 7.534269511011805 19.739333333333327  C 8.132797411052524 20.086659867451907  8.866549080488802 20.086659867451907  9.465076980529522 19.739333333333335  L 16.003537764538045 15.949333333333334  C 16.620157245637944 15.5911350075783  17.000641510612937 14.922923024640797  16.999999188020944 14.199333333333332  L 16.999999188020944 5.914666666666667  Z M 15.692307031219238 5.914666666666667  L 15.692307031219238 14.199333333333332  C 15.692307031219238 14.440666666666665  15.565460892009474 14.664  15.360153223391606 14.782666666666666  L 8.821692439383085 18.57266666666667  C 8.62230866689703 18.68862608803041  8.377691670722704 18.68862608803041  8.178307898236648 18.572666666666667  L 1.6398471142281272 14.782666666666666  C 1.4343072871948261 14.663267224748322  1.3074791988698289 14.440529897102488  1.3076933064004936 14.199333333333332  L 1.3076933064004936 5.914666666666667  C 1.3076933064004936 5.676  1.4312702152182548 5.4559999999999995  1.632654807365717 5.335333333333333  L 8.168500207060635 1.4320000000000002  C 8.371609112419673 1.310663431042129  8.623160456572853 1.3106634310421283  8.82626936193189 1.4319999999999997  L 15.367345530254015 5.335999999999999  C 15.568730122401478 5.455333333333333  15.692307031219238 5.676  15.692307031219238 5.914666666666667  Z " fill-rule="nonzero" fill="rgba(215, 215, 215, 1)" stroke="none" transform="matrix(1 0 0 1 41 6 )" class="fill" />
    <path d="M 13.135115018593511 7.803333333333332  C 13.892922623460098 7.3646666666666665  13.246268851921656 6.205333333333332  12.488461247055065 6.645333333333333  L 8.43265402273458 9.046666666666667  L 4.446808328802985 6.719333333333334  C 3.689000723936397 6.279333333333334  3.0423469523979554 7.438666666666668  3.800154557264542 7.878  L 7.860538704133833 10.248666666666669  L 7.860538704133833 15.597333333333335  C 7.860538704133833 15.965523166553863  8.153275564697225 16.264  8.514384782534684 16.264  C 8.875494000372145 16.264  9.168230860935537 15.965523166553863  9.168230860935537 15.597333333333335  L 9.168230860935537 10.222  C 9.168230860935537 10.199999999999998  9.157769323681126 10.181333333333333  9.155807785445923 10.15933333333333  L 13.135115018593511 7.803333333333332  Z " stroke-width="0" stroke-dasharray="0" stroke="rgba(255, 255, 255, 0)" fill="none" transform="matrix(1 0 0 1 41 6 )" class="stroke" mask="url(#Clip372)" />
    <path d="M 16.999999188020944 5.914666666666667  C 17.000617662102357 5.199971763958125  16.629588647389333 4.5385104055553  16.02511468512527 4.176666666666666  L 9.48469236288155 0.27333333333333326  C 8.874885887141954 -0.09063207796759354  8.119883681850572 -0.09063207796759354  7.510077206110976 0.27333333333333326  L 0.9742318064160593 4.176666666666666  C 0.370009203707191 4.538677956431333  -0.0007534293154299831 5.200108031213078  0 5.914666666666667  L 0 14.199333333333332  C 0 14.924  0.3805395672280855 15.592666666666666  0.9958087270032872 15.949333333333334  L 7.534269511011805 19.739333333333327  C 8.132797411052524 20.086659867451907  8.866549080488802 20.086659867451907  9.465076980529522 19.739333333333335  L 16.003537764538045 15.949333333333334  C 16.620157245637944 15.5911350075783  17.000641510612937 14.922923024640797  16.999999188020944 14.199333333333332  L 16.999999188020944 5.914666666666667  Z " stroke-width="0" stroke-dasharray="0" stroke="rgba(255, 255, 255, 0)" fill="none" transform="matrix(1 0 0 1 41 6 )" class="stroke" mask="url(#Clip372)" />
    <path d="M 15.692307031219238 5.914666666666667  L 15.692307031219238 14.199333333333332  C 15.692307031219238 14.440666666666665  15.565460892009474 14.664  15.360153223391606 14.782666666666666  L 8.821692439383085 18.57266666666667  C 8.62230866689703 18.68862608803041  8.377691670722704 18.68862608803041  8.178307898236648 18.572666666666667  L 1.6398471142281272 14.782666666666666  C 1.4343072871948261 14.663267224748322  1.3074791988698289 14.440529897102488  1.3076933064004936 14.199333333333332  L 1.3076933064004936 5.914666666666667  C 1.3076933064004936 5.676  1.4312702152182548 5.4559999999999995  1.632654807365717 5.335333333333333  L 8.168500207060635 1.4320000000000002  C 8.371609112419673 1.310663431042129  8.623160456572853 1.3106634310421283  8.82626936193189 1.4319999999999997  L 15.367345530254015 5.335999999999999  C 15.568730122401478 5.455333333333333  15.692307031219238 5.676  15.692307031219238 5.914666666666667  Z " stroke-width="0" stroke-dasharray="0" stroke="rgba(255, 255, 255, 0)" fill="none" transform="matrix(1 0 0 1 41 6 )" class="stroke" mask="url(#Clip372)" />
  </g>
</svg>