<?xml version="1.0" encoding="utf-8"?>
<svg version="1.1" xmlns:xlink="http://www.w3.org/1999/xlink" width="17px" height="20px" xmlns="http://www.w3.org/2000/svg">
  <defs>
    <pattern id="BGPattern" patternUnits="userSpaceOnUse" alignment="0 0" imageRepeat="None" />
    <mask fill="white" id="Clip374">
      <path d="M 12.423076923076922 8  L 4.576923076923077 8  C 4.2158138174183275 8  3.9230769230769234 8.298476833446138  3.9230769230769234 8.666666666666668  C 3.9230769230769234 9.034856499887194  4.2158138174183275 9.333333333333334  4.576923076923077 9.333333333333334  L 12.423076923076922 9.333333333333334  C 12.784186182581672 9.333333333333334  13.076923076923078 9.034856499887194  13.076923076923078 8.666666666666668  C 13.076923076923078 8.298476833446138  12.784186182581672 8  12.423076923076922 8  Z M 12.423076923076922 12  L 4.576923076923077 12  C 4.2158138174183275 12  3.9230769230769234 12.298476833446138  3.9230769230769234 12.666666666666666  C 3.9230769230769234 13.034856499887194  4.2158138174183275 13.333333333333332  4.576923076923077 13.333333333333332  L 12.423076923076922 13.333333333333332  C 12.784186182581672 13.333333333333332  13.076923076923078 13.034856499887194  13.076923076923078 12.666666666666666  C 13.076923076923078 12.298476833446138  12.784186182581672 12  12.423076923076922 12  Z M 17 2  C 17 0.8973333333333334  16.119923076923076 0  15.038461538461538 0  L 1.9615384615384617 0  C 0.8800769230769232 0  0 0.8973333333333334  0 2  L 0 18  C 0 19.102666666666664  0.8800769230769232 20  1.9615384615384617 20  L 15.038461538461538 20  C 16.119923076923076 20  17 19.102666666666664  17 18  L 17 2  Z M 4.576923076923077 3.333333333333333  L 4.576923076923077 1.3333333333333333  L 12.423076923076922 1.3333333333333333  L 12.423076923076922 3.333333333333333  L 4.576923076923077 3.333333333333333  Z M 15.692307692307693 2  L 15.692307692307693 18  C 15.692307692307693 18.36818983322053  15.399570797966287 18.666666666666668  15.038461538461538 18.666666666666668  L 1.9615384615384617 18.666666666666668  C 1.6012692307692307 18.666666666666668  1.3076923076923077 18.368  1.3076923076923077 18  L 1.3076923076923077 2  C 1.3076923076923077 1.6326666666666665  1.6012692307692307 1.3333333333333333  1.9615384615384617 1.3333333333333333  L 3.2692307692307696 1.3333333333333333  L 3.2692307692307696 3.333333333333333  C 3.2692307692307696 4.068666666666666  3.8557307692307696 4.666666666666667  4.576923076923077 4.666666666666667  L 12.423076923076922 4.666666666666667  C 13.14426923076923 4.666666666666667  13.730769230769232 4.068666666666666  13.730769230769232 3.333333333333333  L 13.730769230769232 1.3333333333333333  L 15.038461538461538 1.3333333333333333  C 15.399384615384616 1.3333333333333333  15.692307692307693 1.6326666666666665  15.692307692307693 2  Z " fill-rule="evenodd" />
    </mask>
  </defs>
  <g transform="matrix(1 0 0 1 -235 -6 )">
    <path d="M 12.423076923076922 8  L 4.576923076923077 8  C 4.2158138174183275 8  3.9230769230769234 8.298476833446138  3.9230769230769234 8.666666666666668  C 3.9230769230769234 9.034856499887194  4.2158138174183275 9.333333333333334  4.576923076923077 9.333333333333334  L 12.423076923076922 9.333333333333334  C 12.784186182581672 9.333333333333334  13.076923076923078 9.034856499887194  13.076923076923078 8.666666666666668  C 13.076923076923078 8.298476833446138  12.784186182581672 8  12.423076923076922 8  Z M 12.423076923076922 12  L 4.576923076923077 12  C 4.2158138174183275 12  3.9230769230769234 12.298476833446138  3.9230769230769234 12.666666666666666  C 3.9230769230769234 13.034856499887194  4.2158138174183275 13.333333333333332  4.576923076923077 13.333333333333332  L 12.423076923076922 13.333333333333332  C 12.784186182581672 13.333333333333332  13.076923076923078 13.034856499887194  13.076923076923078 12.666666666666666  C 13.076923076923078 12.298476833446138  12.784186182581672 12  12.423076923076922 12  Z M 17 2  C 17 0.8973333333333334  16.119923076923076 0  15.038461538461538 0  L 1.9615384615384617 0  C 0.8800769230769232 0  0 0.8973333333333334  0 2  L 0 18  C 0 19.102666666666664  0.8800769230769232 20  1.9615384615384617 20  L 15.038461538461538 20  C 16.119923076923076 20  17 19.102666666666664  17 18  L 17 2  Z M 4.576923076923077 3.333333333333333  L 4.576923076923077 1.3333333333333333  L 12.423076923076922 1.3333333333333333  L 12.423076923076922 3.333333333333333  L 4.576923076923077 3.333333333333333  Z M 15.692307692307693 2  L 15.692307692307693 18  C 15.692307692307693 18.36818983322053  15.399570797966287 18.666666666666668  15.038461538461538 18.666666666666668  L 1.9615384615384617 18.666666666666668  C 1.6012692307692307 18.666666666666668  1.3076923076923077 18.368  1.3076923076923077 18  L 1.3076923076923077 2  C 1.3076923076923077 1.6326666666666665  1.6012692307692307 1.3333333333333333  1.9615384615384617 1.3333333333333333  L 3.2692307692307696 1.3333333333333333  L 3.2692307692307696 3.333333333333333  C 3.2692307692307696 4.068666666666666  3.8557307692307696 4.666666666666667  4.576923076923077 4.666666666666667  L 12.423076923076922 4.666666666666667  C 13.14426923076923 4.666666666666667  13.730769230769232 4.068666666666666  13.730769230769232 3.333333333333333  L 13.730769230769232 1.3333333333333333  L 15.038461538461538 1.3333333333333333  C 15.399384615384616 1.3333333333333333  15.692307692307693 1.6326666666666665  15.692307692307693 2  Z " fill-rule="nonzero" fill="rgba(215, 215, 215, 1)" stroke="none" transform="matrix(1 0 0 1 235 6 )" class="fill" />
    <path d="M 12.423076923076922 8  L 4.576923076923077 8  C 4.2158138174183275 8  3.9230769230769234 8.298476833446138  3.9230769230769234 8.666666666666668  C 3.9230769230769234 9.034856499887194  4.2158138174183275 9.333333333333334  4.576923076923077 9.333333333333334  L 12.423076923076922 9.333333333333334  C 12.784186182581672 9.333333333333334  13.076923076923078 9.034856499887194  13.076923076923078 8.666666666666668  C 13.076923076923078 8.298476833446138  12.784186182581672 8  12.423076923076922 8  Z " stroke-width="0" stroke-dasharray="0" stroke="rgba(255, 255, 255, 0)" fill="none" transform="matrix(1 0 0 1 235 6 )" class="stroke" mask="url(#Clip374)" />
    <path d="M 12.423076923076922 12  L 4.576923076923077 12  C 4.2158138174183275 12  3.9230769230769234 12.298476833446138  3.9230769230769234 12.666666666666666  C 3.9230769230769234 13.034856499887194  4.2158138174183275 13.333333333333332  4.576923076923077 13.333333333333332  L 12.423076923076922 13.333333333333332  C 12.784186182581672 13.333333333333332  13.076923076923078 13.034856499887194  13.076923076923078 12.666666666666666  C 13.076923076923078 12.298476833446138  12.784186182581672 12  12.423076923076922 12  Z " stroke-width="0" stroke-dasharray="0" stroke="rgba(255, 255, 255, 0)" fill="none" transform="matrix(1 0 0 1 235 6 )" class="stroke" mask="url(#Clip374)" />
    <path d="M 17 2  C 17 0.8973333333333334  16.119923076923076 0  15.038461538461538 0  L 1.9615384615384617 0  C 0.8800769230769232 0  0 0.8973333333333334  0 2  L 0 18  C 0 19.102666666666664  0.8800769230769232 20  1.9615384615384617 20  L 15.038461538461538 20  C 16.119923076923076 20  17 19.102666666666664  17 18  L 17 2  Z " stroke-width="0" stroke-dasharray="0" stroke="rgba(255, 255, 255, 0)" fill="none" transform="matrix(1 0 0 1 235 6 )" class="stroke" mask="url(#Clip374)" />
    <path d="M 4.576923076923077 3.333333333333333  L 4.576923076923077 1.3333333333333333  L 12.423076923076922 1.3333333333333333  L 12.423076923076922 3.333333333333333  L 4.576923076923077 3.333333333333333  Z " stroke-width="0" stroke-dasharray="0" stroke="rgba(255, 255, 255, 0)" fill="none" transform="matrix(1 0 0 1 235 6 )" class="stroke" mask="url(#Clip374)" />
    <path d="M 15.692307692307693 2  L 15.692307692307693 18  C 15.692307692307693 18.36818983322053  15.399570797966287 18.666666666666668  15.038461538461538 18.666666666666668  L 1.9615384615384617 18.666666666666668  C 1.6012692307692307 18.666666666666668  1.3076923076923077 18.368  1.3076923076923077 18  L 1.3076923076923077 2  C 1.3076923076923077 1.6326666666666665  1.6012692307692307 1.3333333333333333  1.9615384615384617 1.3333333333333333  L 3.2692307692307696 1.3333333333333333  L 3.2692307692307696 3.333333333333333  C 3.2692307692307696 4.068666666666666  3.8557307692307696 4.666666666666667  4.576923076923077 4.666666666666667  L 12.423076923076922 4.666666666666667  C 13.14426923076923 4.666666666666667  13.730769230769232 4.068666666666666  13.730769230769232 3.333333333333333  L 13.730769230769232 1.3333333333333333  L 15.038461538461538 1.3333333333333333  C 15.399384615384616 1.3333333333333333  15.692307692307693 1.6326666666666665  15.692307692307693 2  Z " stroke-width="0" stroke-dasharray="0" stroke="rgba(255, 255, 255, 0)" fill="none" transform="matrix(1 0 0 1 235 6 )" class="stroke" mask="url(#Clip374)" />
  </g>
</svg>