<?xml version="1.0" encoding="utf-8"?>
<svg version="1.1" xmlns:xlink="http://www.w3.org/1999/xlink" width="13px" height="15px" xmlns="http://www.w3.org/2000/svg">
  <defs>
    <pattern id="BGPattern" patternUnits="userSpaceOnUse" alignment="0 0" imageRepeat="None" />
    <mask fill="white" id="Clip84">
      <path d="M 9.208333333333334 2.142857142857143  L 13 2.142857142857143  L 13 3.214285714285714  L 12 3.214285714285714  L 12 13.928571428571429  C 11.916666666666666 14.520305571428601  11.4316412166667 15  10.833333333333334 15  L 2.1666666666666665 15  C 1.5683579600000523 15  1.0833333333333333 14.520304500000032  1 13.928571428571429  L 1 3.214285714285714  L 0 3.214285714285714  L 0 2.142857142857143  L 3.791666666666667 2.142857142857143  L 3.791666666666667 0.857143639285677  C 3.791666666666667 0.3837568285714253  4.17968652833333 0  4.658333539166658 0  L 8.341666460833343 0  C 8.820313233333271 0  9.208333333333334 0.38375587499997116  9.208333333333334 0.8571429964285113  L 9.208333333333334 2.142857142857143  Z M 2.1666666666666665 3.214285714285714  L 2.1666666666666665 13.928571428571429  L 10.833333333333334 13.928571428571429  L 10.833333333333334 3.214285714285714  L 2.1666666666666665 3.214285714285714  Z M 8.125 1.0714285714285714  L 4.875 1.0714285714285714  L 4.875 2.142857142857143  L 8.125 2.142857142857143  L 8.125 1.0714285714285714  Z M 4.333333333333333 11.785714285714285  L 4.333333333333333 5.357142857142858  L 5.416666666666667 5.357142857142858  L 5.416666666666667 11.785714285714285  L 4.333333333333333 11.785714285714285  Z M 8.666666666666666 11.785714285714285  L 7.583333333333334 11.785714285714285  L 7.583333333333334 5.357142857142858  L 8.666666666666666 5.357142857142858  L 8.666666666666666 11.785714285714285  Z " fill-rule="evenodd" />
    </mask>
  </defs>
  <g transform="matrix(1 0 0 1 -358 -259 )">
    <path d="M 9.208333333333334 2.142857142857143  L 13 2.142857142857143  L 13 3.214285714285714  L 12 3.214285714285714  L 12 13.928571428571429  C 11.916666666666666 14.520305571428601  11.4316412166667 15  10.833333333333334 15  L 2.1666666666666665 15  C 1.5683579600000523 15  1.0833333333333333 14.520304500000032  1 13.928571428571429  L 1 3.214285714285714  L 0 3.214285714285714  L 0 2.142857142857143  L 3.791666666666667 2.142857142857143  L 3.791666666666667 0.857143639285677  C 3.791666666666667 0.3837568285714253  4.17968652833333 0  4.658333539166658 0  L 8.341666460833343 0  C 8.820313233333271 0  9.208333333333334 0.38375587499997116  9.208333333333334 0.8571429964285113  L 9.208333333333334 2.142857142857143  Z M 2.1666666666666665 3.214285714285714  L 2.1666666666666665 13.928571428571429  L 10.833333333333334 13.928571428571429  L 10.833333333333334 3.214285714285714  L 2.1666666666666665 3.214285714285714  Z M 8.125 1.0714285714285714  L 4.875 1.0714285714285714  L 4.875 2.142857142857143  L 8.125 2.142857142857143  L 8.125 1.0714285714285714  Z M 4.333333333333333 11.785714285714285  L 4.333333333333333 5.357142857142858  L 5.416666666666667 5.357142857142858  L 5.416666666666667 11.785714285714285  L 4.333333333333333 11.785714285714285  Z M 8.666666666666666 11.785714285714285  L 7.583333333333334 11.785714285714285  L 7.583333333333334 5.357142857142858  L 8.666666666666666 5.357142857142858  L 8.666666666666666 11.785714285714285  Z " fill-rule="nonzero" fill="rgba(217, 0, 27, 0.8980392156862745)" stroke="none" transform="matrix(1 0 0 1 358 259 )" class="fill" />
    <path d="M 9.208333333333334 2.142857142857143  L 13 2.142857142857143  L 13 3.214285714285714  L 12 3.214285714285714  L 12 13.928571428571429  C 11.916666666666666 14.520305571428601  11.4316412166667 15  10.833333333333334 15  L 2.1666666666666665 15  C 1.5683579600000523 15  1.0833333333333333 14.520304500000032  1 13.928571428571429  L 1 3.214285714285714  L 0 3.214285714285714  L 0 2.142857142857143  L 3.791666666666667 2.142857142857143  L 3.791666666666667 0.857143639285677  C 3.791666666666667 0.3837568285714253  4.17968652833333 0  4.658333539166658 0  L 8.341666460833343 0  C 8.820313233333271 0  9.208333333333334 0.38375587499997116  9.208333333333334 0.8571429964285113  L 9.208333333333334 2.142857142857143  Z " stroke-width="0" stroke-dasharray="0" stroke="rgba(255, 255, 255, 0)" fill="none" transform="matrix(1 0 0 1 358 259 )" class="stroke" mask="url(#Clip84)" />
    <path d="M 2.1666666666666665 3.214285714285714  L 2.1666666666666665 13.928571428571429  L 10.833333333333334 13.928571428571429  L 10.833333333333334 3.214285714285714  L 2.1666666666666665 3.214285714285714  Z " stroke-width="0" stroke-dasharray="0" stroke="rgba(255, 255, 255, 0)" fill="none" transform="matrix(1 0 0 1 358 259 )" class="stroke" mask="url(#Clip84)" />
    <path d="M 8.125 1.0714285714285714  L 4.875 1.0714285714285714  L 4.875 2.142857142857143  L 8.125 2.142857142857143  L 8.125 1.0714285714285714  Z " stroke-width="0" stroke-dasharray="0" stroke="rgba(255, 255, 255, 0)" fill="none" transform="matrix(1 0 0 1 358 259 )" class="stroke" mask="url(#Clip84)" />
    <path d="M 4.333333333333333 11.785714285714285  L 4.333333333333333 5.357142857142858  L 5.416666666666667 5.357142857142858  L 5.416666666666667 11.785714285714285  L 4.333333333333333 11.785714285714285  Z " stroke-width="0" stroke-dasharray="0" stroke="rgba(255, 255, 255, 0)" fill="none" transform="matrix(1 0 0 1 358 259 )" class="stroke" mask="url(#Clip84)" />
    <path d="M 8.666666666666666 11.785714285714285  L 7.583333333333334 11.785714285714285  L 7.583333333333334 5.357142857142858  L 8.666666666666666 5.357142857142858  L 8.666666666666666 11.785714285714285  Z " stroke-width="0" stroke-dasharray="0" stroke="rgba(255, 255, 255, 0)" fill="none" transform="matrix(1 0 0 1 358 259 )" class="stroke" mask="url(#Clip84)" />
  </g>
</svg>