<?xml version="1.0" encoding="utf-8"?>
<svg version="1.1" xmlns:xlink="http://www.w3.org/1999/xlink" width="28px" height="28px" xmlns="http://www.w3.org/2000/svg">
  <defs>
    <pattern id="BGPattern" patternUnits="userSpaceOnUse" alignment="0 0" imageRepeat="None" />
    <mask fill="white" id="Clip34">
      <path d="M 13.63922975 3.0099255101010094  C 13.631554964285714 1.4584537474747479  12.401577428571429 0.19582312626262607  10.851305107142856 0.09966334848484873  L 10.851305107142856 0.0899677828282829  L 3.002948571428571 0.0899677828282829  C 1.3632465714285718 0.0899677828282829  0.03528750000000004 1.3956496414141413  0.025931571428571432 3.0099255101010107  L 0.02509100000000026 10.348602090909093  C 0.02509100000000026 10.435862217171717  0.042962321428571926 10.517695681818184  0.06934900000000052 10.596092323232325  C 0.30785242857142947 11.98357147979798  1.527633428571429 13.041292833333333  3.0029486071428573 13.041292833333333  L 10.851305107142856 13.041292797979796  L 10.851305107142856 13.03289962121212  C 12.23978542857143 12.946905717171717  13.368345964285714 11.924095661616159  13.594094642857144 10.596092287878786  C 13.62135842857143 10.517695646464645  13.64014342857143 10.435862181818182  13.64014342857143 10.348602055555554  L 13.64014342857143 3.0099255101010094  Z M 12.072803785714285 9.950613484848486  C 12.072803785714285 10.804329949494951  11.370852285714284 11.495754171717172  10.505464142857141 11.495754171717172  L 3.1587835000000006 11.495754171717172  C 2.2933953928571436 11.495754171717172  1.592394071428572 10.80432994949495  1.592394071428572 9.950613484848486  L 1.592394071428571 3.1811173686868686  C 1.592394071428571 2.3273647373737374  2.2933953571428574 1.6355425757575763  3.1587834999999993 1.6355425757575763  L 10.505500714285713 1.6355425757575763  C 11.370888821428569 1.6355425757575763  12.072840357142855 2.3274009393939394  12.072840357142855 3.1811173686868695  L 12.072840321428572 9.950613484848486  Z M 27.937375607142858 2.938294050505051  C 27.929664250000002 1.425170444444445  26.72958192857143 0.19329068181818235  25.21761046428572 0.09922920707070768  L 25.21761046428572 0.08996778282828338  L 18.370887964285714 0.0899677828282829  C 16.771241107142856 0.0899677828282829  15.476576035714285 1.3640305000000006  15.467146999999999 2.938257883838384  L 15.466306428571428 10.09774733333333  C 15.466306428571428 10.182872954545454  15.483337178571427 10.262969924242423  15.51060096428571 10.33926826262626  C 15.74230671428571 11.69303001010101  16.93310621428571 12.724667348484848  18.37092453571428 12.724667348484848  L 25.21764703571428 12.724667348484848  L 25.21764703571428 12.716672111111109  C 26.571992785714283 12.632342368686865  27.67244896428571 11.63438627272727  27.894835321428566 10.339268227272726  C 27.921221999999997 10.262969888888886  27.938289285714283 10.182872919191919  27.938289285714283 10.097747297979797  L 27.938289285714287 2.938294050505051  Z M 26.409323642857142 3.105180838383838  L 26.409323607142856 9.709454328282828  C 26.409323607142856 10.542079297979798  25.725316499999998 11.217042772727273  24.880284857142854 11.217042772727273  L 18.524237714285714 11.217042772727273  C 17.67927917857143 11.217042772727273  16.994431500000005 10.542079297979798  16.994431500000005 9.709454328282828  L 16.994431499999997 3.105180838383838  C 16.994431499999997 2.272519702020202  17.679279178571427 1.597592393939394  18.52423771428571 1.597592393939394  L 24.88028489285714 1.597592393939394  C 25.725316535714285 1.597592393939394  26.409323642857142 2.2725558686868688  26.409323642857142 3.105180838383838  Z M 13.272045535714287 17.959658994949496  C 13.26437075 16.450297853535353  12.068564357142856 15.220986666666667  10.560028285714285 15.127323166666669  L 10.560028285714285 15.118097909090912  L 2.9228383214285714 15.118097873737375  C 1.327467428571428 15.118097873737375  0.03444692857142836 16.38883226767677  0.025895035714285593 17.959658959595963  L 0.02505446428571442 25.100155252525255  C 0.02505446428571442 25.18571501515152  0.04212175000000024 25.26588435353536  0.06847189285714299 25.341314409090913  C 0.2993370714285715 26.691168989898994  1.4875783214285718 27.721178368686875  2.922838357142857 27.721178368686875  L 10.560028285714285 27.72117836868687  L 10.560028285714285 27.712821358585856  C 11.910902107142858 27.62972167171717  13.008873107142858 26.633502070707067  13.229468678571427 25.341314409090906  C 13.256695928571428 25.26588435353535  13.273799749999998 25.185715015151512  13.273799749999998 25.100155252525248  L 13.273799785714287 17.959658994949496  L 13.272045535714287 17.959658994949496  Z M 11.749110107142856 24.713562575757575  C 11.749110107142856 25.544125444444443  11.065980142857143 26.216954414141412  10.224420428571428 26.216954414141412  L 3.319771464285714 26.21695444949495  C 3.319771464285714 26.21695444949495  3.3189674285714283 26.21695444949495  3.3180903214285706 26.21695444949495  L 3.0744338214285705 26.21695444949495  C 2.232874107142856 26.21695444949495  1.5497806785714272 25.544125444444447  1.5497806785714272 24.71356261111111  L 1.5497806785714283 18.125315727272728  C 1.5497806785714283 17.29558493939394  2.232874107142856 16.621887686868686  3.0744338214285714 16.621887686868686  L 10.224456964285714 16.621887686868686  C 11.06601667857143 16.621887686868686  11.749146642857143 17.29558493939394  11.749146642857143 18.125315727272728  L 11.749146642857143 24.713562575757575  Z M 22.42204757142857 23.5744418989899  C 22.42204757142857 23.072732454545456  21.99613289285714 22.665880363636365  21.46978807142857 22.665880363636365  C 20.94329703571428 22.665880363636365  20.517382357142854 23.072732454545456  20.517382357142854 23.5744418989899  L 20.517382357142854 25.391456434343432  C 20.517382357142854 25.894468267676768  20.94326046428571 26.300813883838384  21.46978807142857 26.300813883838384  C 21.99609639285714 26.300813883838384  22.42204757142857 25.89450446969697  22.42204757142857 25.391456434343432  L 22.42204757142857 23.5744418989899  Z M 26.480881964285715 22.665012116161616  C 26.480881964285715 22.162940863636365  26.05493075 21.756522949494947  25.527708785714285 21.756522949494947  C 25.00129085714286 21.756522949494947  24.57537617857143 22.162904732323234  24.57537617857143 22.665012116161616  L 24.57537617857143 25.39142026767677  C 24.57537617857143 25.893961792929296  25.001254285714285 26.300054136363638  25.527708785714285 26.300054136363638  C 26.05496732142857 26.300054136363638  26.480881964285715 25.89392562626263  26.480881964285715 25.39142026767677  L 26.480881964285715 22.665012116161616  Z M 26.480881964285715 17.213462035353537  C 26.480881964285715 16.71088430808081  26.05493075 16.30406841919192  25.527708785714285 16.30406841919192  C 25.00129085714286 16.30406841919192  24.57537617857143 16.71084814141414  24.57537617857143 17.213462035353537  L 24.57537617857143 19.03047657070707  C 24.57537617857143 19.53211368181818  25.001254285714285 19.93896573737374  25.527708785714285 19.93896573737374  C 26.05496732142857 19.93896573737374  26.480881964285715 19.532113646464644  26.480881964285715 19.03047657070707  L 26.480881964285715 17.213462035353537  Z M 22.42204757142857 17.213823808080807  C 22.42204757142857 16.71171638888889  21.99613289285714 16.3049005  21.46978807142857 16.3049005  C 20.94329703571428 16.3049005  20.517382357142854 16.711716388888888  20.517382357142854 17.213823808080807  L 20.517382357142857 20.8492276010101  C 20.517382357142857 21.350973247474744  20.943260464285714 21.757318828282827  21.469788071428574 21.757318828282827  C 21.996096392857144 21.757318828282827  22.422047571428575 21.351009414141412  22.422047571428575 20.8492276010101  L 22.42204757142857 17.213823808080807  Z M 18.312961535714283 21.756522949494947  C 18.312998071428574 21.25351108080808  17.88708342857143 20.8492276010101  17.358947785714285 20.8492276010101  C 16.834320642857143 20.8492276010101  16.407492285714284 21.253511080808078  16.407492285714284 21.756522914141414  L 16.407492285714284 25.3914563989899  C 16.407492285714284 25.893997924242424  16.834320607142853 26.300090267676765  17.358947785714285 26.300090267676765  C 17.887083428571426 26.300090267676765  18.312961535714283 25.893961757575756  18.312961535714283 25.3914563989899  L 18.312961535714283 21.756522949494947  Z M 18.312961535714283 17.213462035353537  C 18.312998071428574 16.71088430808081  17.88708342857143 16.30406841919192  17.358947785714285 16.30406841919192  C 16.834320642857143 16.30406841919192  16.407492285714284 16.71084814141414  16.407492285714284 17.213462035353537  L 16.407492285714284 18.122385343434345  C 16.407492285714284 18.624456560606067  16.834320607142853 19.030476570707076  17.358947785714285 19.030476570707076  C 17.887083428571426 19.030476570707076  18.312961535714283 18.6244565959596  18.312961535714283 18.122385343434345  L 18.312961535714283 17.213462035353537  Z " fill-rule="evenodd" />
    </mask>
  </defs>
  <g transform="matrix(1 0 0 1 -232 -519 )">
    <path d="M 13.63922975 3.0099255101010094  C 13.631554964285714 1.4584537474747479  12.401577428571429 0.19582312626262607  10.851305107142856 0.09966334848484873  L 10.851305107142856 0.0899677828282829  L 3.002948571428571 0.0899677828282829  C 1.3632465714285718 0.0899677828282829  0.03528750000000004 1.3956496414141413  0.025931571428571432 3.0099255101010107  L 0.02509100000000026 10.348602090909093  C 0.02509100000000026 10.435862217171717  0.042962321428571926 10.517695681818184  0.06934900000000052 10.596092323232325  C 0.30785242857142947 11.98357147979798  1.527633428571429 13.041292833333333  3.0029486071428573 13.041292833333333  L 10.851305107142856 13.041292797979796  L 10.851305107142856 13.03289962121212  C 12.23978542857143 12.946905717171717  13.368345964285714 11.924095661616159  13.594094642857144 10.596092287878786  C 13.62135842857143 10.517695646464645  13.64014342857143 10.435862181818182  13.64014342857143 10.348602055555554  L 13.64014342857143 3.0099255101010094  Z M 12.072803785714285 9.950613484848486  C 12.072803785714285 10.804329949494951  11.370852285714284 11.495754171717172  10.505464142857141 11.495754171717172  L 3.1587835000000006 11.495754171717172  C 2.2933953928571436 11.495754171717172  1.592394071428572 10.80432994949495  1.592394071428572 9.950613484848486  L 1.592394071428571 3.1811173686868686  C 1.592394071428571 2.3273647373737374  2.2933953571428574 1.6355425757575763  3.1587834999999993 1.6355425757575763  L 10.505500714285713 1.6355425757575763  C 11.370888821428569 1.6355425757575763  12.072840357142855 2.3274009393939394  12.072840357142855 3.1811173686868695  L 12.072840321428572 9.950613484848486  Z M 27.937375607142858 2.938294050505051  C 27.929664250000002 1.425170444444445  26.72958192857143 0.19329068181818235  25.21761046428572 0.09922920707070768  L 25.21761046428572 0.08996778282828338  L 18.370887964285714 0.0899677828282829  C 16.771241107142856 0.0899677828282829  15.476576035714285 1.3640305000000006  15.467146999999999 2.938257883838384  L 15.466306428571428 10.09774733333333  C 15.466306428571428 10.182872954545454  15.483337178571427 10.262969924242423  15.51060096428571 10.33926826262626  C 15.74230671428571 11.69303001010101  16.93310621428571 12.724667348484848  18.37092453571428 12.724667348484848  L 25.21764703571428 12.724667348484848  L 25.21764703571428 12.716672111111109  C 26.571992785714283 12.632342368686865  27.67244896428571 11.63438627272727  27.894835321428566 10.339268227272726  C 27.921221999999997 10.262969888888886  27.938289285714283 10.182872919191919  27.938289285714283 10.097747297979797  L 27.938289285714287 2.938294050505051  Z M 26.409323642857142 3.105180838383838  L 26.409323607142856 9.709454328282828  C 26.409323607142856 10.542079297979798  25.725316499999998 11.217042772727273  24.880284857142854 11.217042772727273  L 18.524237714285714 11.217042772727273  C 17.67927917857143 11.217042772727273  16.994431500000005 10.542079297979798  16.994431500000005 9.709454328282828  L 16.994431499999997 3.105180838383838  C 16.994431499999997 2.272519702020202  17.679279178571427 1.597592393939394  18.52423771428571 1.597592393939394  L 24.88028489285714 1.597592393939394  C 25.725316535714285 1.597592393939394  26.409323642857142 2.2725558686868688  26.409323642857142 3.105180838383838  Z M 13.272045535714287 17.959658994949496  C 13.26437075 16.450297853535353  12.068564357142856 15.220986666666667  10.560028285714285 15.127323166666669  L 10.560028285714285 15.118097909090912  L 2.9228383214285714 15.118097873737375  C 1.327467428571428 15.118097873737375  0.03444692857142836 16.38883226767677  0.025895035714285593 17.959658959595963  L 0.02505446428571442 25.100155252525255  C 0.02505446428571442 25.18571501515152  0.04212175000000024 25.26588435353536  0.06847189285714299 25.341314409090913  C 0.2993370714285715 26.691168989898994  1.4875783214285718 27.721178368686875  2.922838357142857 27.721178368686875  L 10.560028285714285 27.72117836868687  L 10.560028285714285 27.712821358585856  C 11.910902107142858 27.62972167171717  13.008873107142858 26.633502070707067  13.229468678571427 25.341314409090906  C 13.256695928571428 25.26588435353535  13.273799749999998 25.185715015151512  13.273799749999998 25.100155252525248  L 13.273799785714287 17.959658994949496  L 13.272045535714287 17.959658994949496  Z M 11.749110107142856 24.713562575757575  C 11.749110107142856 25.544125444444443  11.065980142857143 26.216954414141412  10.224420428571428 26.216954414141412  L 3.319771464285714 26.21695444949495  C 3.319771464285714 26.21695444949495  3.3189674285714283 26.21695444949495  3.3180903214285706 26.21695444949495  L 3.0744338214285705 26.21695444949495  C 2.232874107142856 26.21695444949495  1.5497806785714272 25.544125444444447  1.5497806785714272 24.71356261111111  L 1.5497806785714283 18.125315727272728  C 1.5497806785714283 17.29558493939394  2.232874107142856 16.621887686868686  3.0744338214285714 16.621887686868686  L 10.224456964285714 16.621887686868686  C 11.06601667857143 16.621887686868686  11.749146642857143 17.29558493939394  11.749146642857143 18.125315727272728  L 11.749146642857143 24.713562575757575  Z M 22.42204757142857 23.5744418989899  C 22.42204757142857 23.072732454545456  21.99613289285714 22.665880363636365  21.46978807142857 22.665880363636365  C 20.94329703571428 22.665880363636365  20.517382357142854 23.072732454545456  20.517382357142854 23.5744418989899  L 20.517382357142854 25.391456434343432  C 20.517382357142854 25.894468267676768  20.94326046428571 26.300813883838384  21.46978807142857 26.300813883838384  C 21.99609639285714 26.300813883838384  22.42204757142857 25.89450446969697  22.42204757142857 25.391456434343432  L 22.42204757142857 23.5744418989899  Z M 26.480881964285715 22.665012116161616  C 26.480881964285715 22.162940863636365  26.05493075 21.756522949494947  25.527708785714285 21.756522949494947  C 25.00129085714286 21.756522949494947  24.57537617857143 22.162904732323234  24.57537617857143 22.665012116161616  L 24.57537617857143 25.39142026767677  C 24.57537617857143 25.893961792929296  25.001254285714285 26.300054136363638  25.527708785714285 26.300054136363638  C 26.05496732142857 26.300054136363638  26.480881964285715 25.89392562626263  26.480881964285715 25.39142026767677  L 26.480881964285715 22.665012116161616  Z M 26.480881964285715 17.213462035353537  C 26.480881964285715 16.71088430808081  26.05493075 16.30406841919192  25.527708785714285 16.30406841919192  C 25.00129085714286 16.30406841919192  24.57537617857143 16.71084814141414  24.57537617857143 17.213462035353537  L 24.57537617857143 19.03047657070707  C 24.57537617857143 19.53211368181818  25.001254285714285 19.93896573737374  25.527708785714285 19.93896573737374  C 26.05496732142857 19.93896573737374  26.480881964285715 19.532113646464644  26.480881964285715 19.03047657070707  L 26.480881964285715 17.213462035353537  Z M 22.42204757142857 17.213823808080807  C 22.42204757142857 16.71171638888889  21.99613289285714 16.3049005  21.46978807142857 16.3049005  C 20.94329703571428 16.3049005  20.517382357142854 16.711716388888888  20.517382357142854 17.213823808080807  L 20.517382357142857 20.8492276010101  C 20.517382357142857 21.350973247474744  20.943260464285714 21.757318828282827  21.469788071428574 21.757318828282827  C 21.996096392857144 21.757318828282827  22.422047571428575 21.351009414141412  22.422047571428575 20.8492276010101  L 22.42204757142857 17.213823808080807  Z M 18.312961535714283 21.756522949494947  C 18.312998071428574 21.25351108080808  17.88708342857143 20.8492276010101  17.358947785714285 20.8492276010101  C 16.834320642857143 20.8492276010101  16.407492285714284 21.253511080808078  16.407492285714284 21.756522914141414  L 16.407492285714284 25.3914563989899  C 16.407492285714284 25.893997924242424  16.834320607142853 26.300090267676765  17.358947785714285 26.300090267676765  C 17.887083428571426 26.300090267676765  18.312961535714283 25.893961757575756  18.312961535714283 25.3914563989899  L 18.312961535714283 21.756522949494947  Z M 18.312961535714283 17.213462035353537  C 18.312998071428574 16.71088430808081  17.88708342857143 16.30406841919192  17.358947785714285 16.30406841919192  C 16.834320642857143 16.30406841919192  16.407492285714284 16.71084814141414  16.407492285714284 17.213462035353537  L 16.407492285714284 18.122385343434345  C 16.407492285714284 18.624456560606067  16.834320607142853 19.030476570707076  17.358947785714285 19.030476570707076  C 17.887083428571426 19.030476570707076  18.312961535714283 18.6244565959596  18.312961535714283 18.122385343434345  L 18.312961535714283 17.213462035353537  Z " fill-rule="nonzero" fill="rgba(51, 51, 51, 1)" stroke="none" transform="matrix(1 0 0 1 232 519 )" class="fill" />
    <path d="M 13.63922975 3.0099255101010094  C 13.631554964285714 1.4584537474747479  12.401577428571429 0.19582312626262607  10.851305107142856 0.09966334848484873  L 10.851305107142856 0.0899677828282829  L 3.002948571428571 0.0899677828282829  C 1.3632465714285718 0.0899677828282829  0.03528750000000004 1.3956496414141413  0.025931571428571432 3.0099255101010107  L 0.02509100000000026 10.348602090909093  C 0.02509100000000026 10.435862217171717  0.042962321428571926 10.517695681818184  0.06934900000000052 10.596092323232325  C 0.30785242857142947 11.98357147979798  1.527633428571429 13.041292833333333  3.0029486071428573 13.041292833333333  L 10.851305107142856 13.041292797979796  L 10.851305107142856 13.03289962121212  C 12.23978542857143 12.946905717171717  13.368345964285714 11.924095661616159  13.594094642857144 10.596092287878786  C 13.62135842857143 10.517695646464645  13.64014342857143 10.435862181818182  13.64014342857143 10.348602055555554  L 13.64014342857143 3.0099255101010094  Z " stroke-width="0" stroke-dasharray="0" stroke="rgba(255, 255, 255, 0)" fill="none" transform="matrix(1 0 0 1 232 519 )" class="stroke" mask="url(#Clip34)" />
    <path d="M 12.072803785714285 9.950613484848486  C 12.072803785714285 10.804329949494951  11.370852285714284 11.495754171717172  10.505464142857141 11.495754171717172  L 3.1587835000000006 11.495754171717172  C 2.2933953928571436 11.495754171717172  1.592394071428572 10.80432994949495  1.592394071428572 9.950613484848486  L 1.592394071428571 3.1811173686868686  C 1.592394071428571 2.3273647373737374  2.2933953571428574 1.6355425757575763  3.1587834999999993 1.6355425757575763  L 10.505500714285713 1.6355425757575763  C 11.370888821428569 1.6355425757575763  12.072840357142855 2.3274009393939394  12.072840357142855 3.1811173686868695  L 12.072840321428572 9.950613484848486  Z " stroke-width="0" stroke-dasharray="0" stroke="rgba(255, 255, 255, 0)" fill="none" transform="matrix(1 0 0 1 232 519 )" class="stroke" mask="url(#Clip34)" />
    <path d="M 27.937375607142858 2.938294050505051  C 27.929664250000002 1.425170444444445  26.72958192857143 0.19329068181818235  25.21761046428572 0.09922920707070768  L 25.21761046428572 0.08996778282828338  L 18.370887964285714 0.0899677828282829  C 16.771241107142856 0.0899677828282829  15.476576035714285 1.3640305000000006  15.467146999999999 2.938257883838384  L 15.466306428571428 10.09774733333333  C 15.466306428571428 10.182872954545454  15.483337178571427 10.262969924242423  15.51060096428571 10.33926826262626  C 15.74230671428571 11.69303001010101  16.93310621428571 12.724667348484848  18.37092453571428 12.724667348484848  L 25.21764703571428 12.724667348484848  L 25.21764703571428 12.716672111111109  C 26.571992785714283 12.632342368686865  27.67244896428571 11.63438627272727  27.894835321428566 10.339268227272726  C 27.921221999999997 10.262969888888886  27.938289285714283 10.182872919191919  27.938289285714283 10.097747297979797  L 27.938289285714287 2.938294050505051  Z " stroke-width="0" stroke-dasharray="0" stroke="rgba(255, 255, 255, 0)" fill="none" transform="matrix(1 0 0 1 232 519 )" class="stroke" mask="url(#Clip34)" />
    <path d="M 26.409323642857142 3.105180838383838  L 26.409323607142856 9.709454328282828  C 26.409323607142856 10.542079297979798  25.725316499999998 11.217042772727273  24.880284857142854 11.217042772727273  L 18.524237714285714 11.217042772727273  C 17.67927917857143 11.217042772727273  16.994431500000005 10.542079297979798  16.994431500000005 9.709454328282828  L 16.994431499999997 3.105180838383838  C 16.994431499999997 2.272519702020202  17.679279178571427 1.597592393939394  18.52423771428571 1.597592393939394  L 24.88028489285714 1.597592393939394  C 25.725316535714285 1.597592393939394  26.409323642857142 2.2725558686868688  26.409323642857142 3.105180838383838  Z " stroke-width="0" stroke-dasharray="0" stroke="rgba(255, 255, 255, 0)" fill="none" transform="matrix(1 0 0 1 232 519 )" class="stroke" mask="url(#Clip34)" />
    <path d="M 13.272045535714287 17.959658994949496  C 13.26437075 16.450297853535353  12.068564357142856 15.220986666666667  10.560028285714285 15.127323166666669  L 10.560028285714285 15.118097909090912  L 2.9228383214285714 15.118097873737375  C 1.327467428571428 15.118097873737375  0.03444692857142836 16.38883226767677  0.025895035714285593 17.959658959595963  L 0.02505446428571442 25.100155252525255  C 0.02505446428571442 25.18571501515152  0.04212175000000024 25.26588435353536  0.06847189285714299 25.341314409090913  C 0.2993370714285715 26.691168989898994  1.4875783214285718 27.721178368686875  2.922838357142857 27.721178368686875  L 10.560028285714285 27.72117836868687  L 10.560028285714285 27.712821358585856  C 11.910902107142858 27.62972167171717  13.008873107142858 26.633502070707067  13.229468678571427 25.341314409090906  C 13.256695928571428 25.26588435353535  13.273799749999998 25.185715015151512  13.273799749999998 25.100155252525248  L 13.273799785714287 17.959658994949496  L 13.272045535714287 17.959658994949496  Z " stroke-width="0" stroke-dasharray="0" stroke="rgba(255, 255, 255, 0)" fill="none" transform="matrix(1 0 0 1 232 519 )" class="stroke" mask="url(#Clip34)" />
    <path d="M 11.749110107142856 24.713562575757575  C 11.749110107142856 25.544125444444443  11.065980142857143 26.216954414141412  10.224420428571428 26.216954414141412  L 3.319771464285714 26.21695444949495  C 3.319771464285714 26.21695444949495  3.3189674285714283 26.21695444949495  3.3180903214285706 26.21695444949495  L 3.0744338214285705 26.21695444949495  C 2.232874107142856 26.21695444949495  1.5497806785714272 25.544125444444447  1.5497806785714272 24.71356261111111  L 1.5497806785714283 18.125315727272728  C 1.5497806785714283 17.29558493939394  2.232874107142856 16.621887686868686  3.0744338214285714 16.621887686868686  L 10.224456964285714 16.621887686868686  C 11.06601667857143 16.621887686868686  11.749146642857143 17.29558493939394  11.749146642857143 18.125315727272728  L 11.749146642857143 24.713562575757575  Z " stroke-width="0" stroke-dasharray="0" stroke="rgba(255, 255, 255, 0)" fill="none" transform="matrix(1 0 0 1 232 519 )" class="stroke" mask="url(#Clip34)" />
    <path d="M 22.42204757142857 23.5744418989899  C 22.42204757142857 23.072732454545456  21.99613289285714 22.665880363636365  21.46978807142857 22.665880363636365  C 20.94329703571428 22.665880363636365  20.517382357142854 23.072732454545456  20.517382357142854 23.5744418989899  L 20.517382357142854 25.391456434343432  C 20.517382357142854 25.894468267676768  20.94326046428571 26.300813883838384  21.46978807142857 26.300813883838384  C 21.99609639285714 26.300813883838384  22.42204757142857 25.89450446969697  22.42204757142857 25.391456434343432  L 22.42204757142857 23.5744418989899  Z " stroke-width="0" stroke-dasharray="0" stroke="rgba(255, 255, 255, 0)" fill="none" transform="matrix(1 0 0 1 232 519 )" class="stroke" mask="url(#Clip34)" />
    <path d="M 26.480881964285715 22.665012116161616  C 26.480881964285715 22.162940863636365  26.05493075 21.756522949494947  25.527708785714285 21.756522949494947  C 25.00129085714286 21.756522949494947  24.57537617857143 22.162904732323234  24.57537617857143 22.665012116161616  L 24.57537617857143 25.39142026767677  C 24.57537617857143 25.893961792929296  25.001254285714285 26.300054136363638  25.527708785714285 26.300054136363638  C 26.05496732142857 26.300054136363638  26.480881964285715 25.89392562626263  26.480881964285715 25.39142026767677  L 26.480881964285715 22.665012116161616  Z " stroke-width="0" stroke-dasharray="0" stroke="rgba(255, 255, 255, 0)" fill="none" transform="matrix(1 0 0 1 232 519 )" class="stroke" mask="url(#Clip34)" />
    <path d="M 26.480881964285715 17.213462035353537  C 26.480881964285715 16.71088430808081  26.05493075 16.30406841919192  25.527708785714285 16.30406841919192  C 25.00129085714286 16.30406841919192  24.57537617857143 16.71084814141414  24.57537617857143 17.213462035353537  L 24.57537617857143 19.03047657070707  C 24.57537617857143 19.53211368181818  25.001254285714285 19.93896573737374  25.527708785714285 19.93896573737374  C 26.05496732142857 19.93896573737374  26.480881964285715 19.532113646464644  26.480881964285715 19.03047657070707  L 26.480881964285715 17.213462035353537  Z " stroke-width="0" stroke-dasharray="0" stroke="rgba(255, 255, 255, 0)" fill="none" transform="matrix(1 0 0 1 232 519 )" class="stroke" mask="url(#Clip34)" />
    <path d="M 22.42204757142857 17.213823808080807  C 22.42204757142857 16.71171638888889  21.99613289285714 16.3049005  21.46978807142857 16.3049005  C 20.94329703571428 16.3049005  20.517382357142854 16.711716388888888  20.517382357142854 17.213823808080807  L 20.517382357142857 20.8492276010101  C 20.517382357142857 21.350973247474744  20.943260464285714 21.757318828282827  21.469788071428574 21.757318828282827  C 21.996096392857144 21.757318828282827  22.422047571428575 21.351009414141412  22.422047571428575 20.8492276010101  L 22.42204757142857 17.213823808080807  Z " stroke-width="0" stroke-dasharray="0" stroke="rgba(255, 255, 255, 0)" fill="none" transform="matrix(1 0 0 1 232 519 )" class="stroke" mask="url(#Clip34)" />
    <path d="M 18.312961535714283 21.756522949494947  C 18.312998071428574 21.25351108080808  17.88708342857143 20.8492276010101  17.358947785714285 20.8492276010101  C 16.834320642857143 20.8492276010101  16.407492285714284 21.253511080808078  16.407492285714284 21.756522914141414  L 16.407492285714284 25.3914563989899  C 16.407492285714284 25.893997924242424  16.834320607142853 26.300090267676765  17.358947785714285 26.300090267676765  C 17.887083428571426 26.300090267676765  18.312961535714283 25.893961757575756  18.312961535714283 25.3914563989899  L 18.312961535714283 21.756522949494947  Z " stroke-width="0" stroke-dasharray="0" stroke="rgba(255, 255, 255, 0)" fill="none" transform="matrix(1 0 0 1 232 519 )" class="stroke" mask="url(#Clip34)" />
    <path d="M 18.312961535714283 17.213462035353537  C 18.312998071428574 16.71088430808081  17.88708342857143 16.30406841919192  17.358947785714285 16.30406841919192  C 16.834320642857143 16.30406841919192  16.407492285714284 16.71084814141414  16.407492285714284 17.213462035353537  L 16.407492285714284 18.122385343434345  C 16.407492285714284 18.624456560606067  16.834320607142853 19.030476570707076  17.358947785714285 19.030476570707076  C 17.887083428571426 19.030476570707076  18.312961535714283 18.6244565959596  18.312961535714283 18.122385343434345  L 18.312961535714283 17.213462035353537  Z " stroke-width="0" stroke-dasharray="0" stroke="rgba(255, 255, 255, 0)" fill="none" transform="matrix(1 0 0 1 232 519 )" class="stroke" mask="url(#Clip34)" />
  </g>
</svg>