<?xml version="1.0" encoding="utf-8"?>
<svg version="1.1" xmlns:xlink="http://www.w3.org/1999/xlink" width="28px" height="28px" xmlns="http://www.w3.org/2000/svg">
  <defs>
    <pattern id="BGPattern" patternUnits="userSpaceOnUse" alignment="0 0" imageRepeat="None" />
    <mask fill="white" id="Clip41">
      <path d="M 15.75 26.25  C 15.75 27.212500000000034  14.96249999999997 28  14 28  C 6.282499999999985 28  0 21.71750000000003  0 14  C 0 6.28249999999997  6.282499999999985 0  14 0  C 21.7175 0  28 6.28249999999997  28 14  C 28 14.962500000000036  27.212499999999977 15.75  26.25 15.75  C 25.287500000000023 15.75  24.5 14.962500000000036  24.5 14  C 24.5 8.207499999999982  19.792500000000004 3.5  14 3.5  C 8.207499999999996 3.5  3.5 8.207499999999982  3.5 14  C 3.5 19.792500000000018  8.207499999999996 24.5  14 24.5  C 14.96249999999997 24.5  15.75 25.287499999999966  15.75 26.25  Z " fill-rule="evenodd" />
    </mask>
  </defs>
  <g transform="matrix(1 0 0 1 -181 -388 )">
    <path d="M 15.75 26.25  C 15.75 27.212500000000034  14.96249999999997 28  14 28  C 6.282499999999985 28  0 21.71750000000003  0 14  C 0 6.28249999999997  6.282499999999985 0  14 0  C 21.7175 0  28 6.28249999999997  28 14  C 28 14.962500000000036  27.212499999999977 15.75  26.25 15.75  C 25.287500000000023 15.75  24.5 14.962500000000036  24.5 14  C 24.5 8.207499999999982  19.792500000000004 3.5  14 3.5  C 8.207499999999996 3.5  3.5 8.207499999999982  3.5 14  C 3.5 19.792500000000018  8.207499999999996 24.5  14 24.5  C 14.96249999999997 24.5  15.75 25.287499999999966  15.75 26.25  Z " fill-rule="nonzero" fill="rgba(204, 204, 204, 1)" stroke="none" transform="matrix(1 0 0 1 181 388 )" class="fill" />
    <path d="M 15.75 26.25  C 15.75 27.212500000000034  14.96249999999997 28  14 28  C 6.282499999999985 28  0 21.71750000000003  0 14  C 0 6.28249999999997  6.282499999999985 0  14 0  C 21.7175 0  28 6.28249999999997  28 14  C 28 14.962500000000036  27.212499999999977 15.75  26.25 15.75  C 25.287500000000023 15.75  24.5 14.962500000000036  24.5 14  C 24.5 8.207499999999982  19.792500000000004 3.5  14 3.5  C 8.207499999999996 3.5  3.5 8.207499999999982  3.5 14  C 3.5 19.792500000000018  8.207499999999996 24.5  14 24.5  C 14.96249999999997 24.5  15.75 25.287499999999966  15.75 26.25  Z " stroke-width="2" stroke-dasharray="0" stroke="rgba(242, 242, 242, 1)" fill="none" transform="matrix(1 0 0 1 181 388 )" class="stroke" mask="url(#Clip41)" />
  </g>
</svg>