<?xml version="1.0" encoding="utf-8"?>
<svg version="1.1" xmlns:xlink="http://www.w3.org/1999/xlink" width="28px" height="28px" xmlns="http://www.w3.org/2000/svg">
  <defs>
    <pattern id="BGPattern" patternUnits="userSpaceOnUse" alignment="0 0" imageRepeat="None" />
    <mask fill="white" id="Clip510">
      <path d="M 15.875175220930233 1.00064997265625  L 15.875175220930235 26.999350027343752  C 15.875175459975985 27.5523012828338  15.430953082890268 27.999994147240496  14.882977010363575 27.999994147240496  C 14.662310348460725 27.999994147240496  14.44794042023237 27.92585841929294  14.27376693410853 27.78931052734375  L 5.611874441860465 20.99965002734375  L 0.9921984496124033 20.999650027343755  C 0.444222377085716 20.999650027343755  0 20.551957162937054  0 19.99970002734375  L 0 8.000299972656252  C 0 7.44804283706295  0.444222377085716 7.000349972656251  0.9921984496124031 7.000349972656251  L 5.611874441860465 7.000349972656251  L 14.273766934108533 0.21068947265625004  C 14.44794042023237 0.07414158070706683  14.662310348460725 0  14.882977010363575 0  C 15.430953082890266 0  15.875175459975985 0.44769871716621124  15.875175459975985 0.9999558527595132  Z M 14 24.95545223828125  L 14 3.04454776171875  L 6.562400562015505 8.7902605  C 6.38813792346342 8.926559817246524  6.173776366587273 9.000448440506194  5.953190724806201 9.00025  L 1.9843968992248062 9.00025  L 1.9843968992248062 18.99975  L 5.953190724806202 18.999750000000002  C 6.173776366587271 18.99955155949381  6.388137923463421 19.07344018275348  6.562400562015504 19.209739499999998  L 14 24.95545223828125  Z M 19.415339321705428 9.178241078125001  L 19.415339321705424 9.180241  L 19.55424710465116 9.294235289062499  L 22.82056439534884 12.58607068359375  L 26.0868817131783 9.292235394531252  C 26.273190063161113 9.104471510564197  26.5258784120353 8.998986858929054  26.789358207364348 8.998986858929054  C 27.33802647809219 8.998986858929054  27.782809992690556 9.447245244735223  27.782809992690556 10.000199986328127  C 27.782809992690556 10.265738217558182  27.678143051533205 10.52040069415795  27.49183470155039 10.708164578125  L 24.223533019379843 14  L 27.491834701550395 17.291835421875003  C 27.678867810595456 17.479489246917957  27.784012307495274 17.734507429260315  27.784012307495274 18.00048498686557  C 27.784012307495274 18.552742122458874  27.339789930409555 19.00043498686557  26.791813857882868 19.00043498686557  C 26.58947527386962 19.00043498686557  26.391973210406544 18.938089805436555  26.22578949612403 18.821758921875002  L 26.086881713178293 18.70776460546875  L 22.82056439534884 15.41392931640625  L 19.55424710465116 18.70776460546875  C 19.36793875231791 18.89552849543061  19.115250398096393 19.001013150738423  18.85177059689923 19.001013150738423  C 18.303102320873577 19.001013150738423  17.858318801980484 18.552754760603978  17.858318801980484 17.999800013671873  C 17.858318801980484 17.734261783227836  17.962985741514917 17.47959930709926  18.149294089147286 17.291835421875  L 21.417595798449614 14  L 18.14929408914729 10.708164578125002  C 17.962260941816766 10.520510748092537  17.85711642058349 10.265492538777483  17.85711642058349 9.999514950307702  C 17.85711642058349 9.447257814714401  18.301338797669207 8.999564950307702  18.849314870195894 8.999564950307702  C 19.05165349148685 8.999564950307702  19.249155589519088 9.061910154685497  19.415339321705428 9.178241078125001  Z " fill-rule="evenodd" />
    </mask>
  </defs>
  <g transform="matrix(1 0 0 1 -129 -519 )">
    <path d="M 15.875175220930233 1.00064997265625  L 15.875175220930235 26.999350027343752  C 15.875175459975985 27.5523012828338  15.430953082890268 27.999994147240496  14.882977010363575 27.999994147240496  C 14.662310348460725 27.999994147240496  14.44794042023237 27.92585841929294  14.27376693410853 27.78931052734375  L 5.611874441860465 20.99965002734375  L 0.9921984496124033 20.999650027343755  C 0.444222377085716 20.999650027343755  0 20.551957162937054  0 19.99970002734375  L 0 8.000299972656252  C 0 7.44804283706295  0.444222377085716 7.000349972656251  0.9921984496124031 7.000349972656251  L 5.611874441860465 7.000349972656251  L 14.273766934108533 0.21068947265625004  C 14.44794042023237 0.07414158070706683  14.662310348460725 0  14.882977010363575 0  C 15.430953082890266 0  15.875175459975985 0.44769871716621124  15.875175459975985 0.9999558527595132  Z M 14 24.95545223828125  L 14 3.04454776171875  L 6.562400562015505 8.7902605  C 6.38813792346342 8.926559817246524  6.173776366587273 9.000448440506194  5.953190724806201 9.00025  L 1.9843968992248062 9.00025  L 1.9843968992248062 18.99975  L 5.953190724806202 18.999750000000002  C 6.173776366587271 18.99955155949381  6.388137923463421 19.07344018275348  6.562400562015504 19.209739499999998  L 14 24.95545223828125  Z M 19.415339321705428 9.178241078125001  L 19.415339321705424 9.180241  L 19.55424710465116 9.294235289062499  L 22.82056439534884 12.58607068359375  L 26.0868817131783 9.292235394531252  C 26.273190063161113 9.104471510564197  26.5258784120353 8.998986858929054  26.789358207364348 8.998986858929054  C 27.33802647809219 8.998986858929054  27.782809992690556 9.447245244735223  27.782809992690556 10.000199986328127  C 27.782809992690556 10.265738217558182  27.678143051533205 10.52040069415795  27.49183470155039 10.708164578125  L 24.223533019379843 14  L 27.491834701550395 17.291835421875003  C 27.678867810595456 17.479489246917957  27.784012307495274 17.734507429260315  27.784012307495274 18.00048498686557  C 27.784012307495274 18.552742122458874  27.339789930409555 19.00043498686557  26.791813857882868 19.00043498686557  C 26.58947527386962 19.00043498686557  26.391973210406544 18.938089805436555  26.22578949612403 18.821758921875002  L 26.086881713178293 18.70776460546875  L 22.82056439534884 15.41392931640625  L 19.55424710465116 18.70776460546875  C 19.36793875231791 18.89552849543061  19.115250398096393 19.001013150738423  18.85177059689923 19.001013150738423  C 18.303102320873577 19.001013150738423  17.858318801980484 18.552754760603978  17.858318801980484 17.999800013671873  C 17.858318801980484 17.734261783227836  17.962985741514917 17.47959930709926  18.149294089147286 17.291835421875  L 21.417595798449614 14  L 18.14929408914729 10.708164578125002  C 17.962260941816766 10.520510748092537  17.85711642058349 10.265492538777483  17.85711642058349 9.999514950307702  C 17.85711642058349 9.447257814714401  18.301338797669207 8.999564950307702  18.849314870195894 8.999564950307702  C 19.05165349148685 8.999564950307702  19.249155589519088 9.061910154685497  19.415339321705428 9.178241078125001  Z " fill-rule="nonzero" fill="rgba(51, 51, 51, 1)" stroke="none" transform="matrix(1 0 0 1 129 519 )" class="fill" />
    <path d="M 15.875175220930233 1.00064997265625  L 15.875175220930235 26.999350027343752  C 15.875175459975985 27.5523012828338  15.430953082890268 27.999994147240496  14.882977010363575 27.999994147240496  C 14.662310348460725 27.999994147240496  14.44794042023237 27.92585841929294  14.27376693410853 27.78931052734375  L 5.611874441860465 20.99965002734375  L 0.9921984496124033 20.999650027343755  C 0.444222377085716 20.999650027343755  0 20.551957162937054  0 19.99970002734375  L 0 8.000299972656252  C 0 7.44804283706295  0.444222377085716 7.000349972656251  0.9921984496124031 7.000349972656251  L 5.611874441860465 7.000349972656251  L 14.273766934108533 0.21068947265625004  C 14.44794042023237 0.07414158070706683  14.662310348460725 0  14.882977010363575 0  C 15.430953082890266 0  15.875175459975985 0.44769871716621124  15.875175459975985 0.9999558527595132  Z " stroke-width="0" stroke-dasharray="0" stroke="rgba(255, 255, 255, 0)" fill="none" transform="matrix(1 0 0 1 129 519 )" class="stroke" mask="url(#Clip510)" />
    <path d="M 14 24.95545223828125  L 14 3.04454776171875  L 6.562400562015505 8.7902605  C 6.38813792346342 8.926559817246524  6.173776366587273 9.000448440506194  5.953190724806201 9.00025  L 1.9843968992248062 9.00025  L 1.9843968992248062 18.99975  L 5.953190724806202 18.999750000000002  C 6.173776366587271 18.99955155949381  6.388137923463421 19.07344018275348  6.562400562015504 19.209739499999998  L 14 24.95545223828125  Z " stroke-width="0" stroke-dasharray="0" stroke="rgba(255, 255, 255, 0)" fill="none" transform="matrix(1 0 0 1 129 519 )" class="stroke" mask="url(#Clip510)" />
    <path d="M 19.415339321705428 9.178241078125001  L 19.415339321705424 9.180241  L 19.55424710465116 9.294235289062499  L 22.82056439534884 12.58607068359375  L 26.0868817131783 9.292235394531252  C 26.273190063161113 9.104471510564197  26.5258784120353 8.998986858929054  26.789358207364348 8.998986858929054  C 27.33802647809219 8.998986858929054  27.782809992690556 9.447245244735223  27.782809992690556 10.000199986328127  C 27.782809992690556 10.265738217558182  27.678143051533205 10.52040069415795  27.49183470155039 10.708164578125  L 24.223533019379843 14  L 27.491834701550395 17.291835421875003  C 27.678867810595456 17.479489246917957  27.784012307495274 17.734507429260315  27.784012307495274 18.00048498686557  C 27.784012307495274 18.552742122458874  27.339789930409555 19.00043498686557  26.791813857882868 19.00043498686557  C 26.58947527386962 19.00043498686557  26.391973210406544 18.938089805436555  26.22578949612403 18.821758921875002  L 26.086881713178293 18.70776460546875  L 22.82056439534884 15.41392931640625  L 19.55424710465116 18.70776460546875  C 19.36793875231791 18.89552849543061  19.115250398096393 19.001013150738423  18.85177059689923 19.001013150738423  C 18.303102320873577 19.001013150738423  17.858318801980484 18.552754760603978  17.858318801980484 17.999800013671873  C 17.858318801980484 17.734261783227836  17.962985741514917 17.47959930709926  18.149294089147286 17.291835421875  L 21.417595798449614 14  L 18.14929408914729 10.708164578125002  C 17.962260941816766 10.520510748092537  17.85711642058349 10.265492538777483  17.85711642058349 9.999514950307702  C 17.85711642058349 9.447257814714401  18.301338797669207 8.999564950307702  18.849314870195894 8.999564950307702  C 19.05165349148685 8.999564950307702  19.249155589519088 9.061910154685497  19.415339321705428 9.178241078125001  Z " stroke-width="0" stroke-dasharray="0" stroke="rgba(255, 255, 255, 0)" fill="none" transform="matrix(1 0 0 1 129 519 )" class="stroke" mask="url(#Clip510)" />
  </g>
</svg>